<svg width="180" height="180" viewBox="0 0 180 180" fill="none" xmlns="http://www.w3.org/2000/svg">
<circle cx="90" cy="90" r="90" fill="#DCD9F2"/>
<path d="M171.421 179.106C171.421 179.163 133.028 179.212 85.7145 179.212C38.4012 179.212 0 179.163 0 179.106C0 179.048 38.3685 178.999 85.7145 178.999C133.06 178.999 171.421 179.044 171.421 179.106Z" fill="#312C73"/>
<path d="M85.0121 127.365L101.852 179.106H98.7846L79.0571 127.365H85.0121Z" fill="#E0E0E0"/>
<path d="M85.0121 127.365H84.6037H83.46L79.0407 127.389L79.0816 127.328C82.4634 136.138 89.754 155.192 98.2005 177.247C98.4292 177.852 98.658 178.472 98.8867 179.048L98.7887 178.983H101.852L101.75 179.122C97.0487 164.618 92.8541 151.691 89.8357 142.387C88.3327 137.727 87.1237 133.977 86.2905 131.384C85.8821 130.089 85.5553 129.084 85.3348 128.398L85.0897 127.618C85.0366 127.442 85.0121 127.348 85.0121 127.348C85.0121 127.348 85.0448 127.43 85.1019 127.602L85.3593 128.365C85.5839 129.048 85.9147 130.04 86.3395 131.323C87.1891 133.908 88.4144 137.645 89.9419 142.285C92.9848 151.601 97.2121 164.541 101.95 179.044L101.995 179.183H98.7274L98.6988 179.114C98.4742 178.517 98.2413 177.917 98.0126 177.312C89.6193 155.224 82.3695 136.15 79.0244 127.353V127.291H79.0898L83.5336 127.316H84.6649C84.8936 127.357 85.0121 127.365 85.0121 127.365Z" fill="#312C73"/>
<path d="M51.8716 127.365L35.0317 179.106H38.095L57.8266 127.365H51.8716Z" fill="#E0E0E0"/>
<path d="M51.8714 127.365C51.8714 127.365 51.998 127.365 52.2513 127.365H53.3826L57.8264 127.341H57.8918L57.8673 127.402C54.5263 136.2 47.2765 155.273 38.8831 177.362L38.1929 179.163L38.1684 179.232H34.9009L34.9458 179.094L46.9579 142.334L50.5603 131.372C50.9688 130.089 51.3159 129.097 51.5406 128.415L51.7979 127.651C51.8551 127.479 51.8878 127.398 51.8878 127.398C51.8878 127.398 51.8632 127.492 51.8102 127.667L51.5651 128.447C51.3445 129.134 51.0219 130.138 50.6093 131.433C49.7721 134.027 48.5672 137.776 47.0641 142.436C44.0417 151.741 39.8511 164.668 35.15 179.171L35.0479 179.032H38.1112L38.0132 179.098L38.6993 177.296C47.1458 155.241 54.4364 136.171 57.7978 127.381L57.8428 127.443L53.4194 127.418H52.2799L51.8714 127.365Z" fill="#312C73"/>
<path d="M79.4901 128.5C79.3978 128.579 79.2995 128.65 79.196 128.713L78.3301 129.285L75.1403 131.376C72.4487 133.148 68.736 135.607 64.6557 138.344L54.2079 145.389L51.0384 147.517L50.1766 148.064C50.0793 148.137 49.9754 148.2 49.8662 148.252C49.9561 148.172 50.0517 148.098 50.1521 148.032L50.9935 147.431L54.1262 145.25C56.777 143.421 60.457 140.909 64.5413 138.172C68.6257 135.436 72.3466 132.993 75.0627 131.253C76.4187 130.387 77.5133 129.689 78.2893 129.211L79.1756 128.672C79.2759 128.607 79.3811 128.549 79.4901 128.5Z" fill="#312C73"/>
<path d="M47.1823 72.2056C47.1823 72.2056 41.9053 72.7488 41.1374 75.9264C40.3695 79.1041 37.8699 118.404 41.1374 123.971C44.4049 129.538 86.4738 128.762 89.3942 127.998C92.3145 127.234 93.6909 125.339 93.3928 123.023C93.0946 120.707 64.4469 117.836 64.4469 117.836L66.195 76.8209C66.195 76.8209 55.8942 71.6338 47.1823 72.2056Z" fill="#312C73"/>
<path d="M93.4175 124.016H93.2909H92.9151L91.4733 124.053C90.2194 124.085 88.406 124.102 86.1636 124.098C81.6708 124.098 75.483 123.942 68.6581 123.452C65.2476 123.203 62.0005 122.889 59.0557 122.554C56.1109 122.219 53.4642 121.851 51.2505 121.504C50.1395 121.341 49.143 121.165 48.2648 121.018C47.3867 120.871 46.6311 120.736 46.0143 120.609L44.5971 120.336L44.2295 120.262L44.1069 120.23C44.149 120.224 44.1915 120.224 44.2335 120.23L44.6052 120.283L46.0307 120.516C46.6474 120.622 47.403 120.748 48.2852 120.879C49.1675 121.01 50.164 121.181 51.2709 121.332C53.4887 121.663 56.1354 122.002 59.0761 122.337C62.0169 122.672 65.2639 122.97 68.6744 123.219C75.4953 123.71 81.6831 123.877 86.1636 123.926C88.4019 123.95 90.2153 123.955 91.4733 123.95H93.2949L93.4175 124.016Z" fill="#FFCC00"/>
<path d="M87.2418 148.832C87.2091 148.881 80.5434 144.196 72.3584 138.376C64.1733 132.556 57.5607 127.79 57.5934 127.757C57.6261 127.724 64.2917 132.393 72.4809 138.217C80.67 144.041 87.2745 148.783 87.2418 148.832Z" fill="#312C73"/>
<path d="M50.9119 36.9205L47.5423 30.9859C49.6235 27.6068 50.3655 23.5716 49.6224 19.6732C48.8794 15.7749 46.7051 12.2955 43.5269 9.9189C40.3487 7.54232 36.3965 6.44048 32.4471 6.82995C28.4978 7.21942 24.8369 9.07204 22.1842 12.0237C19.5314 14.9753 18.0786 18.8124 18.1114 22.7808C18.1441 26.7491 19.6601 30.5617 22.3612 33.4692C25.0623 36.3766 28.7532 38.1685 32.7084 38.4928C36.6637 38.817 40.5972 37.6501 43.7357 35.2214L50.9119 36.9205Z" fill="white"/>
<path d="M50.9116 36.9207L43.715 35.2869H43.617L43.6782 35.2053L43.7681 35.2951C41.5557 37.0237 38.9244 38.1343 36.1426 38.5136C35.3095 38.632 34.4675 38.6757 33.6266 38.6443C33.1937 38.6198 32.7526 38.6075 32.3074 38.5708L30.9636 38.3706C26.9594 37.585 23.4046 35.3038 21.0223 31.9909C19.6992 30.1635 18.7815 28.0748 18.3307 25.8643C17.8731 23.5197 17.9372 21.1031 18.5185 18.7861C19.1202 16.3678 20.2893 14.1277 21.929 12.2511C23.5937 10.325 25.6941 8.82392 28.0555 7.87269C30.3206 6.97825 32.7578 6.60417 35.1868 6.77808C37.4808 6.9363 39.7118 7.59725 41.7218 8.71407C45.3342 10.7123 48.0418 14.0208 49.2861 17.957C49.7763 19.6372 50.0091 21.3819 49.9763 23.1319C49.8897 25.9232 49.0684 28.6423 47.5951 31.0147V30.9493L50.9116 36.9166C50.6911 36.5408 49.6537 34.7478 47.4889 31.0106V30.982V30.9493C48.9304 28.588 49.7262 25.8894 49.7966 23.1237C49.8233 21.3961 49.5864 19.6745 49.0941 18.0183C47.8646 14.1271 45.1913 10.8546 41.6238 8.87336C39.6406 7.77609 37.4401 7.12905 35.1787 6.97821C32.7868 6.80841 30.3873 7.17831 28.1576 8.06057C25.8338 8.99844 23.7671 10.477 22.1291 12.3737C20.5139 14.2217 19.3629 16.4284 18.7718 18.8106C18.1953 21.0908 18.1298 23.4701 18.5798 25.7785C19.0165 27.9654 19.9161 30.0335 21.2183 31.8438C23.5633 35.1201 27.0686 37.3795 31.0208 38.1623L32.3482 38.3666C32.7893 38.4033 33.2223 38.4156 33.6511 38.4442C34.4821 38.4775 35.3144 38.4379 36.1385 38.3257C38.8947 37.962 41.5064 36.8787 43.7109 35.1848L44.1193 34.8785L43.813 35.2869L43.7763 35.1889L50.9116 36.9207Z" fill="#312C73"/>
<path d="M31.2945 20.5423H32.2992L34.4885 17.4872V15.4817C34.4885 15.4817 36.0405 15.3878 35.8608 18.01C35.6811 20.6321 35.8608 19.9664 35.8608 19.9664C35.8608 19.9664 39.1569 19.9664 39.4305 20.2686C39.6307 20.4728 39.7205 23.7485 39.7532 25.5211C39.776 25.9495 39.6544 26.3732 39.4078 26.7242C39.1612 27.0752 38.8039 27.3333 38.3931 27.4571C38.2774 27.4894 38.1579 27.5059 38.0378 27.5061C37.2209 27.5061 33.0181 26.8363 33.0181 26.8363H31.2822L31.2945 20.5423Z" fill="#FFF3C2"/>
<path d="M28.4189 19.9908L29.0398 26.8567H30.7593V20.1297L28.4189 19.9908Z" fill="#FFF3C2"/>
<path d="M114.452 106.996C114.452 106.996 123.903 106.996 124.291 115.802C124.679 124.608 96.779 171.063 96.779 171.063L87.9445 166.869L106.888 121.79L65.7827 117.746L66.9468 107.404L114.452 106.996Z" fill="#FFBE9D"/>
<path d="M98.6459 168.384L98.3722 169.009C98.3722 169.009 107.031 177.913 106.255 179.963L85.3799 170.569L88.7903 163.748C91.245 166.587 94.4227 168.213 98.6459 168.384Z" fill="#FFCC00"/>
<g opacity="0.6">
<path d="M89.9052 166.926C89.6769 166.897 89.4459 166.953 89.2562 167.084C89.0665 167.214 88.9312 167.409 88.8759 167.633C88.8381 167.86 88.8891 168.093 89.0183 168.284C89.1476 168.475 89.3452 168.609 89.5703 168.658C89.8121 168.687 90.0563 168.627 90.2561 168.487C90.4558 168.348 90.5971 168.139 90.6526 167.902C90.6686 167.661 90.5901 167.424 90.4337 167.24C90.2774 167.056 90.0556 166.941 89.8153 166.918" fill="white"/>
</g>
<g opacity="0.6">
<path d="M85.3799 170.573L86.1968 168.94L105.904 178.542C105.904 178.542 106.651 179.359 106.251 179.971L85.3799 170.573Z" fill="white"/>
</g>
<path d="M98.4166 169.099C98.3676 169.197 97.8366 169.017 97.1913 169.119C96.546 169.221 96.0804 169.528 96.0028 169.446C95.9252 169.364 96.3459 168.841 97.1341 168.731C97.9224 168.621 98.482 169.013 98.4166 169.099Z" fill="#312C73"/>
<path d="M100.202 170.99C100.181 171.096 99.6585 171.071 99.1193 171.349C98.5802 171.627 98.2739 172.035 98.1758 171.986C98.0778 171.937 98.2698 171.329 98.9478 170.998C99.6258 170.667 100.243 170.892 100.202 170.99Z" fill="#312C73"/>
<path d="M100.267 174.168C100.165 174.168 100.267 173.575 100.761 173.134C101.256 172.693 101.852 172.689 101.856 172.791C101.86 172.893 101.448 173.061 101.039 173.428C100.631 173.796 100.373 174.204 100.267 174.168Z" fill="#312C73"/>
<path d="M96.5707 73.7943L98.2494 78.9283L89.0963 79.6431L88.0303 76.8943L96.5707 73.7943Z" fill="#FFBE9D"/>
<path d="M122.56 80.5293C122.735 80.8806 123.193 80.9377 123.544 81.1215C123.871 81.3088 124.139 81.5843 124.318 81.9164C124.496 82.2486 124.578 82.6241 124.553 83.0003C124.494 83.7527 124.245 84.4778 123.83 85.1079C123.702 85.3639 123.516 85.5864 123.287 85.7573C123.171 85.8381 123.032 85.8814 122.891 85.8814C122.749 85.8814 122.611 85.8381 122.494 85.7573C122.225 85.5326 122.258 85.116 122.315 84.7689C122.531 83.466 122.249 81.82 122.556 80.5334" fill="#FFBE9D"/>
<path d="M61.686 16.1558C61.6084 15.583 61.7482 15.002 62.0778 14.5272C62.4075 14.0524 62.903 13.7183 63.4667 13.5908L73.5715 7.162C77.423 6.29611 82.2752 12.729 82.9655 16.6091C83.663 20.8738 83.9366 25.1971 83.7824 29.5157C83.5046 36.1569 79.1507 36.8676 79.1507 36.8676L82.4182 58.9517L66.673 49.2432L61.686 16.1558Z" fill="#FFBE9D"/>
<path d="M80.8663 22.1187C80.8933 22.3359 80.8346 22.5551 80.7027 22.7297C80.5708 22.9043 80.376 23.0207 80.1597 23.0541C79.9469 23.0934 79.7271 23.0467 79.5487 22.9242C79.3703 22.8017 79.2478 22.6133 79.2081 22.4006C79.1811 22.1834 79.2398 21.9642 79.3717 21.7896C79.5036 21.615 79.6984 21.4986 79.9147 21.4652C80.1275 21.4259 80.3473 21.4726 80.5257 21.5951C80.7042 21.7176 80.8267 21.906 80.8663 22.1187Z" fill="#312C73"/>
<path d="M82.1652 19.7337C82.0835 19.8235 81.4136 19.8113 80.5682 20.1421C79.7227 20.473 79.1631 20.9141 79.0569 20.8896C78.9508 20.8651 79.0569 20.7466 79.3143 20.5424C79.6691 20.2525 80.0711 20.026 80.5028 19.8726C80.9147 19.714 81.3521 19.6324 81.7935 19.6316C82.0875 19.6234 82.206 19.6928 82.1652 19.7337Z" fill="#312C73"/>
<path d="M72.5016 22.523C72.5274 22.7406 72.4678 22.9598 72.3352 23.1343C72.2026 23.3088 72.0075 23.4249 71.7909 23.4584C71.5787 23.4965 71.36 23.4493 71.1825 23.3269C71.0049 23.2044 70.883 23.0168 70.8433 22.8049C70.8153 22.5875 70.8735 22.3678 71.0056 22.1929C71.1378 22.018 71.3332 21.9019 71.5499 21.8695C71.7628 21.8302 71.9825 21.8769 72.161 21.9994C72.3394 22.1219 72.4619 22.3102 72.5016 22.523Z" fill="#312C73"/>
<path d="M73.3798 21.4449C73.2572 21.4939 72.6282 21.1181 71.6521 20.9752C70.6759 20.8322 69.9121 20.9752 69.8182 20.9098C69.7243 20.8445 69.9121 20.775 70.2266 20.6974C70.7166 20.6001 71.22 20.5904 71.7133 20.6688C72.1915 20.7343 72.6529 20.8895 73.0734 21.1263C73.3634 21.2937 73.4574 21.4244 73.3798 21.4449Z" fill="#312C73"/>
<path d="M77.3662 26.9997C77.822 26.7934 78.3024 26.6465 78.7957 26.5627C79.0203 26.5137 79.2327 26.4442 79.2531 26.2809C79.246 26.0415 79.1646 25.8103 79.0203 25.6192C78.748 25.0746 78.454 24.5178 78.1381 23.9487C76.9128 21.5675 75.9816 19.5988 76.0959 19.5498C76.2103 19.5008 77.2722 21.3919 78.5057 23.7731L79.3593 25.4558C79.5368 25.7169 79.6163 26.0322 79.584 26.3462C79.5598 26.431 79.5168 26.5092 79.458 26.575C79.3993 26.6408 79.3265 26.6924 79.245 26.7261C79.1215 26.7744 78.9926 26.8073 78.861 26.8241C78.372 26.9448 77.8698 27.0038 77.3662 26.9997Z" fill="#312C73"/>
<path d="M79.1467 36.8836C76.0959 37.3347 72.9798 36.9098 70.1611 35.6583C70.1611 35.6583 72.8446 40.2492 79.2979 38.8768L79.1467 36.8836Z" fill="#EB996E"/>
<path d="M77.4683 29.2011C77.2487 28.9149 76.9678 28.6817 76.6462 28.5184C76.3246 28.3551 75.9705 28.266 75.6099 28.2576C75.4015 28.2619 75.1992 28.3295 75.03 28.4513C74.8608 28.5731 74.7326 28.7434 74.6623 28.9397C74.5918 29.1932 74.5835 29.4601 74.6383 29.7175C74.693 29.9749 74.8092 30.2153 74.9768 30.4182C75.1415 30.6329 75.3653 30.7948 75.6207 30.884C75.8761 30.9733 76.152 30.986 76.4145 30.9206C76.8406 30.7448 77.2036 30.4444 77.456 30.0588C77.5476 29.9606 77.6135 29.8413 77.648 29.7116C77.6629 29.6298 77.6597 29.5456 77.6385 29.4652C77.6174 29.3847 77.5788 29.3099 77.5255 29.246" fill="#EB996E"/>
<path d="M74.7887 27.9307C74.9357 27.9021 75.0501 28.8783 75.965 29.4746C76.8799 30.0709 77.9091 29.8422 77.9336 29.977C77.9336 30.0383 77.7253 30.1935 77.2842 30.2588C76.7138 30.3331 76.1355 30.2045 75.6505 29.8953C75.1848 29.596 74.8537 29.1273 74.7274 28.5883C74.6416 28.1676 74.7233 27.9307 74.7887 27.9307Z" fill="#312C73"/>
<path d="M73.6659 17.4298C73.5801 17.6749 72.6734 17.5728 71.6237 17.7198C70.574 17.8669 69.7081 18.165 69.5611 17.9486C69.4958 17.8424 69.6428 17.6096 69.9695 17.3645C70.4264 17.0629 70.9459 16.8693 71.4887 16.7985C72.0315 16.7278 72.5834 16.7816 73.1022 16.9561C73.5025 17.1399 73.7026 17.3114 73.6659 17.4298Z" fill="#312C73"/>
<path d="M82.2141 17.7199C82.0385 17.9445 81.2461 17.822 80.319 17.9159C79.3918 18.0099 78.624 18.2468 78.4198 18.0507C78.3258 17.9568 78.4198 17.7362 78.7506 17.5075C79.2002 17.2193 79.713 17.0442 80.245 16.9973C80.777 16.9504 81.3125 17.0329 81.8057 17.2379C82.1569 17.4136 82.2876 17.6096 82.2141 17.7199Z" fill="#312C73"/>
<path d="M57.2546 33.1301C57.418 30.1689 57.8917 20.6891 59.8032 15.5183C61.7147 10.3475 64.4063 8.03167 67.1755 6.94114C68.2214 6.49426 69.3649 6.32488 70.4954 6.44938C71.626 6.57388 72.7052 6.98805 73.6288 7.65182C75.0502 8.65658 75.8752 11.9649 75.8752 11.9649C75.8752 11.9649 69.1564 14.2848 67.298 18.4999C65.1456 23.3194 64.7616 25.6639 64.7616 25.6639L64.1817 28.2329C64.1817 28.2329 65.4437 39.3996 66.0115 41.7113L56.9033 50.5172C57.2015 47.6092 57.0912 36.0872 57.2546 33.1301Z" fill="#312C73"/>
<path d="M76.0753 11.9815C76.0753 11.9815 79.9677 11.1034 81.9323 15.3879C82.8227 17.328 83.7049 23.2013 83.7049 23.2013C83.7049 23.2013 84.0357 18.4022 83.5211 15.7922C83.0065 13.1823 81.3115 9.99653 79.0814 8.38321C76.8513 6.76988 75.1604 6.16131 71.6724 6.77397C72.7227 7.03659 73.6763 7.59344 74.4211 8.37912C74.948 8.99586 75.2094 9.54317 76.0753 11.9815Z" fill="#312C73"/>
<path d="M64.835 25.9827C64.5981 24.545 62.9153 23.7608 61.7472 24.6307C61.1059 25.1045 60.673 25.9622 60.9099 27.4898C61.5471 31.5742 65.4966 30.0793 65.4844 29.9649C65.4721 29.8506 65.1127 27.6613 64.835 25.9827Z" fill="#FFBE9D"/>
<path d="M64.0018 28.6131C64.0018 28.6131 63.9406 28.6743 63.8303 28.7478C63.6713 28.8445 63.4818 28.878 63.2993 28.8418C62.846 28.7519 62.3804 28.1229 62.2456 27.3959C62.1802 27.0488 62.1942 26.6913 62.2864 26.3503C62.3031 26.2169 62.3525 26.0897 62.4302 25.98C62.5078 25.8703 62.6114 25.7814 62.7316 25.7213C62.8101 25.6883 62.8976 25.6833 62.9794 25.7071C63.0612 25.7309 63.1323 25.7821 63.1809 25.852C63.2544 25.9582 63.2381 26.0399 63.2626 26.044C63.2871 26.0481 63.3402 25.9623 63.2626 25.7989C63.2245 25.7017 63.1537 25.6209 63.0624 25.5702C62.9369 25.5037 62.7903 25.489 62.654 25.5294C62.4918 25.5889 62.3474 25.6887 62.2345 25.8195C62.1216 25.9503 62.0439 26.1077 62.0087 26.2768C61.8914 26.6549 61.869 27.0561 61.9433 27.4449C62.0944 28.2618 62.6336 28.9643 63.2503 29.0419C63.3641 29.0564 63.4796 29.0451 63.5884 29.0091C63.6973 28.973 63.7967 28.9131 63.8793 28.8336C64.01 28.7111 64.0182 28.6171 64.0018 28.6131Z" fill="#EB996E"/>
<path d="M68.7808 6.49201C68.7808 6.52468 69.3444 6.443 70.243 6.45933C70.7687 6.46965 71.2896 6.56198 71.7869 6.73299C72.3908 6.95632 72.9456 7.29477 73.4206 7.72957C74.2996 8.51517 74.9847 9.49378 75.4219 10.5886C75.7569 11.4055 75.8304 11.9855 75.8794 11.9773C75.8735 11.8464 75.8543 11.7164 75.8222 11.5893C75.4966 10.0591 74.6893 8.67346 73.5186 7.63563C73.0288 7.18182 72.4522 6.83172 71.8236 6.60637C71.313 6.43552 70.7773 6.35131 70.2389 6.35722C69.8783 6.35707 69.5182 6.38027 69.1606 6.42666C69.0324 6.43789 68.9053 6.45975 68.7808 6.49201Z" fill="#FFCC00"/>
<path d="M61.3924 29.3686C61.3939 29.3454 61.3939 29.3222 61.3924 29.2991L61.3352 29.1153C61.3066 29.0296 61.278 28.9275 61.2413 28.8131L61.131 28.4047C60.9083 27.5118 60.8148 26.5916 60.8532 25.6722C60.9052 24.3084 61.2404 22.9703 61.8376 21.7431C62.6009 20.2572 63.6899 18.963 65.0234 17.9568C65.7077 17.4287 66.4238 16.9431 67.1677 16.5028C67.8865 16.0699 68.6095 15.7104 69.2793 15.3102C70.4507 14.5955 71.565 13.7912 72.6121 12.9045C73.5066 12.1489 74.1969 11.4995 74.6543 11.042C74.8871 10.8133 75.0627 10.6336 75.1812 10.507L75.316 10.364C75.3446 10.3313 75.3609 10.315 75.3568 10.3109L75.3078 10.3518L75.1608 10.4865L74.6216 11.0134C74.1438 11.4586 73.4453 12.0958 72.5427 12.8351C71.4918 13.7071 70.3778 14.5003 69.2099 15.2081C68.5482 15.6165 67.8171 15.9555 67.0942 16.3925C66.343 16.8326 65.6213 17.3211 64.9335 17.8547C63.5776 18.8705 62.4713 20.1822 61.6987 21.69C61.0995 22.9343 60.771 24.2916 60.7348 25.6722C60.7067 26.5993 60.8154 27.5256 61.0575 28.421L61.18 28.8294C61.2249 28.9438 61.2617 29.0418 61.2903 29.1276L61.3638 29.3114C61.3801 29.3481 61.3883 29.3686 61.3924 29.3686Z" fill="#FFCC00"/>
<path d="M60.2686 27.9309C60.2686 27.9309 60.2686 27.9064 60.2686 27.8655L60.2441 27.6695C60.2441 27.4979 60.1787 27.2611 60.1461 26.9221C60.0498 26.0021 60.0348 25.0754 60.1011 24.1529C60.2009 22.7865 60.4754 21.4385 60.918 20.142C61.4709 18.5585 62.2779 17.0755 63.3074 15.7513C64.3675 14.4426 65.6047 13.2879 66.9833 12.3204C68.2086 11.4055 69.4339 10.6867 70.4101 10.0414C71.3862 9.39604 72.199 8.90183 72.7423 8.52607C73.0159 8.34636 73.2201 8.19524 73.359 8.09313L73.5183 7.97877L73.5714 7.93384C73.5714 7.93384 73.5469 7.93384 73.5101 7.96651L73.3427 8.06862L72.7096 8.47706C72.1623 8.8324 71.3536 9.33478 70.3529 9.94743C69.3522 10.5601 68.1596 11.2953 66.9016 12.2102C65.5201 13.1788 64.2825 14.338 63.2257 15.6533C62.1757 16.9901 61.3545 18.4917 60.7955 20.0971C60.3477 21.4062 60.0731 22.7684 59.9786 24.1488C59.9218 25.0754 59.9533 26.0054 60.0725 26.9261C60.1134 27.2529 60.1706 27.502 60.1992 27.6736C60.1992 27.7512 60.2278 27.8165 60.24 27.8655C60.2523 27.9146 60.2645 27.9309 60.2686 27.9309Z" fill="#FFCC00"/>
<path d="M82.0752 43.6596C82.0752 43.6596 87.3399 45.7998 88.3488 48.5404C89.3576 51.281 97.0117 73.9125 97.0117 73.9125L88.1282 77.3189L84.0765 58.6942L82.0752 43.6596Z" fill="#FFCC00"/>
<path d="M54.857 107.927C54.857 107.927 109.179 105.432 112.59 106.33C116 107.229 118.038 108.948 118.716 113.037C119.394 117.125 129.866 171.292 129.866 171.292L120.342 174.094C120.342 174.094 106.978 143.584 106.41 138.478C105.842 133.373 103.959 122.909 103.959 122.909C103.959 122.909 83.3087 123.248 68.1026 122.909C52.8965 122.57 54.9387 108.495 54.9387 108.495L54.857 107.927Z" fill="#FFBE9D"/>
<path d="M120.223 174.339L120.154 174.176C119.607 172.926 106.774 143.58 106.21 138.499C105.687 133.814 104.041 124.489 103.796 123.113C101.754 123.145 82.4062 123.431 68.1069 123.113C63.3813 123.007 59.8238 121.573 57.5243 118.857C54.0444 114.744 54.6652 108.985 54.7428 108.499L54.6162 107.735H54.8449C57.0668 107.633 109.245 105.248 112.643 106.146C116.458 107.155 118.275 109.144 118.92 113.012C119.59 117.048 129.948 170.724 130.071 171.267L130.103 171.447L120.223 174.339ZM104.135 122.7L104.168 122.872C104.188 122.974 106.055 133.401 106.618 138.454C107.153 143.277 119.398 171.419 120.46 173.845L129.638 171.149C128.968 167.681 119.174 116.99 118.52 113.069C117.908 109.393 116.176 107.49 112.541 106.534C109.322 105.681 58.9497 107.952 55.0982 108.127L55.1594 108.499V108.528C55.1594 108.589 54.3426 114.466 57.8469 118.6C60.0688 121.222 63.5242 122.602 68.1232 122.708C83.1496 123.043 103.763 122.708 103.972 122.708L104.135 122.7Z" fill="#EB996E"/>
<path d="M58.5249 78.6302L59.8932 87.093C59.8932 87.093 53.9504 98.3536 53.2806 108.034C52.962 112.633 55.6005 122.051 55.6005 122.051C55.6005 122.051 76.5288 124.351 87.818 124.056L99.8628 123.53L101.987 104.713L88.4674 102.761L88.6716 77.119C88.6716 77.119 91.1222 70.3675 91.3101 68.3703C91.7431 64.1552 91.5634 59.8911 87.3524 54.4262L82.0754 43.6599L80.315 42.843L81.1523 55.8844L65.983 41.4706L58.3003 44.2276L56.1233 54.4998L58.5249 78.6302Z" fill="#FFCC00"/>
<g opacity="0.3">
<path d="M84.8198 105.877C83.8355 106.048 76.7328 106.151 75.7484 106.322C75.581 106.373 75.4048 106.39 75.2306 106.371C75.0565 106.352 74.888 106.298 74.7355 106.212C74.6126 106.095 74.5274 105.945 74.491 105.78C74.4546 105.614 74.4686 105.442 74.5313 105.285C74.6615 104.968 74.8661 104.688 75.1276 104.468C76.8471 102.834 79.0813 101.891 81.2542 100.967C81.9485 100.677 82.7 100.379 83.427 100.559C83.7835 100.677 84.1059 100.88 84.3664 101.15C84.6268 101.421 84.8175 101.75 84.9219 102.111C85.129 102.831 85.2146 103.581 85.1752 104.329" fill="black"/>
</g>
<g opacity="0.3">
<path d="M59.0844 84.5321C61.6208 83.9399 63.2137 81.4403 64.243 79.0468C65.2723 76.6534 66.1218 74.0108 68.1395 72.3607C69.618 71.1354 71.5989 70.5963 72.8773 69.1749C73.485 68.4787 73.8879 67.6277 74.0415 66.7165C74.195 65.8052 74.0932 64.8692 73.7473 64.0123C73.3797 63.1382 72.6405 62.3132 71.7051 62.2642C70.6024 62.207 69.7446 63.1627 69.0707 64.0409C65.9884 68.0789 63.0817 72.245 60.3506 76.539C58.8843 78.8467 57.4221 81.6486 58.4432 84.185" fill="black"/>
</g>
<path d="M59.1009 45.5753C59.1009 45.5753 54.8082 46.9395 53.2562 49.6311C51.7041 52.3227 49.1309 65.3927 48.5101 68.9134C47.8893 72.4341 44.8873 86.9213 48.5101 89.2004C52.133 91.4795 56.8953 87.9751 58.137 85.888C59.3786 83.8009 64.4473 72.9487 64.4473 72.9487L59.8933 69.1217C59.8933 69.1217 60.7101 58.7719 60.412 56.5949C60.1138 54.418 59.1009 45.5753 59.1009 45.5753Z" fill="#FFBE9D"/>
<path d="M45.6387 72.4464L55.6004 73.0958L60.1504 67.7534L61.4084 59.3396L61.0735 43.2432C61.0735 43.2432 52.1818 45.412 50.2581 52.1716C48.8326 57.1668 45.6387 72.4464 45.6387 72.4464Z" fill="#FFCC00"/>
<path d="M63.2669 53.4091C62.6951 53.3315 61.964 54.0054 62.4501 55.631C62.8585 56.987 63.6264 58.3063 63.5692 59.0619C63.512 59.8175 63.2179 61.39 63.2179 62.2068C63.1824 63.0055 63.1047 63.8017 62.9851 64.5921L56.2051 72.7608L62.0743 77.9398L66.7182 70.6451C66.7182 70.6451 68.1192 70.8779 68.932 69.9467L70.1573 68.5458C70.1573 68.5458 73.3022 67.3817 72.661 65.6867C72.661 65.6867 73.5922 64.8004 72.7468 63.3791C72.7468 63.3791 73.1879 61.9005 72.5466 61.0305C72.5466 61.0305 72.4894 59.0496 71.9626 58.6984C71.4357 58.3471 65.9871 58.2899 65.9871 58.2899C65.6904 57.3843 65.3482 56.4941 64.962 55.6228C64.3656 54.6385 64.0634 53.5153 63.2669 53.4091Z" fill="#FFBE9D"/>
<path d="M65.5866 61.4432C65.5866 61.4636 65.4437 61.386 65.3171 61.1941C65.1521 60.9354 65.08 60.6283 65.1127 60.3232C65.1453 60.0182 65.2808 59.7333 65.4968 59.5154C65.6601 59.3561 65.799 59.3071 65.8113 59.3275C65.5684 59.6216 65.4015 59.9708 65.3252 60.3445C65.3256 60.7261 65.4151 61.1023 65.5866 61.4432Z" fill="#EB996E"/>
<path d="M72.3181 60.8835C71.4967 61.1229 70.6517 61.2722 69.798 61.3287C68.9515 61.4518 68.094 61.4805 67.2412 61.4144C68.0805 61.2683 68.9273 61.1688 69.7776 61.1163C70.6193 60.9902 71.4675 60.9125 72.3181 60.8835Z" fill="#EB996E"/>
<path d="M72.7997 63.2199C72.1227 63.4948 71.408 63.6656 70.6799 63.7264C69.962 63.8592 69.2282 63.884 68.5029 63.7999C68.5029 63.7386 69.4668 63.6773 70.6513 63.514C71.8358 63.3506 72.7874 63.1627 72.7997 63.2199Z" fill="#EB996E"/>
<path d="M72.6811 65.6173C71.6243 65.9414 70.5134 66.0511 69.4136 65.94C69.9509 65.8225 70.4977 65.7528 71.0473 65.7317C71.5876 65.6462 72.1342 65.608 72.6811 65.6173Z" fill="#EB996E"/>
<path d="M67.535 66.3525C67.535 66.377 67.4207 66.3525 67.2818 66.2749C67.0988 66.1501 66.9702 65.9602 66.9224 65.7439C66.87 65.53 66.8992 65.3044 67.0041 65.1108C67.0858 64.9679 67.1756 64.9107 67.196 64.927C67.2165 64.9434 67.0286 65.2824 67.1266 65.6949C67.2246 66.1074 67.5636 66.2994 67.535 66.3525Z" fill="#EB996E"/>
<path d="M66.1953 64.4082C66.1953 64.4286 66.0605 64.3592 65.9339 64.1835C65.7713 63.9515 65.6779 63.6782 65.6643 63.3953C65.6475 63.1116 65.7097 62.8288 65.844 62.5784C65.9543 62.3905 66.0605 62.3088 66.0809 62.3252C65.956 62.663 65.887 63.0189 65.8767 63.3789C65.9288 63.7365 66.0363 64.0837 66.1953 64.4082Z" fill="#EB996E"/>
<path d="M71.0065 68.1946C70.7103 68.3516 70.385 68.4461 70.0508 68.4723C69.7272 68.5654 69.3876 68.5891 69.0542 68.5418C69.3497 68.383 69.6754 68.2884 70.0099 68.264C70.3331 68.1685 70.6732 68.1448 71.0065 68.1946Z" fill="#EB996E"/>
<path d="M68.3804 58.3267C68.3804 58.388 67.5636 58.388 66.5302 58.4901C65.4969 58.5922 64.7004 58.7515 64.6841 58.6943C65.263 58.4491 65.8816 58.3107 66.5098 58.2859C67.1308 58.1887 67.7642 58.2025 68.3804 58.3267Z" fill="#EB996E"/>
<path d="M86.3149 77.9601H120.076C120.672 77.9601 121.243 78.1968 121.665 78.618C122.086 79.0393 122.323 79.6107 122.323 80.2065V104.137H84.0767V80.2024C84.0777 79.6087 84.3138 79.0396 84.7332 78.6195C85.1526 78.1993 85.7212 77.9622 86.3149 77.9601Z" fill="#E0E0E0"/>
<path d="M122.323 105.877H77.3945C77.3945 105.42 77.5761 104.981 77.8994 104.658C78.2226 104.335 78.661 104.153 79.1181 104.153H122.323V105.877Z" fill="#E0E0E0"/>
<path d="M120.91 79.6431H85.2368V104.153H120.91V79.6431Z" fill="white"/>
<path d="M120.905 104.137C120.905 104.137 120.905 103.982 120.905 103.688C120.905 103.394 120.905 102.952 120.905 102.389C120.905 101.249 120.905 99.5829 120.881 97.4508C120.881 93.1867 120.856 87.0724 120.836 79.6266L120.921 79.7124H85.2527L85.3589 79.6062C85.3589 88.359 85.3589 96.6707 85.3589 104.112L85.265 104.014L110.96 104.063L118.312 104.092H120.268H120.77H120.946H120.783H120.288H118.352L111.037 104.117L85.2772 104.166H85.1792V104.137C85.1792 96.6911 85.1792 88.3794 85.1792 79.6307V79.5245H85.2854H120.954H121.04V79.6307C121.04 87.0969 121.007 93.2317 120.995 97.508C120.995 99.6319 120.995 101.29 120.995 102.409C120.995 102.969 120.995 103.398 120.995 103.692C120.995 103.986 120.905 104.137 120.905 104.137Z" fill="#312C73"/>
<path d="M122.135 104.137C122.135 104.198 112.492 104.243 100.598 104.243C88.7044 104.243 79.0571 104.198 79.0571 104.137C79.0571 104.076 88.7003 104.031 100.598 104.031C112.496 104.031 122.135 104.096 122.135 104.137Z" fill="#312C73"/>
<path d="M103.069 101.274C108.246 101.274 112.443 97.077 112.443 91.9001C112.443 86.7232 108.246 82.5265 103.069 82.5265C97.892 82.5265 93.6953 86.7232 93.6953 91.9001C93.6953 97.077 97.892 101.274 103.069 101.274Z" fill="#FFF3C2"/>
<path d="M97.2446 92.1289L99.2296 90.2501L101.97 92.7743L107.366 87.6974L109.326 89.5517L101.942 96.5605L97.2446 92.1289Z" fill="white"/>
<path d="M62.9934 64.592C63.0383 64.6288 60.2242 68.027 56.7076 72.1767C53.1909 76.3264 50.3033 79.6593 50.2583 79.6307C50.2134 79.6021 53.0275 76.1998 56.5442 72.046C60.0608 67.8922 62.9485 64.5553 62.9934 64.592Z" fill="#EB996E"/>
<path d="M62.507 59.3275C62.4152 60.5124 62.2529 61.6907 62.021 62.8563C61.8602 64.0347 61.6283 65.2022 61.3267 66.3526C61.4183 65.1663 61.5806 63.9865 61.8127 62.8196C61.9761 61.643 62.208 60.477 62.507 59.3275Z" fill="#312C73"/>
<path d="M88.6718 77.1189C88.6864 77.0354 88.7082 76.9534 88.7371 76.8738L88.9577 76.1876C89.1537 75.5954 89.4437 74.7377 89.7745 73.6716C90.1696 72.4262 90.4995 71.1611 90.763 69.8814C91.092 68.3189 91.2387 66.7235 91.2 65.1272C91.0524 62.2207 90.2361 59.3876 88.8147 56.8481C88.3926 56.0749 87.929 55.325 87.426 54.6017C87.2545 54.3444 87.1075 54.1525 87.0176 54.0177C86.965 53.9506 86.9198 53.878 86.8828 53.8012C86.9452 53.8577 87.0013 53.9207 87.0503 53.9891C87.1565 54.1198 87.3158 54.3036 87.4996 54.5568C88.0304 55.2647 88.5161 56.0055 88.9536 56.7746C89.6037 57.9197 90.1386 59.1264 90.5506 60.377C91.063 61.909 91.3585 63.5051 91.4287 65.119C91.4699 66.7326 91.3163 68.3453 90.9713 69.9222C90.6963 71.2053 90.35 72.4721 89.9338 73.7166C89.5826 74.7785 89.2722 75.6321 89.0516 76.2162C88.9454 76.4885 88.8596 76.7131 88.7943 76.8901C88.7629 76.9711 88.7218 77.0479 88.6718 77.1189Z" fill="#312C73"/>
<path d="M79.9922 64.4001C80.0089 64.5904 80.0089 64.7817 79.9922 64.972C79.9916 65.1961 79.9752 65.4199 79.9432 65.6418C79.9137 65.938 79.8687 66.2325 79.8084 66.524C79.743 66.8776 79.6557 67.2268 79.547 67.5696C79.4319 67.9674 79.2955 68.3587 79.1385 68.7418C78.7616 69.6061 78.2933 70.4277 77.7417 71.1924C77.1763 71.9557 76.5284 72.6543 75.8098 73.2755C75.4948 73.5445 75.1648 73.7954 74.8214 74.027C74.5275 74.2357 74.2206 74.4254 73.9024 74.5947C73.6386 74.7472 73.3658 74.8836 73.0855 75.0032C72.8848 75.1009 72.6773 75.1842 72.4647 75.2523C72.2879 75.3251 72.1046 75.3812 71.9174 75.4198C71.897 75.3748 72.6812 75.1339 73.8084 74.4763C74.1168 74.2991 74.4154 74.1055 74.7029 73.8963C75.0215 73.6839 75.3278 73.4143 75.6627 73.1407C77.0701 71.9025 78.1859 70.3682 78.9302 68.6479C79.086 68.274 79.2223 67.8923 79.3387 67.5043C79.4515 67.1666 79.5456 66.823 79.6205 66.475C79.9595 65.217 79.9513 64.4001 79.9922 64.4001Z" fill="#312C73"/>
<path d="M91.22 68.1128C91.1967 68.0903 91.1774 68.0641 91.1628 68.0352L91.0198 67.786C90.8851 67.5614 90.7013 67.2551 90.4685 66.8752C90.2356 66.4954 89.8721 66.0297 89.4923 65.4988C89.1124 64.9678 88.6305 64.3878 88.1199 63.7384C86.0206 61.1734 82.9205 57.8038 79.3671 54.2055C75.8138 50.6072 72.4768 47.4704 70.0303 45.2199L68.3639 43.7291C67.8737 43.2962 67.449 42.9122 67.0936 42.6182L66.2768 41.9279L66.0685 41.7441C66.0416 41.725 66.0181 41.7016 65.999 41.6747C66.0283 41.6891 66.0557 41.7069 66.0807 41.7278C66.142 41.7727 66.2155 41.8258 66.3013 41.8952L67.1426 42.5528L68.4374 43.6393C68.9398 44.0722 69.5034 44.5664 70.1242 45.1096C72.6034 47.3152 75.9485 50.4479 79.5183 54.0421C83.088 57.6364 86.1635 61.0346 88.2343 63.6281C88.7408 64.2857 89.1982 64.878 89.5903 65.4089L90.5379 66.8139C90.7544 67.2224 90.9463 67.5165 91.0566 67.7493L91.1873 67.9943C91.2145 68.0733 91.2254 68.1128 91.22 68.1128Z" fill="#312C73"/>
<path d="M83.2886 87.0071C83.2136 87.0333 83.1351 87.0484 83.0558 87.052L82.39 87.1459C81.81 87.2235 80.9646 87.3134 79.9394 87.4073C77.8523 87.5952 74.9565 87.7463 71.7707 87.7096C68.5849 87.6728 65.6768 87.44 63.6019 87.2031C62.5604 87.0847 61.719 86.9703 61.1513 86.8764L60.4856 86.7702C60.4075 86.7616 60.3307 86.7438 60.2568 86.7171C60.3355 86.7072 60.4151 86.7072 60.4937 86.7171L61.1636 86.7865C61.7435 86.856 62.589 86.9458 63.6142 87.0438C65.6931 87.244 68.5808 87.4523 71.7829 87.489C74.9851 87.5258 77.8645 87.3951 79.9516 87.2481C80.9932 87.1745 81.8386 87.1092 82.4023 87.0561L83.0721 87.003C83.1442 86.9968 83.2168 86.9982 83.2886 87.0071Z" fill="#312C73"/>
<path d="M100.978 77.9318C100.978 77.9318 107.668 75.3219 108.301 75.1136C108.934 74.9053 114.783 74.4478 114.783 74.4478L122.322 77.1558C122.322 77.1558 122.392 78.7037 120.632 78.4954C119.08 78.2333 117.549 77.8565 116.053 77.3681L114.995 77.9971L100.978 77.9318Z" fill="#FFBE9D"/>
<path d="M121.959 78.9241C122.135 79.2794 122.592 79.3325 122.943 79.5204C123.268 79.7102 123.535 79.9861 123.713 80.3177C123.891 80.6492 123.974 81.0235 123.952 81.3992C123.893 82.1503 123.645 82.8741 123.229 83.5026C123.102 83.7564 122.917 83.9773 122.69 84.148C122.574 84.2288 122.436 84.2721 122.294 84.2721C122.152 84.2721 122.014 84.2288 121.898 84.148C121.786 84.0121 121.711 83.85 121.68 83.6771C121.648 83.5041 121.662 83.326 121.718 83.1596C121.935 81.8566 121.653 80.2066 121.959 78.92" fill="#FFBE9D"/>
<path d="M129.54 169.27L129.768 169.907C129.768 169.907 142.185 170.393 143.034 172.411L121.436 180L119.202 172.709C122.939 173.069 126.358 172.056 129.54 169.27Z" fill="#FFCC00"/>
<g opacity="0.6">
<path d="M122.2 174.237C122.014 174.374 121.885 174.574 121.837 174.8C121.79 175.026 121.827 175.262 121.943 175.462C122.073 175.657 122.273 175.793 122.502 175.842C122.73 175.892 122.969 175.851 123.168 175.728C123.365 175.583 123.501 175.371 123.55 175.131C123.599 174.892 123.558 174.643 123.433 174.433C123.278 174.249 123.057 174.132 122.817 174.107C122.578 174.082 122.337 174.15 122.147 174.298" fill="white"/>
</g>
<g opacity="0.6">
<path d="M121.436 180L120.901 178.248L141.797 171.615C141.797 171.615 142.904 171.696 143.022 172.431L121.436 180Z" fill="white"/>
</g>
<path d="M129.867 169.944C129.899 170.05 129.389 170.283 128.988 170.806C128.588 171.329 128.47 171.868 128.359 171.86C128.249 171.852 128.188 171.186 128.682 170.565C129.176 169.944 129.854 169.838 129.867 169.944Z" fill="#312C73"/>
<path d="M132.46 170.083C132.521 170.177 132.125 170.516 131.925 171.088C131.725 171.66 131.786 172.17 131.68 172.203C131.574 172.235 131.296 171.66 131.561 170.953C131.827 170.246 132.423 169.985 132.46 170.083Z" fill="#312C73"/>
<path d="M134.698 172.346C134.613 172.403 134.29 171.937 134.347 171.255C134.404 170.573 134.829 170.181 134.903 170.251C134.976 170.32 134.784 170.741 134.735 171.292C134.686 171.843 134.8 172.297 134.698 172.346Z" fill="#312C73"/>
</svg>
