<svg width="180" height="180" viewBox="0 0 180 180" fill="none" xmlns="http://www.w3.org/2000/svg">
<circle cx="90" cy="90" r="90" fill="#DCD9F2"/>
<path d="M125.652 20.3289H99.6035V58.5222H125.652V20.3289Z" fill="#F5F5F5"/>
<path d="M125.648 58.5223C125.648 58.5223 125.648 58.4564 125.648 58.3329C125.648 58.2094 125.648 58.0282 125.648 57.7936C125.648 57.3119 125.648 56.612 125.648 55.7021C125.648 53.8701 125.648 51.2064 125.62 47.8387C125.62 41.1115 125.591 31.5766 125.57 20.329L125.669 20.4278H99.6248L99.7319 20.3207C99.7319 34.689 99.7319 47.9499 99.7072 58.514L99.6248 58.4276L118.563 58.4729L123.808 58.4935H125.187C125.5 58.4935 125.665 58.4935 125.665 58.4935H125.208H123.845L118.617 58.514L99.6207 58.5593H99.5343V58.4729C99.5343 47.9087 99.5343 34.6479 99.5137 20.2796V20.2219H99.6207H125.665H125.764V20.3454C125.764 31.6178 125.727 41.1733 125.714 47.9293C125.714 51.2846 125.714 53.9442 125.689 55.7515C125.689 56.6532 125.689 57.3489 125.689 57.81C125.689 58.0406 125.689 58.2217 125.689 58.3411C125.689 58.4605 125.648 58.5223 125.648 58.5223Z" fill="#312C73"/>
<path d="M102.063 57.0649C101.442 56.7745 100.917 56.3125 100.551 55.7334C100.184 55.1544 99.9907 54.4825 99.9937 53.7971C99.9967 53.1117 100.196 52.4415 100.568 51.8657C100.939 51.2899 101.468 50.8326 102.092 50.5477C102.333 50.4658 102.55 50.3242 102.721 50.136C102.952 49.8313 102.861 49.4032 102.87 49.0203C102.902 48.5232 103.118 48.0558 103.476 47.7089C103.833 47.362 104.307 47.1603 104.805 47.1429L110.671 49.4485V55.6239L102.063 57.0649Z" fill="#312C73"/>
<path d="M99.917 58.4191C99.917 58.4191 104.277 54.9897 109.629 54.1827C114.981 53.3758 120.955 54.1827 120.955 54.1827C122.585 54.4845 124.16 55.0299 125.628 55.8007L125.656 58.5056L119.893 58.485L99.917 58.4191Z" fill="#333333"/>
<path d="M123.187 29.9011C122.627 28.349 119.976 27.0192 118.518 26.2411C116.34 25.0842 114.364 25.4177 113.166 26.5293C110.898 24.7507 107.933 23.071 105.171 23.8903C102.408 24.7095 100.231 27.6408 100.844 30.4774C101.198 32.1242 102.404 33.5981 102.392 35.2984C102.392 36.4553 101.807 37.5175 101.354 38.592C100.902 39.6666 100.568 40.8934 101.037 41.9515C101.478 42.9355 102.507 43.5242 103.096 44.4217C103.565 45.1627 103.697 46.0685 104.006 46.8919C105.159 49.9343 108.847 51.5358 112.034 50.8895C115.221 50.2431 117.798 47.74 119.226 44.8128C120.655 41.8856 121.038 38.5673 121.104 35.319" fill="#312C73"/>
<path d="M120.981 55.1048L120.869 32.202L111.236 29.2666C110.533 29.1701 109.819 29.2166 109.135 29.4033C108.451 29.59 107.811 29.913 107.255 30.3529C106.699 30.7928 106.238 31.3405 105.899 31.9632C105.56 32.5859 105.35 33.2706 105.283 33.9764C104.937 37.5252 104.649 41.9881 104.99 44.6806C105.661 49.9627 109.667 50.7572 109.667 50.7572C109.667 50.7572 109.634 52.7169 109.593 55.0101C109.569 56.253 109.954 57.4695 110.688 58.4725H119.881C120.598 57.4963 120.984 56.316 120.981 55.1048Z" fill="#FFBE9D"/>
<path d="M109.665 50.7703C112.143 50.8552 114.597 50.2676 116.767 49.0699C116.767 49.0699 114.886 52.8246 109.641 52.1659L109.665 50.7703Z" fill="#EB996E"/>
<path d="M112.923 34.5369C112.989 34.7386 113.718 34.6687 114.57 34.7963C115.422 34.9239 116.098 35.1792 116.217 35.0062C116.27 34.9239 116.155 34.7345 115.883 34.5328C115.522 34.2851 115.107 34.1258 114.673 34.0676C114.239 34.0005 113.796 34.0386 113.38 34.1787C113.063 34.294 112.923 34.4463 112.923 34.5369Z" fill="#312C73"/>
<path d="M106.232 34.9402C106.356 35.109 106.862 34.9402 107.467 34.9402C108.072 34.9402 108.57 35.0884 108.702 34.9402C108.756 34.8579 108.682 34.6891 108.463 34.5285C108.171 34.3301 107.826 34.224 107.473 34.224C107.12 34.224 106.775 34.3301 106.483 34.5285C106.257 34.6891 106.178 34.8579 106.232 34.9402Z" fill="#312C73"/>
<path d="M112.737 40.4612C112.739 40.5118 112.761 40.5596 112.798 40.5942C112.835 40.6288 112.884 40.6476 112.935 40.6465C112.986 40.6444 113.034 40.6226 113.069 40.5858C113.105 40.5489 113.124 40.4999 113.124 40.4489C113.124 40.3976 113.104 40.3483 113.068 40.312C113.031 40.2758 112.982 40.2554 112.931 40.2554C112.879 40.2554 112.83 40.2758 112.794 40.312C112.758 40.3483 112.737 40.3976 112.737 40.4489V40.4612Z" fill="#EB996E"/>
<path d="M107.274 39.6956C107.27 39.7231 107.272 39.7511 107.28 39.7778C107.287 39.8045 107.301 39.8292 107.319 39.8502C107.337 39.8713 107.36 39.8881 107.385 39.8997C107.41 39.9113 107.438 39.9173 107.465 39.9173C107.493 39.9173 107.521 39.9113 107.546 39.8997C107.571 39.8881 107.594 39.8713 107.612 39.8502C107.63 39.8292 107.644 39.8045 107.651 39.7778C107.659 39.7511 107.661 39.7231 107.657 39.6956C107.655 39.6446 107.633 39.5965 107.596 39.5612C107.559 39.5259 107.51 39.5062 107.459 39.5062C107.41 39.5083 107.364 39.5291 107.329 39.5642C107.295 39.5994 107.275 39.6464 107.274 39.6956Z" fill="#EB996E"/>
<path d="M106.229 40.2384C106.231 40.289 106.253 40.3367 106.29 40.3713C106.327 40.406 106.376 40.4247 106.427 40.4236C106.478 40.4236 106.527 40.4032 106.563 40.3669C106.6 40.3307 106.62 40.2814 106.62 40.2301C106.62 40.1788 106.6 40.1296 106.563 40.0933C106.527 40.057 106.478 40.0366 106.427 40.0366C106.4 40.0366 106.374 40.0419 106.35 40.052C106.326 40.0622 106.304 40.0772 106.285 40.0959C106.267 40.1147 106.253 40.137 106.243 40.1615C106.233 40.1859 106.228 40.2121 106.229 40.2384Z" fill="#EB996E"/>
<path d="M105.878 39.4444C105.879 39.4828 105.891 39.5201 105.913 39.5515C105.935 39.5829 105.966 39.6071 106.002 39.6208C106.038 39.6345 106.077 39.6373 106.115 39.6287C106.152 39.62 106.186 39.6005 106.213 39.5724C106.239 39.5444 106.256 39.5091 106.262 39.4712C106.269 39.4333 106.263 39.3944 106.247 39.3594C106.231 39.3245 106.205 39.2951 106.172 39.275C106.14 39.255 106.102 39.2451 106.063 39.2468C106.013 39.2489 105.965 39.2708 105.93 39.3077C105.896 39.3447 105.877 39.3937 105.878 39.4444Z" fill="#EB996E"/>
<path d="M113.647 41.2805C113.647 41.3058 113.653 41.3306 113.663 41.3537C113.673 41.3767 113.688 41.3975 113.706 41.4148C113.725 41.432 113.747 41.4454 113.77 41.4542C113.794 41.463 113.819 41.4669 113.844 41.4658C113.883 41.465 113.92 41.4527 113.951 41.4305C113.983 41.4084 114.007 41.3774 114.021 41.3415C114.034 41.3056 114.037 41.2664 114.029 41.229C114.02 41.1915 114 41.1575 113.972 41.1312C113.944 41.1049 113.909 41.0876 113.871 41.0814C113.833 41.0752 113.794 41.0804 113.759 41.0965C113.724 41.1125 113.695 41.1386 113.675 41.1713C113.655 41.2041 113.645 41.2421 113.647 41.2805Z" fill="#EB996E"/>
<path d="M114.338 40.4858C114.34 40.5241 114.353 40.5609 114.376 40.5918C114.398 40.6227 114.43 40.6461 114.465 40.6592C114.501 40.6723 114.54 40.6745 114.578 40.6654C114.615 40.6564 114.648 40.6365 114.674 40.6083C114.7 40.5801 114.717 40.5449 114.723 40.5071C114.729 40.4693 114.723 40.4306 114.707 40.3959C114.691 40.3612 114.665 40.3321 114.632 40.3122C114.6 40.2923 114.562 40.2825 114.524 40.2841C114.473 40.2873 114.425 40.3101 114.39 40.3477C114.356 40.3853 114.337 40.4348 114.338 40.4858Z" fill="#EB996E"/>
<path d="M111.168 28.4645C112.575 27.4714 114.234 26.8978 115.953 26.8103C117.672 26.7229 119.381 27.1252 120.88 27.9704C123.865 29.7284 125.491 32.2644 125.648 36.4473V41.7788C125.491 44.2078 126.01 45.6158 124.825 46.0275C123.178 46.5874 121.943 51.0173 120.535 50.7085C118.801 49.3623 118.773 48.5759 118.711 45.8217C118.645 42.8616 117.756 39.3415 118.917 37.4354C115.088 36.295 112.033 32.6308 111.448 28.4686" fill="#312C73"/>
<path d="M105.792 23.7256C105.792 23.7544 106.244 23.7544 106.948 23.915C107.141 23.9574 107.331 24.0124 107.517 24.0797C107.732 24.1475 107.944 24.2272 108.151 24.3185C108.622 24.5336 109.07 24.7957 109.489 25.1007C109.902 25.4125 110.283 25.7657 110.625 26.1546C110.773 26.3399 110.925 26.5128 111.037 26.6899C111.152 26.8497 111.257 27.0161 111.354 27.188C111.716 27.8138 111.848 28.2502 111.872 28.2378C111.852 28.135 111.821 28.0344 111.782 27.9373C111.745 27.8174 111.7 27.7004 111.646 27.5874C111.582 27.4365 111.509 27.2894 111.428 27.1468C111.335 26.9694 111.232 26.7976 111.119 26.6322C111.004 26.4511 110.855 26.274 110.707 26.0805C110.029 25.2705 109.168 24.6328 108.196 24.2197C107.985 24.129 107.769 24.0493 107.549 23.9809C107.359 23.9214 107.165 23.872 106.969 23.8327C106.807 23.7974 106.644 23.7713 106.479 23.7544C106.356 23.7361 106.233 23.7265 106.109 23.7256C106.003 23.7148 105.897 23.7148 105.792 23.7256Z" fill="#FFCC00"/>
<path d="M102.733 43.8125L102.696 43.7713L102.584 43.6437C102.439 43.4877 102.301 43.3242 102.173 43.1538C101.954 42.8917 101.785 42.5917 101.674 42.2686C101.612 42.0677 101.59 41.8565 101.609 41.647C101.634 41.4137 101.707 41.1881 101.823 40.9841C102.122 40.5232 102.453 40.0843 102.815 39.6708C103.623 38.5901 104.12 37.3086 104.252 35.9655C104.309 35.2146 104.309 34.4603 104.252 33.7094C104.19 32.966 104.232 32.2176 104.379 31.4862C104.541 30.8462 104.841 30.2492 105.258 29.7372C105.674 29.2251 106.198 28.8104 106.792 28.522C107.284 28.2859 107.816 28.1462 108.36 28.1103C109.154 28.05 109.95 28.1916 110.674 28.522C110.869 28.6157 111.057 28.7216 111.238 28.839L111.378 28.9296C111.411 28.9296 111.428 28.9625 111.428 28.9584C111.206 28.7673 110.959 28.6067 110.695 28.4808C109.97 28.1227 109.163 27.9609 108.356 28.0115C107.798 28.0416 107.251 28.1815 106.747 28.4232C106.14 28.7184 105.605 29.1419 105.179 29.6644C104.752 30.1869 104.444 30.7959 104.276 31.4492C104.121 32.1905 104.075 32.9507 104.141 33.7053C104.199 34.4505 104.206 35.1988 104.161 35.9449C104.031 37.2684 103.548 38.5326 102.761 39.6049C102.4 40.0232 102.069 40.4676 101.773 40.9347C101.653 41.1505 101.579 41.3888 101.555 41.6346C101.539 41.8534 101.567 42.0732 101.637 42.281C101.754 42.6092 101.931 42.9124 102.16 43.1744C102.341 43.3926 102.498 43.549 102.601 43.6519L102.724 43.7713L102.733 43.8125Z" fill="#FFCC00"/>
<path d="M106.241 38.1637C106.319 38.2543 106.838 37.8879 107.558 37.9043C108.279 37.9208 108.794 38.2913 108.884 38.2049C108.975 38.1184 108.843 38.0073 108.616 37.8343C108.309 37.6102 107.939 37.4878 107.558 37.4844C107.182 37.4742 106.813 37.5854 106.504 37.8014C106.278 37.9661 106.2 38.1225 106.241 38.1637Z" fill="#312C73"/>
<path d="M113.622 38.283C113.705 38.3695 114.219 38.0031 114.944 38.0195C115.668 38.036 116.179 38.4107 116.27 38.3242C116.36 38.2377 116.228 38.1225 115.998 37.9496C115.689 37.7278 115.32 37.607 114.94 37.6037C114.563 37.5921 114.193 37.7034 113.886 37.9207C113.659 38.0854 113.581 38.2419 113.622 38.283Z" fill="#312C73"/>
<path d="M110.892 42.643C110.514 42.5163 110.121 42.4374 109.723 42.4083C109.538 42.3877 109.365 42.3466 109.336 42.2189C109.325 42.0282 109.372 41.8385 109.472 41.6755C109.653 41.2309 109.842 40.7656 110.044 40.2798C110.843 38.2954 111.423 36.661 111.341 36.6281C111.259 36.5951 110.551 38.1802 109.752 40.1687C109.562 40.6586 109.377 41.1238 109.2 41.5726C109.08 41.7923 109.042 42.0478 109.093 42.293C109.118 42.3587 109.158 42.4177 109.209 42.4656C109.261 42.5134 109.322 42.5488 109.39 42.5689C109.492 42.5972 109.597 42.6138 109.702 42.6183C110.096 42.6769 110.496 42.6852 110.892 42.643Z" fill="#312C73"/>
<path d="M111.164 44.3925C111.305 44.2221 111.488 44.0904 111.694 44.0098C111.9 43.9291 112.123 43.9021 112.342 43.9314C112.503 43.9475 112.659 43.9963 112.801 44.0749C112.942 44.1535 113.066 44.2602 113.165 44.3883C113.259 44.5104 113.314 44.6583 113.321 44.8121C113.328 44.966 113.288 45.1184 113.206 45.2488C113.088 45.3769 112.935 45.4666 112.765 45.5063C112.596 45.5459 112.418 45.5337 112.255 45.4711C111.916 45.3454 111.605 45.1521 111.341 44.903C111.261 44.8439 111.192 44.7698 111.14 44.6848C111.113 44.6446 111.098 44.5973 111.098 44.5489C111.098 44.5005 111.113 44.4532 111.14 44.4131" fill="#333333"/>
<path d="M113.009 43.1863C112.894 43.1863 112.878 43.9603 112.186 44.5038C111.494 45.0472 110.671 44.9443 110.663 45.0555C110.663 45.1049 110.844 45.2119 111.198 45.2284C111.657 45.2438 112.107 45.0982 112.47 44.8167C112.817 44.5435 113.044 44.1465 113.104 43.7092C113.149 43.4004 113.063 43.1822 113.009 43.1863Z" fill="#312C73"/>
<path d="M125.384 34.981C125.189 35.0449 124.988 35.0877 124.783 35.1087C124.227 35.1894 123.666 35.2279 123.104 35.2239C121.24 35.218 119.402 34.7869 117.729 33.9636C116.057 33.1404 114.595 31.9465 113.453 30.4729C113.109 30.0303 112.798 29.5624 112.523 29.0732C112.417 28.8978 112.328 28.7131 112.255 28.5215C112.383 28.682 112.497 28.8528 112.597 29.032C112.894 29.5003 113.22 29.9499 113.573 30.3782C114.729 31.803 116.18 32.9603 117.826 33.7705C119.472 34.5808 121.274 35.0246 123.108 35.0716C123.657 35.0896 124.207 35.0745 124.755 35.0263C124.963 34.9945 125.174 34.9793 125.384 34.981Z" fill="#FFCC00"/>
<path d="M123.944 46.6943C123.944 46.6943 124.174 46.4185 124.532 45.8709C125.028 45.1083 125.361 44.2522 125.512 43.3555C125.714 42.0195 125.451 40.6549 124.767 39.4896C124.37 38.8055 123.849 38.2011 123.231 37.707C122.555 37.1911 121.796 36.793 120.988 36.5295C120.164 36.229 119.341 36.0025 118.538 35.7061C117.777 35.428 117.051 35.0604 116.377 34.611C115.24 33.8438 114.262 32.8654 113.495 31.7291C112.971 30.9667 112.555 30.1354 112.26 29.2589C112.177 29.0228 112.109 28.7823 112.054 28.5384C112.031 28.4533 112.015 28.3666 112.004 28.2791C112.029 28.2791 112.107 28.6249 112.338 29.2301C113.134 31.3607 114.586 33.184 116.484 34.4381C117.149 34.8741 117.864 35.2306 118.612 35.5003C119.386 35.7884 120.222 36.0149 121.062 36.3237C121.893 36.6028 122.671 37.0204 123.363 37.5587C124 38.0715 124.533 38.7001 124.936 39.4114C125.634 40.6148 125.891 42.0244 125.66 43.3966C125.495 44.3091 125.132 45.1745 124.598 45.9327C124.456 46.1387 124.299 46.3341 124.129 46.5173C124.074 46.5828 124.012 46.6421 123.944 46.6943Z" fill="#FFCC00"/>
<path d="M109.667 50.7696C109.667 50.7696 109.572 50.819 109.391 50.856C109.129 50.9037 108.862 50.923 108.596 50.9136C107.716 50.8555 106.865 50.5719 106.126 50.0903C105.378 49.6164 104.78 48.9396 104.401 48.1388C104.288 47.8999 104.2 47.6502 104.138 47.3936C104.106 47.2996 104.093 47.2002 104.101 47.1013C104.138 47.1013 104.232 47.513 104.537 48.0729C104.937 48.822 105.524 49.4547 106.241 49.9091C106.96 50.3618 107.772 50.6435 108.617 50.7325C109.255 50.8107 109.663 50.7325 109.667 50.7696Z" fill="#FFCC00"/>
<path d="M114.776 72.7376C113.69 71.0908 112.981 64.376 111.569 64.7548C109.766 65.2323 112.298 72.3836 112.475 73.0382C112.652 73.6928 111.705 73.9439 111.578 73.3469C111.396 72.4865 109.379 64.0878 107.621 64.7301C106.645 65.0882 107.271 66.8668 107.271 66.8668C107.271 66.8668 110.128 75.039 109.288 75.3107C108.449 75.5825 106.818 70.8191 106.263 69.1352C105.74 67.5173 104.871 67.0562 104.27 67.8137C103.669 68.5712 105.18 73.454 105.674 75.1008C106.168 76.7476 107.609 81.1816 105.106 79.5183C102.602 77.855 100.062 77.4927 99.3171 77.8715C98.572 78.2503 98.8478 79.4154 99.7659 79.5677C100.745 79.8338 101.684 80.2312 102.557 80.7493C103.25 81.1738 103.892 81.6752 104.472 82.2437C105.238 82.9476 105.882 83.774 106.378 84.6892C106.781 85.4071 107.331 86.0318 107.992 86.522C108.653 87.0123 109.411 87.3572 110.215 87.5341L110.968 90.6095L119.527 87.4229L118.103 81.6097C116.975 77.1716 116.93 73.9933 116.67 71.2431C116.259 66.8544 115.682 66.875 115.184 67.0356C114.093 67.3649 115.839 74.3309 114.776 72.7376Z" fill="#FFBE9D"/>
<path d="M116.341 78.3943C115.952 78.5777 115.577 78.7881 115.217 79.0242C114.376 79.6354 113.755 80.5018 113.447 81.4944C113.354 81.7931 113.293 82.1009 113.266 82.4125V82.5607L113.134 82.4989C112.386 82.1607 111.588 81.9479 110.771 81.869C110.157 81.8073 109.787 81.8279 109.783 81.799C110.109 81.7221 110.446 81.6999 110.779 81.7332C111.622 81.772 112.449 81.9674 113.22 82.3095L113.072 82.396C113.099 82.0678 113.161 81.7434 113.257 81.4285C113.434 80.8659 113.713 80.341 114.081 79.8805C114.382 79.5057 114.741 79.1806 115.143 78.9171C115.415 78.7483 115.705 78.6102 116.008 78.5054C116.111 78.4487 116.224 78.411 116.341 78.3943Z" fill="#EB996E"/>
<path d="M116.824 84.9028C115.631 85.8846 114.171 86.4856 112.633 86.6278C112.633 86.566 113.621 86.3561 114.778 85.8703C115.935 85.3844 116.787 84.8492 116.824 84.9028Z" fill="#EB996E"/>
<path d="M119.318 127.847C117.432 127.666 115.647 126.913 114.201 125.69L100.388 114.014L100.512 127.473L103.249 127.67L102.479 137.679H59.7163V137.44C57.0855 135.2 55.4675 131.824 54.8953 128.14C53.8537 121.478 53.4667 110.622 52.5362 102.948C51.8858 97.5464 53.0756 90.5517 57.8883 87.9991L61.5936 86.5376L73.2776 81.9348L88.2882 82.6265L98.3089 85.4384C101.088 86.4923 103.484 89.823 105.193 92.2767L113.546 103.899C113.455 102.001 109.997 90.5475 109.771 90.0329L119.981 85.8048C119.981 85.8048 130.516 109.214 129.1 119.329C127.918 127.757 119.318 127.847 119.318 127.847Z" fill="#312C73"/>
<path d="M99.3965 109.074C99.3965 109.012 100.331 109.136 101.793 108.922C103.66 108.661 105.424 107.91 106.906 106.744C108.285 105.626 109.291 104.113 109.788 102.409C109.95 101.717 110.07 101.016 110.146 100.309C110.203 100.495 110.224 100.691 110.208 100.885C110.21 101.415 110.148 101.943 110.022 102.458C109.583 104.236 108.57 105.821 107.141 106.966C105.612 108.176 103.772 108.928 101.834 109.136C101.239 109.203 100.64 109.216 100.043 109.173C99.8239 109.169 99.6065 109.136 99.3965 109.074Z" fill="white"/>
<path d="M100.499 127.671C100.602 127.671 100.717 122.001 100.763 115.015C100.808 108.028 100.763 102.355 100.664 102.351C100.565 102.347 100.45 108.016 100.4 115.007C100.351 121.997 100.4 127.666 100.499 127.671Z" fill="#FFCC00"/>
<path d="M64.5332 131.841C64.5973 131.358 64.7553 130.892 64.9984 130.47C65.5261 129.42 66.2583 128.487 67.152 127.724C68.0456 126.961 69.0827 126.384 70.2023 126.028C70.6563 125.853 71.1403 125.769 71.6268 125.781C71.6268 125.834 71.0998 125.941 70.2846 126.254C68.1462 127.072 66.3549 128.601 65.2125 130.585C64.7761 131.343 64.5867 131.858 64.5332 131.841Z" fill="#FFCC00"/>
<path d="M69.5771 113.133C69.6342 113.151 69.6894 113.174 69.7418 113.203L70.1988 113.446C70.7924 113.743 71.4043 114.001 72.0309 114.22C74.338 115.029 76.8121 115.241 79.2233 114.837C82.8052 114.195 86.0042 112.202 88.1612 109.271C89.4495 107.579 90.2574 105.571 90.4997 103.458C90.6191 102.348 90.5026 101.226 90.158 100.165C89.7958 99.0794 89.159 98.1064 88.3094 97.3403C87.479 96.5542 86.4269 96.0425 85.2958 95.8746C84.7614 95.778 84.212 95.8041 83.6892 95.951C83.1664 96.098 82.6839 96.3618 82.2781 96.7227C82.0948 96.9006 81.9484 97.1129 81.8473 97.3474C81.7463 97.582 81.6926 97.8342 81.6893 98.0896C81.6999 98.5995 81.873 99.0928 82.1834 99.4976C82.839 100.279 83.7775 100.769 84.7935 100.86C86.7009 101.109 88.64 100.832 90.4009 100.057C91.8096 99.4617 93.0695 98.5625 94.0907 97.4239C95.1119 96.2852 95.8692 94.9353 96.3088 93.4703C96.6171 92.4694 96.782 91.4298 96.7987 90.3826C96.8057 89.7196 96.7575 89.0572 96.6546 88.4023C96.6175 88.1964 96.5846 88.0276 96.5599 87.8959C96.543 87.8385 96.5361 87.7786 96.5393 87.7189C96.8213 88.5783 96.9603 89.4781 96.951 90.3826C96.959 91.4453 96.812 92.5035 96.5146 93.5238C96.1249 94.8822 95.47 96.1499 94.5879 97.2538C93.4151 98.6837 91.9001 99.7941 90.1836 100.482C88.467 101.17 86.6045 101.414 84.7688 101.19C83.6674 101.091 82.65 100.56 81.9405 99.7117C81.5851 99.2508 81.3874 98.6879 81.3764 98.106C81.3798 97.5065 81.6194 96.9325 82.0434 96.5086C82.4847 96.1114 83.0105 95.8197 83.5811 95.6557C84.1517 95.4916 84.7521 95.4595 85.337 95.5617C86.5363 95.739 87.6527 96.2792 88.5359 97.1097C89.4284 97.917 90.0977 98.9408 90.4791 100.082C90.8373 101.188 90.9566 102.357 90.829 103.512C90.5791 105.683 89.7422 107.746 88.4083 109.477C86.5788 111.973 83.9825 113.801 81.0161 114.682C78.0498 115.563 74.8766 115.448 71.9815 114.356C71.1306 114.054 70.3224 113.643 69.5771 113.133Z" fill="white"/>
<path d="M52.7705 106.571C52.8814 106.378 53.0201 106.202 53.1822 106.048C53.6021 105.601 54.0655 105.197 54.5655 104.842C56.2478 103.683 58.2062 102.989 60.2428 102.829C61.3578 102.705 62.4851 102.752 63.5858 102.969C64.4817 103.154 65.3485 103.458 66.1631 103.875C66.7104 104.151 67.235 104.47 67.7317 104.83C67.9221 104.95 68.0952 105.095 68.2463 105.262C68.2092 105.32 67.4229 104.739 66.0601 104.097C64.2611 103.263 62.2663 102.942 60.2964 103.171C58.314 103.331 56.4006 103.973 54.722 105.04C53.4457 105.888 52.8117 106.621 52.7705 106.571Z" fill="white"/>
<path d="M56.876 88.9834C57.498 89.569 58.1893 90.0764 58.9345 90.4943C59.7602 90.9133 60.6563 91.1757 61.5776 91.2683C62.702 91.4018 63.842 91.2449 64.8885 90.8124C65.935 90.38 66.8532 89.6865 67.5554 88.7981C68.1407 88.0821 68.5887 87.2642 68.877 86.3856C69.1173 85.5602 69.2555 84.7085 69.2887 83.8495C69.3565 84.0749 69.3857 84.3101 69.3752 84.5453C69.39 85.1914 69.3038 85.8359 69.1199 86.4555C68.855 87.3815 68.4101 88.2461 67.8107 88.9998C67.0865 89.9393 66.1275 90.6714 65.0304 91.1224C63.9333 91.5734 62.7367 91.7274 61.5611 91.5688C60.6052 91.4606 59.6803 91.1639 58.8398 90.696C58.2729 90.3863 57.7564 89.9921 57.3083 89.5268C57.1356 89.3704 56.9896 89.1868 56.876 88.9834Z" fill="white"/>
<path d="M78.7134 124.636C78.7162 124.473 78.7341 124.31 78.7669 124.15C78.8575 123.689 79.0098 123.241 79.2198 122.82C79.7385 121.717 81.0271 120.33 83.0609 119.486C85.0947 118.642 87.8243 118.411 90.6032 119.218C91.9618 119.63 93.5181 120.12 94.535 121.441C94.7949 121.78 94.9588 122.183 95.0095 122.608C95.0602 123.032 94.9959 123.463 94.8232 123.854C94.4274 124.62 93.7827 125.228 92.9952 125.579C92.2391 125.954 91.4102 126.161 90.5662 126.184C89.7282 126.226 88.9025 125.969 88.236 125.459C87.9266 125.197 87.6742 124.873 87.4944 124.509C87.3146 124.145 87.2111 123.749 87.1903 123.343C87.1455 122.587 87.2649 121.83 87.5402 121.124C88.5367 118.719 90.4337 116.798 92.8264 115.772C94.4106 115.068 96.1456 114.771 97.8738 114.907C98.5031 114.954 99.1234 115.084 99.7183 115.294C99.7183 115.34 99.0637 115.122 97.8656 115.039C96.166 114.956 94.4712 115.283 92.9252 115.994C91.8608 116.478 90.8864 117.14 90.0433 117.95C89.0768 118.875 88.3225 119.999 87.8325 121.244C87.5792 121.909 87.4698 122.62 87.5114 123.331C87.5305 123.691 87.6228 124.044 87.7828 124.367C87.9428 124.691 88.167 124.978 88.4418 125.212C89.0496 125.669 89.799 125.896 90.558 125.855C91.3502 125.831 92.1281 125.637 92.8388 125.286C93.5537 124.966 94.1418 124.417 94.5103 123.726C94.6543 123.391 94.707 123.025 94.6628 122.663C94.6187 122.301 94.4794 121.958 94.2591 121.668C93.7992 121.087 93.2117 120.621 92.5423 120.305C91.8897 119.993 91.2104 119.741 90.5127 119.551C87.7913 118.728 85.1194 118.893 83.1515 119.741C81.5486 120.32 80.1986 121.441 79.335 122.911C79.0587 123.459 78.8499 124.038 78.7134 124.636Z" fill="white"/>
<path d="M53.8384 119.564C53.9348 119.508 54.0388 119.467 54.1472 119.441C54.353 119.371 54.6618 119.276 55.0611 119.177C56.1999 118.873 57.3797 118.752 58.5564 118.819C59.3756 118.881 60.1785 119.08 60.9319 119.408C61.811 119.785 62.5761 120.385 63.151 121.149C63.7817 122.013 64.0865 123.072 64.0115 124.138C63.9736 124.703 63.8044 125.252 63.5174 125.74C63.2173 126.262 62.7417 126.66 62.1753 126.864C61.8818 126.964 61.5672 126.985 61.263 126.925C60.9588 126.865 60.6757 126.726 60.442 126.522C60.0319 126.089 59.806 125.513 59.8121 124.916C59.7766 123.867 59.9822 122.823 60.4132 121.866C60.7702 121.055 61.2849 120.324 61.9275 119.715C62.57 119.106 63.3274 118.63 64.1556 118.317C65.2687 117.897 66.4728 117.778 67.6468 117.971C67.9618 118.022 68.2718 118.101 68.5731 118.206C68.6819 118.236 68.7858 118.282 68.8819 118.342C68.8819 118.375 68.4413 118.202 67.6468 118.103C66.501 117.966 65.3391 118.117 64.2667 118.543C62.6767 119.18 61.4037 120.42 60.7261 121.993C60.3214 122.907 60.1299 123.901 60.1662 124.9C60.1538 125.403 60.3317 125.893 60.6643 126.271C60.8544 126.432 61.0829 126.54 61.3275 126.587C61.572 126.633 61.8244 126.615 62.06 126.534C62.5476 126.352 62.9566 126.005 63.2169 125.555C63.4815 125.112 63.6407 124.615 63.6821 124.101C63.7525 123.112 63.4743 122.128 62.8958 121.322C62.3614 120.607 61.6527 120.04 60.8373 119.675C60.1151 119.351 59.3446 119.146 58.5564 119.07C57.4035 118.984 56.244 119.065 55.1146 119.313C54.2871 119.478 53.8466 119.597 53.8384 119.564Z" fill="white"/>
<path d="M117.45 121.54C117.386 121.498 117.328 121.448 117.277 121.392C117.118 121.245 116.967 121.09 116.824 120.927C116.296 120.327 115.844 119.665 115.477 118.955C114.933 117.902 114.531 116.782 114.279 115.624C113.978 114.211 113.805 112.774 113.765 111.33C113.703 109.795 113.765 108.325 113.715 107.007C113.657 105.834 113.529 104.666 113.333 103.508C113.176 102.516 113.016 101.721 112.921 101.169C112.867 100.914 112.826 100.704 112.793 100.535C112.772 100.463 112.761 100.388 112.76 100.313C112.796 100.38 112.821 100.452 112.834 100.527C112.876 100.667 112.933 100.877 112.999 101.153C113.139 101.696 113.32 102.491 113.497 103.479C113.711 104.641 113.849 105.815 113.909 106.995C113.958 108.329 113.909 109.786 113.975 111.318C114.009 112.753 114.172 114.181 114.461 115.587C114.702 116.728 115.085 117.835 115.601 118.881C115.951 119.588 116.378 120.255 116.873 120.869C117.231 121.306 117.45 121.524 117.45 121.54Z" fill="#FFCC00"/>
<path d="M115.391 119.037C113.595 119.967 111.996 121.238 110.686 122.779C110.812 122.506 110.98 122.255 111.184 122.034C111.64 121.472 112.156 120.961 112.723 120.51C113.29 120.059 113.904 119.671 114.556 119.354C114.816 119.205 115.098 119.099 115.391 119.037Z" fill="white"/>
<path d="M127.478 106.575C127.298 106.665 127.111 106.741 126.918 106.801C126.556 106.925 126.025 107.102 125.383 107.349C123.707 107.978 122.106 108.79 120.607 109.769C118.853 110.918 117.499 112.264 116.432 113.154C116.025 113.527 115.546 113.814 115.024 113.998C114.881 114.044 114.731 114.069 114.58 114.072C114.477 114.072 114.423 114.072 114.423 114.072C114.618 114.035 114.81 113.988 115 113.932C115.496 113.72 115.949 113.42 116.338 113.047C117.363 112.145 118.713 110.766 120.492 109.605C121.998 108.608 123.623 107.804 125.329 107.213C125.98 106.982 126.519 106.826 126.89 106.727C127.08 106.656 127.277 106.605 127.478 106.575Z" fill="white"/>
<path d="M123.307 93.9356C123.165 93.983 123.017 94.0107 122.867 94.018L121.661 94.1991C120.644 94.3556 119.244 94.6108 117.708 94.932C116.173 95.2531 114.798 95.6195 113.822 95.9406C112.846 96.2617 112.274 96.5376 112.257 96.5088C112.374 96.4124 112.505 96.3334 112.644 96.2741C113.012 96.0949 113.388 95.9355 113.772 95.7965C115.044 95.3516 116.343 94.9926 117.663 94.722C119.203 94.3926 120.615 94.1662 121.64 94.0468C122.155 93.9892 122.57 93.9521 122.875 93.9356C123.019 93.9183 123.164 93.9183 123.307 93.9356Z" fill="white"/>
<path d="M95.0973 42.3457C92.4953 41.6417 89.8893 44.0419 87.2256 43.6138C85.6076 43.3503 84.3437 42.1111 82.8986 41.3618C80.7207 40.2378 77.6947 40.1267 75.5498 41.3288C73.4048 42.531 72.038 43.7414 71.8445 46.1827C69.8189 45.1082 66.5912 47.7225 65.5455 50.1721C64.4998 52.6217 64.8662 55.1125 65.5908 57.6692C66.852 62.0959 68.9697 66.232 71.8239 69.8431C72.0751 70.1601 72.4744 70.51 72.8326 70.3248C72.946 70.2416 73.0378 70.1323 73.1001 70.0062C73.1625 69.8801 73.1936 69.7408 73.1908 69.6002C73.4913 67.2206 73.1084 64.8204 72.8243 62.4407C72.5403 60.0611 72.355 57.6074 73.0302 55.3101C73.7054 53.0128 75.4181 50.8761 77.7483 50.3327C79.4733 49.921 81.293 50.4356 82.8657 51.2508C84.4384 52.0659 85.8299 53.1734 87.3326 54.1327C88.8353 55.0919 90.5109 55.8412 92.273 55.8577C94.0351 55.8741 95.9083 54.9808 96.6082 53.3545C97.3081 51.7283 96.3859 49.4805 94.6444 49.1758C95.4433 49.0737 96.1821 48.6975 96.7346 48.1114C97.2871 47.5253 97.6192 46.7657 97.6741 45.9621C97.729 45.1586 97.5033 44.3608 97.0357 43.7051C96.568 43.0493 95.8872 42.5761 95.1096 42.3663L95.0973 42.3457Z" fill="#312C73"/>
<path d="M69.3132 58.27L72.7797 84.9111C72.9192 85.9843 73.2753 87.0179 73.8265 87.9493C74.3776 88.8807 75.1123 89.6903 75.9859 90.3291C76.8596 90.9678 77.8539 91.4224 78.9085 91.6651C79.9632 91.9078 81.0562 91.9337 82.1211 91.7412C84.1416 91.3758 85.9443 90.2476 87.1559 88.5899C88.3675 86.9323 88.8953 84.8722 88.6301 82.8361C88.3666 80.8311 88.1484 79.1597 88.1361 78.9497C88.1361 78.9497 94.8344 77.4305 94.4515 70.6539C94.2663 67.3809 93.3358 60.6661 92.4218 54.5977C91.9428 51.461 90.3018 48.6191 87.8247 46.6362C85.3475 44.6533 82.2153 43.6743 79.0499 43.8935L78.3953 43.9388C71.3758 44.824 68.2222 51.2835 69.3132 58.27Z" fill="#FFBE9D"/>
<path d="M88.1357 78.8508C85.0221 79.1206 81.8985 78.4601 79.1606 76.9529C79.1606 76.9529 81.5814 81.6792 88.2962 80.6046L88.1357 78.8508Z" fill="#EB996E"/>
<path d="M89.8897 59.4563C89.9104 59.708 89.8314 59.9578 89.6697 60.1519C89.5079 60.3459 89.2765 60.4687 89.0251 60.4938C88.9015 60.5116 88.7755 60.5043 88.6547 60.4722C88.534 60.44 88.421 60.3838 88.3225 60.3069C88.224 60.23 88.1422 60.1339 88.0818 60.0246C88.0214 59.9152 87.9838 59.7947 87.9712 59.6704C87.9516 59.4189 88.031 59.1696 88.1925 58.9758C88.354 58.782 88.5848 58.659 88.8358 58.6329C88.9595 58.6144 89.0857 58.6214 89.2067 58.6532C89.3277 58.6851 89.4409 58.7413 89.5395 58.8183C89.6381 58.8953 89.72 58.9916 89.7802 59.1013C89.8404 59.211 89.8777 59.3317 89.8897 59.4563Z" fill="#312C73"/>
<path d="M91.1949 58.0274C91.0838 58.1592 90.3139 57.6693 89.2723 57.7434C88.2307 57.8175 87.5061 58.3897 87.3826 58.2704C87.325 58.2209 87.432 57.9822 87.7449 57.7187C88.1747 57.3761 88.6991 57.1735 89.2476 57.1382C89.7885 57.0993 90.3277 57.2334 90.7873 57.5211C91.1249 57.7475 91.2484 57.9657 91.1949 58.0274Z" fill="#312C73"/>
<path d="M79.8811 60.143C79.9008 60.395 79.8215 60.6447 79.6601 60.8391C79.4987 61.0336 79.2678 61.1575 79.0166 61.1846C78.8942 61.2026 78.7695 61.1959 78.6498 61.1651C78.53 61.1343 78.4176 61.08 78.3191 61.0052C78.2206 60.9305 78.1379 60.8369 78.076 60.7298C78.0141 60.6228 77.9742 60.5044 77.9585 60.3818C77.9389 60.1298 78.0181 59.8801 78.1796 59.6856C78.341 59.4912 78.5718 59.3673 78.8231 59.3402C78.9454 59.3222 79.0701 59.3288 79.1899 59.3596C79.3097 59.3904 79.4221 59.4448 79.5206 59.5195C79.6191 59.5943 79.7017 59.6879 79.7636 59.795C79.8255 59.902 79.8655 60.0203 79.8811 60.143Z" fill="#312C73"/>
<path d="M80.9807 58.9246C80.8695 59.0605 80.0996 58.5706 79.058 58.6447C78.0164 58.7188 77.2919 59.291 77.1725 59.1716C77.1107 59.1181 77.2178 58.8835 77.5348 58.62C77.9621 58.2759 78.4857 58.073 79.0333 58.0395C79.5743 58 80.1137 58.1341 80.5731 58.4224C80.9107 58.6323 81.0342 58.867 80.9807 58.9246Z" fill="#312C73"/>
<path d="M85.2875 66.3812C85.2875 66.3235 85.9174 66.1671 86.959 65.9695C87.2225 65.9242 87.4695 65.8542 87.5024 65.6689C87.5056 65.3923 87.4252 65.1211 87.2719 64.8908C86.9754 64.2691 86.6667 63.6104 86.3455 62.9229C85.0528 60.1192 84.1018 57.8055 84.2129 57.7561C84.3241 57.7067 85.448 59.9339 86.7572 62.7417C87.066 63.4334 87.3665 64.0921 87.6506 64.722C87.8384 65.0317 87.9126 65.397 87.8606 65.7554C87.8273 65.8505 87.773 65.9369 87.7017 66.0082C87.6304 66.0795 87.544 66.1338 87.4489 66.1671C87.3036 66.2165 87.153 66.2483 87.0001 66.2618C85.9503 66.3894 85.2957 66.4553 85.2875 66.3812Z" fill="#312C73"/>
<path d="M82.2772 67.3111C82.446 67.2905 82.5242 68.4185 83.5453 69.1555C84.5663 69.8924 85.7602 69.6825 85.7808 69.8389C85.7808 69.9089 85.5297 70.0777 85.0233 70.1271C84.3621 70.1821 83.7029 70.0012 83.1624 69.6166C82.6432 69.2482 82.2863 68.6937 82.1661 68.0686C82.092 67.5993 82.199 67.3111 82.2772 67.3111Z" fill="#312C73"/>
<path d="M80.9689 54.8321C80.8865 55.1203 79.8367 55.0586 78.6263 55.2891C77.4159 55.5197 76.4525 55.9231 76.2714 55.7008C76.1932 55.5855 76.3455 55.2891 76.7243 55.005C77.2313 54.6306 77.8176 54.3776 78.4379 54.2655C79.0582 54.1535 79.6959 54.1853 80.3019 54.3587C80.763 54.4863 81.0018 54.6921 80.9689 54.8321Z" fill="#312C73"/>
<path d="M90.6025 55.0425C90.4378 55.2895 89.705 55.096 88.8404 55.1413C87.9759 55.1866 87.2595 55.413 87.0742 55.1742C86.9919 55.0631 87.0742 54.8161 87.3954 54.5691C87.8049 54.2716 88.2936 54.1025 88.7994 54.0835C89.3053 54.0644 89.8053 54.1962 90.2361 54.462C90.5613 54.6843 90.689 54.9272 90.6025 55.0425Z" fill="#312C73"/>
<path d="M70.2104 63.2476C70.091 63.2023 65.4635 62.1895 65.9328 66.8088C66.4022 71.428 70.9267 70.0035 70.9267 69.8718C70.9267 69.7401 70.2104 63.2476 70.2104 63.2476Z" fill="#FFBE9D"/>
<path d="M69.346 68.266C69.346 68.266 69.2719 68.3277 69.1402 68.4059C68.9565 68.5061 68.7416 68.5326 68.5391 68.48C68.0368 68.3483 67.5469 67.6155 67.4399 66.788C67.388 66.3924 67.4246 65.9902 67.5469 65.6105C67.576 65.4618 67.6406 65.3224 67.7352 65.2041C67.8298 65.0858 67.9517 64.9922 68.0904 64.9312C68.1805 64.8972 68.2797 64.8958 68.3707 64.9274C68.4618 64.959 68.5388 65.0215 68.5885 65.1041C68.6626 65.2276 68.642 65.3223 68.6667 65.3305C68.6914 65.3388 68.7573 65.24 68.7038 65.0547C68.6659 64.9421 68.5903 64.8461 68.4897 64.783C68.4226 64.7421 68.348 64.7148 68.2703 64.7028C68.1925 64.6908 68.1132 64.6943 68.0368 64.713C67.8508 64.7689 67.6822 64.8717 67.5474 65.0116C67.4125 65.1515 67.316 65.3237 67.267 65.5117C67.1095 65.9319 67.0586 66.3845 67.1187 66.8291C67.2423 67.7554 67.8063 68.5788 68.4938 68.7024C68.6217 68.726 68.7532 68.7206 68.8787 68.6863C69.0041 68.6521 69.1203 68.59 69.2184 68.5047C69.3502 68.3771 69.3625 68.2701 69.346 68.266Z" fill="#EB996E"/>
<path d="M93.7559 53.0991C92.2828 53.5879 90.7147 53.7196 89.1807 53.4834C87.6468 53.2472 86.1909 52.6498 84.9332 51.7405C83.1917 50.4602 81.7796 48.5416 79.6758 48.0352C78.9587 47.8957 78.221 47.9002 77.5057 48.0487C76.7903 48.1971 76.1117 48.4864 75.5094 48.8998C74.3086 49.7333 73.2925 50.8055 72.5246 52.0493C74.0684 55.4005 73.455 59.2993 72.8128 62.9346C72.7835 63.3436 72.6199 63.7315 72.3475 64.038C71.8288 64.4991 70.9848 64.2274 70.4743 63.758C69.6509 63.0129 69.2804 61.9013 69.0087 60.8267C68.3548 58.3797 68.1938 55.8271 68.5352 53.3173C68.8876 50.799 69.9696 48.439 71.6476 46.5284C73.8385 44.2068 76.8452 42.8267 80.034 42.679C83.2128 42.5552 86.3495 43.4385 88.9966 45.2028C90.259 45.9585 91.3131 47.0169 92.0638 48.2823" fill="#312C73"/>
<path d="M97.1567 43.8402C97.185 43.9759 97.185 44.1161 97.1567 44.2519C97.0725 44.6387 96.8678 44.989 96.5721 45.2523C96.0971 45.6568 95.5062 45.9003 94.8841 45.9481C94.5012 45.9936 94.1143 45.9936 93.7314 45.9481C93.2851 45.9079 92.8582 45.7471 92.4963 45.4828C92.2968 45.3354 92.1332 45.1447 92.0177 44.9252C91.9022 44.7056 91.8378 44.4628 91.8293 44.2148C91.8486 43.9451 91.9434 43.6862 92.1028 43.4678C92.2622 43.2494 92.4799 43.0802 92.731 42.9797C92.9886 42.8606 93.2707 42.8042 93.5544 42.815C93.8531 42.8319 94.14 42.938 94.3778 43.1197C94.6212 43.3052 94.8211 43.5417 94.9634 43.8127C95.1056 44.0837 95.1868 44.3825 95.2012 44.6883C95.2316 45.329 95.0116 45.9565 94.5877 46.438C94.1537 46.9281 93.5986 47.2958 92.978 47.5043C91.6694 47.8991 90.2663 47.844 88.9927 47.3478C87.7384 46.8784 86.5421 46.2664 85.4274 45.524C84.3986 44.8447 83.3148 44.2525 82.1874 43.7537C81.1687 43.3123 80.0587 43.1231 78.9514 43.202C77.9901 43.2979 77.0621 43.6058 76.2342 44.1036C75.0308 44.8388 74.038 45.8727 73.3523 47.1049C73.1597 47.437 72.9851 47.7792 72.8294 48.1301C72.781 48.2543 72.7246 48.3753 72.6606 48.4924C72.6636 48.4583 72.6719 48.425 72.6853 48.3936C72.71 48.3318 72.7389 48.233 72.7883 48.1136C72.9253 47.7526 73.0876 47.4018 73.2741 47.0638C73.9404 45.7914 74.9356 44.7209 76.156 43.9637C76.9921 43.4386 77.9341 43.1054 78.9143 42.9879C80.0526 42.896 81.1961 43.084 82.245 43.5355C83.3919 44.0295 84.4938 44.6218 85.5386 45.3058C86.635 46.0356 87.8103 46.6391 89.0421 47.1049C90.2674 47.5852 91.6181 47.6417 92.8792 47.2655C93.462 47.0766 93.9847 46.7372 94.3942 46.2815C94.5893 46.0665 94.7398 45.815 94.8373 45.5416C94.9349 45.2682 94.9773 44.9782 94.9624 44.6883C94.9538 44.4144 94.8861 44.1457 94.7639 43.9005C94.6417 43.6553 94.4678 43.4395 94.2543 43.2679C94.0484 43.1158 93.8046 43.0234 93.5497 43.0009C93.2947 42.9784 93.0385 43.0266 92.8092 43.1403C92.5833 43.2227 92.3857 43.3681 92.2398 43.5593C92.0939 43.7504 92.0058 43.9793 91.9858 44.2189C91.9918 44.4409 92.0483 44.6586 92.151 44.8555C92.2537 45.0524 92.4 45.2233 92.5786 45.3552C92.91 45.6046 93.3026 45.7597 93.7149 45.804C94.087 45.8471 94.4627 45.8471 94.8347 45.804C95.4365 45.77 96.0124 45.5483 96.4815 45.1699C96.7686 44.921 96.9762 44.5931 97.0785 44.2272C97.1121 44.0998 97.1382 43.9706 97.1567 43.8402Z" fill="#FFCC00"/>
<path d="M64.9741 54.2147C65.445 54.3495 65.9274 54.4405 66.4151 54.4864C66.9412 54.4975 67.4643 54.4052 67.9548 54.2147C68.5574 53.9807 69.1221 53.6588 69.6304 53.2595C70.5509 52.5274 71.2083 51.516 71.5037 50.3776C71.6049 49.8984 71.6737 49.4128 71.7095 48.9243C71.7541 49.0567 71.7722 49.1966 71.763 49.336C71.7713 49.7024 71.7368 50.0686 71.6601 50.427C71.4035 51.6292 70.7369 52.7048 69.7745 53.4695C69.2455 53.8836 68.6552 54.2127 68.0248 54.4452C67.5076 54.6344 66.9564 54.713 66.4068 54.6758C66.0383 54.6475 65.6762 54.5642 65.3323 54.4287C65.2016 54.3782 65.0805 54.3058 64.9741 54.2147Z" fill="#FFCC00"/>
<path d="M65.4062 57.5502C65.4062 57.509 65.9579 57.5914 66.8307 57.4843C67.9641 57.3481 69.0402 56.9102 69.9468 56.2165C70.8534 55.5228 71.5574 54.5986 71.9852 53.5403C72.3187 52.7169 72.3969 52.1775 72.4216 52.1858C72.4451 52.3137 72.4451 52.4448 72.4216 52.5728C72.3654 52.9218 72.2772 53.265 72.1581 53.5979C71.7589 54.7098 71.0474 55.6829 70.1091 56.4007C69.1708 57.1185 68.0454 57.5505 66.8678 57.6449C66.5159 57.6776 66.1616 57.6776 65.8097 57.6449C65.6705 57.6386 65.5337 57.6065 65.4062 57.5502Z" fill="#FFCC00"/>
<path d="M77.8317 63.5727C77.8078 63.5826 77.7814 63.585 77.7561 63.5796C77.7308 63.5741 77.7077 63.5611 77.69 63.5423C77.6722 63.5234 77.6606 63.4996 77.6567 63.474C77.6528 63.4484 77.6568 63.4222 77.6681 63.3989C77.6795 63.3757 77.6976 63.3564 77.7201 63.3436C77.7427 63.3309 77.7686 63.3253 77.7944 63.3277C77.8201 63.33 77.8446 63.3401 77.8645 63.3567C77.8844 63.3732 77.8988 63.3954 77.9058 63.4204C77.911 63.4352 77.9132 63.451 77.9123 63.4667C77.9114 63.4824 77.9073 63.4978 77.9004 63.512C77.8936 63.5261 77.8839 63.5388 77.8721 63.5492C77.8603 63.5596 77.8466 63.5676 77.8317 63.5727Z" fill="#EB996E"/>
<path d="M79.7864 63.0005C79.7596 63.0156 79.7287 63.022 79.698 63.0187C79.6673 63.0155 79.6384 63.0027 79.6153 62.9823C79.5923 62.9618 79.5761 62.9347 79.5692 62.9046C79.5623 62.8745 79.5649 62.8431 79.5767 62.8146C79.5885 62.7861 79.609 62.762 79.6351 62.7457C79.6613 62.7293 79.6919 62.7215 79.7227 62.7234C79.7535 62.7253 79.7829 62.7367 79.8069 62.7561C79.8308 62.7755 79.8482 62.8019 79.8564 62.8317C79.8631 62.8473 79.8667 62.8641 79.8668 62.8812C79.8669 62.8982 79.8635 62.9151 79.857 62.9308C79.8505 62.9465 79.8409 62.9608 79.8288 62.9728C79.8167 62.9847 79.8023 62.9941 79.7864 63.0005Z" fill="#EB996E"/>
<path d="M81.1215 62.8731C81.0598 62.8731 80.9939 62.8154 80.9733 62.7125C80.9527 62.6096 80.9733 62.519 81.0515 62.5067C81.1297 62.4943 81.1792 62.5643 81.1997 62.6672C81.2203 62.7701 81.1833 62.8607 81.1215 62.8731Z" fill="#EB996E"/>
<path d="M78.8928 64.7668C78.827 64.7668 78.7734 64.7421 78.7734 64.7009C78.7734 64.6598 78.8187 64.6268 78.8805 64.6227C78.9422 64.6186 78.9999 64.6474 78.9999 64.6886C78.9999 64.7297 78.9546 64.7627 78.8928 64.7668Z" fill="#EB996E"/>
<path d="M80.6842 64.2191C80.6585 64.2263 80.6312 64.2254 80.606 64.2168C80.5808 64.2081 80.5588 64.192 80.5429 64.1705C80.5271 64.1491 80.5181 64.1233 80.5172 64.0967C80.5163 64.07 80.5235 64.0437 80.5378 64.0213C80.5522 63.9988 80.573 63.9812 80.5976 63.9708C80.6222 63.9605 80.6493 63.9578 80.6754 63.9632C80.7015 63.9685 80.7254 63.9817 80.7439 64.001C80.7623 64.0202 80.7745 64.0446 80.7788 64.0709C80.7831 64.0869 80.784 64.1036 80.7814 64.1199C80.7789 64.1363 80.773 64.1519 80.7641 64.1658C80.7552 64.1797 80.7435 64.1917 80.7297 64.2009C80.716 64.21 80.7004 64.2163 80.6842 64.2191Z" fill="#EB996E"/>
<path d="M90.0956 62.4329C90.071 62.4436 90.0437 62.4466 90.0174 62.4414C89.9911 62.4362 89.967 62.4231 89.9483 62.4039C89.9296 62.3846 89.9173 62.3601 89.9129 62.3336C89.9085 62.3072 89.9123 62.28 89.9238 62.2558C89.9353 62.2315 89.9539 62.2114 89.9772 62.198C90.0004 62.1846 90.0272 62.1786 90.0539 62.1809C90.0807 62.1831 90.1061 62.1935 90.1268 62.2106C90.1474 62.2276 90.1624 62.2506 90.1697 62.2765C90.1755 62.2916 90.1782 62.3077 90.1776 62.3239C90.177 62.3401 90.1732 62.3559 90.1662 62.3706C90.1593 62.3852 90.1495 62.3983 90.1373 62.409C90.1252 62.4197 90.111 62.4278 90.0956 62.4329Z" fill="#EB996E"/>
<path d="M91.4428 62.2139C91.381 62.2139 91.3193 62.1686 91.3028 62.0904C91.2939 62.0571 91.2984 62.0216 91.3153 61.9916C91.3323 61.9616 91.3603 61.9394 91.3934 61.9298C91.4551 61.9298 91.5169 61.9751 91.5292 62.0533C91.5343 62.0695 91.5361 62.0866 91.5344 62.1035C91.5328 62.1204 91.5278 62.1368 91.5198 62.1518C91.5117 62.1667 91.5008 62.1799 91.4875 62.1906C91.4743 62.2013 91.4591 62.2092 91.4428 62.2139Z" fill="#EB996E"/>
<path d="M88.9021 62.5478C88.8885 62.5551 88.8734 62.5592 88.858 62.5599C88.8425 62.5606 88.8271 62.5578 88.8129 62.5517C88.7987 62.5456 88.7861 62.5364 88.7759 62.5248C88.7657 62.5132 88.7583 62.4994 88.7542 62.4845C88.7501 62.4696 88.7494 62.454 88.7521 62.4388C88.7549 62.4236 88.761 62.4092 88.7701 62.3967C88.7791 62.3842 88.7909 62.3739 88.8045 62.3665C88.8181 62.3592 88.8331 62.355 88.8486 62.3543C88.8622 62.347 88.8773 62.3428 88.8927 62.3421C88.9081 62.3415 88.9235 62.3443 88.9377 62.3503C88.9519 62.3564 88.9646 62.3656 88.9747 62.3772C88.9849 62.3889 88.9923 62.4026 88.9964 62.4175C89.0006 62.4324 89.0013 62.448 88.9985 62.4632C88.9958 62.4784 88.9897 62.4928 88.9806 62.5053C88.9715 62.5179 88.9598 62.5282 88.9462 62.5355C88.9326 62.5429 88.9175 62.547 88.9021 62.5478Z" fill="#EB996E"/>
<path d="M89.9968 63.832C89.9823 63.8388 89.9665 63.8426 89.9505 63.8432C89.9344 63.8438 89.9184 63.8411 89.9034 63.8353C89.8884 63.8296 89.8748 63.8208 89.8632 63.8096C89.8517 63.7985 89.8425 63.7851 89.8363 63.7703C89.8266 63.7569 89.82 63.7417 89.8167 63.7255C89.8135 63.7094 89.8137 63.6927 89.8175 63.6767C89.8212 63.6606 89.8283 63.6456 89.8384 63.6325C89.8484 63.6194 89.8611 63.6087 89.8757 63.601C89.8902 63.5933 89.9063 63.5887 89.9227 63.5877C89.9392 63.5867 89.9556 63.5893 89.971 63.5952C89.9864 63.6011 90.0003 63.6102 90.0119 63.6219C90.0235 63.6337 90.0324 63.6478 90.038 63.6632C90.0548 63.6911 90.0598 63.7245 90.0521 63.7561C90.0444 63.7877 90.0245 63.815 89.9968 63.832Z" fill="#EB996E"/>
<path d="M91.1409 63.5232C91.1268 63.5216 91.1131 63.5173 91.1007 63.5105C91.0883 63.5036 91.0774 63.4944 91.0686 63.4833C91.0598 63.4721 91.0533 63.4594 91.0494 63.4458C91.0456 63.4321 91.0445 63.4178 91.0462 63.4038C91.0474 63.3804 91.0557 63.3579 91.07 63.3394C91.0843 63.3208 91.1039 63.307 91.1262 63.2999C91.1485 63.2928 91.1725 63.2926 91.1949 63.2994C91.2173 63.3062 91.2371 63.3197 91.2516 63.3381C91.2662 63.3564 91.2748 63.3788 91.2764 63.4021C91.2779 63.4255 91.2723 63.4488 91.2602 63.4689C91.2482 63.489 91.2304 63.505 91.209 63.5146C91.1877 63.5243 91.1639 63.5273 91.1409 63.5232Z" fill="#EB996E"/>
<path d="M67.5801 69.6494C67.4965 69.9971 67.4784 70.3573 67.5266 70.7116C67.5955 71.083 67.7993 71.4158 68.0988 71.6461C68.275 71.7857 68.4825 71.8803 68.7034 71.9219C68.9243 71.9635 69.152 71.9508 69.3669 71.8849C69.5752 71.8096 69.7605 71.6817 69.9047 71.5136C70.049 71.3455 70.1474 71.143 70.1903 70.9257C70.2258 70.5501 70.1314 70.1736 69.9227 69.8594C69.7412 69.5507 69.4903 69.2885 69.1898 69.0936C69.1898 69.0607 69.6674 69.1718 70.0626 69.7729C70.3149 70.1142 70.4349 70.5355 70.4002 70.9586C70.3557 71.2196 70.2416 71.4637 70.0698 71.6651C69.8981 71.8666 69.6751 72.0179 69.4245 72.1031C69.1739 72.1809 68.9079 72.1948 68.6505 72.1438C68.3931 72.0928 68.1526 71.9783 67.9506 71.8108C67.6189 71.5438 67.4034 71.1587 67.3495 70.7363C67.3071 70.4599 67.3326 70.1773 67.4236 69.9129C67.5019 69.7482 67.5677 69.6453 67.5801 69.6494Z" fill="#312C73"/>
<path d="M67.5388 68.8678C67.5388 68.8431 67.7117 68.9131 67.8188 69.1642C67.8731 69.316 67.8731 69.4819 67.8188 69.6336C67.7855 69.7287 67.7312 69.8151 67.6599 69.8864C67.5886 69.9577 67.5022 70.012 67.4071 70.0453C67.3087 70.0775 67.2038 70.0849 67.1019 70.067C66.9999 70.049 66.9039 70.0062 66.8225 69.9424C66.7556 69.8915 66.702 69.8253 66.6662 69.7493C66.6304 69.6734 66.6133 69.5899 66.6166 69.506C66.6372 69.2178 66.8266 69.1313 66.8348 69.156C66.843 69.1807 66.7525 69.296 66.7813 69.5018C66.7871 69.5564 66.8049 69.6091 66.8334 69.656C66.8618 69.703 66.9003 69.7431 66.946 69.7736C67.0016 69.8107 67.065 69.8348 67.1313 69.8441C67.1976 69.8534 67.2651 69.8476 67.3288 69.8271C67.3938 69.8032 67.453 69.7659 67.5027 69.7177C67.5523 69.6695 67.5913 69.6114 67.617 69.5471C67.6639 69.4381 67.6754 69.3172 67.65 69.2013C67.6335 69.0037 67.5141 68.8925 67.5388 68.8678Z" fill="#312C73"/>
<path d="M103.139 128.955L102.353 137.679H106.47L110.109 137.621C111.495 137.772 112.891 137.809 114.284 137.732C114.351 137.733 114.417 137.718 114.477 137.687C114.693 137.657 114.905 137.606 115.111 137.535C115.482 137.399 115.865 137.16 115.807 136.753C115.626 135.517 114.885 135.402 114.885 135.402L114.51 135.377L114.481 135.27C115.045 135.27 115.519 135.27 115.77 135.229C115.889 135.229 115.955 135.2 115.963 135.184C115.972 135.167 117.421 135.011 117.31 134.241C117.133 133.006 116.387 132.891 116.387 132.891L115.189 132.813C115.77 132.813 116.264 132.813 116.523 132.771C116.638 132.771 116.708 132.747 116.717 132.73C116.725 132.714 118.174 132.553 118.063 131.783C117.882 130.548 117.141 130.437 117.141 130.437L116.149 130.367C116.618 130.367 117.009 130.367 117.227 130.33C117.347 130.33 117.412 130.301 117.421 130.285C117.429 130.268 118.878 130.112 118.767 129.342C118.59 128.107 117.845 127.992 117.845 127.992C117.845 127.992 115.552 127.827 113.979 127.765C113.979 127.765 112.192 126.151 111.509 126.225C110.459 126.337 104.345 128.597 104.345 128.597L103.139 128.955Z" fill="#FFBE9D"/>
<path d="M110.862 135.106C110.862 135.18 111.78 135.266 112.9 135.303C114.02 135.34 114.925 135.303 114.917 135.237C114.909 135.172 113.999 135.077 112.879 135.04C111.759 135.003 110.862 135.036 110.862 135.106Z" fill="#EB996E"/>
<path d="M110.837 132.64C110.837 132.71 112.134 132.817 113.719 132.875C115.304 132.932 116.601 132.916 116.626 132.846C116.651 132.776 115.329 132.665 113.744 132.611C112.159 132.558 110.862 132.566 110.837 132.64Z" fill="#EB996E"/>
<g opacity="0.78">
<path d="M111.046 130.127C111.046 130.201 112.339 130.308 113.928 130.362C115.517 130.415 116.834 130.407 116.834 130.333C116.834 130.259 115.542 130.156 113.952 130.098C112.363 130.041 111.046 130.057 111.046 130.127Z" fill="#EB996E"/>
</g>
<path d="M114.641 127.773C114.337 127.829 114.028 127.852 113.719 127.843L111.492 127.917L109.265 127.995C108.957 128.032 108.646 128.032 108.338 127.995C108.638 127.913 108.946 127.866 109.256 127.855C109.825 127.798 110.615 127.74 111.484 127.711C112.352 127.682 113.131 127.682 113.719 127.711C114.028 127.693 114.338 127.714 114.641 127.773Z" fill="#EB996E"/>
<path d="M103.25 127.671H103.106L102.694 127.65L101.088 127.555L95.1888 127.193C90.2031 126.888 83.3154 126.456 75.7072 126.069L71.6314 125.884H71.5326V125.785C71.4708 124.138 71.3185 122.516 71.1991 120.968C71.0797 119.42 70.9397 117.934 70.8162 116.526C70.5692 113.71 70.3469 111.198 70.1575 109.095C69.9681 106.991 69.8281 105.323 69.7458 104.154C69.6964 103.586 69.6635 103.141 69.6346 102.824C69.6346 102.68 69.6346 102.565 69.6141 102.479C69.6104 102.439 69.6104 102.399 69.6141 102.359C69.6264 102.397 69.6333 102.435 69.6346 102.475C69.6346 102.565 69.6593 102.676 69.6799 102.82C69.7129 103.137 69.7623 103.582 69.824 104.15C69.9434 105.319 70.1122 106.999 70.3222 109.091C70.5321 111.182 70.7627 113.702 71.0303 116.501C71.1538 117.909 71.2856 119.383 71.442 120.943C71.5984 122.504 71.722 124.097 71.7878 125.777L71.6849 125.67L75.7648 125.851C83.373 126.238 90.2608 126.695 95.2423 127.036L101.142 127.448L102.743 127.58L103.155 127.621L103.25 127.671Z" fill="#FFCC00"/>
<path d="M74.484 137.679C74.3963 137.54 74.3271 137.391 74.2782 137.234C74.2023 137.059 74.139 136.879 74.0888 136.695C74.009 136.453 73.9444 136.207 73.8953 135.958C73.8259 135.656 73.775 135.351 73.743 135.044C73.7018 134.692 73.6784 134.339 73.673 133.986C73.6551 132.353 74.0188 130.739 74.7352 129.272C74.8918 128.954 75.065 128.645 75.2539 128.345C75.4173 128.084 75.5945 127.831 75.785 127.588C75.9368 127.373 76.1018 127.168 76.279 126.974C76.4044 126.826 76.5421 126.688 76.6907 126.563C76.8055 126.446 76.9309 126.339 77.0654 126.246C77.0983 126.279 76.5714 126.74 75.9168 127.641C75.7376 127.886 75.5713 128.141 75.4186 128.403C75.2416 128.679 75.0934 128.996 74.9246 129.321C74.2359 130.776 73.8761 132.364 73.8706 133.973C73.8696 134.321 73.8861 134.669 73.92 135.015C73.9437 135.318 73.9849 135.619 74.0435 135.917C74.2494 137.003 74.5252 137.646 74.484 137.679Z" fill="white"/>
<path d="M128.722 137.711C128.722 137.769 111.578 137.818 90.4335 137.818C69.2887 137.818 52.1455 137.769 52.1455 137.711C52.1455 137.654 69.2845 137.604 90.4335 137.604C111.582 137.604 128.722 137.65 128.722 137.711Z" fill="#312C73"/>
<path d="M119.615 3.05352L60.8409 3C59.1577 2.99892 57.4909 3.32971 55.9357 3.97345C54.3805 4.61719 52.9675 5.56125 51.7775 6.75161C50.5875 7.94197 49.6439 9.35528 49.0007 10.9107C48.3575 12.4661 48.0272 14.133 48.0288 15.8162L48 163.171C48.0033 166.564 49.3524 169.817 51.7514 172.216C54.1503 174.615 57.403 175.964 60.7956 175.967L119.574 176C121.255 176.001 122.92 175.671 124.474 175.028C126.027 174.386 127.439 173.444 128.628 172.255C129.818 171.067 130.762 169.656 131.406 168.103C132.05 166.55 132.381 164.886 132.382 163.204L132.411 15.8491C132.41 12.4559 131.061 9.20188 128.662 6.80247C126.262 4.40307 123.008 3.05462 119.615 3.05352ZM128.487 161.059C128.486 162.237 128.252 163.402 127.8 164.489C127.348 165.576 126.686 166.564 125.852 167.395C125.018 168.226 124.029 168.885 122.94 169.333C121.852 169.782 120.685 170.012 119.508 170.01L60.8491 169.977C59.6716 169.976 58.5057 169.744 57.418 169.293C56.3303 168.842 55.3421 168.181 54.5098 167.348C53.6776 166.515 53.0175 165.526 52.5674 164.438C52.1173 163.35 51.8859 162.183 51.8864 161.006L51.9153 17.1789C51.9147 16.0009 52.1464 14.8343 52.5971 13.7459C53.0478 12.6575 53.7086 11.6686 54.5418 10.8358C55.375 10.003 56.3642 9.34257 57.4528 8.89238C58.5414 8.44219 59.7081 8.21103 60.8862 8.21211H74.8839C75.6323 8.2294 76.3434 8.54224 76.8618 9.08226C77.3802 9.62227 77.6638 10.3455 77.6506 11.094V13.1525C77.6373 13.901 77.9209 14.6242 78.4393 15.1642C78.9577 15.7043 79.6688 16.0171 80.4172 16.0344H102.649C103.398 16.0193 104.111 15.7072 104.631 15.1668C105.15 14.6265 105.434 13.902 105.42 13.1525V11.094C105.405 10.3452 105.689 9.62134 106.207 9.08108C106.726 8.54083 107.438 8.22833 108.186 8.21211H119.582C120.76 8.21643 121.925 8.45277 123.012 8.90765C124.099 9.36252 125.085 10.027 125.914 10.8632C126.744 11.6993 127.401 12.6907 127.847 13.7807C128.294 14.8708 128.521 16.0381 128.516 17.216L128.487 161.059Z" fill="#312C73"/>
<path d="M107.309 137.712H76.8105V151.29H107.309V137.712Z" fill="#312C73"/>
<path d="M128.491 137.712H102.258C102.258 143.497 97.3175 148.202 91.2902 148.202C85.2629 148.202 80.3267 143.497 80.3267 137.712H51.9194V161.241C51.9205 163.615 52.8635 165.893 54.5414 167.573C56.2193 169.253 58.4952 170.199 60.8698 170.204L119.529 170.236C120.707 170.238 121.873 170.006 122.962 169.556C124.051 169.106 125.04 168.446 125.873 167.613C126.706 166.78 127.367 165.791 127.818 164.703C128.268 163.614 128.5 162.448 128.5 161.27L128.491 137.712Z" fill="#333333"/>
<path d="M81.8574 152.122H83.6524C84.9452 152.122 85.8344 152.904 85.8344 154.098C85.8344 155.292 84.9452 156.074 83.6524 156.074H81.8574V152.122ZM83.6071 155.325C83.7813 155.347 83.9583 155.332 84.1263 155.281C84.2943 155.23 84.4495 155.144 84.5814 155.028C84.7134 154.912 84.8191 154.769 84.8915 154.609C84.9639 154.449 85.0014 154.275 85.0014 154.1C85.0014 153.924 84.9639 153.751 84.8915 153.591C84.8191 153.431 84.7134 153.288 84.5814 153.172C84.4495 153.056 84.2943 152.97 84.1263 152.918C83.9583 152.867 83.7813 152.852 83.6071 152.875H82.7837V155.325H83.6071Z" fill="white"/>
<path d="M89.1443 154.341V156.074H88.3209V155.7C88.2172 155.844 88.0766 155.959 87.9138 156.031C87.7509 156.104 87.5717 156.131 87.3946 156.111C86.6823 156.111 86.2583 155.7 86.2583 155.193C86.2583 154.687 86.6371 154.283 87.5634 154.283H88.2633C88.2633 153.905 88.0368 153.686 87.5634 153.686C87.25 153.684 86.944 153.782 86.6906 153.966L86.3736 153.353C86.7632 153.101 87.2192 152.972 87.6828 152.982C88.6297 152.991 89.1443 153.423 89.1443 154.341ZM88.2633 155.115V154.806H87.6622C87.2505 154.806 87.1188 154.958 87.1188 155.16C87.1188 155.362 87.304 155.527 87.6128 155.527C87.751 155.537 87.8889 155.502 88.006 155.428C88.1231 155.354 88.2133 155.244 88.2633 155.115Z" fill="white"/>
<path d="M93.0478 154.336V156.074H92.1667V154.472C92.1667 153.982 91.9403 153.756 91.5492 153.756C91.1581 153.756 90.8205 154.015 90.8205 154.579V156.078H89.9395V153.043H90.7629V153.397C90.8919 153.262 91.0481 153.155 91.2212 153.084C91.3943 153.013 91.5804 152.98 91.7674 152.986C92.5043 152.99 93.0478 153.41 93.0478 154.336Z" fill="white"/>
<path d="M93.7358 152.122C93.7373 152.053 93.7528 151.985 93.7816 151.922C93.8104 151.859 93.8517 151.803 93.9031 151.757C93.9545 151.712 94.0147 151.677 94.0802 151.655C94.1456 151.633 94.2148 151.625 94.2834 151.632C94.3509 151.624 94.4193 151.631 94.4841 151.651C94.549 151.671 94.609 151.705 94.6604 151.749C94.7118 151.793 94.7534 151.848 94.7828 151.909C94.8121 151.97 94.8285 152.037 94.831 152.105C94.8311 152.175 94.8168 152.245 94.7889 152.309C94.7609 152.374 94.72 152.432 94.6686 152.48C94.6172 152.528 94.5564 152.565 94.4902 152.588C94.4239 152.611 94.3535 152.621 94.2834 152.616C94.2146 152.621 94.1453 152.613 94.0798 152.591C94.0144 152.568 93.9542 152.533 93.9029 152.487C93.8516 152.441 93.8103 152.384 93.7816 152.321C93.7529 152.259 93.7373 152.191 93.7358 152.122ZM93.8429 153.04H94.7239V156.074H93.8429V153.04Z" fill="white"/>
<path d="M98.5118 154.805H96.2145C96.2642 154.993 96.3787 155.157 96.5376 155.269C96.6966 155.38 96.8898 155.432 97.0832 155.415C97.2234 155.421 97.3633 155.398 97.4943 155.348C97.6253 155.297 97.7446 155.221 97.8448 155.122L98.3142 155.629C98.156 155.795 97.9637 155.925 97.7504 156.009C97.5372 156.094 97.3081 156.131 97.0791 156.119C96.0292 156.119 95.3458 155.46 95.3458 154.554C95.3434 154.344 95.3839 154.135 95.4651 153.94C95.5462 153.746 95.6662 153.57 95.8177 153.423C95.9691 153.277 96.1489 153.163 96.346 153.088C96.5431 153.014 96.7533 152.98 96.9638 152.99C97.1704 152.984 97.376 153.021 97.5678 153.098C97.7596 153.175 97.9335 153.291 98.0787 153.438C98.2239 153.585 98.3373 153.76 98.4118 153.953C98.4863 154.146 98.5203 154.352 98.5118 154.558C98.5118 154.637 98.5118 154.731 98.5118 154.805ZM96.2021 154.291H97.6884C97.6564 154.115 97.5639 153.957 97.427 153.843C97.29 153.728 97.1174 153.666 96.9391 153.666C96.7608 153.666 96.5881 153.728 96.4512 153.843C96.3143 153.957 96.2218 154.115 96.1898 154.291H96.2021Z" fill="white"/>
<path d="M99.1045 151.886H99.9855V156.073H99.1045V151.886Z" fill="white"/>
<path d="M87.5151 158.915V161.232H87.3463V159.087H86.7822V158.935L87.5151 158.915Z" fill="white"/>
<path d="M88.103 160.076C88.103 159.351 88.4777 158.898 89.0088 158.898C89.5399 158.898 89.9186 159.351 89.9186 160.076C89.9186 160.8 89.544 161.249 89.0088 161.249C88.4736 161.249 88.103 160.8 88.103 160.076ZM89.7498 160.076C89.7498 159.429 89.4493 159.055 89.0088 159.055C88.5682 159.055 88.2718 159.429 88.2718 160.076C88.2718 160.722 88.5724 161.093 89.0088 161.093C89.4452 161.093 89.7498 160.734 89.7498 160.076Z" fill="white"/>
<path d="M90.2774 159.631C90.274 159.611 90.2749 159.59 90.2802 159.571C90.2856 159.551 90.2951 159.533 90.3083 159.517C90.3214 159.501 90.3378 159.489 90.3563 159.48C90.3748 159.472 90.395 159.467 90.4154 159.467C90.4358 159.467 90.4559 159.472 90.4744 159.48C90.4929 159.489 90.5093 159.501 90.5225 159.517C90.5356 159.533 90.5452 159.551 90.5505 159.571C90.5558 159.59 90.5568 159.611 90.5533 159.631C90.5568 159.651 90.5558 159.672 90.5505 159.691C90.5452 159.711 90.5356 159.729 90.5225 159.745C90.5093 159.761 90.4929 159.773 90.4744 159.782C90.4559 159.79 90.4358 159.795 90.4154 159.795C90.395 159.795 90.3748 159.79 90.3563 159.782C90.3378 159.773 90.3214 159.761 90.3083 159.745C90.2951 159.729 90.2856 159.711 90.2802 159.691C90.2749 159.672 90.274 159.651 90.2774 159.631ZM90.2774 161.105C90.274 161.085 90.2749 161.064 90.2802 161.044C90.2856 161.025 90.2951 161.006 90.3083 160.991C90.3214 160.975 90.3378 160.963 90.3563 160.954C90.3748 160.945 90.395 160.941 90.4154 160.941C90.4358 160.941 90.4559 160.945 90.4744 160.954C90.4929 160.963 90.5093 160.975 90.5225 160.991C90.5356 161.006 90.5452 161.025 90.5505 161.044C90.5558 161.064 90.5568 161.085 90.5533 161.105C90.5568 161.125 90.5558 161.146 90.5505 161.165C90.5452 161.185 90.5356 161.203 90.5225 161.219C90.5093 161.234 90.4929 161.247 90.4744 161.256C90.4559 161.264 90.4358 161.269 90.4154 161.269C90.395 161.269 90.3748 161.264 90.3563 161.256C90.3378 161.247 90.3214 161.234 90.3083 161.219C90.2951 161.203 90.2856 161.185 90.2802 161.165C90.2749 161.146 90.274 161.125 90.2774 161.105Z" fill="white"/>
<path d="M90.9448 160.076C90.9448 159.351 91.3195 158.898 91.8547 158.898C92.3899 158.898 92.7604 159.351 92.7604 160.076C92.7604 160.8 92.3858 161.249 91.8547 161.249C91.3236 161.249 90.9448 160.8 90.9448 160.076ZM92.5916 160.076C92.5916 159.429 92.2911 159.055 91.8547 159.055C91.4183 159.055 91.1136 159.429 91.1136 160.076C91.1136 160.722 91.4183 161.093 91.8547 161.093C92.2911 161.093 92.5916 160.734 92.5916 160.076Z" fill="white"/>
<path d="M95.0617 160.59H94.5718V161.232H94.3948V160.59H93.0732V160.467L94.333 158.915H94.5224L93.2873 160.442H94.3948V159.874H94.5554V160.442H95.0453L95.0617 160.59Z" fill="white"/>
<path d="M66.81 148.7H61.565C60.5532 148.7 59.7329 149.52 59.7329 150.532V155.777C59.7329 156.789 60.5532 157.609 61.565 157.609H66.81C67.8218 157.609 68.6421 156.789 68.6421 155.777V150.532C68.6421 149.52 67.8218 148.7 66.81 148.7Z" fill="#FAFAFA"/>
<path d="M119.766 157H114.826C114.313 156.999 113.822 156.795 113.459 156.433C113.096 156.07 112.892 155.578 112.891 155.065V150.125C112.892 149.613 113.097 149.121 113.459 148.759C113.822 148.398 114.314 148.194 114.826 148.194H119.766C120.279 148.194 120.771 148.398 121.133 148.759C121.496 149.121 121.7 149.613 121.701 150.125V155.065C121.7 155.578 121.496 156.07 121.134 156.433C120.771 156.795 120.279 156.999 119.766 157ZM114.826 148.396C114.368 148.396 113.929 148.578 113.605 148.901C113.281 149.224 113.098 149.663 113.097 150.121V155.061C113.098 155.52 113.281 155.959 113.605 156.283C113.929 156.607 114.368 156.789 114.826 156.79H119.766C120.225 156.79 120.665 156.608 120.989 156.284C121.313 155.96 121.496 155.52 121.496 155.061V150.121C121.495 149.663 121.312 149.224 120.988 148.901C120.664 148.578 120.224 148.396 119.766 148.396H114.826Z" fill="white"/>
<path d="M65.8104 151.705H62.5621C62.4529 151.705 62.3482 151.749 62.271 151.826C62.1938 151.903 62.1504 152.008 62.1504 152.117V154.266C62.1504 154.375 62.1938 154.48 62.271 154.557C62.3482 154.634 62.4529 154.678 62.5621 154.678H62.8379V155.625L63.933 154.678H65.8104C65.9196 154.678 66.0243 154.634 66.1015 154.557C66.1787 154.48 66.2221 154.375 66.2221 154.266V152.129C66.2238 152.074 66.2143 152.019 66.1944 151.968C66.1744 151.917 66.1444 151.87 66.106 151.83C66.0676 151.791 66.0216 151.759 65.9709 151.738C65.9201 151.716 65.8655 151.705 65.8104 151.705ZM63.1549 153.599C63.0911 153.6 63.0284 153.582 62.975 153.547C62.9216 153.512 62.8798 153.462 62.855 153.403C62.8301 153.344 62.8234 153.279 62.8357 153.216C62.848 153.154 62.8786 153.096 62.9238 153.051C62.9689 153.006 63.0265 152.975 63.0892 152.963C63.1519 152.951 63.2168 152.957 63.2756 152.982C63.3345 153.007 63.3846 153.049 63.4195 153.102C63.4545 153.156 63.4728 153.218 63.4719 153.282C63.4719 153.366 63.4385 153.447 63.3791 153.506C63.3196 153.566 63.239 153.599 63.1549 153.599ZM64.143 153.599C64.0793 153.599 64.0171 153.58 63.9642 153.545C63.9113 153.509 63.8701 153.459 63.846 153.4C63.8218 153.341 63.8157 153.276 63.8284 153.214C63.8411 153.151 63.8721 153.094 63.9174 153.049C63.9628 153.005 64.0204 152.974 64.0829 152.963C64.1455 152.951 64.2102 152.958 64.2688 152.983C64.3274 153.007 64.3772 153.049 64.412 153.103C64.4468 153.156 64.465 153.218 64.4641 153.282C64.4631 153.367 64.4287 153.447 64.3686 153.507C64.3085 153.566 64.2275 153.599 64.143 153.599ZM65.2011 153.599C65.1374 153.599 65.0752 153.58 65.0223 153.545C64.9694 153.509 64.9282 153.459 64.904 153.4C64.8798 153.341 64.8737 153.276 64.8865 153.214C64.8992 153.151 64.9302 153.094 64.9755 153.049C65.0208 153.005 65.0784 152.974 65.141 152.963C65.2036 152.951 65.2683 152.958 65.3269 152.983C65.3855 153.007 65.4353 153.049 65.4701 153.103C65.5049 153.156 65.523 153.218 65.5222 153.282C65.5211 153.367 65.4868 153.447 65.4267 153.507C65.3666 153.566 65.2855 153.599 65.2011 153.599Z" fill="#333333"/>
<path d="M116.166 153.735C116.141 153.734 116.117 153.724 116.098 153.707C116.08 153.689 116.069 153.666 116.067 153.641C115.82 151.582 117.351 150.936 117.368 150.932C117.393 150.922 117.42 150.922 117.445 150.932C117.469 150.942 117.489 150.961 117.5 150.985C117.506 150.997 117.509 151.011 117.51 151.025C117.51 151.038 117.508 151.052 117.503 151.065C117.498 151.078 117.49 151.089 117.48 151.099C117.471 151.108 117.459 151.116 117.446 151.121C117.389 151.146 116.042 151.726 116.269 153.62C116.27 153.633 116.269 153.647 116.266 153.66C116.262 153.673 116.256 153.685 116.247 153.695C116.239 153.705 116.228 153.714 116.216 153.72C116.205 153.726 116.192 153.73 116.178 153.731L116.166 153.735Z" fill="white"/>
<path d="M116.164 153.735C116.134 153.734 116.106 153.72 116.086 153.698L115.44 152.937C115.43 152.927 115.422 152.916 115.416 152.903C115.411 152.89 115.408 152.876 115.408 152.863C115.408 152.849 115.411 152.835 115.416 152.822C115.422 152.81 115.43 152.798 115.44 152.788C115.459 152.771 115.485 152.761 115.512 152.761C115.538 152.761 115.564 152.771 115.584 152.788L116.148 153.455L116.646 152.793C116.655 152.783 116.666 152.775 116.679 152.77C116.691 152.764 116.705 152.761 116.718 152.761C116.732 152.761 116.745 152.764 116.757 152.77C116.77 152.775 116.781 152.783 116.79 152.793C116.801 152.801 116.81 152.811 116.817 152.823C116.824 152.834 116.828 152.847 116.83 152.86C116.832 152.874 116.831 152.887 116.828 152.9C116.825 152.914 116.819 152.926 116.811 152.937L116.234 153.698C116.225 153.71 116.213 153.72 116.2 153.727C116.186 153.734 116.171 153.739 116.156 153.74L116.164 153.735Z" fill="white"/>
<path d="M117.187 154.271C117.166 154.271 117.146 154.264 117.129 154.253C117.113 154.241 117.1 154.224 117.092 154.205C117.082 154.18 117.083 154.153 117.093 154.128C117.102 154.104 117.122 154.084 117.146 154.073C117.203 154.049 118.55 153.464 118.323 151.574C118.321 151.561 118.322 151.547 118.326 151.534C118.33 151.521 118.336 151.508 118.344 151.498C118.353 151.487 118.363 151.478 118.375 151.471C118.387 151.465 118.4 151.461 118.414 151.459C118.441 151.458 118.467 151.466 118.488 151.483C118.51 151.499 118.524 151.523 118.529 151.55C118.772 153.608 117.24 154.254 117.224 154.263L117.187 154.271Z" fill="white"/>
<path d="M117.862 152.426C117.839 152.427 117.817 152.42 117.8 152.406C117.778 152.389 117.764 152.365 117.76 152.338C117.756 152.311 117.763 152.284 117.779 152.262L118.356 151.5C118.365 151.488 118.376 151.477 118.39 151.47C118.404 151.463 118.419 151.459 118.434 151.459C118.464 151.461 118.492 151.474 118.512 151.496L119.159 152.258C119.177 152.277 119.188 152.303 119.188 152.33C119.188 152.357 119.177 152.382 119.159 152.402C119.139 152.421 119.112 152.431 119.084 152.431C119.057 152.431 119.03 152.421 119.01 152.402L118.446 151.735L117.948 152.393C117.938 152.406 117.924 152.415 117.909 152.421C117.894 152.427 117.878 152.429 117.862 152.426Z" fill="white"/>
<path d="M64.1217 30.1639C67.4687 30.1639 70.1819 27.4506 70.1819 24.1037C70.1819 20.7567 67.4687 18.0435 64.1217 18.0435C60.7748 18.0435 58.0615 20.7567 58.0615 24.1037C58.0615 27.4506 60.7748 30.1639 64.1217 30.1639Z" fill="#EBEBEB"/>
<path d="M63.7977 25.8736C63.7697 25.8723 63.7432 25.8606 63.7235 25.8407L62.1426 24.1939C62.1247 24.1741 62.1147 24.1485 62.1147 24.1218C62.1147 24.0952 62.1247 24.0695 62.1426 24.0498L63.7235 22.403C63.7435 22.3838 63.77 22.3732 63.7977 22.3732C63.8253 22.3732 63.8518 22.3838 63.8718 22.403C63.8817 22.4126 63.8896 22.4241 63.8951 22.4368C63.9005 22.4495 63.9033 22.4632 63.9033 22.4771C63.9033 22.4909 63.9005 22.5046 63.8951 22.5173C63.8896 22.5301 63.8817 22.5416 63.8718 22.5512L62.3608 24.1403L63.8718 25.7336C63.8817 25.7432 63.8896 25.7547 63.8951 25.7675C63.9005 25.7802 63.9033 25.7939 63.9033 25.8077C63.9033 25.8216 63.9005 25.8352 63.8951 25.848C63.8896 25.8607 63.8817 25.8722 63.8718 25.8818C63.8468 25.8871 63.8208 25.8842 63.7977 25.8736Z" fill="#312C73"/>
<path d="M66.5432 24.2065H62.2162C62.1889 24.2065 62.1627 24.1956 62.1434 24.1763C62.1241 24.157 62.1133 24.1308 62.1133 24.1035C62.1143 24.0766 62.1255 24.051 62.1446 24.0319C62.1636 24.0128 62.1892 24.0016 62.2162 24.0006H66.5432C66.5705 24.0006 66.5966 24.0115 66.6159 24.0308C66.6352 24.0501 66.6461 24.0762 66.6461 24.1035C66.6461 24.1308 66.6352 24.157 66.6159 24.1763C66.5966 24.1956 66.5705 24.2065 66.5432 24.2065Z" fill="#312C73"/>
<path d="M123.847 130.954C124.332 127.983 122.316 125.182 119.345 124.697C116.373 124.213 113.572 126.229 113.088 129.2C112.603 132.171 114.619 134.973 117.59 135.457C120.562 135.941 123.363 133.925 123.847 130.954Z" fill="#333333"/>
<path d="M118.462 131.289C118.202 131.289 117.952 131.186 117.768 131.003C117.583 130.819 117.479 130.57 117.478 130.309V128.165C117.478 127.904 117.582 127.653 117.766 127.469C117.951 127.284 118.201 127.181 118.462 127.181C118.723 127.181 118.973 127.284 119.158 127.469C119.342 127.653 119.446 127.904 119.446 128.165V130.309C119.445 130.57 119.341 130.819 119.156 131.003C118.972 131.186 118.722 131.289 118.462 131.289ZM118.462 127.391C118.256 127.391 118.059 127.472 117.913 127.617C117.767 127.762 117.685 127.959 117.684 128.165V130.309C117.684 130.516 117.766 130.714 117.912 130.86C118.058 131.006 118.256 131.088 118.462 131.088C118.668 131.088 118.866 131.006 119.012 130.86C119.158 130.714 119.24 130.516 119.24 130.309V128.165C119.24 127.958 119.158 127.76 119.012 127.614C118.866 127.468 118.668 127.386 118.462 127.386V127.391Z" fill="white"/>
<path d="M118.462 131.981C118.206 131.995 117.95 131.954 117.712 131.859C117.474 131.764 117.259 131.619 117.083 131.433C116.687 130.912 116.501 130.261 116.56 129.61C116.563 129.582 116.576 129.557 116.597 129.54C116.619 129.522 116.646 129.514 116.673 129.517C116.701 129.52 116.726 129.533 116.743 129.554C116.76 129.576 116.769 129.603 116.766 129.63C116.716 130.224 116.883 130.817 117.235 131.297C117.394 131.462 117.587 131.59 117.8 131.672C118.013 131.755 118.242 131.79 118.47 131.775C118.698 131.785 118.925 131.748 119.138 131.666C119.351 131.584 119.544 131.458 119.705 131.297C120.087 130.824 120.287 130.23 120.269 129.622C120.269 129.595 120.28 129.57 120.298 129.55C120.317 129.531 120.342 129.52 120.368 129.519C120.382 129.518 120.395 129.521 120.408 129.525C120.421 129.53 120.432 129.537 120.442 129.546C120.452 129.555 120.46 129.566 120.466 129.579C120.472 129.591 120.475 129.604 120.475 129.618C120.497 130.281 120.276 130.93 119.854 131.442C119.672 131.623 119.454 131.765 119.215 131.858C118.975 131.951 118.719 131.993 118.462 131.981Z" fill="white"/>
<path d="M118.462 133.488C118.435 133.488 118.409 133.477 118.39 133.458C118.37 133.439 118.359 133.413 118.359 133.385V131.878C118.359 131.851 118.37 131.825 118.39 131.806C118.409 131.786 118.435 131.776 118.462 131.776C118.49 131.776 118.516 131.786 118.535 131.806C118.554 131.825 118.565 131.851 118.565 131.878V133.385C118.565 133.413 118.554 133.439 118.535 133.458C118.516 133.477 118.49 133.488 118.462 133.488Z" fill="white"/>
<path d="M91.2904 146.827C96.5837 146.827 100.875 142.536 100.875 137.242C100.875 131.949 96.5837 127.658 91.2904 127.658C85.9971 127.658 81.7061 131.949 81.7061 137.242C81.7061 142.536 85.9971 146.827 91.2904 146.827Z" fill="#333333"/>
<path d="M90.4389 134.592C90.2507 134.442 90.0323 134.336 89.7987 134.28C89.5651 134.224 89.3222 134.22 89.0868 134.268C88.8515 134.315 88.6294 134.414 88.4363 134.557C88.2431 134.7 88.0835 134.883 87.9687 135.094C87.8586 135.295 87.8215 135.527 87.8635 135.753C87.9056 135.978 88.0241 136.181 88.1992 136.329C89.0802 137.194 90.9288 138.927 91.7316 139.68C91.9485 139.887 92.2092 140.042 92.4943 140.134C92.7794 140.226 93.0816 140.252 93.3784 140.211C93.6111 140.178 93.8343 140.096 94.034 139.972C94.2338 139.848 94.4058 139.684 94.5394 139.491C95.4492 138.256 93.2755 137.276 93.2755 137.276L92.3244 138.272L90.1095 136.135L91.0811 135.065L90.4389 134.592Z" fill="white"/>
</svg>
