<svg width="180" height="192" viewBox="0 0 180 192" fill="none" xmlns="http://www.w3.org/2000/svg">
<circle cx="90" cy="96" r="90" fill="#DCD9F2"/>
<path d="M136.523 94.879C136.186 95.1308 135.809 95.3249 135.409 95.4531C134.307 95.8337 133.107 95.8184 132.016 95.4099C131.259 95.1338 130.579 94.6826 130.03 94.0932C129.398 93.4125 128.962 92.5745 128.765 91.6671C128.654 91.1789 128.619 90.6765 128.661 90.1777C128.697 89.6559 128.815 89.1431 129.011 88.6581C129.418 87.6283 130.145 86.7561 131.084 86.1695C132.024 85.5829 133.126 85.3127 134.23 85.3987C135.257 85.4795 136.236 85.8626 137.045 86.4995C137.774 87.0748 138.334 87.8352 138.668 88.7012C138.958 89.4526 139.066 90.2617 138.983 91.0627C138.868 92.2233 138.354 93.308 137.529 94.1321C137.237 94.435 136.897 94.6874 136.523 94.879C136.847 94.625 137.157 94.3526 137.451 94.063C138.221 93.2338 138.69 92.1692 138.78 91.0411C138.848 90.2742 138.734 89.5022 138.448 88.7876C138.121 87.9677 137.582 87.2495 136.885 86.7068C136.512 86.414 136.097 86.1783 135.655 86.0074C135.195 85.8223 134.708 85.7129 134.213 85.6836C133.17 85.6045 132.129 85.8604 131.241 86.4141C130.354 86.9677 129.666 87.7901 129.279 88.7617C129.092 89.2202 128.978 89.7053 128.942 90.1993C128.898 90.6715 128.928 91.1475 129.028 91.6109C129.198 92.4197 129.566 93.1734 130.101 93.8036C130.635 94.4338 131.319 94.9207 132.089 95.22C133.141 95.6292 134.299 95.6733 135.379 95.3452C136.156 95.1078 136.505 94.8487 136.523 94.879Z" fill="#E0E0E0"/>
<path d="M137.451 101.592L137.58 101.709L137.969 102.084L139.488 103.582H139.432L143.421 101.057L143.391 101.143C143.102 100.332 142.782 99.4163 142.441 98.4536V98.4061L142.476 98.3672C143.175 97.6208 143.769 96.7828 144.242 95.8763L144.267 95.8245H147.182L147.078 95.9022C147.41 94.456 147.764 92.9148 148.131 91.3002L148.192 91.4297L145.623 90.195L145.558 90.1648V90.0914C145.525 89.0661 145.355 88.0498 145.053 87.0695L145.032 86.9961L145.083 86.9443C145.714 86.3226 146.404 85.6492 147.108 84.9326V85.0966L144.552 81.112L144.712 81.1681L142.023 82.1092L141.941 82.1351L141.88 82.079C141.137 81.3839 140.305 80.7902 139.406 80.3133L139.329 80.2744V80.1881C139.329 79.2945 139.329 78.3231 139.329 77.3345L139.441 77.477L134.861 76.4193L135.025 76.3416L133.781 78.9318L133.747 79.0095H133.656C132.641 79.0422 131.635 79.2092 130.664 79.506L130.518 79.4672L130.487 79.4369L130.423 79.3722L130.297 79.2427L130.047 78.988L129.542 78.4829L128.54 77.4727L128.722 77.4943L124.716 79.9938L124.776 79.8211C125.09 80.7277 125.402 81.6257 125.713 82.515L125.743 82.597L125.683 82.6618C124.985 83.4025 124.391 84.2347 123.917 85.1355L123.874 85.2088H123.792H120.938L121.072 85.1009C120.709 86.6666 120.354 88.1991 120.006 89.6986L119.932 89.5475L122.501 90.7908L122.57 90.8253V90.903C122.598 91.9282 122.765 92.9448 123.066 93.925L123.088 93.9984L123.032 94.0502L121.003 96.0533V95.9022L123.494 99.9127L123.364 99.8696L126.058 98.9371L126.119 98.9155L126.166 98.9587C126.91 99.6582 127.743 100.256 128.644 100.737L128.696 100.763V100.824C128.696 101.86 128.696 102.792 128.674 103.673L128.605 103.591L133.199 104.674L133.125 104.709L134.386 102.149V102.123H134.412C135.185 102.101 135.954 102.006 136.708 101.838L137.265 101.704L137.451 101.665L137.27 101.73C137.149 101.769 136.967 101.825 136.717 101.886C135.963 102.075 135.192 102.187 134.416 102.218L134.455 102.188L133.233 104.778L133.207 104.826H133.16L128.553 103.785H128.489V103.716C128.489 102.853 128.489 101.899 128.489 100.863L128.536 100.949C127.617 100.466 126.766 99.8616 126.006 99.153L126.11 99.1745L123.42 100.12L123.338 100.15L123.291 100.077L120.783 96.0749L120.731 95.9929L120.8 95.9238L122.82 93.9164L122.79 94.0415C122.482 93.046 122.309 92.0137 122.276 90.9721L122.35 91.0844L119.76 89.8497L119.665 89.8022L119.686 89.6986L120.761 84.9973L120.783 84.8894H120.895H123.748L123.623 84.9628C124.111 84.04 124.719 83.1863 125.432 82.4243L125.402 82.5711C125.091 81.6818 124.777 80.7839 124.461 79.8773L124.422 79.7693L124.521 79.7089L128.523 77.2093L128.622 77.1446L128.704 77.2266L129.706 78.2368L130.207 78.7462L130.462 79.0009L130.587 79.1304L130.651 79.1909L130.682 79.2254C130.388 79.152 130.6 79.2038 130.535 79.1865C131.531 78.8816 132.563 78.7103 133.604 78.6771L133.479 78.7592L134.722 76.1689L134.77 76.0653L134.882 76.0912L139.48 77.1532L139.592 77.1791V77.2957C139.592 78.28 139.592 79.2556 139.592 80.1492L139.519 80.0241C140.44 80.5117 141.292 81.12 142.053 81.8329L141.915 81.8027L144.609 80.8702L144.708 80.8313L144.768 80.9263L147.264 84.9326L147.315 85.0189L147.242 85.0923C146.538 85.7916 145.843 86.4737 145.213 87.0954L145.247 86.9702C145.55 87.9667 145.72 88.9987 145.753 90.0396L145.683 89.936L148.252 91.1837L148.334 91.2225L148.313 91.3088C147.937 92.9234 147.574 94.4603 147.238 95.9065V95.9885H147.156H144.302L144.384 95.9367C143.897 96.8529 143.288 97.6994 142.575 98.4536V98.3672C142.912 99.3386 143.223 100.249 143.503 101.065L143.525 101.122L143.473 101.152L139.454 103.63H139.424L139.398 103.604L137.926 102.084L137.55 101.687C137.515 101.658 137.482 101.626 137.451 101.592Z" fill="#E0E0E0"/>
<path d="M29.6798 50.7414C29.7273 50.7846 27.7026 52.8611 25.1599 55.3736C22.6171 57.8861 20.5233 59.8893 20.4802 59.8461C20.437 59.8029 22.4617 57.7264 25.0044 55.2139C27.5472 52.7014 29.6367 50.6982 29.6798 50.7414Z" fill="#E0E0E0"/>
<path d="M29.7015 59.8244C29.6583 59.8676 27.543 57.8731 25.0045 55.3735C22.4661 52.874 20.4155 50.8104 20.4587 50.7629C20.5018 50.7154 22.6172 52.7099 25.16 55.2138C27.7027 57.7177 29.749 59.7769 29.7015 59.8244Z" fill="#E0E0E0"/>
<path d="M38.8364 108.197C38.8364 108.258 36.2461 108.033 33.0688 107.701C29.8914 107.368 27.3184 107.04 27.3228 106.98C27.3271 106.92 29.913 107.14 33.0904 107.476C36.2677 107.813 38.845 108.133 38.8364 108.197Z" fill="#E0E0E0"/>
<path d="M38.3784 112.531C38.3784 112.592 35.7881 112.372 32.6108 112.035C29.4334 111.698 26.8561 111.379 26.8648 111.318C26.8734 111.258 29.455 111.478 32.6324 111.81C35.8097 112.143 38.387 112.471 38.3784 112.531Z" fill="#E0E0E0"/>
<path d="M7.50732 105.547C7.51074 105.6 7.51074 105.653 7.50732 105.706C7.50732 105.823 7.50733 105.978 7.54186 106.177C7.57208 106.609 7.61093 107.209 7.66706 107.99C7.77066 109.561 7.90449 111.841 8.05991 114.651C8.37074 120.263 8.73769 128.06 9.11327 136.668C9.48886 145.277 9.83422 153.043 10.1148 158.685C10.2573 161.491 10.3739 163.771 10.4559 165.351C10.4947 166.132 10.525 166.741 10.5465 167.164C10.5465 167.363 10.5465 167.522 10.5465 167.635C10.5494 167.688 10.5494 167.741 10.5465 167.794C10.5465 167.794 10.5465 167.743 10.5465 167.635C10.5465 167.527 10.5465 167.367 10.512 167.164C10.4818 166.732 10.4386 166.137 10.3868 165.355C10.2832 163.784 10.1494 161.504 9.99395 158.69C9.67881 153.077 9.31617 145.285 8.94059 136.673C8.565 128.06 8.21964 120.302 7.93471 114.656C7.79225 111.845 7.67569 109.57 7.59798 107.99C7.55913 107.209 7.52891 106.6 7.50732 106.177C7.50732 105.974 7.50732 105.819 7.50732 105.706C7.50732 105.594 7.50732 105.547 7.50732 105.547Z" fill="#E0E0E0"/>
<path d="M2.18018 120.924C2.2828 120.991 2.377 121.071 2.46079 121.161C2.63778 121.321 2.89249 121.558 3.18605 121.856C3.78612 122.452 4.59773 123.298 5.47409 124.248L7.70601 126.691L8.38379 127.425C8.47509 127.509 8.55492 127.605 8.62123 127.71C8.51822 127.643 8.4227 127.565 8.3363 127.477C8.16362 127.313 7.9046 127.075 7.61536 126.773C7.0196 126.173 6.21231 125.318 5.3489 124.369L3.09971 121.942L2.41761 121.209C2.32555 121.125 2.24562 121.029 2.18018 120.924Z" fill="#E0E0E0"/>
<path d="M9.07426 127.559C9.03972 127.524 10.7104 125.776 12.7999 123.674C14.8893 121.571 16.6205 119.857 16.655 119.892C16.6896 119.926 15.0189 121.675 12.9251 123.777C10.8313 125.88 9.10879 127.594 9.07426 127.559Z" fill="#E0E0E0"/>
<path d="M9.05713 140.782C9.15351 140.702 9.25934 140.634 9.37228 140.579L10.2659 140.079C11.0214 139.647 12.0575 139.068 13.1799 138.378C14.3024 137.687 15.2996 137.031 16.0162 136.552L16.8796 135.986C16.9791 135.908 17.0879 135.843 17.2034 135.792C17.1182 135.884 17.0226 135.967 16.9185 136.038C16.7285 136.189 16.4479 136.4 16.0983 136.655C15.3946 137.16 14.406 137.838 13.2792 138.524C12.1525 139.211 11.1207 139.789 10.335 140.187C9.94645 140.381 9.63562 140.536 9.41545 140.64C9.30091 140.699 9.18091 140.747 9.05713 140.782Z" fill="#E0E0E0"/>
<path d="M1.49805 136.155C1.60921 136.189 1.71522 136.238 1.81319 136.301C2.01178 136.405 2.29238 136.565 2.64207 136.763C3.3328 137.156 4.28687 137.713 5.33591 138.335C6.38496 138.956 7.32608 139.53 8.00386 139.954L8.80251 140.459C8.90497 140.515 8.99936 140.584 9.08312 140.666C8.97297 140.629 8.86727 140.58 8.76797 140.519C8.57371 140.411 8.28878 140.256 7.94342 140.057C7.24837 139.664 6.2943 139.107 5.24525 138.486C4.19621 137.864 3.25509 137.29 2.57731 136.867L1.77865 136.37C1.67661 136.31 1.58236 136.238 1.49805 136.155Z" fill="#E0E0E0"/>
<path d="M0 147.824C0.137806 147.877 0.270702 147.942 0.397169 148.018L1.46348 148.605C2.35711 149.106 3.58748 149.809 4.91713 150.595C6.24679 151.381 7.48578 152.097 8.37078 152.628L9.40687 153.263C9.53662 153.335 9.65945 153.419 9.77382 153.513C9.63234 153.466 9.49744 153.401 9.37234 153.319L8.31034 152.736C7.41671 152.236 6.19066 151.532 4.85669 150.746C3.52272 149.961 2.28804 149.24 1.40304 148.713L0.371267 148.078C0.237364 148.009 0.112637 147.924 0 147.824Z" fill="#E0E0E0"/>
<path d="M9.58398 153.315C9.70485 153.21 9.83826 153.12 9.98116 153.047L11.0863 152.374C12.0231 151.799 13.3139 151.009 14.7127 150.094C16.1114 149.179 17.3633 148.324 18.2656 147.698L19.3319 146.96C19.4544 146.858 19.5893 146.773 19.7334 146.705C19.6226 146.819 19.5012 146.921 19.3708 147.012C19.129 147.206 18.775 147.474 18.3347 147.802C17.4713 148.454 16.215 149.33 14.8119 150.241C13.4089 151.152 12.1051 151.933 11.1511 152.477C10.6719 152.749 10.2877 152.965 10.0114 153.108C9.87457 153.188 9.73166 153.257 9.58398 153.315Z" fill="#E0E0E0"/>
<path d="M4.48535 165.022C4.48535 165.022 4.48535 165.066 4.55011 165.13C4.63322 165.227 4.73833 165.303 4.85662 165.351C5.07692 165.426 5.31139 165.45 5.54243 165.422C5.77346 165.393 5.99506 165.313 6.19059 165.187C6.7 164.906 7.14466 164.353 7.82676 164.107C8.58469 163.864 9.40196 163.881 10.1493 164.155C10.9081 164.415 11.6328 164.766 12.3079 165.199C12.868 165.559 13.4522 165.879 14.0563 166.158C14.4688 166.342 14.9046 166.468 15.3514 166.533C15.473 166.551 15.5956 166.559 15.7183 166.559C15.8004 166.559 15.8435 166.559 15.8435 166.559C15.2464 166.467 14.6651 166.291 14.1167 166.037C13.5238 165.745 12.9473 165.421 12.3899 165.066C11.7059 164.613 10.9676 164.249 10.1925 163.982C9.40173 163.696 8.53707 163.686 7.74042 163.956C7.40456 164.094 7.09385 164.287 6.82088 164.526C6.59211 164.729 6.34979 164.917 6.09561 165.087C5.91909 165.21 5.71785 165.292 5.50604 165.329C5.29423 165.365 5.07698 165.355 4.86957 165.299C4.72499 165.232 4.59455 165.138 4.48535 165.022Z" fill="#F5F5F5"/>
<path d="M4.91699 170.764C4.91699 170.764 5.01628 170.635 5.21055 170.432C5.49783 170.148 5.84219 169.929 6.22074 169.789C6.78318 169.585 7.38044 169.496 7.97779 169.525C8.71417 169.582 9.44649 169.683 10.1709 169.827C10.9118 169.97 11.67 170 12.42 169.918C13.0322 169.84 13.6289 169.67 14.19 169.413C14.5748 169.244 14.9396 169.032 15.2779 168.783C15.4049 168.698 15.5184 168.595 15.6147 168.476C15.1476 168.777 14.66 169.046 14.1555 169.279C13.6027 169.503 13.0215 169.648 12.4287 169.711C11.6963 169.783 10.9574 169.746 10.2356 169.603C9.50182 169.458 8.75902 169.363 8.01232 169.318C7.39094 169.298 6.77212 169.407 6.19484 169.637C5.80466 169.792 5.45798 170.04 5.18465 170.358C5.11196 170.446 5.04696 170.54 4.99038 170.639C4.94289 170.725 4.91699 170.76 4.91699 170.764Z" fill="#F5F5F5"/>
<path d="M15.0102 173.838C14.9052 173.759 14.7867 173.699 14.6605 173.661C14.3255 173.534 13.9733 173.459 13.6158 173.437C13.0874 173.401 12.5566 173.432 12.0357 173.527C11.4443 173.622 10.814 173.782 10.1535 173.924C9.53662 174.069 8.90482 174.14 8.27126 174.136C7.75754 174.122 7.25096 174.012 6.77756 173.812C6.34469 173.606 5.95949 173.312 5.64648 172.949C5.69598 173.071 5.76935 173.183 5.86234 173.277C6.10226 173.55 6.39626 173.771 6.72575 173.924C7.21013 174.154 7.73578 174.283 8.27126 174.304C8.92033 174.321 9.56883 174.254 10.201 174.106C10.8744 173.963 11.4961 173.795 12.0746 173.674C12.5818 173.573 13.0987 173.528 13.6158 173.54C14.0908 173.583 14.559 173.683 15.0102 173.838Z" fill="#F5F5F5"/>
<path d="M6.04841 178.164C6.43497 177.998 6.86306 177.956 7.27446 178.043C7.72287 178.151 8.15741 178.31 8.56958 178.518C9.09126 178.77 9.65433 178.927 10.2316 178.98C11.2874 179.07 12.3448 178.825 13.2536 178.28C13.5163 178.113 13.7609 177.92 13.9832 177.702C14.1343 177.538 14.2163 177.443 14.2033 177.434C13.8693 177.693 13.5205 177.932 13.1586 178.151C12.2661 178.643 11.2473 178.86 10.2316 178.772C9.03582 178.703 8.11629 177.991 7.28741 177.909C6.96872 177.854 6.64128 177.884 6.33766 177.995C6.13044 178.064 6.03978 178.159 6.04841 178.164Z" fill="#F5F5F5"/>
<path d="M6.75199 184.152C7.11448 184.16 7.47436 184.088 7.80535 183.94C8.43996 183.729 9.22134 183.245 10.1409 182.878C10.5684 182.706 11.0229 182.611 11.4835 182.598C11.8558 182.597 12.2232 182.682 12.5584 182.844C12.8657 183.007 13.1326 183.237 13.3398 183.517C13.3229 183.419 13.2813 183.327 13.2189 183.249C13.0663 183.027 12.8637 182.844 12.6275 182.714C12.2767 182.52 11.8841 182.415 11.4835 182.408C10.9978 182.409 10.5169 182.504 10.0675 182.688C9.11774 183.064 8.34067 183.552 7.74923 183.806C7.15779 184.061 6.74767 184.117 6.75199 184.152Z" fill="#F5F5F5"/>
<path d="M7.36963 186.936C7.62262 187.059 7.89139 187.146 8.16828 187.195C8.82582 187.354 9.49374 187.466 10.1671 187.532C10.8398 187.598 11.5163 187.618 12.1918 187.592C12.4742 187.597 12.756 187.564 13.0293 187.493C13.0293 187.428 11.7342 187.493 10.1887 187.329C8.64316 187.165 7.3869 186.88 7.36963 186.936Z" fill="#F5F5F5"/>
<path d="M46.9487 56.9364C46.9487 56.9364 48.123 49.8953 48.4036 49.36C48.6842 48.8247 51.9263 45.5351 52.3105 45.4746C52.6947 45.4142 57.8105 43.7996 57.5255 44.6112C57.2406 45.4228 53.6402 46.4848 53.6402 46.4848L53.2991 46.9165C53.2991 46.9165 56.3686 45.915 57.1284 45.9409C57.8882 45.9668 57.9572 46.6963 57.409 46.9036C56.8607 47.1108 54.1582 47.9008 54.0546 48.0735C53.951 48.2462 57.0766 47.3525 57.4565 47.3698C57.9831 47.3914 58.363 48.0562 57.8277 48.285C57.5083 48.4145 54.5036 49.1053 54.5036 49.1053C55.4301 48.9835 56.3625 48.9115 57.2967 48.8894C57.7586 49.0146 57.7284 49.5758 57.2104 49.7097C56.8607 49.8003 55.026 49.8823 54.5597 50.0075C54.5597 50.0075 54.21 50.3011 54.223 51.2336C54.2359 52.1661 53.0272 54.6397 53.0272 54.6397L46.9487 56.9364Z" fill="#FFBE9D"/>
<path d="M57.5207 44.5897C57.3148 44.8535 57.0597 45.0749 56.7695 45.2416C56.4666 45.4458 56.1459 45.622 55.8111 45.7683C55.4312 45.9107 55.0082 46.0575 54.5678 46.2L53.6224 46.5194L53.6742 46.4892C53.1347 47.0738 52.5501 47.6151 51.9258 48.1081C52.4058 47.4781 52.9341 46.8863 53.5058 46.3381V46.3165H53.536L54.4685 45.9884L55.7075 45.5567C56.0347 45.4238 56.352 45.268 56.6573 45.0905C57.2012 44.8013 57.4991 44.5595 57.5207 44.5897Z" fill="#EB996E"/>
<path d="M125.683 134.264L55.997 127.084C54.9756 126.976 54.0388 126.467 53.3916 125.669C52.7444 124.871 52.4395 123.85 52.5434 122.828L64.6009 5.67147C64.7523 4.2188 65.4736 2.88543 66.6065 1.96368C67.7395 1.04194 69.1917 0.607046 70.6448 0.754342L137.093 7.59688C138.546 7.74829 139.879 8.46953 140.801 9.60249C141.723 10.7354 142.157 12.1877 142.01 13.6408L129.922 130.797C129.817 131.818 129.311 132.755 128.517 133.404C127.723 134.054 126.704 134.363 125.683 134.264Z" fill="#FFF3C2"/>
<path opacity="0.4" d="M125.683 134.264L55.997 127.084C54.9756 126.976 54.0388 126.467 53.3916 125.669C52.7444 124.871 52.4395 123.85 52.5434 122.828L64.6009 5.67147C64.7523 4.2188 65.4736 2.88543 66.6065 1.96368C67.7395 1.04194 69.1917 0.607046 70.6448 0.754342L137.093 7.59688C138.546 7.74829 139.879 8.46953 140.801 9.60249C141.723 10.7354 142.157 12.1877 142.01 13.6408L129.922 130.797C129.817 131.818 129.311 132.755 128.517 133.404C127.723 134.054 126.704 134.363 125.683 134.264Z" fill="black"/>
<path d="M118.651 133.538L48.9516 126.363C47.9293 126.255 46.9919 125.745 46.3445 124.946C45.6972 124.148 45.3928 123.125 45.4979 122.102L57.5857 4.94609C57.6596 4.22634 57.8745 3.52819 58.2183 2.89153C58.562 2.25486 59.0278 1.69215 59.5891 1.23553C60.1503 0.778916 60.796 0.43734 61.4893 0.230313C62.1826 0.0232866 62.9099 -0.0451334 63.6296 0.0289604L130.061 6.85855C130.78 6.93243 131.478 7.14738 132.115 7.49112C132.752 7.83486 133.314 8.30066 133.771 8.86191C134.228 9.42316 134.569 10.0689 134.776 10.7621C134.983 11.4554 135.052 12.1827 134.978 12.9024L122.89 130.063C122.786 131.085 122.282 132.025 121.488 132.676C120.693 133.327 119.673 133.637 118.651 133.538Z" fill="#FFF3C2"/>
<path d="M83.2198 101.649L59.1886 99.1742C58.6147 99.1151 58.1015 99.5324 58.0424 100.106L57.0685 109.563C57.0094 110.136 57.4268 110.65 58.0007 110.709L82.0319 113.184C82.6059 113.243 83.119 112.825 83.1782 112.251L84.152 102.795C84.2111 102.221 83.7938 101.708 83.2198 101.649Z" fill="#FFF3C2"/>
<g opacity="0.4">
<path d="M83.2203 101.649L59.1891 99.1742C58.6152 99.1151 58.102 99.5324 58.0429 100.106L57.069 109.563C57.0099 110.136 57.4273 110.65 58.0012 110.709L82.0324 113.184C82.6063 113.243 83.1195 112.825 83.1786 112.251L84.1525 102.795C84.2116 102.221 83.7943 101.708 83.2203 101.649Z" fill="black"/>
</g>
<path d="M62.4225 13.1266L59.749 39.0859L125.925 45.9012L128.598 19.9419L62.4225 13.1266Z" fill="#FAFAFA"/>
<path d="M125.929 45.902C125.929 45.902 125.929 45.7423 125.968 45.4401C126.007 45.1379 126.041 44.6846 126.097 44.0975C126.214 42.9146 126.387 41.1791 126.611 38.9386C127.043 34.4618 127.712 27.9819 128.524 19.9435L128.593 20.0299L62.4164 13.2391L62.5416 13.1398C61.6048 22.2057 60.6982 30.9909 59.8607 39.0983L59.7657 38.9774L107.189 43.9162L120.96 45.3624L124.651 45.7596L125.605 45.8632L125.933 45.902C125.933 45.902 125.825 45.902 125.614 45.8761L124.673 45.7855L121.003 45.4228L107.232 44.037L59.7442 39.1933H59.6362V39.0897C60.4694 30.9779 61.3631 22.2057 62.3042 13.1269V13.0146H62.4164L128.61 19.8658H128.688V19.9435C127.824 28.0035 127.155 34.5007 126.684 38.9861C126.447 41.2137 126.253 42.9448 126.136 44.1191C126.071 44.7019 126.024 45.1465 125.989 45.4487L125.929 45.902Z" fill="#312C73"/>
<path d="M72.737 50.8794L63.2765 49.9051C62.7832 49.8543 62.3421 50.213 62.2913 50.7063L61.317 60.1668C61.2662 60.6601 61.6249 61.1012 62.1182 61.152L71.5787 62.1263C72.072 62.1771 72.5131 61.8184 72.5639 61.3251L73.5382 51.8646C73.589 51.3713 73.2303 50.9302 72.737 50.8794Z" fill="#FFF3C2"/>
<g opacity="0.4">
<path d="M72.737 50.8795L63.2765 49.9052C62.7832 49.8544 62.3421 50.2131 62.2913 50.7065L61.317 60.1669C61.2662 60.6602 61.6249 61.1013 62.1182 61.1521L71.5787 62.1264C72.072 62.1772 72.5131 61.8185 72.5639 61.3252L73.5382 51.8647C73.589 51.3714 73.2303 50.9303 72.737 50.8795Z" fill="black"/>
</g>
<path d="M71.0026 50.7026L61.5422 49.7283C61.0488 49.6775 60.6077 50.0363 60.5569 50.5296L59.5826 59.99C59.5318 60.4833 59.8906 60.9244 60.3839 60.9752L69.8443 61.9495C70.3376 62.0003 70.7787 61.6416 70.8295 61.1483L71.8038 51.6879C71.8546 51.1945 71.4959 50.7535 71.0026 50.7026Z" fill="#312C73"/>
<path d="M66.7292 53.5304L66.25 58.2317L65.1621 58.1194L65.555 54.3032L64.6182 54.2039L64.7088 53.3405L66.7292 53.5304Z" fill="white"/>
<path d="M88.423 52.4992L78.9626 51.5249C78.4692 51.474 78.0282 51.8328 77.9773 52.3261L77.003 61.7865C76.9522 62.2798 77.311 62.7209 77.8043 62.7717L87.2647 63.7461C87.758 63.7969 88.1991 63.4381 88.2499 62.9448L89.2242 53.4844C89.275 52.9911 88.9163 52.55 88.423 52.4992Z" fill="#FFF3C2"/>
<g opacity="0.4">
<path d="M88.423 52.4992L78.9626 51.5249C78.4692 51.474 78.0282 51.8328 77.9773 52.3261L77.003 61.7865C76.9522 62.2798 77.311 62.7209 77.8043 62.7717L87.2647 63.7461C87.758 63.7969 88.1991 63.4381 88.2499 62.9448L89.2242 53.4844C89.275 52.9911 88.9163 52.55 88.423 52.4992Z" fill="black"/>
</g>
<path d="M86.6852 52.318L77.2248 51.3437C76.7315 51.2929 76.2904 51.6516 76.2396 52.1449L75.2652 61.6054C75.2144 62.0987 75.5732 62.5398 76.0665 62.5906L85.5269 63.5649C86.0202 63.6157 86.4613 63.257 86.5121 62.7637L87.4864 53.3032C87.5373 52.8099 87.1785 52.3688 86.6852 52.318Z" fill="#312C73"/>
<path d="M83.7171 59.1255L83.6264 59.9889L80.0864 59.6262L80.1598 58.9226L82.1414 57.3986C82.599 57.0489 82.6983 56.8158 82.7198 56.587C82.7587 56.2201 82.5256 55.9783 82.0291 55.9265C81.8419 55.9001 81.651 55.9201 81.4733 55.9849C81.2956 56.0496 81.1366 56.1571 81.0103 56.2978L80.2721 55.7063C80.5159 55.4408 80.8218 55.24 81.1624 55.1217C81.5029 55.0034 81.8674 54.9714 82.2234 55.0286C83.2681 55.1365 83.9113 55.7409 83.8207 56.5913C83.7775 57.0489 83.6048 57.4547 82.8882 57.9901L81.7053 58.8966L83.7171 59.1255Z" fill="white"/>
<path d="M104.683 54.1737L95.2223 53.1994C94.729 53.1486 94.2879 53.5073 94.2371 54.0006L93.2628 63.4611C93.212 63.9544 93.5707 64.3955 94.064 64.4463L103.524 65.4206C104.018 65.4714 104.459 65.1127 104.51 64.6194L105.484 55.1589C105.535 54.6656 105.176 54.2245 104.683 54.1737Z" fill="#FFF3C2"/>
<g opacity="0.4">
<path d="M104.683 54.1737L95.2228 53.1994C94.7295 53.1486 94.2884 53.5073 94.2376 54.0006L93.2633 63.4611C93.2125 63.9544 93.5712 64.3955 94.0645 64.4463L103.525 65.4206C104.018 65.4714 104.459 65.1127 104.51 64.6194L105.484 55.1589C105.535 54.6656 105.177 54.2245 104.683 54.1737Z" fill="black"/>
</g>
<path d="M102.949 53.9927L93.4889 53.0184C92.9956 52.9676 92.5545 53.3263 92.5037 53.8196L91.5294 63.2801C91.4786 63.7734 91.8373 64.2145 92.3306 64.2653L101.791 65.2396C102.284 65.2904 102.725 64.9317 102.776 64.4383L103.751 54.9779C103.801 54.4846 103.443 54.0435 102.949 53.9927Z" fill="#312C73"/>
<path d="M99.9963 60.2433C99.9143 61.0333 99.2322 61.6938 97.8982 61.56C97.2683 61.5034 96.6683 61.2649 96.1714 60.8736L96.6765 60.0836C97.0382 60.4024 97.4915 60.5989 97.9716 60.6448C98.5155 60.7009 98.8739 60.5153 98.9127 60.131C98.9516 59.7468 98.7098 59.531 98.0968 59.4662L97.6003 59.4144L97.6737 58.6978L98.7487 57.7049L96.7542 57.502L96.8448 56.6385L100.126 56.9753L100.052 57.679L98.8695 58.7755C99.2102 58.8279 99.5176 59.0099 99.7275 59.2833C99.9374 59.5567 100.034 59.9006 99.9963 60.2433Z" fill="white"/>
<path d="M120.947 55.8482L111.487 54.8739C110.994 54.823 110.553 55.1818 110.502 55.6751L109.527 65.1355C109.477 65.6288 109.835 66.0699 110.329 66.1207L119.789 67.0951C120.282 67.1459 120.724 66.7871 120.774 66.2938L121.749 56.8334C121.799 56.3401 121.441 55.899 120.947 55.8482Z" fill="#FFF3C2"/>
<g opacity="0.4">
<path d="M120.947 55.8483L111.486 54.874C110.993 54.8232 110.552 55.1819 110.501 55.6752L109.527 65.1357C109.476 65.629 109.835 66.0701 110.328 66.1209L119.789 67.0952C120.282 67.146 120.723 66.7873 120.774 66.2939L121.748 56.8335C121.799 56.3402 121.44 55.8991 120.947 55.8483Z" fill="black"/>
</g>
<path d="M119.248 55.6661L109.787 54.6918C109.294 54.641 108.853 54.9998 108.802 55.4931L107.828 64.9535C107.777 65.4468 108.136 65.8879 108.629 65.9387L118.089 66.913C118.583 66.9638 119.024 66.6051 119.075 66.1118L120.049 56.6514C120.1 56.1581 119.741 55.717 119.248 55.6661Z" fill="#312C73"/>
<path d="M111.391 60.1436L111.347 60.573L116.371 61.0904L116.415 60.661L111.391 60.1436Z" fill="white"/>
<path d="M114.929 58.5165C114.913 58.6779 114.849 58.8309 114.746 58.9561C114.643 59.0814 114.505 59.1732 114.35 59.22C114.194 59.2668 114.029 59.2665 113.874 59.2191C113.718 59.1717 113.581 59.0793 113.478 58.9537C113.375 58.8281 113.312 58.6748 113.297 58.5133C113.281 58.3518 113.314 58.1893 113.391 58.0464C113.467 57.9035 113.585 57.7865 113.728 57.7104C113.871 57.6342 114.034 57.6022 114.195 57.6185C114.412 57.6403 114.611 57.7472 114.748 57.9155C114.886 58.0839 114.951 58.3001 114.929 58.5165Z" fill="white"/>
<path d="M114.476 62.8984C114.459 63.06 114.396 63.2131 114.292 63.3383C114.189 63.4636 114.05 63.5553 113.895 63.6019C113.739 63.6485 113.573 63.6478 113.418 63.6C113.263 63.5522 113.125 63.4594 113.023 63.3333C112.921 63.2073 112.858 63.0537 112.843 62.892C112.828 62.7302 112.861 62.5677 112.939 62.425C113.016 62.2822 113.134 62.1656 113.278 62.0901C113.422 62.0145 113.585 61.9833 113.746 62.0004C113.962 62.0233 114.159 62.1306 114.296 62.2989C114.433 62.4671 114.497 62.6827 114.476 62.8984Z" fill="white"/>
<path d="M71.0407 67.3606L61.5802 66.3863C61.0869 66.3355 60.6458 66.6942 60.595 67.1875L59.6207 76.648C59.5699 77.1413 59.9286 77.5824 60.422 77.6332L69.8824 78.6075C70.3757 78.6583 70.8168 78.2996 70.8676 77.8063L71.8419 68.3458C71.8927 67.8525 71.534 67.4114 71.0407 67.3606Z" fill="#FFF3C2"/>
<g opacity="0.4">
<path d="M71.0407 67.3607L61.5802 66.3864C61.0869 66.3356 60.6458 66.6943 60.595 67.1877L59.6207 76.6481C59.5699 77.1414 59.9286 77.5825 60.422 77.6333L69.8824 78.6076C70.3757 78.6584 70.8168 78.2997 70.8676 77.8064L71.8419 68.3459C71.8927 67.8526 71.534 67.4115 71.0407 67.3607Z" fill="black"/>
</g>
<path d="M69.3063 67.1836L59.8459 66.2093C59.3525 66.1585 58.9115 66.5172 58.8606 67.0105L57.8863 76.471C57.8355 76.9643 58.1943 77.4054 58.6876 77.4562L68.148 78.4305C68.6413 78.4813 69.0824 78.1226 69.1332 77.6293L70.1075 68.1688C70.1583 67.6755 69.7996 67.2344 69.3063 67.1836Z" fill="#312C73"/>
<path d="M66.0211 73.8507L65.257 73.773L65.1534 74.7573L64.0957 74.6494L64.1993 73.6651L61.6738 73.4017L61.7472 72.6722L64.2641 69.9265L65.4038 70.0474L63.0639 72.6376L64.3245 72.7671L64.4152 71.9037L65.4383 72.0073L65.3476 72.8708L66.1118 72.9485L66.0211 73.8507Z" fill="white"/>
<path d="M86.7262 68.9758L77.2658 68.0015C76.7725 67.9507 76.3314 68.3095 76.2806 68.8028L75.3063 78.2632C75.2555 78.7565 75.6142 79.1976 76.1075 79.2484L85.5679 80.2227C86.0613 80.2735 86.5023 79.9148 86.5532 79.4215L87.5275 69.9611C87.5783 69.4677 87.2195 69.0266 86.7262 68.9758Z" fill="#FFF3C2"/>
<g opacity="0.4">
<path d="M86.7262 68.9757L77.2658 68.0014C76.7725 67.9506 76.3314 68.3093 76.2806 68.8026L75.3063 78.2631C75.2555 78.7564 75.6142 79.1975 76.1075 79.2483L85.5679 80.2226C86.0613 80.2734 86.5023 79.9147 86.5532 79.4214L87.5275 69.9609C87.5783 69.4676 87.2195 69.0265 86.7262 68.9757Z" fill="black"/>
</g>
<path d="M84.9928 68.7947L75.5324 67.8204C75.0391 67.7696 74.598 68.1283 74.5472 68.6216L73.5729 78.0821C73.5221 78.5754 73.8808 79.0165 74.3741 79.0673L83.8345 80.0416C84.3279 80.0924 84.769 79.7337 84.8198 79.2403L85.7941 69.7799C85.8449 69.2866 85.4861 68.8455 84.9928 68.7947Z" fill="#312C73"/>
<path d="M81.5625 74.9602C81.4805 75.789 80.7941 76.4496 79.4558 76.3114C78.826 76.254 78.2263 76.0156 77.729 75.625L78.2427 74.8393C78.6039 75.1584 79.0578 75.3536 79.5379 75.3962C80.0818 75.4523 80.4401 75.2624 80.479 74.8781C80.5178 74.4939 80.302 74.2435 79.4515 74.1572L78.2514 74.032L78.7651 71.4418L81.623 71.7353L81.5366 72.5987L79.581 72.3958L79.4127 73.2808L79.7969 73.3197C81.1654 73.4492 81.6489 74.127 81.5625 74.9602Z" fill="white"/>
<path d="M102.99 70.6504L93.53 69.6761C93.0366 69.6253 92.5955 69.984 92.5447 70.4773L91.5704 79.9378C91.5196 80.4311 91.8784 80.8722 92.3717 80.923L101.832 81.8973C102.325 81.9481 102.767 81.5894 102.817 81.0961L103.792 71.6356C103.842 71.1423 103.484 70.7012 102.99 70.6504Z" fill="#FFF3C2"/>
<g opacity="0.4">
<path d="M102.991 70.6505L93.5309 69.6762C93.0376 69.6254 92.5965 69.9841 92.5457 70.4775L91.5714 79.9379C91.5206 80.4312 91.8793 80.8723 92.3726 80.9231L101.833 81.8974C102.326 81.9482 102.767 81.5895 102.818 81.0962L103.793 71.6357C103.843 71.1424 103.485 70.7013 102.991 70.6505Z" fill="black"/>
</g>
<path d="M101.253 70.4694L91.7922 69.4951C91.2988 69.4443 90.8577 69.803 90.8069 70.2963L89.8326 79.7567C89.7818 80.2501 90.1406 80.6912 90.6339 80.742L100.094 81.7163C100.588 81.7671 101.029 81.4083 101.08 80.915L102.054 71.4546C102.105 70.9613 101.746 70.5202 101.253 70.4694Z" fill="#312C73"/>
<path d="M98.1663 76.661C98.0671 77.6194 97.2209 78.1418 96.2323 78.0382C94.9372 77.9043 94.2206 77.0107 94.376 75.4997C94.5443 73.8765 95.615 73.0735 97.0266 73.2203C97.4846 73.2552 97.9247 73.4133 98.3002 73.6779L97.8167 74.4334C97.5682 74.24 97.2674 74.1257 96.9533 74.1053C96.1675 74.0276 95.6193 74.4377 95.4941 75.3314C95.6644 75.2047 95.8582 75.1131 96.0643 75.0619C96.2703 75.0108 96.4844 75.0011 96.6942 75.0335C96.9003 75.0356 97.1038 75.0804 97.2918 75.165C97.4797 75.2496 97.6482 75.3722 97.7864 75.5251C97.9247 75.678 98.0298 75.8578 98.0952 76.0533C98.1606 76.2488 98.1848 76.4557 98.1663 76.661ZM97.1087 76.6049C97.1198 76.5045 97.1093 76.4029 97.0779 76.3069C97.0465 76.2109 96.9949 76.1227 96.9266 76.0483C96.8584 75.9739 96.7749 75.9149 96.682 75.8754C96.589 75.8359 96.4887 75.8167 96.3877 75.8192C96.2884 75.7981 96.1859 75.7976 96.0864 75.8179C95.987 75.8382 95.8928 75.8788 95.8097 75.9372C95.7267 75.9955 95.6566 76.0703 95.6037 76.157C95.5509 76.2437 95.5165 76.3403 95.5027 76.4408C95.4595 76.8423 95.7315 77.1661 96.2539 77.2222C96.3502 77.2421 96.4497 77.2415 96.5458 77.2205C96.6419 77.1995 96.7325 77.1586 96.8118 77.1004C96.8912 77.0423 96.9574 76.9681 97.0063 76.8828C97.0552 76.7974 97.0857 76.7027 97.0957 76.6049H97.1087Z" fill="white"/>
<path d="M119.246 72.3244L109.786 71.35C109.292 71.2992 108.851 71.658 108.801 72.1513L107.826 81.6117C107.775 82.105 108.134 82.5461 108.628 82.5969L118.088 83.5712C118.581 83.622 119.022 83.2633 119.073 82.77L120.047 73.3096C120.098 72.8162 119.74 72.3752 119.246 72.3244Z" fill="#FFF3C2"/>
<g opacity="0.4">
<path d="M119.247 72.3246L109.786 71.3503C109.293 71.2995 108.852 71.6582 108.801 72.1515L107.827 81.612C107.776 82.1053 108.135 82.5464 108.628 82.5972L118.088 83.5715C118.582 83.6223 119.023 83.2636 119.074 82.7703L120.048 73.3098C120.099 72.8165 119.74 72.3754 119.247 72.3246Z" fill="black"/>
</g>
<path d="M117.512 72.1433L108.052 71.169C107.559 71.1182 107.118 71.4769 107.067 71.9703L106.092 81.4307C106.042 81.924 106.4 82.3651 106.894 82.4159L116.354 83.3902C116.847 83.441 117.288 83.0823 117.339 82.589L118.314 73.1285C118.364 72.6352 118.006 72.1941 117.512 72.1433Z" fill="#312C73"/>
<path d="M114.048 75.5495L110.082 78.6772L110.349 79.0162L114.315 75.8885L114.048 75.5495Z" fill="white"/>
<path d="M110.777 75.2054L110.442 75.4778L113.629 79.3965L113.964 79.1241L110.777 75.2054Z" fill="white"/>
<path d="M69.3581 83.7052L59.8976 82.7309C59.4043 82.6801 58.9632 83.0388 58.9124 83.5321L57.9381 92.9926C57.8873 93.4859 58.246 93.927 58.7393 93.9778L68.1998 94.9521C68.6931 95.0029 69.1342 94.6442 69.185 94.1509L70.1593 84.6904C70.2101 84.1971 69.8514 83.756 69.3581 83.7052Z" fill="#FFF3C2"/>
<g opacity="0.4">
<path d="M69.3581 83.7051L59.8976 82.7308C59.4043 82.68 58.9632 83.0387 58.9124 83.532L57.9381 92.9925C57.8873 93.4858 58.246 93.9269 58.7393 93.9777L68.1998 94.952C68.6931 95.0028 69.1342 94.6441 69.185 94.1508L70.1593 84.6903C70.2101 84.197 69.8514 83.7559 69.3581 83.7051Z" fill="black"/>
</g>
<path d="M67.6237 83.5285L58.1632 82.5541C57.6699 82.5033 57.2288 82.8621 57.178 83.3554L56.2037 92.8158C56.1529 93.3091 56.5116 93.7502 57.005 93.801L66.4654 94.7753C66.9587 94.8262 67.3998 94.4674 67.4506 93.9741L68.4249 84.5137C68.4757 84.0204 68.117 83.5793 67.6237 83.5285Z" fill="#312C73"/>
<path d="M64.0958 86.4265L64.0225 87.1301L61.8639 90.9378L60.6854 90.8126L62.7576 87.1819L61.2034 87.0222L61.1257 87.7863L60.1587 87.687L60.3314 86.0422L64.0958 86.4265Z" fill="white"/>
<path d="M85.0436 85.3209L75.5832 84.3466C75.0899 84.2958 74.6488 84.6545 74.598 85.1479L73.6236 94.6083C73.5728 95.1016 73.9316 95.5427 74.4249 95.5935L83.8853 96.5678C84.3786 96.6186 84.8197 96.2599 84.8705 95.7666L85.8448 86.3061C85.8957 85.8128 85.5369 85.3717 85.0436 85.3209Z" fill="#FFF3C2"/>
<g opacity="0.4">
<path d="M85.0436 85.3207L75.5832 84.3464C75.0899 84.2956 74.6488 84.6543 74.598 85.1476L73.6236 94.6081C73.5728 95.1014 73.9316 95.5425 74.4249 95.5933L83.8853 96.5676C84.3786 96.6184 84.8197 96.2597 84.8705 95.7664L85.8448 86.3059C85.8957 85.8126 85.5369 85.3715 85.0436 85.3207Z" fill="black"/>
</g>
<path d="M83.3058 85.1398L73.8454 84.1655C73.3521 84.1147 72.911 84.4734 72.8602 84.9667L71.8859 94.4272C71.835 94.9205 72.1938 95.3616 72.6871 95.4124L82.1475 96.3867C82.6408 96.4375 83.0819 96.0788 83.1327 95.5854L84.1071 86.125C84.1579 85.6317 83.7991 85.1906 83.3058 85.1398Z" fill="#312C73"/>
<path d="M80.2502 91.4729C80.1596 92.3363 79.3134 92.8327 78.1219 92.7075C76.9304 92.5823 76.2095 91.9477 76.3001 91.0671C76.3205 90.8329 76.4097 90.61 76.5564 90.4265C76.7031 90.2429 76.9008 90.1068 77.1247 90.0353C76.9678 89.9189 76.845 89.7626 76.7691 89.5827C76.6932 89.4027 76.6669 89.2057 76.693 89.0121C76.7793 88.1876 77.5564 87.7516 78.6313 87.8595C79.7063 87.9674 80.3927 88.5632 80.3107 89.3877C80.2932 89.5834 80.2235 89.7707 80.1088 89.9302C79.9941 90.0897 79.8387 90.2154 79.6588 90.2943C79.8625 90.4107 80.0272 90.5846 80.1324 90.7943C80.2376 91.004 80.2786 91.24 80.2502 91.4729ZM79.1537 91.3261C79.1969 90.8944 78.8817 90.6224 78.3421 90.5663C77.8025 90.5101 77.4442 90.7303 77.401 91.1448C77.3578 91.5592 77.6643 91.8571 78.204 91.9132C78.7436 91.9693 79.1149 91.7232 79.171 91.3088L79.1537 91.3261ZM77.755 89.1675C77.7161 89.5215 77.9752 89.7719 78.4155 89.8194C78.8558 89.8669 79.1753 89.6726 79.2142 89.3186C79.253 88.9646 78.981 88.697 78.5364 88.6538C78.0917 88.6106 77.7895 88.7876 77.755 89.1546V89.1675Z" fill="white"/>
<path d="M101.303 86.9955L91.8429 86.0212C91.3496 85.9704 90.9085 86.3291 90.8577 86.8224L89.8834 96.2829C89.8326 96.7762 90.1913 97.2173 90.6846 97.2681L100.145 98.2424C100.638 98.2932 101.08 97.9345 101.13 97.4412L102.105 87.9807C102.155 87.4874 101.797 87.0463 101.303 86.9955Z" fill="#FFF3C2"/>
<g opacity="0.4">
<path d="M101.304 86.9955L91.8434 86.0212C91.3501 85.9704 90.909 86.3291 90.8582 86.8224L89.8839 96.2829C89.8331 96.7762 90.1918 97.2173 90.6851 97.2681L100.146 98.2424C100.639 98.2932 101.08 97.9345 101.131 97.4412L102.105 87.9807C102.156 87.4874 101.797 87.0463 101.304 86.9955Z" fill="black"/>
</g>
<path d="M99.2536 86.0573L89.8382 85.1063C89.3472 85.0567 88.909 85.4145 88.8594 85.9054L87.9084 95.3208C87.8588 95.8118 88.2166 96.25 88.7075 96.2996L98.1229 97.2506C98.6139 97.3002 99.0521 96.9424 99.1017 96.4515L100.053 87.0361C100.102 86.5451 99.7445 86.1069 99.2536 86.0573Z" fill="#312C73"/>
<path d="M96.4395 92.0255C96.2711 93.6487 95.2091 94.4517 93.7888 94.3049C93.3339 94.2715 92.8966 94.1148 92.5239 93.8516L93.0074 93.0962C93.2552 93.2902 93.5566 93.4032 93.8708 93.4199C94.6479 93.4976 95.2048 93.0875 95.33 92.1896C95.1585 92.3173 94.9633 92.4098 94.7559 92.4616C94.5484 92.5135 94.3327 92.5237 94.1212 92.4918C93.9161 92.4878 93.7139 92.4417 93.5272 92.3564C93.3406 92.271 93.1735 92.1483 93.0362 91.9957C92.899 91.8431 92.7946 91.6639 92.7295 91.4693C92.6644 91.2746 92.64 91.0687 92.6578 90.8642C92.757 89.9058 93.6032 89.3835 94.5961 89.4871C95.8869 89.6209 96.5992 90.5146 96.4395 92.0255ZM95.3128 91.0844C95.3516 90.6829 95.0796 90.3591 94.5659 90.303C94.4688 90.2842 94.3688 90.2859 94.2725 90.3081C94.1761 90.3303 94.0854 90.3724 94.0063 90.4318C93.9272 90.4911 93.8614 90.5664 93.8132 90.6527C93.7649 90.739 93.7353 90.8345 93.7262 90.933C93.7171 91.0315 93.7288 91.1308 93.7604 91.2245C93.792 91.3182 93.8429 91.4042 93.9098 91.4771C93.9767 91.5499 94.0581 91.6079 94.1488 91.6473C94.2395 91.6868 94.3375 91.7068 94.4364 91.7061C94.5354 91.7272 94.6377 91.7276 94.7369 91.7073C94.8361 91.6869 94.93 91.6463 95.0127 91.5879C95.0954 91.5295 95.1652 91.4546 95.2175 91.368C95.2699 91.2813 95.3038 91.1848 95.3171 91.0844H95.3128Z" fill="white"/>
<path d="M117.564 88.6694L108.103 87.6951C107.61 87.6443 107.169 88.0031 107.118 88.4964L106.144 97.9568C106.093 98.4501 106.452 98.8912 106.945 98.942L116.405 99.9163C116.899 99.9671 117.34 99.6084 117.391 99.1151L118.365 89.6547C118.416 89.1613 118.057 88.7203 117.564 88.6694Z" fill="#FFF3C2"/>
<g opacity="0.4">
<path d="M117.563 88.6696L108.103 87.6953C107.609 87.6445 107.168 88.0032 107.117 88.4965L106.143 97.9569C106.092 98.4502 106.451 98.8914 106.944 98.9422L116.405 99.9165C116.898 99.9673 117.339 99.6085 117.39 99.1152L118.364 89.6548C118.415 89.1615 118.056 88.7204 117.563 88.6696Z" fill="black"/>
</g>
<path d="M115.83 88.4882L106.37 87.5139C105.876 87.4631 105.435 87.8218 105.385 88.3151L104.41 97.7756C104.359 98.2689 104.718 98.71 105.211 98.7608L114.672 99.7351C115.165 99.7859 115.606 99.4272 115.657 98.9338L116.631 89.4734C116.682 88.9801 116.324 88.539 115.83 88.4882Z" fill="#312C73"/>
<path d="M108.031 93.1614L107.987 93.5908L113.011 94.1083L113.055 93.6788L108.031 93.1614Z" fill="white"/>
<path d="M99.6061 103.485L90.1457 102.51C89.6524 102.46 89.2113 102.818 89.1605 103.312L88.1861 112.772C88.1353 113.265 88.4941 113.706 88.9874 113.757L98.4478 114.732C98.9411 114.782 99.3822 114.424 99.433 113.93L100.407 104.47C100.458 103.977 100.099 103.535 99.6061 103.485Z" fill="#FFF3C2"/>
<g opacity="0.4">
<path d="M99.6061 103.485L90.1457 102.51C89.6524 102.459 89.2113 102.818 89.1605 103.311L88.1861 112.772C88.1353 113.265 88.4941 113.706 88.9874 113.757L98.4478 114.731C98.9411 114.782 99.3822 114.423 99.433 113.93L100.407 104.47C100.458 103.976 100.099 103.535 99.6061 103.485Z" fill="black"/>
</g>
<path d="M97.8683 103.303L88.4079 102.329C87.9146 102.278 87.4735 102.637 87.4227 103.13L86.4484 112.591C86.3975 113.084 86.7563 113.525 87.2496 113.576L96.71 114.55C97.2033 114.601 97.6444 114.242 97.6952 113.749L98.6696 104.289C98.7204 103.795 98.3616 103.354 97.8683 103.303Z" fill="#312C73"/>
<path d="M115.866 105.159L106.406 104.185C105.913 104.134 105.472 104.493 105.421 104.986L104.446 114.446C104.396 114.94 104.754 115.381 105.248 115.432L114.708 116.406C115.201 116.457 115.642 116.098 115.693 115.605L116.668 106.144C116.718 105.651 116.36 105.21 115.866 105.159Z" fill="#FFF3C2"/>
<g opacity="0.4">
<path d="M115.866 105.159L106.405 104.185C105.912 104.134 105.471 104.493 105.42 104.986L104.446 114.446C104.395 114.94 104.754 115.381 105.247 115.432L114.708 116.406C115.201 116.457 115.642 116.098 115.693 115.605L116.667 106.144C116.718 105.651 116.359 105.21 115.866 105.159Z" fill="black"/>
</g>
<path d="M114.132 104.978L104.672 104.004C104.179 103.953 103.738 104.312 103.687 104.805L102.713 114.265C102.662 114.759 103.02 115.2 103.514 115.251L112.974 116.225C113.468 116.276 113.909 115.917 113.959 115.424L114.934 105.963C114.985 105.47 114.626 105.029 114.132 104.978Z" fill="#FFCC00"/>
<path d="M106.398 109.037L106.354 109.467L111.378 109.984L111.423 109.555L106.398 109.037Z" fill="white"/>
<path d="M106.205 110.946L106.161 111.375L111.185 111.893L111.229 111.464L106.205 110.946Z" fill="white"/>
<path d="M81.0747 101.427L56.0687 98.8517C55.4758 98.7906 54.9456 99.2218 54.8846 99.8147L53.9178 109.202C53.8567 109.795 54.2879 110.325 54.8808 110.386L79.8868 112.962C80.4797 113.023 81.0099 112.591 81.0709 111.999L82.0377 102.611C82.0988 102.018 81.6676 101.488 81.0747 101.427Z" fill="#312C73"/>
<path d="M66.9625 105.581C67.1222 104.031 68.072 103.246 69.2246 103.362C70.3773 103.479 71.1414 104.446 70.9817 105.996C70.8219 107.545 69.8808 108.331 68.7238 108.21C67.5669 108.089 66.8027 107.127 66.9625 105.581ZM69.8894 105.883C70.0017 104.817 69.6693 104.338 69.1296 104.282C68.59 104.226 68.1713 104.627 68.0633 105.693C67.9554 106.76 68.2835 107.239 68.8188 107.295C69.3541 107.351 69.7815 106.945 69.8894 105.883Z" fill="white"/>
<path d="M92.6378 105.904L92.0459 110.921L92.4746 110.971L93.0666 105.955L92.6378 105.904Z" fill="white"/>
<path d="M90.0711 107.972L90.0269 108.401L95.0512 108.919L95.0955 108.489L90.0711 107.972Z" fill="white"/>
<path d="M87.7185 28.9793L86.9976 35.9859L86.6652 35.9513L87.3732 29.2556L85.6118 29.0743L85.642 28.7634L87.7185 28.9793Z" fill="#312C73"/>
<path d="M93.4776 36.3397L93.4431 36.6506L88.6943 36.1627L88.7202 35.921L92.0357 33.2056C92.9855 32.4328 93.2143 31.9407 93.2747 31.3708C93.3697 30.4383 92.7826 29.7735 91.5479 29.644C91.1598 29.5742 90.7609 29.5939 90.3816 29.7016C90.0023 29.8094 89.6526 30.0023 89.3592 30.2656L89.1519 30.0239C89.4824 29.7359 89.8724 29.5246 90.2941 29.4052C90.7158 29.2858 91.1587 29.2612 91.5911 29.3332C92.9294 29.4713 93.7108 30.2484 93.5942 31.3794C93.5251 32.0443 93.2575 32.6012 92.2386 33.4257L89.2167 35.8994L93.4776 36.3397Z" fill="#312C73"/>
<path d="M99.0297 35.2607C98.9089 36.4263 98.0066 37.1602 96.4654 36.9875C96.0113 36.9631 95.5677 36.8414 95.1648 36.6306C94.7618 36.4198 94.4089 36.1249 94.1299 35.7658L94.3371 35.5456C94.5939 35.8788 94.9198 36.1524 95.2925 36.3476C95.6651 36.5429 96.0755 36.6551 96.4956 36.6767C97.8339 36.8148 98.6024 36.245 98.7103 35.2175C98.8182 34.19 98.2009 33.4907 96.7158 33.3223L96.3273 33.2791L96.3532 33.0417L98.8268 30.4213L94.9631 30.0241L94.9933 29.7133L99.3104 30.145L99.2845 30.3824L96.7978 33.0115C98.421 33.1928 99.1506 34.0908 99.0297 35.2607Z" fill="#312C73"/>
<path d="M105.937 35.8907L104.413 35.7353L104.206 37.76L103.873 37.7255L104.081 35.7007L100.057 35.269L100.083 35.0273L104.448 30.6843L104.836 30.7232L100.519 35.0143L104.107 35.3856L104.288 33.6027L104.62 33.6372L104.435 35.4158L105.959 35.5756L105.937 35.8907Z" fill="#312C73"/>
<path d="M107.391 37.7817C107.371 37.9071 107.338 38.0301 107.292 38.1486L106.791 39.4438L106.532 39.4178L106.986 38.0666C106.898 38.0523 106.821 38.004 106.769 37.9324C106.718 37.8607 106.697 37.7716 106.711 37.6845C106.726 37.5975 106.774 37.5198 106.846 37.4684C106.917 37.4169 107.006 37.3961 107.093 37.4104C107.182 37.4213 107.262 37.4661 107.318 37.5355C107.373 37.6048 107.4 37.6932 107.391 37.7817Z" fill="#312C73"/>
<path d="M114.334 36.7586L112.814 36.6032L112.607 38.6236L112.274 38.589L112.482 36.5687L108.458 36.137L108.484 35.8952L112.844 31.5652L113.233 31.6084L108.916 35.8995L112.503 36.2665L112.684 34.4835L113.017 34.5181L112.844 36.301L114.368 36.4564L114.334 36.7586Z" fill="#312C73"/>
<path d="M119.54 37.3371C119.419 38.4768 118.538 39.2754 116.95 39.1114C116.498 39.0855 116.056 38.963 115.656 38.7523C115.255 38.5415 114.904 38.2474 114.627 37.8897L114.843 37.6695C115.098 38.0039 115.424 38.2785 115.797 38.4738C116.17 38.6692 116.581 38.7807 117.001 38.8006C118.37 38.943 119.117 38.2912 119.22 37.2982C119.333 36.219 118.754 35.511 116.751 35.3037L115.391 35.1656L116.082 31.8976L119.695 32.2732L119.665 32.584L116.328 32.2386L115.754 34.8893L116.833 35.0016C118.974 35.2217 119.665 36.0938 119.54 37.3371Z" fill="#312C73"/>
<path d="M42.9595 180.909L40.2139 191.059L49.1372 191.87L51.0108 182.209L42.9595 180.909Z" fill="#FFF3C2"/>
<path d="M49.3834 191.046C48.9514 191.077 48.5173 191.062 48.0883 191.003C47.2853 190.938 46.1802 190.813 44.9584 190.657L41.8415 190.226C41.4036 190.193 40.9699 190.118 40.5464 190.001C40.9788 189.977 41.4125 189.994 41.8415 190.053C42.6445 190.118 43.7496 190.243 44.9714 190.398L48.0883 190.83C48.5253 190.865 48.9586 190.937 49.3834 191.046Z" fill="#312C73"/>
<g opacity="0.6">
<path d="M40.2139 191.059L49.1372 191.871L49.2797 191.128L40.4729 190.01L40.2268 190.955" fill="white"/>
</g>
<path d="M44.6348 190.605C45.136 187.999 45.77 185.42 46.5343 182.878C46.3146 184.187 46.0264 185.484 45.6709 186.763C45.3921 188.061 45.0463 189.344 44.6348 190.605Z" fill="#312C73"/>
<path d="M48.9042 190.981C49.0443 190.36 49.0443 189.716 48.9042 189.094C48.7476 188.427 48.41 187.816 47.9286 187.329C47.3283 186.743 46.5448 186.382 45.7096 186.306C44.8757 186.22 44.0366 186.411 43.3223 186.85C42.7425 187.217 42.2645 187.725 41.9322 188.326C41.6365 188.89 41.4449 189.503 41.3666 190.135C41.3609 190.09 41.3609 190.045 41.3666 190.001C41.3649 189.873 41.3722 189.744 41.3882 189.617C41.4503 189.142 41.5965 188.681 41.8199 188.257C42.1477 187.619 42.6357 187.078 43.2359 186.686C43.9836 186.213 44.8688 186.006 45.7485 186.098C46.6306 186.179 47.4568 186.565 48.084 187.191C48.5807 187.709 48.9217 188.357 49.0683 189.06C49.1648 189.53 49.1648 190.015 49.0683 190.485C49.0405 190.611 49.003 190.735 48.956 190.856C48.9446 190.9 48.9271 190.942 48.9042 190.981Z" fill="#312C73"/>
<path d="M79.7624 179.752L79.2314 187.743C79.2314 187.743 87.1834 190.381 87.2309 191.866L71.6895 191.978L72.0046 179.493L79.7624 179.752Z" fill="#FFF3C2"/>
<g opacity="0.6">
<path d="M74.4482 186.927C74.2974 186.969 74.167 187.064 74.0819 187.196C73.9967 187.327 73.9627 187.485 73.9863 187.64C74.0215 187.793 74.1143 187.926 74.2454 188.012C74.3765 188.098 74.5358 188.13 74.69 188.102C74.8493 188.057 74.9866 187.955 75.0758 187.816C75.165 187.677 75.1998 187.509 75.1735 187.346C75.1202 187.191 75.0091 187.063 74.8635 186.988C74.7179 186.914 74.549 186.898 74.3921 186.945" fill="white"/>
</g>
<g opacity="0.6">
<path d="M71.6895 191.987L71.7715 190.726L86.7344 191.158C86.8925 191.24 87.0278 191.359 87.1281 191.506C87.2283 191.653 87.2904 191.823 87.3086 192L71.6895 191.987Z" fill="white"/>
</g>
<path d="M79.4862 187.674C79.4862 187.752 79.102 187.774 78.7178 188.007C78.3336 188.24 78.1307 188.551 78.0616 188.52C77.9925 188.49 78.1177 188.054 78.584 187.778C79.0502 187.502 79.5035 187.605 79.4862 187.674Z" fill="#312C73"/>
<path d="M81.0921 188.4C81.0921 188.473 80.7769 188.589 80.5093 188.905C80.2416 189.22 80.1553 189.552 80.0776 189.548C79.9999 189.544 79.9653 189.116 80.3064 188.728C80.6474 188.339 81.0964 188.326 81.0921 188.4Z" fill="#312C73"/>
<path d="M81.9603 190.377C81.8913 190.377 81.7963 190.005 82.0035 189.6C82.2107 189.194 82.5734 189.034 82.6036 189.099C82.6338 189.164 82.405 189.38 82.241 189.716C82.0769 190.053 82.0381 190.372 81.9603 190.377Z" fill="#312C73"/>
<path d="M79.4043 185.839C79.3697 185.908 79.0244 185.792 78.597 185.809C78.1696 185.826 77.8286 185.952 77.7897 185.883C77.7508 185.813 78.0833 185.559 78.5884 185.546C79.0934 185.533 79.4431 185.783 79.4043 185.839Z" fill="#312C73"/>
<g opacity="0.3">
<path d="M79.6543 181.337L79.5593 182.761L71.9268 182.459L71.957 181.177L79.6543 181.337Z" fill="black"/>
</g>
<path d="M79.4818 184.225C79.2251 184.286 78.9568 184.277 78.7047 184.199C78.4254 184.14 78.1543 184.047 77.8974 183.923C77.7473 183.85 77.603 183.767 77.4657 183.672C77.379 183.623 77.3016 183.558 77.2369 183.482C77.1883 183.427 77.1597 183.357 77.1557 183.283C77.1518 183.21 77.1728 183.137 77.2153 183.077C77.2555 183.026 77.3067 182.984 77.365 182.956C77.4233 182.928 77.4872 182.913 77.5521 182.912C77.6506 182.914 77.7482 182.932 77.8413 182.964C78.0066 183.009 78.1671 183.07 78.3205 183.146C78.5799 183.271 78.8175 183.437 79.0242 183.638C79.3739 183.983 79.4904 184.268 79.4559 184.281C79.4214 184.294 79.253 184.065 78.8947 183.776C78.6864 183.61 78.457 183.472 78.2126 183.366C78.0733 183.303 77.9289 183.252 77.7809 183.215C77.6168 183.167 77.4787 183.159 77.4312 183.215C77.3837 183.271 77.4312 183.254 77.4312 183.301C77.481 183.355 77.5376 183.403 77.5996 183.443C77.7348 183.536 77.8686 183.618 78.001 183.69C78.2384 183.816 78.487 183.92 78.7436 184C78.9941 184.06 79.2407 184.135 79.4818 184.225Z" fill="#312C73"/>
<path d="M79.378 184.333C79.2408 184.105 79.1775 183.839 79.1967 183.573C79.1886 183.118 79.3083 182.669 79.5421 182.278C79.5865 182.177 79.6563 182.089 79.7448 182.022C79.8332 181.955 79.9374 181.913 80.0472 181.898C80.1169 181.901 80.1843 181.924 80.2411 181.965C80.2978 182.006 80.3415 182.062 80.3666 182.127C80.4037 182.218 80.4283 182.314 80.44 182.412C80.4671 182.645 80.4478 182.882 80.3833 183.108C80.3189 183.334 80.2105 183.545 80.0645 183.729C79.7493 184.126 79.4298 184.204 79.4255 184.16C79.4212 184.117 79.6716 183.983 79.9134 183.604C80.054 183.386 80.1453 183.14 80.181 182.883C80.2026 182.732 80.2026 182.58 80.181 182.429C80.181 182.265 80.1033 182.131 80.0429 182.144C79.9824 182.157 79.8313 182.261 79.7623 182.39C79.6823 182.529 79.613 182.673 79.555 182.822C79.462 183.069 79.4039 183.328 79.3824 183.591C79.3478 184.035 79.4212 184.32 79.378 184.333Z" fill="#312C73"/>
<path d="M46.0634 55.27C46.0634 55.27 44.3754 64.4653 43.0414 70.03C41.9881 74.3471 39.2683 82.4545 44.1941 84.8073C49.1198 87.1601 55.7249 77.6583 55.7249 77.6583L58.5354 56.0125C56.5797 56.3795 54.3608 58.6502 51.9993 61.9873L52.431 53.7849L46.0634 55.27Z" fill="#FFCC00"/>
<path d="M113.85 68.8558L111.26 70.0905L108.873 66.3476L110.267 63.4595C110.401 63.1918 110.543 62.8939 110.699 62.5486C110.871 62.1442 110.975 61.7137 111.005 61.275C111.065 60.7347 111.052 60.1887 110.966 59.6518C110.837 59.1683 111.346 58.7884 111.692 59.0561C112.037 59.3237 112.426 60.6534 112.171 62.2464C111.916 63.8394 113.764 62.1514 114.45 61.547C115.137 60.9426 117.343 59.1813 117.692 59.2503C118.197 59.3496 118.184 59.9281 117.485 60.5109C116.786 61.0937 114.813 63.0062 115.137 63.3602C115.541 63.4057 115.921 63.5761 116.225 63.8477C116.528 64.1192 116.739 64.4784 116.829 64.8755C117.002 65.6569 117.144 66.7404 116.704 67.0987C115.791 67.7451 114.838 68.332 113.85 68.8558Z" fill="#FFBE9D"/>
<path d="M63.6296 33.9655L63.5605 56.4617L73.2049 56.9365L73.4855 51.4668C73.4855 51.4668 76.9132 52.1489 77.8025 48.9629C78.3681 46.9296 78.2342 31.2112 78.2342 31.2112L63.6296 33.9655Z" fill="#FFBE9D"/>
<path d="M80.4015 33.4129C79.7496 34.7555 76.6542 37.2162 76.6542 37.2162L75.2555 40.9634C74.0424 40.0137 72.4106 40.0698 72.1041 42.2024C71.8796 43.7479 73.7963 44.0587 73.7963 44.0587C72.6782 45.9583 71.9227 47.5124 70.2995 49.2997C68.5382 51.2596 67.5539 51.4582 65.6457 51.4884H63.539C63.539 51.4884 59.2219 47.888 60.0854 38.412C60.9488 28.9361 69.4577 31.7033 71.491 29.3462C74.8022 25.4781 82.5729 28.9274 80.4015 33.4129Z" fill="#312C73"/>
<path d="M60.5645 46.3338H60.8321C61.089 46.3292 61.3448 46.3003 61.5962 46.2475C62.5191 46.0374 63.3715 45.5911 64.0699 44.9523C65.0714 43.969 65.9158 42.8377 66.5738 41.598C67.0055 40.9202 67.4113 40.1993 67.9294 39.5042C68.4511 38.7738 69.0918 38.1361 69.8246 37.6177C70.5786 37.1294 71.4109 36.7746 72.2853 36.5686C73.1228 36.3528 73.9473 36.2189 74.7244 36.0678C76.2786 35.7786 77.673 35.3469 78.6098 34.6087C79.3765 34.0478 79.9317 33.2447 80.1855 32.3293C80.2467 32.0806 80.2786 31.8256 80.2805 31.5695C80.2805 31.3925 80.2805 31.2975 80.2805 31.2975C80.2805 31.2975 80.2805 31.3925 80.3107 31.5695C80.3163 31.8278 80.2903 32.0859 80.233 32.3379C79.9875 33.2678 79.4334 34.0867 78.6616 34.6605C77.7032 35.4116 76.2958 35.8563 74.7417 36.1455C73.9603 36.301 73.1401 36.4348 72.3069 36.655C71.4426 36.8603 70.6193 37.2107 69.872 37.6911C69.1504 38.2069 68.5176 38.8368 67.9984 39.556C67.4847 40.2467 67.0573 40.9634 66.6472 41.6412C65.9811 42.885 65.1263 44.018 64.1131 44.9998C63.4057 45.6449 62.5404 46.0917 61.6049 46.295C61.3503 46.3448 61.0915 46.3693 60.8321 46.3683C60.6551 46.3468 60.5645 46.3338 60.5645 46.3338Z" fill="#FFCC00"/>
<path d="M60.0679 38.6277C60.0679 38.6277 60.219 38.5672 60.4996 38.4722C60.9291 38.3211 61.3733 38.2155 61.8249 38.1571C62.5437 38.0476 63.2779 38.2008 63.8928 38.5888C64.0827 38.7151 64.2458 38.8778 64.3725 39.0675C64.4992 39.2572 64.5871 39.4701 64.631 39.694C64.6825 39.9466 64.67 40.2081 64.5946 40.4547C64.5192 40.7013 64.3833 40.925 64.1993 41.1057C63.9896 41.2901 63.7228 41.3967 63.4438 41.4078C63.1539 41.4122 62.8684 41.3359 62.6193 41.1877C62.0907 40.874 61.697 40.3758 61.5141 39.7889C61.3063 39.1706 61.2778 38.506 61.4321 37.8722C61.5909 37.2024 61.9546 36.5988 62.4725 36.1453C63.0143 35.6596 63.6957 35.3574 64.4195 35.2819C65.1691 35.2351 65.9208 35.3318 66.6341 35.5669C67.3679 35.8024 68.1183 35.9828 68.879 36.1065C69.6642 36.2101 70.4596 36.2101 71.2447 36.1065C72.0307 36.013 72.7978 35.8004 73.5198 35.4762C73.873 35.3339 74.1916 35.1178 74.4545 34.8423C74.7173 34.5668 74.9182 34.2383 75.0438 33.8789C75.1466 33.5269 75.1541 33.1539 75.0653 32.7982C74.9766 32.4424 74.7948 32.1166 74.5387 31.8542C74.2782 31.6188 73.954 31.4657 73.6068 31.4143C73.2595 31.3628 72.9048 31.4152 72.5873 31.565C72.2783 31.7007 72.0253 31.9384 71.8707 32.2384C71.7235 32.5334 71.6693 32.8661 71.7153 33.1925C71.7594 33.505 71.8696 33.8045 72.0385 34.071C72.2075 34.3375 72.4314 34.5649 72.6953 34.738C73.2031 35.0496 73.7875 35.214 74.3832 35.2129C74.9326 35.2227 75.4797 35.141 76.0021 34.9711C76.9073 34.6863 77.7296 34.1855 78.3981 33.5119C78.9067 33.0113 79.3257 32.4272 79.6371 31.7851C79.8336 31.3707 79.9856 30.9365 80.0904 30.49C80.1465 30.1878 80.1854 30.0281 80.1854 30.0281L80.1077 30.4943C80.0119 30.9406 79.8671 31.3749 79.676 31.7894C79.3712 32.4433 78.9532 33.0382 78.4413 33.5465C77.7713 34.2304 76.9443 34.7402 76.0324 35.0316C75.5025 35.2026 74.9486 35.2872 74.3919 35.2819C73.7829 35.2858 73.1849 35.1198 72.6651 34.8027C72.391 34.6247 72.1583 34.39 71.9825 34.1145C71.8068 33.839 71.6921 33.529 71.6462 33.2054C71.5953 32.8631 71.651 32.5134 71.806 32.2039C71.9698 31.8877 72.2362 31.6365 72.5614 31.4916C72.8942 31.3338 73.2662 31.2783 73.6304 31.3321C73.9947 31.3859 74.3348 31.5466 74.6077 31.7938C74.8746 32.0666 75.0643 32.4054 75.1576 32.7754C75.2509 33.1455 75.2444 33.5337 75.1387 33.9005C75.0091 34.2723 74.802 34.6124 74.5311 34.8982C74.2602 35.184 73.9317 35.409 73.5673 35.5582C72.8365 35.8848 72.0609 36.1002 71.2663 36.1972C70.4723 36.2986 69.6687 36.2986 68.8747 36.1972C68.1114 36.0724 67.3582 35.892 66.6212 35.6575C65.9173 35.4264 65.1765 35.3283 64.4367 35.3683C63.9349 35.4217 63.4514 35.5871 63.0218 35.852C62.5923 36.117 62.2276 36.475 61.9547 36.8995C61.6817 37.3241 61.5074 37.8044 61.4446 38.3052C61.3818 38.806 61.4321 39.3145 61.5918 39.7933C61.7694 40.3628 62.1505 40.8469 62.6624 41.1531C62.8998 41.2953 63.1715 41.3699 63.4481 41.369C63.7126 41.3591 63.9657 41.2585 64.1648 41.0841C64.3396 40.9095 64.4686 40.6943 64.5401 40.4578C64.6117 40.2213 64.6236 39.9708 64.5749 39.7285C64.4882 39.2927 64.234 38.9083 63.8669 38.6579C63.2616 38.2738 62.5383 38.1206 61.8292 38.2262C61.3799 38.2803 60.9373 38.3801 60.5082 38.5241L60.0679 38.6277Z" fill="#FFCC00"/>
<path d="M53.7045 99.8696L40.8569 184.26L51.5287 185.611L66.5823 114.833L70.377 186.09L81.9424 185.887L80.0256 100.068L53.7045 99.8696Z" fill="#312C73"/>
<path d="M70.1702 186.306V186.099L66.4662 116.473L51.6975 185.853L40.6113 184.445L53.5193 99.6755L80.2376 99.8741L82.163 186.12L70.1702 186.306ZM66.7166 113.188L70.6019 185.87L81.7443 185.676L79.8361 100.284L53.8906 100.107L41.1035 184.07L51.3565 185.365L66.7166 113.188Z" fill="#312C73"/>
<path d="M78.5063 185.749C78.4415 185.749 78.394 168.843 78.394 147.992C78.394 127.141 78.4415 110.226 78.5063 110.226C78.571 110.226 78.6185 127.132 78.6185 147.992C78.6185 168.852 78.5667 185.749 78.5063 185.749Z" fill="#FFCC00"/>
<path d="M49.1802 185.442C49.1831 185.381 49.1918 185.32 49.2061 185.261C49.2061 185.127 49.2622 184.95 49.3054 184.726C49.396 184.246 49.5299 183.556 49.6982 182.675C50.0609 180.883 50.5616 178.315 51.2135 175.142C52.5086 168.783 54.3434 160.01 56.4501 150.34C58.5568 140.67 60.5384 131.924 62.0062 125.608C62.7444 122.456 63.3444 119.905 63.7632 118.126C63.9747 117.263 64.1431 116.572 64.2553 116.097C64.3115 115.873 64.359 115.7 64.3892 115.571C64.4039 115.51 64.4226 115.451 64.4453 115.394C64.4453 115.394 64.4453 115.454 64.4108 115.575C64.3762 115.696 64.3503 115.882 64.3028 116.106C64.1949 116.585 64.0438 117.272 63.8495 118.148C63.4481 119.927 62.8739 122.465 62.1616 125.642C60.7326 131.971 58.777 140.718 56.6703 150.388C54.5636 160.058 52.7029 168.826 51.3689 175.172C50.6998 178.341 50.1601 180.905 49.7846 182.692C49.5989 183.556 49.4521 184.255 49.3529 184.734L49.232 185.265C49.2207 185.326 49.2033 185.385 49.1802 185.442Z" fill="#FFCC00"/>
<path d="M70.377 114.755C70.2179 114.797 70.0539 114.819 69.8892 114.819L68.5552 114.914C67.4285 114.988 65.87 115.066 64.1605 115.234C62.4509 115.402 60.9097 115.635 59.7916 115.782L58.4663 115.951C58.3042 115.982 58.1388 115.992 57.9741 115.981C58.129 115.924 58.2897 115.885 58.4533 115.864C58.7598 115.799 59.2088 115.717 59.7484 115.622C60.8622 115.437 62.4034 115.191 64.1216 115.009C65.8398 114.828 67.4026 114.789 68.5293 114.755C69.0949 114.755 69.5525 114.733 69.8676 114.733C70.0377 114.722 70.2085 114.729 70.377 114.755Z" fill="#FFCC00"/>
<path d="M80.2502 109.277C80.145 109.323 80.0325 109.351 79.9178 109.359C79.6091 109.403 79.2968 109.418 78.9853 109.402C77.9489 109.346 76.9502 108.994 76.1083 108.387C75.2663 107.78 74.6166 106.944 74.2366 105.978C74.1217 105.688 74.0364 105.387 73.9818 105.08C73.943 104.864 73.9387 104.744 73.9559 104.739C73.9732 104.735 74.0682 105.214 74.3876 105.914C74.8014 106.827 75.4438 107.618 76.2526 108.21C77.0698 108.789 78.0235 109.144 79.0199 109.242C79.7624 109.32 80.2416 109.233 80.2502 109.277Z" fill="#FFCC00"/>
<path d="M51.5068 101.527L81.0701 101.433L79.4512 81.9237C79.2742 77.4599 79.3001 76.9246 79.1878 72.8061C79.1878 72.8061 83.384 77.8786 86.6866 81.4402C87.6597 82.4867 88.9409 83.196 90.3443 83.4654C91.7477 83.7347 93.2004 83.5501 94.4918 82.9382L111.76 70.8893L108.527 62.6135L92.8341 72.219C92.1131 71.7873 86.0045 63.0538 81.7824 58.8015C79.0792 56.0798 75.433 54.5017 71.5984 54.3938C68.4161 54.3193 65.2323 54.4477 62.0664 54.778C59.7601 55.025 57.612 56.0677 55.9913 57.727C54.3706 59.3862 53.3787 61.5583 53.1862 63.8698C52.8797 67.5177 53.1257 71.7527 53.1257 78.9493L51.5068 101.527Z" fill="#FFCC00"/>
<path d="M52.8973 65.8425C52.8973 65.8425 52.8973 65.9246 52.8973 66.0713C52.8973 66.2181 52.8973 66.4642 52.8973 66.7232C52.8973 67.2931 52.8973 68.1133 52.8973 69.1278C52.8973 71.1568 52.988 73.9543 53.0786 77.0496C53.1693 80.1449 53.1822 82.951 53.1045 84.9757C53.07 85.9902 53.0225 86.8105 52.975 87.376C52.975 87.6394 52.9362 87.8552 52.9232 88.0279C52.9103 88.2006 52.8973 88.2524 52.8973 88.2524C52.8973 88.2524 52.8973 88.1747 52.8973 88.0279C52.8973 87.8811 52.9189 87.635 52.9318 87.376C52.9707 86.8105 53.0052 85.9902 53.0311 84.9757C53.0916 82.9467 53.0657 80.1449 52.9793 77.0496C52.893 73.9543 52.8196 71.1568 52.8239 69.1278C52.8239 68.1133 52.8239 67.2931 52.8541 66.7232C52.8541 66.4599 52.8541 66.2483 52.8757 66.0713C52.8973 65.8943 52.8973 65.8425 52.8973 65.8425Z" fill="#312C73"/>
<path d="M92.187 75.012C92.1921 74.8749 92.2123 74.7388 92.2475 74.6062C92.2993 74.3558 92.3727 74.0104 92.4633 73.6349C92.554 73.2593 92.636 72.9139 92.7007 72.6722C92.7262 72.5366 92.7682 72.4046 92.8259 72.2793C92.8206 72.4167 92.7988 72.5529 92.7612 72.6851C92.7137 72.9355 92.636 73.2765 92.5496 73.6564C92.4633 74.0363 92.377 74.3731 92.3122 74.6191C92.2849 74.7543 92.2429 74.886 92.187 75.012Z" fill="#312C73"/>
<path d="M93.763 75.2536C93.5978 74.7442 93.4637 74.2252 93.3615 73.6995C93.2285 73.1802 93.1233 72.6543 93.0464 72.1238C93.2092 72.6339 93.3432 73.1528 93.4479 73.6779C93.5809 74.1972 93.6861 74.7232 93.763 75.2536Z" fill="#312C73"/>
<path d="M79.9175 73.5355L79.7577 73.3888L79.3044 72.957C78.9159 72.5771 78.3547 72.0202 77.6812 71.3079C76.8916 70.4798 76.1562 69.6016 75.4795 68.6788C74.6424 67.5491 73.9667 66.3083 73.4721 64.9921C72.9719 63.673 72.7471 62.2655 72.8116 60.8563C72.8332 59.7055 73.0857 58.5707 73.5541 57.5192C73.8895 56.8159 74.3884 56.2031 75.009 55.732C75.1753 55.6055 75.3498 55.4901 75.5313 55.3866L75.7256 55.2787C75.7256 55.2787 75.4579 55.4255 75.0306 55.7579C74.4247 56.2352 73.9384 56.8471 73.6102 57.5451C73.1545 58.5921 72.9109 59.719 72.8936 60.8606C72.8333 62.2587 73.0595 63.6544 73.5584 64.9619C74.0504 66.2696 74.7185 67.5042 75.5443 68.6314C76.2177 69.5531 76.9473 70.4326 77.7287 71.2648C78.3935 71.9814 78.9461 72.5599 79.3303 72.9355L79.7621 73.3672C79.87 73.4794 79.9175 73.5355 79.9175 73.5355Z" fill="#312C73"/>
<path d="M60.7026 65.5102C60.3122 65.1951 59.9704 64.8242 59.6881 64.4094C59.3511 64.0401 59.0691 63.6243 58.8506 63.1747C59.2403 63.4889 59.5821 63.8583 59.8651 64.2712C60.2037 64.6407 60.486 65.0582 60.7026 65.5102Z" fill="#FAFAFA"/>
<path d="M67.4196 73.134C67.0103 73.7007 66.5414 74.2217 66.0209 74.6882C65.5523 75.2083 65.0299 75.6771 64.4624 76.0869C65.3403 75.0003 66.3317 74.0104 67.4196 73.134Z" fill="#FAFAFA"/>
<path d="M73.9218 84.0779C73.8614 84.0779 73.624 83.4303 73.1836 82.6835C72.7433 81.9366 72.2857 81.3884 72.3202 81.3582C72.7655 81.6676 73.125 82.085 73.3649 82.5712C73.6733 83.0191 73.8648 83.5371 73.9218 84.0779Z" fill="#FAFAFA"/>
<path d="M57.0679 82.8388C56.4109 81.4605 56.1423 79.9292 56.2908 78.4095C56.3599 78.4095 56.3771 79.4197 56.5973 80.6371C56.8175 81.8546 57.1542 82.8129 57.0679 82.8388Z" fill="#FAFAFA"/>
<path d="M66.0171 87.6567C65.4792 86.498 65.3632 85.1878 65.689 83.9526C65.7538 83.9526 65.6588 84.7945 65.7538 85.8133C65.8487 86.8321 66.0819 87.6351 66.0171 87.6567Z" fill="#FAFAFA"/>
<path d="M62.4771 94.6546C61.7648 94.3443 61.0852 93.9639 60.4481 93.5192C59.7701 93.1389 59.1298 92.6951 58.5356 92.1938C59.2491 92.5046 59.9302 92.8849 60.569 93.3292C61.2458 93.7093 61.8847 94.1531 62.4771 94.6546Z" fill="#FAFAFA"/>
<path d="M76.3949 92.5869C76.4252 92.6474 75.4236 93.1438 74.2623 93.882C73.101 94.6202 72.216 95.3067 72.1729 95.2549C72.7469 94.6381 73.4106 94.1113 74.1414 93.6921C74.8319 93.211 75.5919 92.8383 76.3949 92.5869Z" fill="#FAFAFA"/>
<path d="M58.881 100.5C58.1526 100.466 57.4295 100.359 56.7225 100.18C55.9947 100.073 55.28 99.891 54.5898 99.6365C55.3185 99.6708 56.0417 99.7793 56.7484 99.9603C57.4757 100.067 58.1903 100.248 58.881 100.5Z" fill="#FAFAFA"/>
<path d="M68.2227 98.9803C67.3991 98.1814 66.8401 97.1493 66.6211 96.0231C66.6815 96.0231 66.9492 96.7052 67.3939 97.5168C67.8385 98.3284 68.2745 98.9371 68.2227 98.9803Z" fill="#FAFAFA"/>
<path d="M78.739 99.7099C78.577 100.075 78.3486 100.408 78.0656 100.69C77.6339 101.191 77.2712 101.553 77.2021 101.527C77.3608 101.157 77.5895 100.822 77.8756 100.539C78.3073 100.047 78.6743 99.6753 78.739 99.7099Z" fill="#FAFAFA"/>
<path d="M59.5153 70.0345C59.5498 70.0864 59.1656 70.4058 58.6519 70.7425C58.3602 70.9814 58.0242 71.1604 57.6633 71.2692C57.6287 71.2174 58.0173 70.898 58.5267 70.5569C58.8179 70.3183 59.1541 70.1407 59.5153 70.0345Z" fill="#FAFAFA"/>
<path d="M66.8025 61.8969C66.4562 61.1893 66.1954 60.4429 66.0255 59.6736C65.7919 58.9233 65.647 58.1481 65.5938 57.364C65.8649 58.0989 66.0842 58.8519 66.2499 59.6175C66.4879 60.3633 66.6726 61.125 66.8025 61.8969Z" fill="#FAFAFA"/>
<path d="M73.8005 69.3047C73.7703 69.3652 73.14 69.1234 72.3327 68.9723C71.5254 68.8212 70.8477 68.8083 70.8477 68.7392C71.868 68.5614 72.9181 68.7626 73.8005 69.3047Z" fill="#FAFAFA"/>
<path d="M78.61 63.0104C78.0737 63.1671 77.5066 63.1864 76.9609 63.0666C76.4047 63.0186 75.8699 62.8299 75.4067 62.5183C75.4326 62.4578 76.1147 62.7125 76.9954 62.8421C77.8761 62.9716 78.6014 62.9457 78.61 63.0104Z" fill="#FAFAFA"/>
<path d="M83.5269 70.0301C83.4458 69.2357 83.4865 68.4335 83.6477 67.6514C83.74 66.8573 83.9556 66.0824 84.2867 65.3547C84.3471 65.3547 84.0751 66.3995 83.855 67.6859C83.6348 68.9724 83.5959 70.0344 83.5269 70.0301Z" fill="#FAFAFA"/>
<path d="M89.312 78.3017C88.2359 77.4024 87.2603 76.3892 86.4023 75.2798C87.4757 76.1821 88.451 77.195 89.312 78.3017Z" fill="#FAFAFA"/>
<path d="M94.1209 77.6583C93.6747 78.6343 93.0934 79.5426 92.394 80.3565C92.5857 79.8519 92.8473 79.3767 93.1711 78.9448C93.4257 78.4735 93.7455 78.0405 94.1209 77.6583Z" fill="#FAFAFA"/>
<path d="M99.7031 74.9428C99.3272 74.4294 99.0141 73.8729 98.7706 73.285C98.46 72.7282 98.2152 72.1371 98.041 71.5237C98.4163 72.039 98.7294 72.5969 98.9735 73.1858C99.2836 73.7413 99.5285 74.3309 99.7031 74.9428Z" fill="#FAFAFA"/>
<path d="M107.301 71.8002C105.969 71.7169 104.651 71.4822 103.373 71.1008C104.041 71.1076 104.707 71.1886 105.358 71.3426C106.021 71.4212 106.673 71.5747 107.301 71.8002Z" fill="#FAFAFA"/>
<path d="M46.9487 79.886C47.4098 78.5452 48.0149 77.2584 48.7533 76.0481C48.556 76.7295 48.2869 77.3879 47.9503 78.0124C47.6835 78.6705 47.3478 79.2985 46.9487 79.886Z" fill="#FAFAFA"/>
<path d="M50.9763 72.7803C50.4936 72.4028 50.0587 71.9679 49.6811 71.4852C49.2455 71.0518 48.8616 70.5694 48.5371 70.0476C49.0212 70.4235 49.4563 70.8586 49.8322 71.3427C50.2701 71.7741 50.6542 72.2568 50.9763 72.7803Z" fill="#FAFAFA"/>
<path d="M50.6396 84.1901C50.6785 84.2376 50.3806 84.5528 49.9748 84.8938C49.569 85.2349 49.202 85.468 49.1588 85.4205C49.1157 85.373 49.4222 85.0579 49.828 84.7211C50.2338 84.3844 50.6007 84.134 50.6396 84.1901Z" fill="#FAFAFA"/>
<path d="M51.9997 65.2296C52.0515 65.2684 51.8701 65.5749 51.5982 65.916C51.3262 66.257 51.0629 66.4988 51.0154 66.4599C50.9679 66.4211 51.1492 66.1146 51.4212 65.7735C51.6931 65.4325 51.9738 65.1907 51.9997 65.2296Z" fill="#FAFAFA"/>
<g opacity="0.3">
<path d="M74.5645 67.1897C76.3906 72.9271 77.7979 78.9494 79.624 84.6867L79.1923 72.8062C77.4165 71.139 75.8613 69.2515 74.5645 67.1897Z" fill="black"/>
</g>
<path d="M44.8589 74.6968C44.8739 74.6494 44.8927 74.6032 44.915 74.5587L45.0877 74.1572C45.2431 73.8119 45.4719 73.3197 45.7655 72.711C46.3526 71.4936 47.1987 69.8315 48.2176 68.0356C49.2364 66.2397 50.225 64.6597 50.9675 63.5329C51.3388 62.9674 51.6453 62.5141 51.8612 62.2076L52.1115 61.8536C52.172 61.7716 52.2022 61.7284 52.2065 61.7327L52.1288 61.8622L51.8914 62.2249L51.028 63.5675C50.2984 64.7029 49.3011 66.2872 48.3039 68.0788C47.3067 69.8704 46.4303 71.5324 45.8345 72.7369L45.1309 74.1745C45.0575 74.3213 44.9927 74.4508 44.9409 74.563C44.9184 74.6104 44.8909 74.6553 44.8589 74.6968Z" fill="#312C73"/>
<path d="M47.7729 69.2013C47.6191 69.2777 47.4604 69.344 47.298 69.3999C46.9228 69.5636 46.5643 69.7631 46.2274 69.9956C45.8926 70.2308 45.5817 70.4983 45.2992 70.7943C45.0791 71.0231 44.9582 71.1742 44.9495 71.1656C44.9409 71.1569 44.9495 71.1224 45.0186 71.049C45.0903 70.9451 45.1681 70.8456 45.2517 70.7511C45.5233 70.4368 45.8338 70.1583 46.1756 69.9222C46.5174 69.685 46.8872 69.4907 47.2764 69.3438C47.3935 69.2981 47.5132 69.2592 47.6348 69.2272C47.6794 69.2122 47.7259 69.2035 47.7729 69.2013Z" fill="#312C73"/>
<path d="M48.1789 60.3469C47.8092 61.0541 47.3757 61.726 46.8838 62.3544C46.445 63.025 45.9434 63.6524 45.3857 64.228C45.7572 63.5232 46.1907 62.8529 46.6809 62.2248C47.1203 61.5534 47.6219 60.9246 48.1789 60.3469Z" fill="#FAFAFA"/>
<path d="M51.2959 53.3274C51.5098 53.3652 51.7302 53.3357 51.9266 53.2429C52.123 53.1501 52.2858 52.9986 52.3924 52.8093C52.6342 52.4467 52.7464 52.015 52.958 51.6351C53.6012 50.5083 55.0604 50.0162 55.6475 48.8592C55.7295 48.6952 55.777 48.4707 55.6475 48.3584C55.518 48.2462 55.3237 48.3239 55.1726 48.3973L51.3304 50.3227" fill="#FFBE9D"/>
<path d="M51.3216 50.3227C51.4402 50.2213 51.5725 50.137 51.7145 50.0723C51.9735 49.9255 52.3577 49.7226 52.8326 49.4722L54.499 48.6088L54.9868 48.3627C55.1682 48.2335 55.3924 48.1794 55.6128 48.2116C55.6804 48.2374 55.7387 48.2829 55.7802 48.3421C55.8218 48.4014 55.8446 48.4717 55.8459 48.544C55.8479 48.6637 55.8212 48.7821 55.7682 48.8894C55.6746 49.0795 55.5586 49.2577 55.4228 49.4204C54.8823 49.9668 54.3054 50.4759 53.696 50.9443C53.4519 51.158 53.2409 51.4068 53.07 51.6825C52.9146 51.9459 52.8153 52.2178 52.6944 52.4639C52.6181 52.6719 52.4969 52.8605 52.3394 53.0165C52.182 53.1724 51.9922 53.2918 51.7835 53.3662C51.7076 53.3964 51.6258 53.4091 51.5443 53.4031C51.4628 53.3971 51.3837 53.3727 51.313 53.3316C51.459 53.3369 51.6049 53.3179 51.7447 53.2755C51.9273 53.1924 52.0912 53.0729 52.2262 52.9245C52.3613 52.7761 52.4648 52.6018 52.5304 52.4121C52.6343 52.137 52.7524 51.8676 52.8844 51.6048C53.0583 51.3059 53.2767 51.0352 53.532 50.8019C54.1368 50.331 54.7134 49.8251 55.2588 49.2866C55.3791 49.1374 55.4847 48.977 55.5739 48.8074C55.6516 48.6476 55.6516 48.4793 55.5739 48.4577C55.4962 48.4361 55.2976 48.5095 55.1422 48.5915L54.6544 48.8333L52.9621 49.6535C52.4786 49.8823 52.0987 50.0852 51.8094 50.1845C51.6549 50.2554 51.4904 50.302 51.3216 50.3227Z" fill="#EB996E"/>
</svg>
