<svg width="68" height="69" viewBox="0 0 68 69" fill="none" xmlns="http://www.w3.org/2000/svg">
<g clip-path="url(#clip0_9111_722)">
<path d="M65.1185 29.0454C62.818 24.4855 59.3463 20.7612 55.0751 18.1898L56.5616 13.6754L57.8643 14.1044C58.1161 14.187 58.3751 14.2282 58.6331 14.2282C59.0146 14.2282 59.394 14.1384 59.7452 13.9611C60.3346 13.6634 60.7721 13.1557 60.9769 12.5323L62.148 8.97755C62.5723 7.68528 61.8668 6.28889 60.5756 5.86482L55.8059 4.29498C55.2835 4.12299 54.7206 4.40707 54.5485 4.92969C54.3765 5.45217 54.6607 6.01516 55.1832 6.18716L59.9534 7.75727C60.1974 7.83722 60.3356 8.11161 60.2556 8.35519L59.0844 11.9099C59.032 12.0697 58.9134 12.1495 58.8472 12.1827C58.7811 12.2162 58.6459 12.2641 58.4862 12.2119L44.5044 7.60759C44.3461 7.55552 44.2672 7.43798 44.2344 7.37251C44.2011 7.3061 44.1531 7.17077 44.206 7.00967L45.3771 3.45494C45.4296 3.2953 45.5482 3.21534 45.6142 3.18214C45.6805 3.14894 45.8155 3.10073 45.9749 3.15279L50.9327 4.78678C51.455 4.95904 52.0181 4.67495 52.1904 4.1526C52.3627 3.63012 52.0786 3.06713 51.5562 2.89487L46.5974 1.26048C45.9732 1.05581 45.3054 1.10655 44.7164 1.40392C44.1269 1.70155 43.6895 2.20916 43.4848 2.83258L42.3137 6.38731C41.8891 7.6801 42.593 9.07663 43.882 9.50003L45.1856 9.92928L43.697 14.4413C41.6657 14.2507 39.6162 14.2962 37.563 14.5809C37.018 14.6563 36.6375 15.1593 36.7131 15.7041C36.7885 16.249 37.2924 16.6303 37.8363 16.554C41.5953 16.0331 45.3413 16.3752 48.9713 17.5712C55.2568 19.6419 60.3596 24.0354 63.3397 29.9427C66.3199 35.8498 66.8207 42.5636 64.7501 48.8475C60.4795 61.8189 46.4494 68.8971 33.4749 64.6265C27.1914 62.5576 22.0898 58.1647 19.11 52.2566C16.1302 46.3487 15.6294 39.6344 17.7 33.3504C20.1455 25.9206 26.0498 20.019 33.4942 17.5639C34.0166 17.3915 34.3004 16.8284 34.1282 16.3059C33.9558 15.7837 33.3932 15.5 32.8702 15.672C31.1799 16.2295 29.5452 16.9588 27.9974 17.8393H20.0178C19.4676 17.8393 19.0218 18.2852 19.0218 18.8353C19.0218 19.3854 19.4676 19.8312 20.0178 19.8312H24.9855C24.097 20.5075 23.2498 21.2364 22.4547 22.0171C19.6738 24.7484 17.5057 28.1088 16.141 31.7832H9.17627C8.62617 31.7832 8.18031 32.229 8.18031 32.7791C8.18031 33.3293 8.62617 33.7751 9.17627 33.7751H15.4879C14.3631 37.7115 14.1573 41.7792 14.854 45.7234H4.21466C3.66456 45.7234 3.2187 46.1693 3.2187 46.7194C3.2187 47.2695 3.66456 47.7154 4.21466 47.7154H15.286C15.7642 49.5754 16.446 51.3976 17.3316 53.1536C18.5539 55.5771 20.1074 57.7637 21.9349 59.6674H12.9821C12.432 59.6674 11.9862 60.1133 11.9862 60.6634C11.9862 61.2135 12.432 61.6594 12.9821 61.6594H24.0723C26.6302 63.7926 29.5934 65.4456 32.8521 66.5184C35.6215 67.4301 38.4338 67.863 41.2023 67.8629C52.4463 67.8621 62.9398 60.716 66.6423 49.4705C68.8796 42.6815 68.3384 35.4277 65.1185 29.0454ZM45.7062 14.7093L47.0776 10.5524L54.6695 13.0525L53.3002 17.2107C52.1152 16.6148 50.8779 16.1021 49.5948 15.6794C48.3109 15.2564 47.0134 14.9342 45.7062 14.7093Z" fill="black"/>
<path d="M0.995961 19.8311H13.3813C13.9314 19.8311 14.3772 19.3853 14.3772 18.8352C14.3772 18.2851 13.9314 17.8392 13.3813 17.8392H0.995961C0.445852 17.8392 0 18.2851 0 18.8352C0 19.3853 0.445852 19.8311 0.995961 19.8311Z" fill="black"/>
<path d="M4.97887 24.8112C4.42876 24.8112 3.98291 25.257 3.98291 25.8071C3.98291 26.3573 4.42876 26.8031 4.97887 26.8031H14.3412C14.8913 26.8031 15.3372 26.3573 15.3372 25.8071C15.3372 25.257 14.8913 24.8112 14.3412 24.8112H4.97887Z" fill="black"/>
<path d="M8.99765 39.7474C8.99765 39.1973 8.5518 38.7515 8.00169 38.7515H0.995961C0.445852 38.7515 0 39.1973 0 39.7474C0 40.2975 0.445852 40.7434 0.995961 40.7434H8.00169C8.5518 40.7435 8.99765 40.2975 8.99765 39.7474Z" fill="black"/>
<path d="M12.9806 53.6915C12.9806 53.1414 12.5347 52.6956 11.9846 52.6956H7.10587C6.55576 52.6956 6.10991 53.1414 6.10991 53.6915C6.10991 54.2417 6.55563 54.6875 7.10587 54.6875H11.9846C12.5347 54.6875 12.9806 54.2417 12.9806 53.6915Z" fill="black"/>
<path d="M21.2064 34.5082C17.5728 45.547 23.5959 57.4833 34.6325 61.1163C36.8013 61.831 39.03 62.1857 41.249 62.1857C44.5004 62.1857 47.7307 61.4239 50.718 59.9171C55.7439 57.382 59.4822 53.041 61.2441 47.6939C61.2469 47.6854 61.2495 47.6769 61.2522 47.6684L61.26 47.6423C64.8607 36.6213 58.8336 24.7088 47.8201 21.0822C45.7906 20.4057 43.6496 20.0464 41.5111 20.0149C39.3616 19.9832 37.2102 20.2877 35.1532 20.9114C33.9761 21.2683 32.8306 21.7286 31.7325 22.2827C26.7067 24.8188 22.9685 29.1604 21.2064 34.5082ZM59.6486 46.0781L45.5328 41.4294C45.6014 40.6403 45.4512 39.8458 45.0857 39.1211C44.7201 38.3962 44.1704 37.8032 43.4952 37.3897L48.1328 23.3095C57.202 26.824 62.1918 36.6901 59.6486 46.0781ZM42.2817 43.1339C41.7282 43.4128 41.0995 43.4597 40.5107 43.2662C39.2963 42.8665 38.6338 41.5527 39.0336 40.3372C39.3542 39.3628 40.2636 38.7436 41.2384 38.7436C41.4779 38.7436 41.7215 38.7811 41.9609 38.8597C41.9613 38.8598 41.9616 38.86 41.962 38.8601C41.9624 38.8602 41.9626 38.8602 41.963 38.8604C42.5509 39.054 43.0281 39.4651 43.307 40.018C43.5859 40.5709 43.6329 41.1996 43.4397 41.7881C43.4395 41.7884 43.4395 41.7885 43.4394 41.7888C43.4393 41.789 43.4393 41.7894 43.4391 41.7897C43.2456 42.3776 42.8346 42.855 42.2817 43.1339ZM41.2057 22.0055C42.8901 22.0055 44.5809 22.2324 46.2405 22.6867L41.6029 36.767C40.8137 36.6983 40.0192 36.8485 39.2944 37.2142C39.0485 37.3382 38.8182 37.484 38.6042 37.6481L31.9599 31.5914C31.5532 31.2209 30.9233 31.25 30.5527 31.6565C30.1822 32.063 30.2114 32.693 30.6178 33.0636L37.3493 39.1996C37.2701 39.3657 37.1999 39.5372 37.1414 39.7149C36.7815 40.8087 36.8689 41.9772 37.3874 43.0054C37.9062 44.0338 38.7943 44.7986 39.888 45.1583C40.1741 45.2525 40.4653 45.3127 40.7576 45.346L41.096 48.2432C41.1553 48.7504 41.5856 49.1237 42.084 49.1237C42.1227 49.1237 42.1617 49.1213 42.2009 49.1168C42.7473 49.0531 43.1384 48.5583 43.0746 48.012L42.7351 45.1056C42.8853 45.0496 43.0334 44.9857 43.1785 44.9125C43.9034 44.5469 44.4964 43.9972 44.9098 43.3217L59.0301 47.9718C57.4487 52.0819 54.5425 55.4672 50.7226 57.6527L49.6113 55.4491C49.3636 54.9578 48.7646 54.7604 48.2736 55.0083C47.7825 55.2558 47.5851 55.8548 47.8328 56.3459L48.9457 58.5527C44.9163 60.3405 40.4613 60.6756 36.2099 59.5115L36.9854 57.1578C37.1576 56.6355 36.8735 56.0723 36.3511 55.9002C35.828 55.7278 35.2654 56.012 35.0935 56.5345L34.3178 58.8885C30.0958 57.2528 26.7593 54.243 24.6541 50.5461L26.8507 49.4384C27.3418 49.1907 27.5392 48.5918 27.2915 48.1007C27.044 47.6094 26.4448 47.4118 25.9538 47.6599L23.7596 48.7665C22.0498 44.8769 21.6219 40.4092 22.822 36.0469L25.1415 36.8121C25.2451 36.8464 25.3503 36.8626 25.4537 36.8626C25.8719 36.8626 26.2612 36.5971 26.3993 36.1784C26.5717 35.656 26.2878 35.0927 25.7655 34.9205L23.449 34.1563C25.0433 30.0625 27.954 26.6921 31.7742 24.5198L32.8654 26.6781C33.0407 27.0249 33.3913 27.2251 33.7551 27.2251C33.9062 27.2251 34.0596 27.1904 34.2037 27.1176C34.6946 26.8694 34.8914 26.2703 34.6432 25.7794L33.5544 23.6256C35.9968 22.5498 38.5933 22.0055 41.2057 22.0055Z" fill="black"/>
</g>
<defs>
<clipPath id="clip0_9111_722">
<rect width="68" height="68" fill="white" transform="translate(0 0.5)"/>
</clipPath>
</defs>
</svg>
