<svg width="69" height="69" viewBox="0 0 69 69" fill="none" xmlns="http://www.w3.org/2000/svg">
<g clip-path="url(#clip0_9111_1146)">
<path d="M37.9755 10.4277C37.4253 10.4277 36.9794 10.8737 36.9794 11.4238V14.9848C36.9794 15.5349 37.4253 15.9809 37.9755 15.9809C38.5258 15.9809 38.9716 15.5349 38.9716 14.9848V11.4238C38.9716 10.8737 38.5258 10.4277 37.9755 10.4277Z" fill="black"/>
<path d="M37.9755 45.9137C37.4253 45.9137 36.9794 46.3597 36.9794 46.9098V50.4708C36.9794 51.0209 37.4253 51.4669 37.9755 51.4669C38.5258 51.4669 38.9716 51.0209 38.9716 50.4708V46.9098C38.9716 46.3597 38.5258 45.9137 37.9755 45.9137Z" fill="black"/>
<path d="M57.4989 29.9512H53.938C53.3879 29.9512 52.9419 30.3972 52.9419 30.9473C52.9419 31.4974 53.3877 31.9434 53.938 31.9434H57.4989C58.0492 31.9434 58.495 31.4974 58.495 30.9473C58.495 30.3972 58.0492 29.9512 57.4989 29.9512Z" fill="black"/>
<path d="M22.013 29.9512H18.4521C17.902 29.9512 17.456 30.3972 17.456 30.9473C17.456 31.4974 17.902 31.9434 18.4521 31.9434H22.013C22.5631 31.9434 23.0091 31.4974 23.0091 30.9473C23.0091 30.3972 22.5631 29.9512 22.013 29.9512Z" fill="black"/>
<path d="M30.2429 15.5618L29.0764 13.5415C28.8014 13.065 28.1919 12.902 27.7157 13.1769C27.2393 13.452 27.0761 14.0612 27.3512 14.5376L28.5177 16.5579C28.7021 16.8775 29.037 17.0561 29.3812 17.0561C29.5501 17.0561 29.7216 17.0129 29.8783 16.9225C30.3547 16.6474 30.518 16.0382 30.2429 15.5618Z" fill="black"/>
<path d="M48.5998 47.3569L47.4333 45.3366C47.1583 44.8601 46.5489 44.6972 46.0727 44.972C45.5963 45.2471 45.4331 45.8563 45.7081 46.3327L46.8746 48.353C47.0592 48.6726 47.3939 48.8512 47.7381 48.8512C47.9071 48.8512 48.0785 48.808 48.2353 48.7176C48.7117 48.4425 48.8749 47.8333 48.5998 47.3569Z" fill="black"/>
<path d="M55.7459 20.6876C55.4708 20.2111 54.8616 20.0478 54.3853 20.323L52.3648 21.4895C51.8884 21.7646 51.7252 22.3738 52.0002 22.8502C52.1847 23.1696 52.5195 23.3484 52.8638 23.3484C53.0327 23.3484 53.2042 23.3053 53.3609 23.2148L55.3814 22.0483C55.8578 21.7732 56.021 21.164 55.7459 20.6876Z" fill="black"/>
<path d="M23.5861 21.4894L21.5657 20.3229C21.0892 20.0477 20.4801 20.2109 20.2051 20.6875C19.93 21.1639 20.0932 21.7731 20.5696 22.0481L22.59 23.2146C22.7468 23.3052 22.9181 23.3482 23.0871 23.3482C23.4313 23.3482 23.7662 23.1696 23.9506 22.8501C24.2257 22.3737 24.0625 21.7645 23.5861 21.4894Z" fill="black"/>
<path d="M55.3814 39.8464L53.3609 38.6799C52.8841 38.4048 52.2752 38.5681 52.0003 39.0445C51.7251 39.5209 51.8884 40.1301 52.3648 40.4051L54.3853 41.5716C54.5423 41.6622 54.7135 41.7052 54.8824 41.7052C55.2267 41.7052 55.5615 41.5265 55.746 41.207C56.021 40.7306 55.8578 40.1214 55.3814 39.8464Z" fill="black"/>
<path d="M48.2353 13.177C47.759 12.9017 47.1495 13.065 46.8746 13.5415L45.7081 15.5619C45.4329 16.0383 45.5963 16.6475 46.0727 16.9226C46.2295 17.0131 46.4009 17.0562 46.5698 17.0562C46.9141 17.0562 47.2489 16.8775 47.4334 16.558L48.5998 14.5376C48.8749 14.0612 48.7117 13.452 48.2353 13.177Z" fill="black"/>
<path d="M59.5049 9.41783C53.7543 3.66705 46.1083 0.5 37.9755 0.5C29.8427 0.5 22.1967 3.66705 16.4461 9.41783C10.6953 15.1685 7.52824 22.8145 7.52824 30.9473C7.52824 31.9428 7.57659 32.9469 7.67181 33.9313C7.72481 34.4789 8.21236 34.8785 8.75928 34.8269C9.30687 34.7739 9.70783 34.287 9.65484 33.7394C9.56572 32.8185 9.52056 31.8791 9.52056 30.9473C9.52056 23.3465 12.4804 16.201 17.8548 10.8264C23.2292 5.45191 30.3748 2.49219 37.9755 2.49219C45.5762 2.49219 52.7218 5.45205 58.0962 10.8264C63.4707 16.201 66.4306 23.3467 66.4306 30.9473C66.4306 46.6375 53.6657 59.4023 37.9755 59.4023C36.1197 59.4023 34.2723 59.2224 32.4687 58.8711C33.0406 57.6686 33.4748 56.3884 33.7489 55.0505C35.1388 55.2933 36.5564 55.418 37.9755 55.418C51.4687 55.418 62.4462 44.4405 62.4462 30.9473C62.4462 17.454 51.4687 6.47656 37.9755 6.47656C24.4823 6.47656 13.5048 17.454 13.5048 30.9473C13.5048 32.3662 13.6295 33.7839 13.8723 35.1739C6.20649 36.7448 0.422775 43.5427 0.422775 51.666C0.422775 60.9483 7.97449 68.5 17.2568 68.5C23.2187 68.5 28.4664 65.3844 31.458 60.6959C33.5857 61.1576 35.7753 61.3945 37.9755 61.3945C46.1108 61.3945 53.758 58.2266 59.5084 52.474C65.2569 46.7235 68.4228 39.0784 68.4228 30.9473C68.4228 22.8145 65.2556 15.1686 59.5049 9.41783ZM37.9755 8.46875C50.3702 8.46875 60.454 18.5525 60.454 30.9473C60.454 43.342 50.3702 53.4258 37.9755 53.4258C36.6506 53.4258 35.3272 53.3078 34.031 53.0778C34.0698 52.6122 34.0907 52.1415 34.0907 51.666C34.0907 42.3838 26.539 34.832 17.2568 34.832C16.7813 34.832 16.3106 34.8529 15.845 34.8918C15.6149 33.5954 15.497 32.2722 15.497 30.9473C15.497 18.5525 25.5808 8.46875 37.9755 8.46875ZM17.2568 66.5078C9.07299 66.5078 2.41496 59.8498 2.41496 51.666C2.41496 43.4822 9.07299 36.8242 17.2568 36.8242C25.4405 36.8242 32.0986 43.4822 32.0986 51.666C32.0986 59.8498 25.4405 66.5078 17.2568 66.5078Z" fill="black"/>
<path d="M49.9895 29.918H41.4792C41.1298 28.7305 40.1923 27.7931 39.0048 27.4435V23.5098C39.0048 22.9597 38.559 22.5137 38.0087 22.5137C37.4585 22.5137 37.0126 22.9597 37.0126 23.5098V27.4247C35.4646 27.8484 34.3232 29.2667 34.3232 30.9473C34.3232 32.9612 35.9617 34.5996 37.9755 34.5996C39.6561 34.5996 41.0744 33.4582 41.4981 31.9102H49.9895C50.5397 31.9102 50.9856 31.4642 50.9856 30.9141C50.9856 30.364 50.5397 29.918 49.9895 29.918ZM37.9755 32.6074C37.06 32.6074 36.3154 31.8627 36.3154 30.9473C36.3154 30.0318 37.06 29.2871 37.9755 29.2871C38.891 29.2871 39.6357 30.0318 39.6357 30.9473C39.6357 31.8627 38.891 32.6074 37.9755 32.6074Z" fill="black"/>
<path d="M23.5917 59.2829C23.2835 58.8271 22.6644 58.7076 22.2085 59.0157C20.7423 60.0072 19.0299 60.5312 17.2568 60.5312C12.3685 60.5312 8.39153 56.5543 8.39153 51.666C8.39153 51.1159 7.94554 50.6699 7.39543 50.6699C6.84532 50.6699 6.39934 51.1159 6.39934 51.666C6.39934 57.6528 11.27 62.5234 17.2568 62.5234C19.4292 62.5234 21.5273 61.8812 23.3244 60.6661C23.7801 60.3579 23.8998 59.7386 23.5917 59.2829Z" fill="black"/>
<path d="M17.2568 40.8086C16.7067 40.8086 16.2607 41.2546 16.2607 41.8047C16.2607 42.3548 16.7067 42.8008 17.2568 42.8008C22.1451 42.8008 26.122 46.7777 26.122 51.666C26.122 53.4041 25.6169 55.0881 24.6613 56.5356C24.3582 56.9947 24.4847 57.6126 24.9438 57.9156C25.1128 58.0272 25.3033 58.0806 25.4917 58.0806C25.8151 58.0806 26.1324 57.9232 26.3239 57.6331C27.495 55.8589 28.114 53.7955 28.114 51.666C28.1142 45.6792 23.2435 40.8086 17.2568 40.8086Z" fill="black"/>
<path d="M18.2527 50.798V47.063C18.3877 47.1443 18.5146 47.2406 18.629 47.3549C19.0181 47.7439 19.6487 47.7439 20.0377 47.3548C20.4267 46.9658 20.4266 46.3351 20.0377 45.9462C19.5353 45.4439 18.9216 45.0947 18.2527 44.9206V44.793C18.2527 44.2429 17.8067 43.7969 17.2566 43.7969C16.7065 43.7969 16.2605 44.2429 16.2605 44.793V44.921C14.5718 45.3633 13.3221 46.902 13.3221 48.7275C13.3221 50.553 14.572 52.0918 16.2607 52.5341V56.269C16.1259 56.1879 15.9989 56.0916 15.8845 55.9772C15.4955 55.5884 14.8649 55.5884 14.4758 55.9774C14.0869 56.3664 14.0869 56.9971 14.4759 57.386C14.9782 57.8881 15.5918 58.2372 16.2605 58.4113V58.5391C16.2605 59.0892 16.7065 59.5352 17.2566 59.5352C17.8067 59.5352 18.2527 59.0892 18.2527 58.5391V58.411C19.9414 57.9688 21.1912 56.43 21.1912 54.6045C21.1912 52.779 19.9414 51.2402 18.2527 50.798ZM16.2607 50.3919C15.6949 50.0521 15.3144 49.4342 15.3144 48.7275C15.3144 48.0208 15.6949 47.403 16.2607 47.0631V50.3919ZM18.2528 56.2689V52.9401C18.8186 53.28 19.1991 53.8978 19.1991 54.6045C19.1991 55.3112 18.8186 55.929 18.2528 56.2689Z" fill="black"/>
</g>
<defs>
<clipPath id="clip0_9111_1146">
<rect width="68" height="68" fill="white" transform="translate(0.422775 0.5)"/>
</clipPath>
</defs>
</svg>
