<svg width="68" height="69" viewBox="0 0 68 69" fill="none" xmlns="http://www.w3.org/2000/svg">
<path d="M53.7102 17.3242C53.8985 17.6303 54.2254 17.7984 54.56 17.7984C54.7379 17.7984 54.9179 17.7506 55.0809 17.6505L60.4805 14.3291C60.949 14.0412 61.0953 13.4275 60.8068 12.959C60.5189 12.4905 59.9052 12.3442 59.4362 12.6327L54.037 15.954C53.5686 16.242 53.4223 16.8557 53.7102 17.3242Z" fill="black"/>
<path d="M67.1004 23.9425L59.1845 23.1736C58.6372 23.1197 58.15 23.5212 58.0966 24.0685C58.0437 24.6164 58.4442 25.1036 58.9921 25.1565L66.9074 25.9253C66.9406 25.9284 66.9727 25.93 67.0049 25.93C67.5118 25.93 67.9455 25.545 67.9953 25.0304C68.0482 24.4831 67.6477 23.9959 67.1004 23.9425Z" fill="black"/>
<path d="M49.6687 10.3676C49.787 10.4138 49.9094 10.4361 50.0293 10.4361C50.4282 10.4361 50.8049 10.1948 50.9579 9.80054L53.8409 2.38847C54.0406 1.8759 53.7864 1.29848 53.2738 1.09926C52.7613 0.90004 52.1838 1.15373 51.9846 1.6663L49.1011 9.07837C48.9019 9.59095 49.1556 10.1684 49.6687 10.3676Z" fill="black"/>
<path d="M42.6333 4.87766C41.964 3.79389 40.5384 3.45564 39.4541 4.12489L38.2624 4.86003C37.7369 5.18376 37.3696 5.69322 37.2274 6.29346C37.0853 6.89423 37.1854 7.5142 37.5091 8.03922L38.1944 9.14945L22.5314 28.5401L19.2236 30.581C18.7556 30.87 18.6103 31.4837 18.8993 31.9517C19.0876 32.2567 19.4139 32.4248 19.7481 32.4248C19.926 32.4248 20.1071 32.3771 20.27 32.2764L22.8749 30.6692L27.9513 38.8968C27.2177 38.8491 26.4862 39.0011 25.8216 39.3425C25.8097 39.3482 25.7983 39.3544 25.7863 39.3606C25.6971 39.4078 25.6084 39.4571 25.5218 39.5106L22.5433 41.3575C22.2165 41.5603 21.9151 41.8 21.6411 42.0682C21.3096 42.3925 21.0196 42.7582 20.7851 43.1577L20.05 44.2659L19.5094 45.0793C19.5047 45.0778 19.4996 45.0762 19.4954 45.0747C19.4871 45.071 19.4793 45.0669 19.471 45.0633C19.429 45.0446 19.3875 45.0238 19.3475 45.0015C19.3387 44.9968 19.3304 44.9922 19.3221 44.9875C19.278 44.9611 19.235 44.9325 19.194 44.9019C19.1852 44.8957 19.1769 44.8889 19.1686 44.8822C19.1312 44.8531 19.0944 44.822 19.0596 44.7888C19.0555 44.7847 19.0508 44.781 19.0466 44.7769C19.0093 44.7406 18.974 44.7011 18.9403 44.6607C18.933 44.6518 18.9263 44.6425 18.919 44.6337C18.8858 44.5911 18.8542 44.5476 18.8256 44.5014L14.5212 37.5251C14.3178 37.1957 14.255 36.8071 14.3443 36.431C14.4335 36.0543 14.6638 35.7353 14.9928 35.5324L16.2814 34.7376C16.7494 34.4486 16.8952 33.8349 16.6062 33.3669C16.3172 32.8985 15.7035 32.7532 15.2355 33.0422L13.9469 33.837C13.165 34.3195 12.6177 35.0774 12.4055 35.9718C12.2691 36.5493 12.2836 37.1386 12.4403 37.6942L11.482 38.2857C10.2001 39.0768 9.80062 40.7635 10.5918 42.0459L13.0229 45.9862C13.4057 46.6072 14.0081 47.0414 14.7183 47.21C14.9289 47.2598 15.1416 47.2847 15.3533 47.2847C15.854 47.2847 16.3458 47.1462 16.7826 46.8765L17.7424 46.2845C17.9426 46.4666 18.1621 46.6238 18.3976 46.7535L15.6319 50.9194L14.9798 51.3646C14.8439 51.2956 14.6944 51.252 14.5378 51.2385C14.2171 51.2115 13.9059 51.3101 13.6605 51.5166L11.9443 52.9609C11.5443 52.7057 11.0198 52.7015 10.6089 52.9817C10.5897 52.9952 10.5705 53.0086 10.5524 53.0232L0.890258 60.65C0.324249 61.0967 0 61.7665 0 62.4871V65.59C0 66.8803 1.05005 67.9303 2.3403 67.9303H18.146C18.8588 67.9303 19.5239 67.6118 19.9706 67.0556L21.2811 65.425C21.5104 65.1625 21.6079 64.8264 21.5732 64.5L23.3366 63.0157C23.5088 62.871 23.6328 62.6853 23.7023 62.4772L27.7671 63.3104C27.8273 63.3229 27.888 63.3296 27.9492 63.3307C28.068 63.3327 28.1863 63.3343 28.3046 63.3343C29.268 63.3343 30.2252 63.2368 31.2311 62.6287L35.326 60.1899C35.3945 60.194 35.463 60.1966 35.5309 60.1966C36.1218 60.1966 36.7039 60.0342 37.2212 59.7177L40.5109 57.7069C42.0408 56.772 42.5254 54.7663 41.5905 53.2364C41.2714 52.7135 40.8201 52.3036 40.2868 52.0338C40.803 51.0445 40.8045 49.8154 40.1814 48.7955C39.729 48.0552 39.0178 47.5333 38.1768 47.3226C38.3506 46.5247 38.2308 45.6619 37.7727 44.9118C37.34 44.2026 36.6687 43.6973 35.8754 43.4695C36.0923 42.6363 35.9854 41.7196 35.5024 40.9284C35.3769 40.723 35.23 40.5362 35.0676 40.3661L54.8048 36.0699L55.4901 37.1801C55.9265 37.8872 56.6844 38.2769 57.46 38.2769C57.8735 38.2769 58.2922 38.1664 58.6693 37.9334L59.861 37.1983C60.386 36.874 60.7539 36.3651 60.896 35.7643C61.0382 35.1641 60.938 34.5441 60.6138 34.0186L42.6333 4.87766ZM15.7372 45.181C15.5686 45.2848 15.3699 45.3169 15.178 45.2713C14.9855 45.2256 14.8226 45.1079 14.7183 44.9398L12.2872 40.9995C12.073 40.6524 12.1814 40.1954 12.5285 39.9806L13.3736 39.4592L16.5823 44.6591L15.7372 45.181ZM18.4173 65.8079C18.3509 65.8909 18.2524 65.9381 18.146 65.9381H2.3403C2.14834 65.9381 1.99219 65.782 1.99219 65.59V62.4871C1.99219 62.3797 2.04043 62.2801 2.12448 62.2137L11.1868 55.06L19.3548 64.6417L18.4173 65.8079ZM20.4427 62.8471L13.2781 54.4421L14.3391 53.5492L21.4502 61.9999L20.4427 62.8471ZM30.2065 60.9203C29.5985 61.2881 29.0278 61.353 28.0763 61.3405L22.9729 60.2941C22.852 60.2692 22.7301 60.2672 22.6123 60.2864L16.3479 52.8426L16.9154 52.4551C16.9159 52.4551 16.9165 52.4546 16.9175 52.4541C16.9268 52.4473 16.9362 52.4395 16.9455 52.4328C16.9668 52.4167 16.988 52.4006 17.0078 52.3835C17.0176 52.3747 17.027 52.3653 17.0363 52.3565C17.0565 52.3378 17.0752 52.3186 17.0934 52.2984C17.1006 52.2906 17.1084 52.2823 17.1152 52.274C17.1375 52.2471 17.1587 52.2196 17.1779 52.191C17.18 52.1884 17.1821 52.1864 17.1836 52.1838L17.1883 52.177C17.1899 52.1744 17.1914 52.1718 17.193 52.1692L22.4609 44.2353C22.4723 44.2181 22.4832 44.2005 22.4935 44.1829C22.7592 43.7237 23.1394 43.3325 23.5934 43.0508L26.5718 41.2039C26.6268 41.1697 26.6828 41.1391 26.7394 41.1105C26.7648 41.0976 26.7907 41.0867 26.8162 41.0747C26.8463 41.0612 26.8758 41.0478 26.9064 41.0358C26.9412 41.0218 26.976 41.0088 27.0117 40.9969C27.0299 40.9902 27.0486 40.9845 27.0673 40.9788C27.1108 40.9653 27.1549 40.9523 27.199 40.9414H27.1996C27.3599 40.9025 27.5228 40.8833 27.6852 40.8823C27.6888 40.8823 27.6924 40.8823 27.6955 40.8823C27.7433 40.8823 27.7905 40.8843 27.8377 40.8874C27.8527 40.889 27.8678 40.89 27.8833 40.8916C27.9254 40.8952 27.9669 40.8999 28.0084 40.9061C28.0327 40.9098 28.0576 40.9149 28.0825 40.9196C28.1458 40.9315 28.2086 40.9466 28.2704 40.9647C28.2942 40.9715 28.3186 40.9777 28.3419 40.985C28.3736 40.9959 28.4042 41.0078 28.4353 41.0203C28.4597 41.0296 28.4846 41.0389 28.5085 41.0493C28.5391 41.0623 28.5697 41.0768 28.5998 41.0919C28.6226 41.1033 28.6449 41.1147 28.6667 41.1266C28.6968 41.1427 28.7269 41.1598 28.7565 41.178C28.7767 41.1904 28.7964 41.2034 28.8161 41.2164C28.8457 41.2361 28.8753 41.2558 28.9038 41.2776C28.9214 41.2906 28.938 41.3046 28.9546 41.3181C28.9842 41.3414 29.0133 41.3647 29.0413 41.3902C29.1772 41.5126 29.2965 41.6537 29.3941 41.813L29.4672 41.9328L30.5292 43.6656L31.862 45.8404L32.2008 46.394C32.2329 46.4464 32.2594 46.5008 32.2796 46.5574C32.3419 46.7276 32.3517 46.9133 32.3076 47.0969C32.2444 47.361 32.0778 47.5872 31.8392 47.733L31.24 48.0993L31.2394 48.0998C31.1979 48.1247 31.1559 48.146 31.1123 48.1646C31.103 48.1688 31.0937 48.1729 31.0843 48.1766C31.0413 48.1942 30.9977 48.2087 30.9536 48.2201C30.9484 48.2217 30.9427 48.2227 30.9375 48.2238C30.896 48.2336 30.8545 48.2409 30.813 48.2456C30.8047 48.2466 30.7969 48.2476 30.7886 48.2487C30.744 48.2523 30.6994 48.2533 30.6553 48.2518C30.647 48.2513 30.6387 48.2508 30.6304 48.2502C30.5852 48.2471 30.5406 48.2419 30.4965 48.2331C30.496 48.2326 30.4955 48.2326 30.495 48.2326C30.4478 48.2227 30.4021 48.2092 30.357 48.1926C30.3528 48.1911 30.3492 48.1901 30.345 48.1885C30.2527 48.1532 30.1655 48.1034 30.0872 48.0396C30.0867 48.0396 30.0867 48.0391 30.0867 48.0391C30.0472 48.0069 30.012 47.9727 29.9793 47.9364C29.9767 47.9332 29.9741 47.9301 29.971 47.9265C29.9398 47.8902 29.9108 47.8523 29.8864 47.8118L28.8934 46.1885C28.5235 45.5836 27.9368 45.1592 27.2411 44.9943C26.5282 44.8246 25.7895 44.946 25.1617 45.3356C24.9091 45.4923 24.7399 45.7533 24.6995 46.0474C24.6881 46.1325 24.674 46.216 24.659 46.2985C24.6476 46.3587 24.6346 46.4184 24.6211 46.4775C24.617 46.4972 24.6128 46.5174 24.6082 46.5372C24.5905 46.6119 24.5713 46.6855 24.5501 46.7582C24.5495 46.7608 24.5485 46.7639 24.5475 46.767C24.4359 47.1493 24.2792 47.5037 24.0779 47.8259C24.0774 47.8264 24.0774 47.8269 24.0774 47.8274C23.7065 48.422 23.1825 48.9247 22.4956 49.3423C22.0256 49.6282 21.8762 50.2409 22.162 50.7109C22.4479 51.1809 23.0606 51.3303 23.5306 51.0445C24.0157 50.7493 24.4458 50.4183 24.8219 50.0536L28.9816 56.6138C29.7479 57.8023 31.0724 58.4918 32.4425 58.4918C32.5152 58.4918 32.5878 58.4882 32.6604 58.484C32.689 58.5359 32.718 58.5873 32.7491 58.6386C32.8664 58.8301 33.0013 59.0065 33.1512 59.1668L30.2065 60.9203ZM31.0516 53.597C31.0516 53.5975 31.0522 53.598 31.0522 53.5985C31.0688 53.6452 31.0869 53.6909 31.1061 53.737C31.1082 53.7422 31.1103 53.7479 31.1129 53.7536C31.13 53.7951 31.1486 53.8361 31.1678 53.8771C31.1725 53.8859 31.1761 53.8958 31.1808 53.9051C31.199 53.9435 31.2192 53.9814 31.2389 54.0193C31.2451 54.0307 31.2503 54.0421 31.2566 54.053C31.283 54.1018 31.311 54.15 31.3401 54.1977C31.3899 54.2797 31.4444 54.358 31.5004 54.4343C31.5206 54.4613 31.5414 54.4877 31.5621 54.5142C31.599 54.5609 31.6368 54.606 31.6757 54.6506C31.7032 54.6818 31.7302 54.7139 31.7588 54.744C31.78 54.7669 31.8034 54.7876 31.8257 54.8099C31.9061 54.8903 31.9901 54.9661 32.0783 55.0377C32.0877 55.0449 32.0965 55.0527 32.1058 55.0595C32.277 55.1954 32.4607 55.3131 32.6563 55.4122C32.4762 55.751 32.3574 56.1183 32.3045 56.4965C31.6477 56.4555 31.0262 56.1095 30.6599 55.5409L26.0805 48.3187C26.2927 47.8803 26.4561 47.4124 26.5671 46.9138C26.6382 46.9097 26.7098 46.9159 26.7804 46.9325C26.9557 46.974 27.1025 47.0793 27.1938 47.2282L28.1868 48.8515C28.1884 48.8536 28.1899 48.8557 28.1915 48.8583C28.2403 48.9376 28.2927 49.0144 28.3492 49.0886C28.3907 49.1431 28.4353 49.1939 28.4799 49.2448C28.4955 49.2624 28.5095 49.2816 28.5256 49.2992C28.5277 49.3081 28.5303 49.3169 28.5323 49.3257C28.5479 49.3947 28.5655 49.4632 28.5853 49.5311C28.5915 49.5509 28.5972 49.5706 28.6029 49.5903C28.6273 49.6671 28.6532 49.7433 28.6833 49.818C28.6859 49.8258 28.6895 49.8331 28.6927 49.8403C28.7202 49.9088 28.7508 49.9758 28.7834 50.0422C28.7928 50.0614 28.8021 50.0806 28.812 50.0992C28.8493 50.1719 28.8882 50.2435 28.9308 50.314C29.3827 51.0538 30.0929 51.5747 30.9323 51.7864C30.8026 52.3799 30.8389 53.0081 31.0516 53.597ZM31.6872 41.7419L32.0218 41.5375C32.317 41.357 32.6646 41.3025 33.0013 41.3834C33.3375 41.4649 33.6218 41.6719 33.8018 41.9671C34.1738 42.5761 33.9813 43.3746 33.3722 43.7465L33.0397 43.9499L32.055 42.3432L31.6872 41.7419ZM39.1106 53.707C39.438 53.7858 39.7145 53.9876 39.8904 54.275C40.2525 54.868 40.0647 55.6452 39.4717 56.0078L36.182 58.0187C35.918 58.18 35.6108 58.2366 35.3084 58.1837C35.2913 58.18 35.2736 58.1759 35.256 58.1733C35.2472 58.1712 35.2378 58.1702 35.229 58.1681C34.9011 58.0892 34.6246 57.8874 34.4487 57.6C34.3699 57.4708 34.319 57.3334 34.2905 57.1933C34.29 57.1891 34.29 57.1855 34.2889 57.1819C34.2101 56.7725 34.3419 56.3544 34.623 56.0639C34.6308 56.0561 34.6381 56.0478 34.6459 56.0405C34.6604 56.0265 34.6754 56.013 34.6905 55.9995C34.7055 55.986 34.7211 55.9725 34.7377 55.9601C34.7496 55.9502 34.761 55.9409 34.7735 55.9316C34.8031 55.9098 34.8326 55.889 34.8643 55.8693C34.8653 55.8688 34.8664 55.8683 34.8669 55.8677L35.5206 55.4683C35.6357 55.4148 35.7488 55.3562 35.8588 55.2893L38.3755 53.7505C38.609 53.6634 38.8627 53.6473 39.1106 53.707ZM36.8191 49.3407C37.0868 49.2126 37.3877 49.1804 37.6803 49.251C38.0165 49.3319 38.3008 49.5394 38.4813 49.8346C38.8533 50.4437 38.6603 51.2416 38.0518 51.6136L37.4593 51.9757C37.3431 52.0292 37.229 52.0893 37.1185 52.1568L34.6147 53.6867C34.1473 53.8704 33.6212 53.7625 33.2638 53.4325C33.2633 53.432 33.2633 53.432 33.2633 53.432C33.2353 53.406 33.2088 53.3796 33.1834 53.3511C33.1766 53.3433 33.1704 53.335 33.1637 53.3272C33.145 53.3054 33.1263 53.2836 33.1087 53.2603C33.0843 53.2276 33.0615 53.1939 33.0397 53.1591C33.0179 53.1228 32.9982 53.0865 32.98 53.0491C32.9743 53.0372 32.9696 53.0252 32.9639 53.0128C32.9525 52.9874 32.9411 52.9614 32.9312 52.935C32.926 52.921 32.9219 52.9075 32.9172 52.8935C32.9089 52.8681 32.9011 52.8432 32.8944 52.8177C32.8908 52.8037 32.8871 52.7892 32.884 52.7752C32.8783 52.7498 32.8731 52.7238 32.8685 52.6974C32.8664 52.6839 32.8643 52.6704 32.8622 52.6569C32.8586 52.6299 32.856 52.6029 32.8545 52.576C32.8534 52.563 32.8524 52.55 32.8519 52.5371C32.8508 52.509 32.8508 52.481 32.8519 52.4535C32.8519 52.4411 32.8519 52.4291 32.8529 52.4172C32.8539 52.3887 32.8576 52.3607 32.8607 52.3327C32.8622 52.3207 32.8628 52.3088 32.8648 52.2969C32.8685 52.272 32.8736 52.2471 32.8788 52.2221C32.9354 51.9555 33.0749 51.7059 33.2939 51.5145C33.3027 51.5067 33.3105 51.4974 33.3193 51.4896C33.3317 51.4787 33.3437 51.4678 33.3567 51.4574C33.3878 51.4398 33.4194 51.4237 33.45 51.405L36.6821 49.4295C36.7288 49.4009 36.7745 49.3714 36.8191 49.3407ZM35.2715 45.3667C35.6077 45.4477 35.892 45.6552 36.0726 45.9504C36.4191 46.518 36.2749 47.25 35.7608 47.6484C35.7276 47.6666 35.6949 47.6853 35.6622 47.705L33.1668 49.2302C33.1751 49.224 33.1829 49.2168 33.1912 49.21C33.2389 49.1721 33.2866 49.1337 33.3312 49.0933C33.3592 49.0684 33.3857 49.0419 33.4127 49.016C33.4531 48.9765 33.4936 48.9366 33.532 48.8946C33.5585 48.8666 33.5834 48.837 33.6083 48.8079C33.6441 48.7654 33.6793 48.7229 33.7125 48.6788C33.7359 48.6481 33.7592 48.617 33.7815 48.5849C33.8132 48.5397 33.8433 48.4935 33.8729 48.4463C33.8931 48.4137 33.9133 48.3815 33.932 48.3483C33.9605 48.2985 33.9865 48.2471 34.0119 48.1958C34.028 48.1631 34.0451 48.1314 34.0596 48.0982C34.0856 48.0406 34.1084 47.9815 34.1312 47.9218C34.1416 47.8933 34.154 47.8653 34.1639 47.8362C34.1945 47.7465 34.222 47.6557 34.2443 47.5628C34.2656 47.4741 34.2822 47.3849 34.2952 47.2956C34.2993 47.2671 34.3014 47.2386 34.305 47.21C34.3123 47.1488 34.318 47.0881 34.3216 47.0269C34.3232 46.9937 34.3237 46.9605 34.3242 46.9273C34.3258 46.8702 34.3252 46.8137 34.3232 46.7571C34.3221 46.7234 34.3201 46.6897 34.318 46.656C34.3138 46.5989 34.3071 46.5418 34.2998 46.4853C34.2957 46.4536 34.292 46.422 34.2869 46.3909C34.276 46.3265 34.2625 46.2632 34.2469 46.1999C34.2417 46.1771 34.2376 46.1538 34.2319 46.1309C34.209 46.0453 34.1831 45.9608 34.1525 45.8772C34.1463 45.8612 34.139 45.8451 34.1323 45.8285C34.1105 45.7724 34.0892 45.7159 34.0638 45.6609L34.2926 45.5208C34.5878 45.3403 34.9354 45.2858 35.2715 45.3667ZM58.9573 35.3057C58.9459 35.3534 58.9121 35.4427 58.8146 35.5028L57.6229 36.2385C57.474 36.3303 57.2774 36.2841 57.1851 36.1347L44.639 15.801C44.3505 15.333 43.7368 15.1877 43.2683 15.4762C42.8003 15.7652 42.6551 16.3789 42.944 16.8469L53.6961 34.2728L30.5484 39.3119L24.4178 29.3753L39.3036 10.9471L40.5062 12.8967C40.7952 13.3647 41.4089 13.5099 41.8769 13.2215C42.3454 12.9325 42.4906 12.3188 42.2016 11.8503L39.2045 6.99332C39.1444 6.89579 39.1542 6.80085 39.1656 6.75312C39.177 6.70487 39.2108 6.61564 39.3083 6.55546L40.5 5.82032C40.6494 5.72797 40.8455 5.77467 40.9379 5.92408L58.9184 35.0655C58.9785 35.163 58.9687 35.258 58.9573 35.3057Z" fill="black"/>
</svg>
