<svg width="63" height="63" viewBox="0 0 63 63" fill="none" xmlns="http://www.w3.org/2000/svg">
<g clip-path="url(#clip0_7286_113)">
<path d="M61.7248 57.0471H60.219V53.7812C60.219 53.3527 59.8717 53.0063 59.444 53.0063H58.5884V10.5842H59.7316C60.1593 10.5842 60.5066 10.2378 60.5066 9.80923V5.925C60.5066 5.49648 60.1593 5.15 59.7316 5.15H53.9747V1.275C53.9747 0.846479 53.6275 0.5 53.1997 0.5H48.349C47.9212 0.5 47.574 0.846479 47.574 1.275V5.15H44.4755V1.275C44.4755 0.846479 44.1283 0.5 43.7005 0.5H38.8498C38.422 0.5 38.0748 0.846479 38.0748 1.275V5.15H19.1794C18.7516 5.15 18.4044 5.49648 18.4044 5.925V9.80923C18.4044 10.2378 18.7516 10.5842 19.1794 10.5842H20.3225V53.0063H19.467C19.0392 53.0063 18.692 53.3527 18.692 53.7812V57.0471H9.27643L9.25236 49.4917C13.2707 49.1188 16.4204 45.943 16.4204 42.0919C16.4204 40.604 15.9507 39.1678 15.0634 37.938C15.0075 37.8605 14.9503 37.7845 14.8913 37.7094C15.1904 36.9778 15.3423 36.2128 15.3423 35.4293C15.3423 34.0584 14.8719 32.7261 14.0085 31.6264C14.2395 31.028 14.3557 30.4043 14.3557 29.7671C14.3557 29.6733 14.3535 29.5804 14.348 29.4867C14.1915 26.5471 11.6045 24.2438 8.45949 24.2438C5.20841 24.2438 2.56402 26.7215 2.56402 29.7671C2.56402 30.405 2.68027 31.028 2.91126 31.6264C2.04785 32.7268 1.57831 34.0592 1.57831 35.4293C1.57831 36.2136 1.72938 36.9778 2.02939 37.7101C1.03899 38.978 0.499512 40.5148 0.499512 42.0919C0.499512 45.9545 3.66779 49.1359 7.70235 49.4939L7.72642 57.0471H1.27452C0.84675 57.0471 0.499512 57.3936 0.499512 57.8222V61.725C0.499512 62.1535 0.84675 62.5 1.27452 62.5H61.7248C62.1525 62.5 62.4998 62.1535 62.4998 61.725V57.8222C62.4998 57.3935 62.1525 57.0471 61.7248 57.0471ZM49.124 2.05H52.4247V5.15H49.124V2.05ZM42.9263 2.05V5.15H39.6255V2.05H42.9263ZM19.9544 9.03423V6.7H58.9564V9.03423H19.9544ZM53.3183 41.2146H41.8785C41.4507 41.2146 41.1035 41.5611 41.1035 41.9896V53.007H21.8725V10.5842H57.0383V53.0063H54.0933V41.9896C54.0933 41.5611 53.7462 41.2146 53.3183 41.2146ZM52.5433 42.7646V53.007H48.3729V42.7646H52.5433ZM46.8238 42.7646V53.007H42.6535V53.0063V42.7646H46.8238ZM20.242 54.5562H58.669V57.0471H20.242V54.5562ZM7.67299 40.4605L7.67995 42.704L6.60418 41.6283C6.30114 41.3252 5.81131 41.3252 5.50827 41.6283C5.20524 41.9313 5.20524 42.4211 5.50827 42.7242L7.68676 44.9027L7.69599 47.9336C4.52151 47.5856 2.04937 45.1009 2.04937 42.0916C2.04937 40.7299 2.56856 39.4008 3.51264 38.35C3.72652 38.112 3.77148 37.7672 3.62738 37.482C3.29573 36.828 3.12756 36.1374 3.12756 35.429C3.12756 34.2812 3.57394 33.1629 4.38543 32.2826C4.60325 32.0454 4.65199 31.699 4.50864 31.4114C4.24662 30.8861 4.11418 30.3327 4.11418 29.7661C4.11418 27.5752 6.0641 25.7927 8.45964 25.7927C10.7807 25.7927 12.6873 27.4512 12.8004 29.5678C12.8034 29.6336 12.8059 29.6995 12.8059 29.7662C12.8059 30.3321 12.6733 30.8861 12.4106 31.4116C12.2665 31.6992 12.316 32.0455 12.5339 32.2827C13.3446 33.1631 13.7917 34.2806 13.7917 35.4292C13.7917 36.1376 13.6236 36.8289 13.2919 37.4822C13.1471 37.7674 13.1928 38.1123 13.4059 38.3501C13.5477 38.5081 13.6811 38.6725 13.8058 38.8446C14.5018 39.8095 14.8699 40.9317 14.8699 42.0919C14.8699 45.0928 12.4108 47.572 9.24721 47.93L9.23798 44.9842L11.4979 42.7243C11.8009 42.4213 11.8009 41.9315 11.4979 41.6284C11.1949 41.3254 10.705 41.3254 10.402 41.6284L9.23102 42.7987L9.2233 40.4558C9.22178 40.028 8.8753 39.6831 8.44829 39.6831C8.44754 39.6831 8.44678 39.6831 8.44602 39.6831C8.0178 39.6847 7.67147 40.0327 7.67299 40.4605ZM60.9498 60.95H2.04952V58.5971H60.9498V60.95Z" fill="#5A5A5A"/>
<path d="M53.2172 31.9844H49.7506C49.3228 31.9844 48.9756 32.3309 48.9756 32.7594V37.8875C48.9756 38.3153 49.3228 38.6625 49.7506 38.6625H53.2172C53.645 38.6625 53.9922 38.3161 53.9922 37.8875V32.7594C53.9922 32.3309 53.645 31.9844 53.2172 31.9844ZM52.4422 37.1118H50.5256V33.5336H52.4422V37.1118Z" fill="#5A5A5A"/>
<path d="M53.2172 22.782H49.7506C49.3228 22.782 48.9756 23.1285 48.9756 23.557V28.6852C48.9756 29.1129 49.3228 29.4602 49.7506 29.4602H53.2172C53.645 29.4602 53.9922 29.1137 53.9922 28.6852V23.557C53.9922 23.1285 53.645 22.782 53.2172 22.782ZM52.4422 27.9094H50.5256V24.3312H52.4422V27.9094Z" fill="#5A5A5A"/>
<path d="M45.165 31.9844H41.6983C41.2706 31.9844 40.9233 32.3309 40.9233 32.7594V37.8875C40.9233 38.3153 41.2706 38.6625 41.6983 38.6625H45.165C45.5927 38.6625 45.94 38.3161 45.94 37.8875V32.7594C45.94 32.3309 45.5927 31.9844 45.165 31.9844ZM44.39 37.1118H42.4734V33.5336H44.39V37.1118Z" fill="#5A5A5A"/>
<path d="M45.165 22.782H41.6983C41.2706 22.782 40.9233 23.1285 40.9233 23.557V28.6852C40.9233 29.1129 41.2706 29.4602 41.6983 29.4602H45.165C45.5927 29.4602 45.94 29.1137 45.94 28.6852V23.557C45.94 23.1285 45.5927 22.782 45.165 22.782ZM44.39 27.9094H42.4734V24.3312H44.39V27.9094Z" fill="#5A5A5A"/>
<path d="M37.1117 31.9836H33.6451C33.2174 31.9836 32.8701 32.3301 32.8701 32.7586V37.8868C32.8701 38.3153 33.2174 38.6618 33.6451 38.6618H37.1117C37.5395 38.6618 37.8868 38.3153 37.8868 37.8868V32.7586C37.8868 32.3309 37.5395 31.9836 37.1117 31.9836ZM36.3367 37.1126H34.4201V33.5344H36.3367V37.1126Z" fill="#5A5A5A"/>
<path d="M37.1117 22.7812H33.6451C33.2174 22.7812 32.8701 23.1277 32.8701 23.5563V28.6844C32.8701 29.1129 33.2174 29.4594 33.6451 29.4594H37.1117C37.5395 29.4594 37.8868 29.1129 37.8868 28.6844V23.5563C37.8868 23.1285 37.5395 22.7812 37.1117 22.7812ZM36.3367 27.9102H34.4201V24.332H36.3367V27.9102Z" fill="#5A5A5A"/>
<path d="M29.06 31.9836H25.5934C25.1656 31.9836 24.8184 32.3301 24.8184 32.7586V37.8868C24.8184 38.3153 25.1656 38.6618 25.5934 38.6618H29.06C29.4878 38.6618 29.835 38.3153 29.835 37.8868V32.7586C29.835 32.3309 29.4878 31.9836 29.06 31.9836ZM28.285 37.1126H26.3684V33.5344H28.285V37.1126Z" fill="#5A5A5A"/>
<path d="M37.1117 41.2146H33.6451C33.2174 41.2146 32.8701 41.5611 32.8701 41.9896V47.1185C32.8701 47.547 33.2174 47.8935 33.6451 47.8935H37.1117C37.5395 47.8935 37.8868 47.547 37.8868 47.1185V41.9896C37.8868 41.5611 37.5395 41.2146 37.1117 41.2146ZM36.3367 46.3435H34.4201V42.7646H36.3367V46.3435Z" fill="#5A5A5A"/>
<path d="M29.06 41.2146H25.5934C25.1656 41.2146 24.8184 41.5611 24.8184 41.9896V47.1185C24.8184 47.547 25.1656 47.8935 25.5934 47.8935H29.06C29.4878 47.8935 29.835 47.547 29.835 47.1185V41.9896C29.835 41.5611 29.4878 41.2146 29.06 41.2146ZM28.285 46.3435H26.3684V42.7646H28.285V46.3435Z" fill="#5A5A5A"/>
<path d="M29.06 22.7812H25.5934C25.1656 22.7812 24.8184 23.1277 24.8184 23.5563V28.6844C24.8184 29.1129 25.1656 29.4594 25.5934 29.4594H29.06C29.4878 29.4594 29.835 29.1129 29.835 28.6844V23.5563C29.835 23.1285 29.4878 22.7812 29.06 22.7812ZM28.285 27.9102H26.3684V24.332H28.285V27.9102Z" fill="#5A5A5A"/>
<path d="M53.2172 13.5803H49.7506C49.3228 13.5803 48.9756 13.9268 48.9756 14.3553V19.4835C48.9756 19.9113 49.3228 20.2585 49.7506 20.2585H53.2172C53.645 20.2585 53.9922 19.912 53.9922 19.4835V14.3553C53.9922 13.9268 53.645 13.5803 53.2172 13.5803ZM52.4422 18.7077H50.5256V15.1296H52.4422V18.7077Z" fill="#5A5A5A"/>
<path d="M45.165 13.5803H41.6983C41.2706 13.5803 40.9233 13.9268 40.9233 14.3553V19.4835C40.9233 19.9113 41.2706 20.2585 41.6983 20.2585H45.165C45.5927 20.2585 45.94 19.912 45.94 19.4835V14.3553C45.94 13.9268 45.5927 13.5803 45.165 13.5803ZM44.39 18.7077H42.4734V15.1296H44.39V18.7077Z" fill="#5A5A5A"/>
<path d="M37.1117 13.5796H33.6451C33.2174 13.5796 32.8701 13.9261 32.8701 14.3546V19.4828C32.8701 19.9113 33.2174 20.2578 33.6451 20.2578H37.1117C37.5395 20.2578 37.8868 19.9113 37.8868 19.4828V14.3546C37.8868 13.9268 37.5395 13.5796 37.1117 13.5796ZM36.3367 18.7085H34.4201V15.1303H36.3367V18.7085Z" fill="#5A5A5A"/>
<path d="M29.06 13.5796H25.5934C25.1656 13.5796 24.8184 13.9261 24.8184 14.3546V19.4828C24.8184 19.9113 25.1656 20.2578 25.5934 20.2578H29.06C29.4878 20.2578 29.835 19.9113 29.835 19.4828V14.3546C29.835 13.9268 29.4878 13.5796 29.06 13.5796ZM28.285 18.7085H26.3684V15.1303H28.285V18.7085Z" fill="#5A5A5A"/>
</g>
<defs>
<clipPath id="clip0_7286_113">
<rect width="62.0003" height="62" fill="white" transform="translate(0.5 0.5)"/>
</clipPath>
</defs>
</svg>
