<svg width="53" height="53" viewBox="0 0 53 53" fill="none" xmlns="http://www.w3.org/2000/svg">
<g clip-path="url(#clip0_7286_165)">
<path d="M22.1212 12.2678H14.4155C13.7153 12.2678 13.146 12.8371 13.146 13.5374V26.1244C13.146 26.8242 13.7153 27.3939 14.4155 27.3939H22.1212C22.8214 27.3939 23.3907 26.8242 23.3907 26.1244V13.5374C23.3907 12.8371 22.8214 12.2678 22.1212 12.2678ZM17.5064 25.8705H14.6694V22.7553H17.5064V25.8705ZM17.5064 21.2319H14.6694V18.4294H17.5064V21.2319ZM17.5064 16.906H14.6694V13.7913H17.5064V16.906ZM21.8673 25.8705H19.0299V22.7553H21.8673V25.8705ZM21.8673 21.2319H19.0299V18.4294H21.8673V21.2319ZM21.8673 16.906H19.0299V13.7913H21.8673V16.906Z" fill="#5A5A5A"/>
<path d="M32.3369 42.6787C31.916 42.6787 31.5752 43.0199 31.5752 43.4404V45.2693C31.5752 45.6899 31.916 46.0311 32.3369 46.0311C32.7578 46.0311 33.0986 45.6899 33.0986 45.2693V43.4404C33.0986 43.0199 32.7578 42.6787 32.3369 42.6787Z" fill="#5A5A5A"/>
<path d="M52.4927 34.986C52.4574 34.7186 52.3206 34.4802 52.1075 34.3152L35.9698 21.8289C35.612 21.5524 35.1843 21.406 34.7328 21.406C34.2809 21.406 33.8533 21.5524 33.495 21.8293L31.0543 23.7177V21.5302C31.0543 21.1093 30.7136 20.7685 30.2926 20.7685C29.8717 20.7685 29.5309 21.1093 29.5309 21.5302V24.8964L17.3585 34.3148C17.1466 34.4782 17.0058 34.7246 16.9725 34.9892C16.938 35.257 17.0098 35.5228 17.1744 35.7374L18.4094 37.3438C18.6034 37.5949 18.8962 37.7389 19.2132 37.7389C19.4362 37.7389 19.6563 37.6639 19.8333 37.5271L34.7328 25.9989L45.9947 34.7127V50.5834H39.8597V49.1552C39.8597 48.7342 39.5189 48.3935 39.098 48.3935C38.6771 48.3935 38.3363 48.7342 38.3363 49.1552V50.5834H31.1281V38.914H38.3363V49.1552C38.3363 49.5761 38.6771 49.9169 39.098 49.9169C39.5189 49.9169 39.8597 49.5761 39.8597 49.1552V38.6601C39.8597 37.9603 39.29 37.3906 38.5902 37.3906H30.8746C30.1744 37.3906 29.6047 37.9603 29.6047 38.6601V50.5834H23.8164V48.5057C23.8164 47.8055 23.2471 47.2362 22.5469 47.2362H21.8177C21.8784 46.9331 21.9113 46.6201 21.9113 46.2995C21.9113 43.6633 19.7662 41.5186 17.13 41.5186C15.699 41.5186 14.36 42.1751 13.4646 43.24C13.1258 43.1328 12.7656 43.0745 12.3919 43.0745C12.1173 43.0745 11.8475 43.1051 11.5853 43.1662C10.7557 41.7451 9.20771 40.831 7.53431 40.831C7.35618 40.831 7.18004 40.8421 7.00627 40.8624V15.3646L18.2686 6.65008L29.5313 15.3646C29.5313 15.3646 29.5313 21.1044 29.5313 21.5253C29.5313 21.9462 29.8721 22.287 30.293 22.287C30.7136 22.287 31.0547 21.9462 31.0547 21.5253V16.5433L33.1685 18.1786C33.3451 18.3155 33.5652 18.3905 33.7882 18.3905C34.106 18.3905 34.3992 18.2461 34.5924 17.9945C34.5951 17.991 34.5979 17.987 34.6007 17.9834L35.7837 16.3854L35.7913 16.3759C35.8694 16.2779 36.0769 16.018 36.0285 15.6376C35.9932 15.369 35.8559 15.1306 35.6433 14.9667L19.506 2.48047C19.1481 2.20395 18.7205 2.05756 18.2686 2.05756C17.8167 2.05756 17.389 2.20395 17.0308 2.48087L12.6001 5.909V4.94891C13.1992 4.84735 13.657 4.32605 13.657 3.69882V2.17578C13.657 1.47556 13.0873 0.90625 12.3875 0.90625H6.2148C5.51497 0.90625 4.94527 1.47556 4.94527 2.17578V3.69843C4.94527 4.32605 5.40309 4.84695 6.00215 4.94891V11.0141L0.895465 14.9655C0.682818 15.129 0.54198 15.3757 0.508655 15.6396C0.473743 15.9077 0.545154 16.1736 0.710193 16.3886L1.94521 17.9949C2.13881 18.2465 2.4316 18.3905 2.74898 18.3905C2.97194 18.3905 3.19173 18.3155 3.36946 18.1786L5.48283 16.5433V41.3103C4.27361 41.9054 3.34248 43.0083 2.99654 44.3536C1.84801 44.7963 1.05892 45.9119 1.05892 47.1783C1.05892 47.3179 1.06883 47.4552 1.08708 47.5901C0.845477 47.8214 0.69472 48.1459 0.69472 48.5057V50.8377C0.69472 51.5375 1.26403 52.1072 1.96425 52.1072H49.726C50.1469 52.1072 50.4877 51.766 50.4877 51.3455C50.4877 50.9246 50.1469 50.5838 49.726 50.5838H47.5182V35.8914L49.6323 37.5271C49.8089 37.6635 50.0291 37.7389 50.252 37.7389C50.5698 37.7389 50.863 37.5945 51.0562 37.3426C51.059 37.339 51.0617 37.3354 51.0645 37.3319L52.248 35.7335L52.2559 35.7235C52.3337 35.6259 52.5407 35.3661 52.4927 34.986ZM17.13 43.042C18.9264 43.042 20.3879 44.5035 20.3879 46.2995C20.3879 46.6252 20.3387 46.9394 20.2495 47.2362H15.9045C15.9374 47.0426 15.9557 46.8434 15.9557 46.6403C15.9557 45.6068 15.5133 44.6753 14.8091 44.0231C15.4114 43.4117 16.2445 43.042 17.13 43.042ZM6.4687 2.42969H12.1336V3.44452H6.4687V2.42969ZM11.0767 4.96796V7.08768L7.52559 9.83542V4.96796H11.0767ZM2.84142 16.6611L2.22688 15.8617L17.9627 3.68573C18.0528 3.6163 18.1555 3.58099 18.2686 3.58099C18.3817 3.58099 18.4844 3.6163 18.5741 3.68533L34.2885 15.8447L33.6886 16.6552L18.7347 5.08459C18.4602 4.87234 18.077 4.87234 17.8024 5.08459L2.84142 16.6611ZM22.293 50.5838H2.21816V48.7596H9.23469C9.65522 48.7596 9.99641 48.4188 9.99641 47.9979C9.99641 47.577 9.65522 47.2362 9.23469 47.2362H2.58434C2.58354 47.2168 2.58235 47.1977 2.58235 47.1783C2.58235 46.4598 3.09294 45.8389 3.79713 45.7024C4.11571 45.6406 4.36009 45.3839 4.40611 45.0629C4.62828 43.5193 5.97319 42.3549 7.53431 42.3549C8.83082 42.3549 10.0162 43.1685 10.484 44.3794C10.5602 44.5769 10.7149 44.7336 10.9117 44.8126C11.1084 44.8911 11.3286 44.884 11.5202 44.7935C11.794 44.6642 12.0876 44.5984 12.3919 44.5984C13.517 44.5984 14.4322 45.5144 14.4322 46.6407C14.4322 46.8482 14.3997 47.0478 14.3418 47.2362H9.10648C8.68555 47.2362 8.34476 47.5774 8.34476 47.9979C8.34476 48.4188 8.68555 48.7596 9.10648 48.7596H22.293V50.5838ZM50.1528 36.0036L35.199 24.4334C34.9244 24.2208 34.5412 24.2208 34.2667 24.4334L19.3052 36.0096L18.6907 35.2102L34.4269 23.0346C34.517 22.9648 34.6197 22.9294 34.7328 22.9294C34.8455 22.9294 34.9486 22.9648 35.0383 23.0342L50.7527 35.1931L50.1528 36.0036Z" fill="#5A5A5A"/>
</g>
<defs>
<clipPath id="clip0_7286_165">
<rect width="52" height="52" fill="white" transform="translate(0.5 0.5)"/>
</clipPath>
</defs>
</svg>
