<svg width="41" height="41" viewBox="0 0 41 41" fill="none" xmlns="http://www.w3.org/2000/svg">
<path d="M20.5001 3.41669C11.0803 3.41669 3.41683 11.0805 3.41683 20.5004C3.41683 29.9202 11.0803 37.584 20.5001 37.584C29.9199 37.584 37.5835 29.9202 37.5835 20.5004C37.5835 11.0805 29.9199 3.41669 20.5001 3.41669ZM20.5001 35.2454C12.3698 35.2454 5.75545 28.6308 5.75529 20.5004C5.75529 12.37 12.3697 5.75546 20.5001 5.7553C28.6304 5.75546 35.2447 12.37 35.2447 20.5006C35.2447 28.6307 28.6304 35.2454 20.5001 35.2454Z" fill="white"/>
<path d="M27.9871 15.8527L20.5001 23.3965L13.0127 15.8526C12.3808 15.2158 11.356 15.2157 10.724 15.8527C10.092 16.4895 10.092 17.522 10.724 18.1588L19.3557 26.8558C19.6593 27.1616 20.0709 27.3333 20.5002 27.3333C20.9294 27.3333 21.3411 27.1615 21.6446 26.8557L30.276 18.1587C30.908 17.5218 30.908 16.4894 30.2759 15.8526C29.6439 15.2158 28.6191 15.2157 27.9871 15.8527Z" fill="white"/>
</svg>
