<svg width="57" height="57" viewBox="0 0 57 57" fill="none" xmlns="http://www.w3.org/2000/svg">
<g clip-path="url(#clip0_7286_172)">
<path d="M16.1953 36.1843C15.7423 36.1843 15.375 36.5516 15.375 37.0046V38.4812C15.375 38.9342 15.7423 39.3015 16.1953 39.3015C16.6483 39.3015 17.0156 38.9342 17.0156 38.4812V37.0046C17.0156 36.5516 16.6483 36.1843 16.1953 36.1843Z" fill="#5A5A5A"/>
<path d="M53.9091 47.0773H52.581V24.3176C54.7811 23.9282 56.4578 22.0038 56.4578 19.6936V16.5353C56.4578 16.5193 56.4563 16.5035 56.4554 16.4876C56.4548 16.4788 56.4548 16.4699 56.4541 16.4611C56.4511 16.4287 56.4466 16.3969 56.4401 16.3658C56.4397 16.3639 56.4391 16.3622 56.4386 16.3604C56.4322 16.3306 56.4238 16.3015 56.4141 16.2729C56.4117 16.2657 56.4089 16.2585 56.4063 16.2514C56.3972 16.2269 56.3871 16.2031 56.3759 16.1798C56.3738 16.1755 56.3725 16.171 56.3704 16.1669L52.7433 8.95368V5.1809C52.7433 4.20724 51.9511 3.41504 50.9774 3.41504H13.6749C13.2218 3.41504 12.8546 3.78232 12.8546 4.23535C12.8546 4.68838 13.2218 5.05566 13.6749 5.05566H50.9774C51.0465 5.05566 51.1027 5.11188 51.1027 5.1809V8.33571H5.89733V5.1809C5.89733 5.11188 5.95355 5.05566 6.02256 5.05566H9.85812C10.3112 5.05566 10.6784 4.68838 10.6784 4.23535C10.6784 3.78232 10.3112 3.41504 9.85812 3.41504H6.02256C5.04891 3.41504 4.2567 4.20724 4.2567 5.1809V8.95368L0.629719 16.1669C0.627641 16.1711 0.626219 16.1756 0.62425 16.1798C0.612984 16.2031 0.602922 16.2269 0.593844 16.2514C0.591219 16.2586 0.588375 16.2657 0.585969 16.2729C0.576344 16.3015 0.567922 16.3306 0.561469 16.3604C0.561031 16.3622 0.560484 16.3639 0.560047 16.3658C0.553484 16.397 0.548891 16.4287 0.546047 16.4611C0.545281 16.4699 0.545281 16.4788 0.544734 16.4876C0.543859 16.5035 0.542328 16.5193 0.542328 16.5353V19.6936C0.542328 22.0036 2.21905 23.9282 4.41913 24.3176V47.0773H3.09087C1.66222 47.0773 0.5 48.2396 0.5 49.6683V52.2629C0.5 52.992 1.09314 53.5851 1.82223 53.5851H55.1778C55.9069 53.5851 56.5 52.992 56.5 52.2629V49.6683C56.5 48.2396 55.3378 47.0773 53.9091 47.0773ZM54.817 19.6938C54.817 21.3791 53.4459 22.7502 51.7606 22.7502C50.0752 22.7502 48.7041 21.3791 48.7041 19.6938V17.3558H54.817V19.6938ZM51.4212 9.97634L54.3067 15.715H48.4608L46.3998 9.97634H51.4212ZM44.6564 9.97634L46.7175 15.715H40.7927L39.556 9.97634H44.6564ZM47.0636 17.3556V19.6936C47.0636 21.379 45.6924 22.7501 44.0071 22.7501C42.3217 22.7501 40.9506 21.379 40.9506 19.6936V17.3556H47.0636ZM37.8777 9.97634L39.1144 15.715H33.1403L32.7281 9.97634H37.8777ZM39.31 17.3556V19.6936C39.31 21.379 37.9388 22.7501 36.2536 22.7501C34.5683 22.7501 33.1971 21.379 33.1971 19.6936V17.3556H39.31ZM25.9168 9.97634H31.0831L31.4953 15.715H25.5045L25.9168 9.97634ZM25.4435 17.3556H31.5565V19.6936C31.5565 21.379 30.1854 22.7501 28.5 22.7501C26.8146 22.7501 25.4435 21.379 25.4435 19.6936V17.3556ZM28.5 24.3908C30.1082 24.3908 31.5298 23.578 32.3768 22.3419C33.2238 23.578 34.6453 24.3908 36.2536 24.3908C37.8618 24.3908 39.2834 23.578 40.1303 22.3419C40.9773 23.578 42.3988 24.3908 44.0071 24.3908C45.6153 24.3908 47.0369 23.578 47.8839 22.3419C48.5834 23.3629 49.6753 24.0937 50.9404 24.3176V47.0773H20.0602V28.8484C20.0602 28.0071 19.3757 27.3227 18.5344 27.3227H9.05061C8.2093 27.3227 7.52483 28.0071 7.52483 28.8484V47.0773H6.05975V24.3176C7.32478 24.0937 8.41667 23.3629 9.11623 22.3419C9.96323 23.578 11.3848 24.3908 12.993 24.3908C14.6013 24.3908 16.0228 23.578 16.8698 22.3419C17.7168 23.578 19.1384 24.3908 20.7465 24.3908C22.3547 24.3908 23.7763 23.578 24.6233 22.3419C25.4702 23.578 26.8918 24.3908 28.5 24.3908ZM18.4196 28.9633V47.0773H9.16545V28.9633H18.4196ZM9.93644 19.6938V17.3558H16.0494V19.6938C16.0494 21.3791 14.6783 22.7502 12.9929 22.7502C11.3076 22.7502 9.93644 21.379 9.93644 19.6938ZM19.1223 9.97634H24.2719L23.8597 15.715H17.8856L19.1223 9.97634ZM17.69 17.3556H23.8029V19.6936C23.8029 21.379 22.4318 22.7501 20.7464 22.7501C19.061 22.7501 17.69 21.379 17.69 19.6936V17.3556ZM17.4439 9.97634L16.2072 15.715H10.2824L12.3435 9.97634H17.4439ZM5.57883 9.97634H10.6002L8.53917 15.715H2.6933L5.57883 9.97634ZM2.18295 19.6938V17.3558H8.29592V19.6938C8.29592 21.3791 6.9248 22.7502 5.23944 22.7502C3.55408 22.7502 2.18295 21.379 2.18295 19.6938ZM2.14062 51.9445V49.6682C2.14062 49.1442 2.56686 48.7179 3.09087 48.7179H53.909C54.433 48.7179 54.8593 49.1442 54.8593 49.6682V51.9445H2.14062Z" fill="#5A5A5A"/>
<path d="M47.1783 27.3225H37.1472C36.6942 27.3225 36.3269 27.6898 36.3269 28.1428C36.3269 28.5959 36.6942 28.9631 37.1472 28.9631H47.0636V41.8732H23.4141V28.9631H33.2852C33.7382 28.9631 34.1055 28.5959 34.1055 28.1428C34.1055 27.6898 33.7382 27.3225 33.2852 27.3225H23.2992C22.4579 27.3225 21.7734 28.0069 21.7734 28.8483V41.9882C21.7734 42.8295 22.4579 43.5139 23.2992 43.5139H47.1783C48.0196 43.5139 48.7041 42.8295 48.7041 41.9882V28.8483C48.7041 28.007 48.0196 27.3225 47.1783 27.3225Z" fill="#5A5A5A"/>
</g>
<defs>
<clipPath id="clip0_7286_172">
<rect width="56" height="56" fill="white" transform="translate(0.5 0.5)"/>
</clipPath>
</defs>
</svg>
