<svg width="68" height="69" viewBox="0 0 68 69" fill="none" xmlns="http://www.w3.org/2000/svg">
<g clip-path="url(#clip0_9111_755)">
<path d="M15.5355 13.047C16.0856 13.047 16.5316 12.601 16.5316 12.0509C16.5316 11.5007 16.0856 11.0548 15.5355 11.0548C14.9854 11.0548 14.5394 11.5007 14.5394 12.0509C14.5394 12.601 14.9852 13.047 15.5355 13.047ZM7.56673 13.047C8.11684 13.047 8.56282 12.601 8.56282 12.0509C8.56282 11.5007 8.11684 11.0548 7.56673 11.0548C7.01662 11.0548 6.57063 11.5007 6.57063 12.0509C6.57063 12.601 7.01648 13.047 7.56673 13.047ZM11.5511 13.047C12.1012 13.047 12.5472 12.601 12.5472 12.0509C12.5472 11.5007 12.1012 11.0548 11.5511 11.0548C11.001 11.0548 10.555 11.5007 10.555 12.0509C10.555 12.601 11.0009 13.047 11.5511 13.047ZM11.3326 23.5993C11.3387 23.5994 11.3448 23.5994 11.351 23.5994L20.3568 23.6017H20.3574C20.9796 23.6017 21.5078 23.1986 21.6721 22.5986C21.8365 21.9982 21.5869 21.3821 21.0514 21.0654L19.6817 20.255C21.8832 18.073 23.1215 15.0959 23.1018 11.9766C23.0624 5.73868 17.9568 0.590999 11.7207 0.501218C5.25871 0.408382 0 5.63548 0 12.0511C0 18.2034 5.06919 23.4661 11.3326 23.5993ZM4.84102 5.24316C6.67781 3.43266 9.10563 2.45715 11.6921 2.49314C16.8523 2.56738 21.0769 6.82721 21.1096 11.9891C21.1273 14.774 19.933 17.4225 17.833 19.255C17.4818 19.5613 17.2979 20.0209 17.3404 20.4846C17.3829 20.948 17.6476 21.3661 18.048 21.6029L18.058 21.6087L11.3608 21.6071C6.18348 21.5078 1.99219 17.2426 1.99219 12.0511C1.99219 9.47177 3.00395 7.05405 4.84102 5.24316ZM67.0039 66.5078H66.0078V51.674C66.0078 47.7876 63.7113 44.2586 60.1461 42.6782L54.8966 40.4282C56.174 40.0252 57.328 39.3064 58.267 38.3094C59.6837 36.8053 60.4961 34.7643 60.4961 32.7098C60.4961 30.822 59.8365 29.0402 58.5885 27.5566C57.0274 25.7029 56.1677 23.3471 56.1677 20.9227V16.1495C56.1677 11.9688 54.5396 8.03912 51.5834 5.08444C48.6273 2.12804 44.6973 0.500022 40.5171 0.500022C31.888 0.500022 24.8678 7.52023 24.8678 16.1493V20.7672C24.8683 23.2758 23.8825 25.6702 22.2805 27.6004C20.2643 30.0296 19.8454 33.3139 21.1874 36.1716C22.1835 38.2929 23.9802 39.8169 26.1311 40.462L20.9182 42.7288C17.261 44.2679 14.8977 47.826 14.8977 51.7937V63.5197C14.8977 64.0698 15.3436 64.5158 15.8938 64.5158C16.444 64.5158 16.8899 64.0698 16.8899 63.5197V51.7937C16.8899 48.6298 18.7744 45.7923 21.7018 44.5604L28.2359 41.719V47.7149H25.234C24.388 47.7149 23.5782 48.0756 23.0123 48.7046C22.4465 49.3336 22.1732 50.1768 22.2624 51.018L23.9044 66.5078H0.996094C0.445852 66.5078 0 66.9538 0 67.5039C0 68.054 0.445852 68.5 0.996094 68.5H67.0039C67.5541 68.5 68 68.054 68 67.5039C68 66.9538 67.5541 66.5078 67.0039 66.5078ZM57.0644 28.8393C58.0061 29.9589 58.5039 31.2972 58.5039 32.7097C58.5039 34.2619 57.889 35.8049 56.8168 36.9434C55.6815 38.1487 54.1219 38.8124 52.4252 38.8124H51.1271L49.4219 38.0816C47.9324 37.4428 46.9135 36.0733 46.7052 34.497C49.7787 32.8421 51.8727 29.5943 51.8727 25.8659V18.3775C52.1642 18.3973 52.4555 18.4081 52.746 18.4081C53.225 18.4081 53.7022 18.3808 54.1757 18.3272V20.9226C54.1755 23.8158 55.2017 26.6274 57.0644 28.8393ZM40.7592 44.5644C37.1957 44.6275 33.6591 44.1759 30.2281 43.2243V40.8527L30.5162 40.7275C30.5185 40.7265 30.5207 40.7255 30.5231 40.7245L32.3001 39.9518C34.2782 39.0919 35.6761 37.3305 36.0999 35.2722C36.9673 35.5244 37.8828 35.6623 38.8305 35.6623H42.0763C43.0277 35.6623 43.9466 35.5233 44.8169 35.2693C45.2547 37.3182 46.6578 39.0637 48.6369 39.9127L50.5334 40.7255C50.5346 40.726 50.5358 40.7265 50.537 40.7269L50.6775 40.7871V43.0286C47.4538 43.9891 44.121 44.5057 40.7592 44.5644ZM50.6773 45.1026V47.715H30.2281V45.2872C33.4573 46.1339 36.7729 46.5623 40.1108 46.5623C40.3385 46.5623 40.5662 46.5603 40.794 46.5563C44.1396 46.4979 47.4578 46.009 50.6773 45.1026ZM54.1755 16.3185C51.4318 16.6892 48.339 15.9542 46.2081 14.3032C45.7734 13.9664 45.1478 14.0456 44.8107 14.4805C44.4737 14.9154 44.5532 15.541 44.988 15.878C46.381 16.9572 48.0613 17.7174 49.8805 18.1007V23.5236C49.4019 24.6145 48.869 25.5218 47.6677 26.5128C47.162 26.9301 46.6084 27.2766 46.0155 27.5515C45.5314 26.6068 44.5482 25.9585 43.4159 25.9585H41.0816C39.4715 25.9585 38.1617 27.2684 38.1617 28.8783C38.1617 30.4883 39.4715 31.7982 41.0816 31.7982H43.4159C44.7708 31.7982 45.913 30.8704 46.2409 29.6169C47.5734 29.1092 49.7461 27.2979 49.7466 27.2972C49.0721 30.9186 45.8904 33.6695 42.0765 33.6695H38.8304C34.5273 33.6695 31.0263 30.1687 31.0263 25.8655V18.1658C34.4095 17.6355 37.6056 16.4906 40.5368 14.7569C44.9998 12.117 47.8626 8.66733 49.5902 5.94188C52.5462 8.57462 54.2277 12.349 54.1755 16.3185ZM44.3433 28.8811C44.3418 29.3915 43.9264 29.8063 43.4157 29.8063H41.0814C40.5698 29.8063 40.1537 29.3901 40.1537 28.8786C40.1537 28.3671 40.57 27.9509 41.0814 27.9509H43.4157C43.9263 27.9509 44.3416 28.3654 44.3433 28.8755V28.8811ZM26.86 16.1493C26.86 8.61872 32.9865 2.49221 40.5171 2.49221C43.2179 2.49221 45.7987 3.27182 48.004 4.72319C46.4141 7.27173 43.7381 10.549 39.5225 13.0427C36.6305 14.7533 33.4583 15.8454 30.0936 16.2888H30.0314C30.031 16.2888 30.0306 16.2888 30.0301 16.2888C30.0296 16.2888 30.0293 16.2888 30.0288 16.2888H26.8599V16.1493H26.86ZM22.9905 35.3248C21.9805 33.1735 22.2958 30.7012 23.8122 28.8742C25.715 26.5817 26.8621 23.7491 26.86 20.7672V18.281H29.0341V25.8659C29.0341 29.5965 31.1308 32.8458 34.2071 34.4998C34.0146 36.0881 32.9987 37.4756 31.5056 38.1247L29.9241 38.8124H28.4803C26.1043 38.8124 24.0008 37.4761 22.9905 35.3248ZM57.6661 50.8082L56.0019 66.5078H25.9077L24.2435 50.8082C24.2133 50.5236 24.302 50.2497 24.4934 50.0371C24.6848 49.8243 24.9479 49.7072 25.234 49.7072H56.6756C56.9617 49.7072 57.2248 49.8243 57.4162 50.0371C57.6076 50.2497 57.6963 50.5236 57.6661 50.8082ZM64.0156 66.5078H58.0052L59.6472 51.0183C59.7364 50.1769 59.4629 49.3337 58.8973 48.7047C58.3314 48.0757 57.5218 47.715 56.6756 47.715H52.6695V41.6411L59.3501 44.5044C62.1843 45.7608 64.0156 48.575 64.0156 51.674V66.5078ZM40.9547 54.3223C38.8676 54.3223 37.1696 56.0203 37.1696 58.1074C37.1696 60.1946 38.8676 61.8926 40.9547 61.8926C43.0419 61.8926 44.7399 60.1946 44.7399 58.1074C44.7399 56.0203 43.0419 54.3223 40.9547 54.3223ZM40.9547 59.9004C39.9661 59.9004 39.1618 59.0961 39.1618 58.1074C39.1618 57.1188 39.9661 56.3145 40.9547 56.3145C41.9434 56.3145 42.7477 57.1188 42.7477 58.1074C42.7477 59.0961 41.9435 59.9004 40.9547 59.9004Z" fill="black"/>
</g>
<defs>
<clipPath id="clip0_9111_755">
<rect width="68" height="68" fill="white" transform="translate(0 0.5)"/>
</clipPath>
</defs>
</svg>
