<svg width="68" height="69" viewBox="0 0 68 69" fill="none" xmlns="http://www.w3.org/2000/svg">
<path d="M7.80072 10.0201C7.25048 10.0201 6.80463 10.466 6.80463 11.0162C6.80463 11.5665 7.25048 12.0123 7.80072 12.0123H9.16922C9.71946 12.0123 10.1653 11.5665 10.1653 11.0162C10.1653 10.466 9.71946 10.0201 9.16922 10.0201H7.80072Z" fill="black"/>
<path d="M14.5629 10.0201C14.0126 10.0201 13.5668 10.466 13.5668 11.0162C13.5668 11.5665 14.0126 12.0123 14.5629 12.0123H15.9315C16.4817 12.0123 16.9276 11.5665 16.9276 11.0162C16.9276 10.466 16.4817 10.0201 15.9315 10.0201H14.5629Z" fill="black"/>
<path d="M22.6938 12.0124C23.2441 12.0124 23.6899 11.5665 23.6899 11.0163C23.6899 10.466 23.2441 10.0202 22.6938 10.0202H21.3252C20.775 10.0202 20.3291 10.466 20.3291 11.0163C20.3291 11.5665 20.775 12.0124 21.3252 12.0124H22.6938Z" fill="black"/>
<path d="M48.8847 40.7008C49.2736 41.0897 49.9043 41.0901 50.2933 40.7009C50.6825 40.3119 50.6825 39.6812 50.2935 39.2923L31.9604 20.9557C31.5714 20.5666 30.9407 20.5667 30.5518 20.9556C30.1627 21.3446 30.1627 21.9753 30.5517 22.3642L30.8712 22.6837L28.6563 28.0533C28.2658 27.7549 27.7056 27.7832 27.3486 28.1402C26.9595 28.5292 26.9595 29.1599 27.3485 29.5488L27.8377 30.038L26.112 34.2211L18.6338 41.698C17.5329 42.7986 17.5327 44.5896 18.6334 45.6904L18.7679 45.825L18.0637 46.529L18.0612 46.5265C17.6722 46.1375 17.0415 46.1374 16.6526 46.5264C16.2634 46.9154 16.2634 47.5461 16.6525 47.935L16.7185 48.001C15.4934 49.8289 15.687 52.3324 17.3006 53.9462C18.2181 54.8638 19.4229 55.3225 20.6283 55.3225C21.5427 55.3225 22.4569 55.0577 23.2457 54.5292L23.3117 54.5952C23.5062 54.7898 23.7611 54.887 24.0161 54.887C24.271 54.887 24.526 54.7898 24.7204 54.5954C25.1096 54.2064 25.1096 53.5756 24.7205 53.1868L24.718 53.1842L25.4222 52.4802L25.5566 52.6147C26.1071 53.1654 26.8299 53.4406 27.553 53.4406C28.2757 53.4406 28.9987 53.1654 29.5489 52.6151L29.6869 52.4772L32.3213 55.1119C32.7094 55.5002 33.3401 55.5017 33.7299 55.112C34.1189 54.7231 34.119 54.0924 33.73 53.7034L31.0957 51.0685L34.2502 47.9145L36.3112 49.976C36.3266 49.9913 36.3317 50.0145 36.3244 50.0349L35.8109 51.4536C35.5417 52.1976 35.7292 53.0396 36.2887 53.599L39.1736 56.4845C39.4291 56.7402 39.4291 57.156 39.1735 57.4115L38.7689 57.816C38.5134 58.0715 38.0973 58.0715 37.8419 57.8157L36.546 56.5197C36.1569 56.1308 35.5263 56.1308 35.1373 56.5197C34.7483 56.9088 34.7483 57.5394 35.1373 57.9284L36.4332 59.2243C37.465 60.2564 39.1451 60.2573 40.1775 59.2247L40.5821 58.8203C41.6144 57.7881 41.6147 56.1082 40.5825 55.0759L37.6975 52.1903C37.6821 52.175 37.6771 52.1519 37.6844 52.1316L38.1978 50.7127C38.4669 49.9687 38.2795 49.1266 37.7201 48.5673L35.6591 46.5059L37.0274 45.1379L41.2104 43.4134L41.6997 43.9026C42.0886 44.2915 42.7193 44.2919 43.1083 43.9028C43.4654 43.5458 43.4939 42.9854 43.1954 42.595L48.5653 40.3811L48.8847 40.7008ZM25.3928 40.4716C25.3927 40.4717 25.3927 40.4717 25.3928 40.4716L23.6521 42.2119C23.4019 42.4622 22.998 42.4612 22.7486 42.2118L21.8432 41.3063L24.4875 38.6625L25.3928 39.5683C25.6431 39.8183 25.6421 40.2223 25.3928 40.4716ZM18.7092 52.5376C18.1968 52.0251 17.9146 51.3436 17.9147 50.6188C17.9147 50.2108 18.0071 49.8179 18.1769 49.4598L21.7861 53.0696C20.7793 53.5439 19.5401 53.3687 18.7092 52.5376ZM24.0133 51.0713L23.3092 51.7754L19.4722 47.9378L20.1764 47.2337C21.5183 48.5759 22.6713 49.7291 24.0133 51.0713ZM26.9651 51.2061C25.074 49.3148 21.1333 45.3731 20.0421 44.2818C19.7183 43.9579 19.7183 43.4308 20.0422 43.1067L20.4343 42.7148L21.3398 43.6204C22.3668 44.6477 24.0326 44.6493 25.0608 43.6208L26.8013 41.8804C27.8297 40.8523 27.8301 39.1879 26.8017 38.1596L25.8962 37.2539L26.957 36.1934L35.055 44.2927L28.984 50.3626C28.9834 50.3632 28.9829 50.3636 28.9825 50.364C28.9821 50.3644 28.9817 50.365 28.9812 50.3654L28.1402 51.2063C27.816 51.5303 27.289 51.5301 26.9651 51.2061ZM36.6981 43.1188C35.6798 42.1003 29.1534 35.5728 28.1312 34.5504L29.363 31.5641L39.6845 41.8876L36.6981 43.1188ZM41.6795 41.065L30.1859 29.5693L32.3967 24.2097L47.0396 38.8552L41.6795 41.065Z" fill="black"/>
<path d="M45.727 24.1113L43.0582 26.7802C42.6692 27.1693 42.6692 27.7999 43.0582 28.1889C43.4474 28.5779 44.0779 28.5778 44.4669 28.1889L47.1358 25.5201C47.5248 25.1309 47.5248 24.5003 47.1358 24.1113C46.7468 23.7226 46.1162 23.7226 45.727 24.1113Z" fill="black"/>
<path d="M39.5405 23.8676V20.0934C39.5405 19.5431 39.0946 19.0973 38.5444 19.0973C37.9941 19.0973 37.5483 19.5431 37.5483 20.0934V23.8676C37.5483 24.4179 37.9941 24.8637 38.5444 24.8637C39.0946 24.8637 39.5405 24.4179 39.5405 23.8676Z" fill="black"/>
<path d="M46.311 32.7327C46.311 33.283 46.7569 33.7288 47.3071 33.7288H51.0814C51.6316 33.7288 52.0775 33.283 52.0775 32.7327C52.0775 32.1825 51.6316 31.7366 51.0814 31.7366H47.3071C46.757 31.7366 46.311 32.1826 46.311 32.7327Z" fill="black"/>
<path d="M16.2434 23.8676C16.2434 23.3174 15.7976 22.8715 15.2473 22.8715H6.7262C6.17595 22.8715 5.7301 23.3174 5.7301 23.8676C5.7301 24.4179 6.17595 24.8637 6.7262 24.8637H15.2473C15.7974 24.8637 16.2434 24.4179 16.2434 23.8676Z" fill="black"/>
<path d="M6.7262 27.8485C6.17595 27.8485 5.7301 28.2944 5.7301 28.8446C5.7301 29.3949 6.17595 29.8407 6.7262 29.8407H12.5911C13.1413 29.8407 13.5872 29.3949 13.5872 28.8446C13.5872 28.2944 13.1413 27.8485 12.5911 27.8485H6.7262Z" fill="black"/>
<path d="M60.5691 49.0461H46.4315C45.8812 49.0461 45.4354 49.492 45.4354 50.0422C45.4354 50.5925 45.8812 51.0383 46.4315 51.0383H60.5691C61.1193 51.0383 61.5652 50.5925 61.5652 50.0422C61.5652 49.492 61.1192 49.0461 60.5691 49.0461Z" fill="black"/>
<path d="M60.5691 53.4348H51.744C51.1937 53.4348 50.7479 53.8806 50.7479 54.4309C50.7479 54.9811 51.1937 55.427 51.744 55.427H60.5691C61.1193 55.427 61.5652 54.9811 61.5652 54.4309C61.5652 53.8806 61.1192 53.4348 60.5691 53.4348Z" fill="black"/>
<path d="M61.1802 4.97141H21.3394C20.7891 4.97141 20.3433 5.41726 20.3433 5.9675C20.3433 6.51774 20.7891 6.96359 21.3394 6.96359H61.1803C63.8422 6.96359 66.0078 9.12923 66.0078 11.7912V15.0689H1.99219V11.7912C1.99219 9.12923 4.15783 6.96359 6.81966 6.96359H17.3567C17.907 6.96359 18.3528 6.51774 18.3528 5.9675C18.3528 5.41726 17.907 4.97141 17.3567 4.97141H6.81966C3.0592 4.97141 0 8.03074 0 11.7912V57.209C0 60.9693 3.0592 64.0286 6.81966 64.0286H61.1803C64.9407 64.0286 68 60.9694 68 57.209V54.74C68 54.1897 67.5541 53.7439 67.0039 53.7439C66.4537 53.7439 66.0078 54.1897 66.0078 54.74V57.209C66.0078 59.8708 63.8422 62.0364 61.1803 62.0364H6.81966C4.15783 62.0363 1.99219 59.8707 1.99219 57.2088V17.0609H66.0077V50.7572C66.0077 51.3074 66.4535 51.7533 67.0038 51.7533C67.554 51.7533 67.9999 51.3074 67.9999 50.7572V11.7912C67.9999 8.03074 64.9407 4.97141 61.1802 4.97141Z" fill="black"/>
</svg>
