<svg width="68" height="69" viewBox="0 0 68 69" fill="none" xmlns="http://www.w3.org/2000/svg">
<g clip-path="url(#clip0_9111_760)">
<path d="M65.1761 59.3124V26.7083C66.7333 26.7078 68.0001 25.4408 68.0001 23.8834C68.0001 22.3257 66.7328 21.0585 65.175 21.0585H50.0941C49.544 21.0585 49.098 21.5045 49.098 22.0546V59.3124H41.4391V50.1113C41.4391 48.371 40.0234 46.9553 38.2831 46.9553H26.3679C24.6277 46.9553 23.2119 48.371 23.2119 50.1113V59.3124H15.5532V9.68769H49.098V17.4106C49.098 17.9607 49.544 18.4067 50.0941 18.4067C50.6442 18.4067 51.0902 17.9607 51.0902 17.4106V9.68755C52.6474 9.68702 53.914 8.41999 53.914 6.86264C53.914 5.30489 52.6468 4.0376 51.0891 4.0376H13.562C12.0043 4.0376 10.7371 5.30489 10.7371 6.86264C10.7371 8.41999 12.0038 9.68689 13.561 9.68755V19.5374C11.2483 18.2422 7.80651 18.576 5.79228 20.5633C4.43082 21.8348 3.64989 23.6319 3.64989 25.4939C3.70806 26.4122 3.47285 27.6092 2.78781 28.6952C1.88163 30.1293 1.40271 31.788 1.40271 33.4918C1.46407 34.857 1.89358 36.765 1.0817 38.1857C0.344067 39.6701 -0.0295334 41.338 0.0016774 43.0095C0.05281 45.6878 1.13124 48.2175 3.03802 50.1328C4.76631 51.8686 7.00286 52.9233 9.40051 53.1532V59.312H2.82513C1.26738 59.312 0.00021647 60.5792 0.00021647 62.1369C0.00021647 63.6945 1.26751 64.9619 2.82513 64.9619H8.07253C8.62264 64.9619 9.06862 64.5159 9.06862 63.9658C9.06862 63.4157 8.62264 62.9697 8.07253 62.9697H2.82513C2.366 62.9697 1.9924 62.5961 1.9924 62.1369C1.9924 61.6776 2.366 61.3041 2.82513 61.3041H65.1749C65.6342 61.3041 66.0078 61.6776 66.0078 62.1369C66.0078 62.5961 65.6342 62.9697 65.1749 62.9697H12.7322C12.1821 62.9697 11.7361 63.4157 11.7361 63.9658C11.7361 64.5159 12.1821 64.9619 12.7322 64.9619H65.175C66.7328 64.9619 68.0001 63.6946 68.0001 62.1369C67.9999 60.5799 66.7333 59.313 65.1761 59.3124ZM12.7293 6.86277C12.7293 6.40351 13.1028 6.02991 13.562 6.02991H51.0891C51.5484 6.02991 51.9219 6.40351 51.9219 6.86277C51.9219 7.32204 51.5484 7.69551 51.0891 7.69551H13.562C13.1028 7.69551 12.7293 7.32204 12.7293 6.86277ZM4.44995 48.7275C2.90721 47.178 2.0349 45.1339 1.99359 42.9722C1.96809 41.6007 2.26161 40.2885 2.86603 39.0722C3.77115 37.3988 3.61098 35.488 3.39502 33.492C3.39502 32.1653 3.76743 30.8746 4.472 29.7596C5.24536 28.5628 5.72308 26.9194 5.6422 25.494C5.6422 24.1627 6.1785 22.9288 7.15214 22.0193C8.78839 20.4376 11.746 20.2684 13.561 21.9542V50.5946C12.8644 50.8795 12.1395 51.0662 11.3928 51.1534V40.9698C11.3928 40.4197 10.9468 39.9737 10.3967 39.9737C9.84663 39.9737 9.40065 40.4197 9.40065 40.9698V51.1525C7.5369 50.9305 5.80224 50.0858 4.44995 48.7275ZM11.3928 53.1547C12.1302 53.0836 12.8581 52.9346 13.561 52.7107V59.3124H11.3928V53.1547ZM66.0078 23.8834C66.0078 24.3427 65.6342 24.7163 65.1749 24.7163H51.0902V23.0507H65.175C65.6342 23.0507 66.0078 23.4243 66.0078 23.8834ZM25.2041 50.1113C25.2041 49.4695 25.7262 48.9474 26.3679 48.9474H31.3294V59.3124H25.2039L25.2041 50.1113ZM33.3215 59.3124V48.9474H38.283C38.9248 48.9474 39.4468 49.4695 39.4468 50.1113V59.3124H33.3215ZM51.0902 59.3124V26.7085H63.1839V29.2704H55.0602C54.5101 29.2704 54.0641 29.7164 54.0641 30.2665C54.0641 30.8166 54.5101 31.2626 55.0602 31.2626H63.1839V33.5039H55.0602C54.5101 33.5039 54.0641 33.9499 54.0641 34.5C54.0641 35.0501 54.5101 35.4961 55.0602 35.4961H63.1839V37.7374H55.0602C54.5101 37.7374 54.0641 38.1834 54.0641 38.7335C54.0641 39.2836 54.5101 39.7296 55.0602 39.7296H63.1839V41.971H55.0602C54.5101 41.971 54.0641 42.4169 54.0641 42.967C54.0641 43.5172 54.5101 43.9631 55.0602 43.9631H63.1839V46.2045H55.0602C54.5101 46.2045 54.0641 46.6505 54.0641 47.2006C54.0641 47.7507 54.5101 48.1967 55.0602 48.1967H63.1839V50.4381H55.0602C54.5101 50.4381 54.0641 50.8841 54.0641 51.4342C54.0641 51.9843 54.5101 52.4303 55.0602 52.4303H63.1839V54.6716H55.0602C54.5101 54.6716 54.0641 55.1176 54.0641 55.6677C54.0641 56.2178 54.5101 56.6638 55.0602 56.6638H63.1839V59.3121H51.0902V59.3124Z" fill="black"/>
<path d="M40.5092 36.8219C41.0789 37.1168 42.0429 37.2489 42.854 36.7519C43.5758 36.3159 44.0066 35.552 44.0066 34.7088V28.8352H44.8428C45.3929 28.8352 45.8389 28.3892 45.8389 27.8391C45.8389 27.289 45.3929 26.843 44.8428 26.843H44.0066V20.9694C44.0066 20.1261 43.5758 19.3623 42.854 18.9263C42.1323 18.4902 41.2557 18.464 40.509 18.8563L35.4498 21.5147H24.8678C23.4502 21.5147 22.2863 22.6127 22.1764 24.0025H20.7707C19.6418 24.0025 18.7234 24.9209 18.7234 26.0498V29.6283C18.7234 30.7573 19.6418 31.6756 20.7707 31.6756H22.1764C22.2863 33.0655 23.4502 34.1635 24.8678 34.1635H24.8912L25.9974 38.0568C26.259 38.9773 27.11 39.6201 28.067 39.6201H30.1876C30.7769 39.6201 31.3187 39.3503 31.6738 38.8802C32.0291 38.4099 32.1405 37.8152 31.9794 37.2483L31.531 35.6703L31.9791 35.9963C32.156 36.125 32.3611 36.187 32.5643 36.187C32.872 36.187 33.1756 36.0448 33.3706 35.777C33.6943 35.3321 33.5961 34.7091 33.1512 34.3854L32.8461 34.1635H35.4499L40.5092 36.8219ZM20.7157 29.6283V26.0498C20.7157 26.0194 20.7404 25.9947 20.7708 25.9947H22.1656V29.6835H20.7708C20.7404 29.6835 20.7157 29.6588 20.7157 29.6283ZM24.1578 31.4612V24.2168C24.1578 23.8252 24.4763 23.5066 24.868 23.5066H35.6956C35.857 23.5066 36.0161 23.4674 36.159 23.3923L41.4358 20.6197C41.6074 20.5295 41.7527 20.5882 41.8239 20.6312C41.8951 20.6743 42.0146 20.7753 42.0146 20.9692V34.7086C42.0146 34.9023 41.8952 35.0035 41.8239 35.0466C41.7527 35.0897 41.6075 35.1483 41.4359 35.0581L36.1591 32.2855C36.0162 32.2105 35.8573 32.1712 35.6958 32.1712H24.8681C24.4763 32.1713 24.1578 31.8528 24.1578 31.4612ZM28.067 37.628C27.9961 37.628 27.9331 37.5805 27.9137 37.5122L26.9621 34.1635H29.0318L30.0163 37.628H28.067Z" fill="black"/>
<path d="M23.1617 13.6074C22.6116 13.6074 22.1656 14.0533 22.1656 14.6035V15.2655H21.5034C20.9533 15.2655 20.5073 15.7115 20.5073 16.2616C20.5073 16.8117 20.9533 17.2577 21.5034 17.2577H22.1656V17.9198C22.1656 18.4699 22.6116 18.9159 23.1617 18.9159C23.7118 18.9159 24.1578 18.4699 24.1578 17.9198V17.2577H24.8199C25.37 17.2577 25.816 16.8117 25.816 16.2616C25.816 15.7115 25.37 15.2655 24.8199 15.2655H24.1578V14.6035C24.1578 14.0533 23.7118 13.6074 23.1617 13.6074Z" fill="black"/>
</g>
<defs>
<clipPath id="clip0_9111_760">
<rect width="68" height="68" fill="white" transform="translate(0 0.5)"/>
</clipPath>
</defs>
</svg>
