<svg width="68" height="69" viewBox="0 0 68 69" fill="none" xmlns="http://www.w3.org/2000/svg">
<g clip-path="url(#clip0_9111_782)">
<path d="M14.5828 12.6146L14.6485 15.736C14.655 16.0474 14.8068 16.3379 15.0588 16.5209C15.231 16.646 15.4364 16.7112 15.6443 16.7112C15.7408 16.7112 15.8377 16.6973 15.9321 16.6687L18.9224 15.7661L21.9126 16.6687C22.2107 16.7588 22.5341 16.7045 22.7859 16.521C23.0378 16.3379 23.1898 16.0476 23.1963 15.7361L23.2617 12.6148L25.0429 10.0479C25.2203 9.79209 25.268 9.46803 25.1717 9.17186C25.0754 8.87569 24.8461 8.64167 24.552 8.53927L21.6034 7.51276L19.7159 5.02545C19.5276 4.77736 19.2339 4.63153 18.9224 4.63153C18.6108 4.63153 18.3173 4.77736 18.1289 5.02545L16.2411 7.51263L13.2926 8.53914C12.9985 8.64154 12.7693 8.87555 12.6729 9.17173C12.5764 9.4679 12.6243 9.79196 12.8017 10.0478L14.5828 12.6146ZM17.1803 9.29524C17.3655 9.23083 17.5276 9.11302 17.6462 8.9567L18.9224 7.2753L20.1983 8.9567C20.317 9.11302 20.4791 9.23069 20.6643 9.29524L22.6585 9.98958L21.4538 11.7257C21.3421 11.8865 21.2803 12.0769 21.2763 12.2726L21.2321 14.3824L19.2102 13.7721C19.0226 13.7152 18.8221 13.7152 18.6346 13.7721L16.6126 14.3824L16.5683 12.2726C16.5643 12.0767 16.5025 11.8865 16.3908 11.7257L15.1861 9.98958L17.1803 9.29524Z" fill="black"/>
<path d="M29.6625 8.47964L29.7281 11.6006C29.7346 11.9119 29.8861 12.2021 30.1381 12.3853C30.3899 12.5685 30.7129 12.6231 31.0108 12.5336L34.0019 11.6342L36.9929 12.5336C37.0871 12.5619 37.1838 12.5757 37.2798 12.5757C37.4878 12.5757 37.6934 12.5105 37.8656 12.3851C38.1174 12.202 38.2691 11.9118 38.2756 11.6005L38.3412 8.47951L40.122 5.91649C40.2997 5.66083 40.3475 5.3369 40.2515 5.04073C40.1555 4.74455 39.9265 4.51041 39.6326 4.40774L36.6829 3.37725L34.7949 0.893391C34.6067 0.645695 34.3134 0.500133 34.0023 0.5H34.0019C33.6908 0.5 33.3977 0.645297 33.2094 0.892727L31.3173 3.37752L28.3709 4.40814C28.077 4.5108 27.8481 4.74495 27.7521 5.04113C27.6561 5.33716 27.7042 5.66123 27.8817 5.91676L29.6625 8.47964ZM32.2574 5.1592C32.4417 5.09491 32.6029 4.97777 32.721 4.82252L34.0012 3.14138L35.2784 4.82172C35.3968 4.97751 35.5583 5.09491 35.7429 5.15933L37.738 5.85633L36.5337 7.5898C36.4217 7.75077 36.3598 7.94122 36.3558 8.13725L36.3115 10.2484L34.2887 9.64016C34.1951 9.612 34.0984 9.59805 34.0019 9.59805C33.9053 9.59805 33.8086 9.612 33.715 9.64016L31.6924 10.2484L31.648 8.13725C31.644 7.94109 31.5821 7.75077 31.4702 7.5898L30.2656 5.85593L32.2574 5.1592Z" fill="black"/>
<path d="M44.7388 12.6146L44.8077 15.7371C44.8146 16.0484 44.9666 16.3384 45.2185 16.5213C45.4706 16.7043 45.7937 16.7586 46.0914 16.6686L49.0815 15.7661L52.0677 16.6686C52.1622 16.6972 52.2593 16.7111 52.3559 16.7111C52.5635 16.7111 52.7687 16.6462 52.9408 16.5212C53.1927 16.3384 53.3448 16.0481 53.3517 15.7369L53.4206 12.615L55.2023 10.0478C55.3797 9.79184 55.4274 9.46778 55.3311 9.1716C55.2348 8.87543 55.0056 8.64142 54.7114 8.53902L51.7629 7.51251L49.8751 5.02533C49.6869 4.77737 49.3935 4.63154 49.082 4.63141H49.0816C48.7705 4.63141 48.4771 4.77697 48.2886 5.02467L46.3971 7.51238L43.4515 8.53902C43.1577 8.64142 42.9284 8.87517 42.8323 9.17121C42.7359 9.46711 42.7833 9.79104 42.9604 10.0468L44.7388 12.6146ZM47.3361 9.29512C47.521 9.23071 47.6826 9.1133 47.8012 8.95738L49.0808 7.27438L50.3577 8.95671C50.4763 9.11303 50.6383 9.23071 50.8236 9.29525L52.8178 9.9896L51.6129 11.7256C51.5015 11.8863 51.4397 12.0762 51.4355 12.2716L51.3889 14.3824L49.3697 13.7721C49.1818 13.7153 48.9814 13.7151 48.7937 13.7721L46.7704 14.3828L46.7238 12.2716C46.7196 12.0763 46.6579 11.8868 46.5469 11.7264L45.3438 9.9896L47.3361 9.29512Z" fill="black"/>
<path d="M47.9411 28.7562C47.9411 25.0327 46.4905 21.5324 43.8568 18.9007C38.4238 13.4677 29.5804 13.4677 24.1432 18.9007C18.7104 24.3337 18.7102 33.1773 24.1434 38.615C26.862 41.3315 30.4319 42.6897 34.0015 42.6897C37.5711 42.6897 41.1403 41.3313 43.8568 38.6146C46.4906 35.9807 47.9411 32.4795 47.9411 28.7562ZM25.5518 20.3096C27.8821 17.9809 30.9415 16.8169 34.0013 16.8169C37.0605 16.8169 40.1201 17.9814 42.4483 20.3096C44.7057 22.5653 45.9489 25.565 45.9489 28.7562C45.9489 31.7765 44.8338 34.6254 42.8005 36.8357C42.2686 34.5848 40.8825 32.6012 38.9255 31.324C39.7618 30.2595 40.2624 28.9196 40.2624 27.4641C40.2624 24.0119 37.4539 21.2033 34.0017 21.2033C30.5495 21.2033 27.7412 24.0118 27.7412 27.4641C27.7412 28.9197 28.2419 30.2597 29.0781 31.3242C27.1204 32.6017 25.734 34.5863 25.2025 36.8381C20.9006 32.155 21.0157 24.8457 25.5518 20.3096ZM29.7335 27.4641C29.7335 25.1104 31.6483 23.1955 34.0019 23.1955C36.3556 23.1955 38.2703 25.1104 38.2703 27.4641C38.2703 29.8178 36.3556 31.7327 34.0019 31.7327C31.6483 31.7327 29.7335 29.8178 29.7335 27.4641ZM26.9709 38.4181C27.1345 36.0353 28.5128 33.8835 30.6129 32.7241C31.5905 33.3562 32.7535 33.7249 34.0019 33.7249C35.2502 33.7249 36.4132 33.3562 37.3908 32.7241C39.4902 33.8832 40.8684 36.0341 41.0328 38.4161C36.8605 41.4574 31.146 41.458 26.9709 38.4181Z" fill="black"/>
<path d="M66.2339 22.2295C65.5456 21.4479 64.5962 20.981 63.5602 20.9148C62.5251 20.8473 61.525 21.1914 60.7429 21.881C60.2356 22.3279 59.862 22.8849 59.6434 23.5034C59.4689 23.4676 59.2914 23.4422 59.1115 23.43C58.0784 23.3629 57.076 23.7064 56.2928 24.3956C55.5098 25.0845 55.0421 26.0336 54.9757 27.0702L54.8623 28.8967L54.3339 37.2134C54.0639 37.3538 53.7998 37.5198 53.5451 37.7125C53.5322 37.7221 53.5197 37.7321 53.5072 37.7425L46.5702 43.5357C43.518 46.0821 43.2103 48.3015 42.9295 52.0052L42.4892 57.8406H41.4039C40.1695 57.8406 39.1653 58.8465 39.1653 60.083V66.2616C39.1653 67.496 40.1697 68.5002 41.4039 68.5002H47.7899C48.3402 68.5002 48.786 68.0543 48.786 67.5041C48.786 66.9538 48.3402 66.508 47.7899 66.508H41.4039C41.2703 66.508 41.1575 66.3951 41.1575 66.2616V60.083C41.1575 59.9474 41.2704 59.8328 41.4039 59.8328H58.7833C58.917 59.8328 59.0297 59.9473 59.0297 60.083V66.2616C59.0297 66.3952 58.9168 66.508 58.7833 66.508H52.4012C51.8509 66.508 51.4051 66.9538 51.4051 67.5041C51.4051 68.0543 51.8509 68.5002 52.4012 68.5002H58.7835C60.0178 68.5002 61.022 67.4958 61.022 66.2616V60.083C61.022 58.8465 60.0177 57.8406 58.7835 57.8406H58.1652C63.2296 52.5706 65.8136 46.8472 66.2506 40.0015L67.1985 25.0467C67.2647 24.0117 66.9222 23.0113 66.2339 22.2295ZM56.8508 29.0214L56.9641 27.1955C56.9964 26.692 57.2255 26.2289 57.6089 25.8912C57.9924 25.5538 58.4809 25.3852 58.98 25.4179C59.1132 25.4271 59.2429 25.4524 59.3689 25.4872L58.6216 37.2438C58.3714 37.0942 58.1027 36.9691 57.8177 36.8748C57.3464 36.7189 56.857 36.6522 56.365 36.6678L56.8508 29.0214ZM65.2101 24.9199L64.2623 39.8749C63.8191 46.8168 60.9769 52.5348 55.3301 57.8406H44.4869L44.9159 52.1556C45.1767 48.7167 45.3952 47.1102 47.8466 45.065L54.7646 39.2879C55.8333 38.4893 56.7431 38.6177 57.1916 38.766C57.7944 38.9654 58.2522 39.4193 58.4164 39.9807C58.6416 40.7488 58.3156 41.6206 57.4972 42.4365C56.9573 42.9764 56.1155 43.8519 55.2244 44.7788C54.0151 46.0366 52.6442 47.4621 51.9787 48.0955C51.5801 48.4746 51.5645 49.1053 51.9436 49.5039C52.3227 49.9023 52.9533 49.9181 53.352 49.5389C54.0498 48.8751 55.377 47.4947 56.6605 46.1598C57.5447 45.2402 58.3799 44.3714 58.9049 43.8464C60.0793 42.6757 60.6221 41.2899 60.4444 39.969L61.4162 24.6804C61.4485 24.1762 61.6772 23.7129 62.06 23.3756C62.4423 23.0387 62.9284 22.8707 63.4328 22.9028C63.9381 22.9352 64.4017 23.1637 64.7385 23.5462C65.0751 23.928 65.2427 24.4157 65.2101 24.9199Z" fill="black"/>
<path d="M26.5998 57.8405H25.5145L25.0741 52.0048C24.7934 48.3038 24.486 46.0857 21.4338 43.5358L14.4963 37.7424C14.4839 37.732 14.4712 37.7221 14.4584 37.7121C14.1972 37.5149 13.9335 37.3493 13.6693 37.2103L13.024 27.068C12.9577 26.0336 12.4909 25.0847 11.7097 24.396C10.9274 23.7066 9.92573 23.3628 8.88886 23.4302C8.70864 23.4425 8.53226 23.4672 8.3596 23.5022C8.1406 22.8841 7.76633 22.3274 7.25846 21.8804C6.47526 21.1914 5.47359 20.8473 4.43978 20.9148C2.29645 21.0521 0.664315 22.9058 0.801511 25.0462L1.75324 40.0014C2.18728 46.8463 4.76982 52.5698 9.83475 57.8405H9.22023C7.98587 57.8405 6.98167 58.8464 6.98167 60.0829V66.2615C6.98167 67.4958 7.986 68.5 9.22023 68.5H15.6025C16.1528 68.5 16.5986 68.0542 16.5986 67.5039C16.5986 66.9537 16.1528 66.5078 15.6025 66.5078H9.22036C9.08675 66.5078 8.974 66.3949 8.974 66.2615V60.0829C8.974 59.9473 9.08689 59.8327 9.22036 59.8327H26.5998C26.7334 59.8327 26.8462 59.9472 26.8462 60.0829V66.2615C26.8462 66.3951 26.7333 66.5078 26.5998 66.5078H20.2175C19.6673 66.5078 19.2214 66.9537 19.2214 67.5039C19.2214 68.0542 19.6673 68.5 20.2175 68.5H26.5998C27.8342 68.5 28.8384 67.4957 28.8384 66.2615V60.0829C28.8385 58.8464 27.8342 57.8405 26.5998 57.8405ZM9.01982 25.418C9.52238 25.3868 10.0099 25.5536 10.3923 25.8907C10.7751 26.2281 11.0038 26.6914 11.0359 27.1951L11.6381 36.6589C10.8065 36.6346 10.0296 36.8545 9.38213 37.2426L8.63466 25.4862C8.75897 25.4519 8.88687 25.4271 9.01982 25.418ZM3.74145 39.8751L2.78971 24.9193C2.72278 23.8746 3.52005 22.97 4.56714 22.9028C5.07223 22.8716 5.55899 23.0386 5.94242 23.376C6.32585 23.7135 6.55495 24.1768 6.58709 24.6797L6.60223 24.918C6.60276 24.9288 6.60343 24.9395 6.60422 24.9503L7.55795 39.953C7.38914 41.1484 7.78731 42.5388 9.09472 43.846C9.63235 44.3822 10.4879 45.2715 11.394 46.2132C12.6572 47.5261 13.9634 48.8837 14.6516 49.5386C15.0503 49.9177 15.6806 49.9022 16.0599 49.5036C16.4393 49.105 16.4234 48.4744 16.0249 48.0952C15.3684 47.4708 14.0777 46.1291 12.8295 44.8319C11.9163 43.8827 11.0537 42.9861 10.5025 42.4364C9.21744 41.1513 9.36898 39.9933 9.93914 39.3384C10.5996 38.5792 11.943 38.3205 13.2391 39.2878L20.1568 45.0646C22.6087 47.1127 22.8271 48.7185 23.0877 52.1549L23.5167 57.8404H12.6698C7.02245 52.5341 4.18146 46.8161 3.74145 39.8751Z" fill="black"/>
</g>
<defs>
<clipPath id="clip0_9111_782">
<rect width="68" height="68" fill="white" transform="translate(0 0.5)"/>
</clipPath>
</defs>
</svg>
