<svg width="68" height="69" viewBox="0 0 68 69" fill="none" xmlns="http://www.w3.org/2000/svg">
<g clip-path="url(#clip0_9111_733)">
<path d="M67.0039 31.4403H63.7033C62.5172 17.7152 50.7836 5.97626 37.0596 4.78267V1.49609C37.0596 0.945852 36.6136 0.5 36.0635 0.5H31.9364C31.3863 0.5 30.9403 0.945852 30.9403 1.49609V4.78055C17.2052 5.96125 5.45594 17.7061 4.26886 31.4403H0.996094C0.445984 31.4403 0 31.8861 0 32.4364V36.5635C0 37.1137 0.445984 37.5596 0.996094 37.5596H4.26886C5.4558 51.2941 17.2056 63.0376 30.9404 64.2184V67.5039C30.9404 68.0541 31.3864 68.5 31.9365 68.5H36.0636C36.6138 68.5 37.0597 68.0541 37.0597 67.5039V64.2165C42.7168 63.6388 48.0448 61.4751 52.5212 57.9281C52.9525 57.5865 53.025 56.9601 52.6834 56.5288C52.3418 56.0978 51.7152 56.0248 51.2841 56.3668C47.1604 59.6341 42.2627 61.6437 37.0597 62.2132V60.0928C48.581 58.8951 58.3886 49.0811 59.5811 37.5596H61.6999C61.0471 43.502 58.4669 49.1351 54.3675 53.5229C53.9919 53.9248 54.0132 54.5551 54.4153 54.9308C54.8165 55.3057 55.447 55.2856 55.8232 54.883C60.2655 50.1282 63.043 44.0078 63.7033 37.5596H67.0039C67.554 37.5596 68 37.1137 68 36.5635V32.4364C68 31.8861 67.554 31.4403 67.0039 31.4403ZM61.7 31.4403H59.5776C58.3748 19.9293 48.571 10.1317 37.0597 8.93532V6.78615C49.9506 8.20658 60.2869 18.5487 61.7 31.4403ZM35.0675 2.49219V12.8818H32.9326V2.49219H35.0675ZM1.99219 33.4325H12.3818V35.5674H1.99219V33.4325ZM6.2722 37.5596H8.42005C9.61137 49.0816 19.4194 58.895 30.9403 60.0928V62.2152C18.035 60.8068 7.68679 50.4638 6.2722 37.5596ZM32.9325 66.5078V56.1182H35.0674V66.5078H32.9325ZM37.0597 58.0864V55.1222C37.0597 54.572 36.6138 54.1261 36.0636 54.1261H31.9365C31.3864 54.1261 30.9404 54.572 30.9404 55.1222V58.0864C20.1906 56.7153 11.7912 48.3108 10.4264 37.5597H13.3779C13.928 37.5597 14.374 37.1139 14.374 36.5636V32.4365C14.374 31.8862 13.928 31.4404 13.3779 31.4404H10.4306C11.0354 26.733 13.0091 22.3798 16.1759 18.7928C16.5399 18.3804 16.5008 17.7509 16.0884 17.3868C15.6759 17.0225 15.0465 17.0621 14.6824 17.4742C11.1925 21.4271 9.03948 26.2391 8.42323 31.4403H6.2722C7.68692 18.5354 18.0351 8.19197 30.9404 6.78376V8.93492C26.1878 9.49672 21.7158 11.3626 17.9557 14.3612C17.5257 14.7042 17.455 15.3309 17.7979 15.761C18.1426 16.1931 18.7708 16.2599 19.1978 15.9187C22.6043 13.2022 26.6442 11.4934 30.9403 10.9423V13.8779C30.9403 14.4282 31.3863 14.874 31.9364 14.874H36.0635C36.6136 14.874 37.0596 14.4282 37.0596 13.8779V10.9417C47.7975 12.311 56.1952 20.7037 57.5709 31.4403H54.6219C54.0718 31.4403 53.6258 31.8861 53.6258 32.4364V36.5635C53.6258 37.1137 54.0718 37.5596 54.6219 37.5596H57.5746C56.2088 48.3108 47.8092 56.7153 37.0597 58.0864ZM66.0078 35.5674H55.6182V33.4325H66.0078V35.5674Z" fill="black"/>
<path d="M46.8889 29.509L35.9594 20.919C34.8056 20.0121 33.1944 20.0124 32.0406 20.919L21.1111 29.509C20.6785 29.849 20.6035 30.4751 20.9435 30.9077L23.6312 34.3275C23.8697 34.6375 24.2966 34.779 24.6726 34.6738V36.2584C24.6726 36.8087 25.1186 37.2545 25.6687 37.2545C26.2188 37.2545 26.6648 36.8087 26.6648 36.2584V33.2101L34 27.445L41.2741 33.1622V44.1104H37.7563V36.8255C37.7563 36.2753 37.3103 35.8294 36.7602 35.8294H31.2398C30.6896 35.8294 30.2437 36.2753 30.2437 36.8255V44.1104H26.6648V40.6001C26.6648 40.0498 26.2188 39.604 25.6687 39.604C25.1186 39.604 24.6726 40.0498 24.6726 40.6001V44.1104H23.0537C22.5036 44.1104 22.0576 44.5563 22.0576 45.1065C22.0576 45.6568 22.5036 46.1026 23.0537 46.1026H45.0148C45.5649 46.1026 46.0109 45.6568 46.0109 45.1065C46.0109 44.5563 45.5649 44.1104 45.0148 44.1104H43.2663V34.6555C43.6563 34.7924 44.117 34.6556 44.3688 34.3276L47.0565 30.9078C47.3965 30.4751 47.3215 29.8489 46.8889 29.509ZM32.2357 44.1103V37.8216H35.764V44.1104H32.2357V44.1103ZM43.418 32.3132L34.6156 25.3949C34.2542 25.1109 33.7458 25.1109 33.3844 25.3949L24.582 32.3132L23.1253 30.4598L33.2717 22.4852C33.7005 22.1484 34.2996 22.1483 34.7285 22.4852L44.8748 30.4598L43.418 32.3132Z" fill="black"/>
</g>
<defs>
<clipPath id="clip0_9111_733">
<rect width="68" height="68" fill="white" transform="translate(0 0.5)"/>
</clipPath>
</defs>
</svg>
