<svg width="69" height="69" viewBox="0 0 69 69" fill="none" xmlns="http://www.w3.org/2000/svg">
<g clip-path="url(#clip0_9111_1218)">
<path d="M25.6228 57.5703C26.1729 57.5703 26.6189 57.1243 26.6189 56.5742C26.6189 56.0241 26.1729 55.5781 25.6228 55.5781C25.0726 55.5781 24.6267 56.0241 24.6267 56.5742C24.6267 57.1243 25.0726 57.5703 25.6228 57.5703Z" fill="black"/>
<path d="M19.2265 46.5116H30.0163C30.5664 46.5116 31.0124 46.0658 31.0124 45.5155V39.7784C31.0124 39.2282 30.5664 38.7823 30.0163 38.7823H19.2265C18.6764 38.7823 18.2304 39.2282 18.2304 39.7784V45.5155C18.2304 46.0658 18.6764 46.5116 19.2265 46.5116ZM29.0202 44.5195H25.6176V40.7745H29.0202V44.5195ZM20.2226 40.7745H23.6254V44.5195H20.2226V40.7745Z" fill="black"/>
<path d="M50.5398 50.7578H44.5986C44.0485 50.7578 43.6025 51.2037 43.6025 51.7539V58.6248C43.6025 59.1751 44.0485 59.6209 44.5986 59.6209H50.5398C51.0899 59.6209 51.5359 59.1751 51.5359 58.6248V51.7539C51.5359 51.2038 51.0899 50.7578 50.5398 50.7578ZM49.5437 57.6289H45.5947V52.7501H49.5437V57.6289Z" fill="black"/>
<path d="M53.9539 59.661H59.8952C60.4453 59.661 60.8912 59.2151 60.8912 58.6649V51.7939C60.8912 51.2437 60.4453 50.7979 59.8952 50.7979H53.9539C53.4038 50.7979 52.9578 51.2437 52.9578 51.7939V58.6649C52.9578 59.2151 53.4038 59.661 53.9539 59.661ZM54.95 52.79H58.8991V57.6688H54.95V52.79Z" fill="black"/>
<path d="M34.0371 18.5733H34.8086C35.2456 18.5733 35.601 18.9289 35.601 19.3658C35.601 19.8028 35.2456 20.1582 34.8086 20.1582H34.0371C33.7078 20.1582 33.4178 19.96 33.2983 19.6533C33.0984 19.141 32.5209 18.8872 32.0082 19.0873C31.4957 19.2872 31.2423 19.8648 31.4422 20.3773C31.7865 21.2598 32.5325 21.8863 33.4267 22.0839V22.7052C33.4267 23.2555 33.8727 23.7013 34.4228 23.7013C34.9729 23.7013 35.4189 23.2555 35.4189 22.7052V22.0829C36.6617 21.8038 37.5931 20.6915 37.5931 19.3658C37.5931 17.8302 36.344 16.5811 34.8086 16.5811H34.0371C33.6001 16.5811 33.2447 16.2257 33.2447 15.7888C33.2447 15.3518 33.6001 14.9964 34.0371 14.9964H34.8086C35.1279 14.9964 35.4146 15.1865 35.5391 15.4806C35.7534 15.9873 36.3379 16.2245 36.8445 16.01C37.3512 15.7958 37.5882 15.2113 37.3739 14.7048C37.0182 13.8637 36.2845 13.2649 35.4189 13.0716V12.4495C35.4189 11.8992 34.9729 11.4534 34.4228 11.4534C33.8727 11.4534 33.4267 11.8992 33.4267 12.4495V13.0718C32.1838 13.3509 31.2524 14.4632 31.2524 15.7889C31.2524 17.3242 32.5016 18.5733 34.0371 18.5733Z" fill="black"/>
<path d="M68.226 47.2149L52.1309 25.5785C51.943 25.3259 51.6467 25.177 51.3317 25.177H45.7282C46.1196 24.5958 46.4658 23.9847 46.764 23.348C46.9973 22.8498 46.7826 22.2568 46.2844 22.0235C45.7864 21.7903 45.1931 22.0049 44.9599 22.5031C44.507 23.4699 43.9242 24.3676 43.2247 25.1768H40.2695C42.546 23.4213 44.015 20.6676 44.015 17.577C44.015 12.2879 39.712 7.98479 34.4228 7.98479C29.1335 7.98479 24.8305 12.2878 24.8305 17.577C24.8305 20.6676 26.2996 23.4213 28.5761 25.1768H25.6206C23.7947 23.0647 22.794 20.3826 22.794 17.577C22.794 11.165 28.0106 5.94837 34.4226 5.94837C40.8347 5.94837 46.0513 11.1649 46.0513 17.577C46.0513 17.8218 46.0436 18.0694 46.0285 18.3127C45.9942 18.8619 46.4115 19.3347 46.9605 19.3689C47.5083 19.4039 47.9824 18.986 48.0168 18.4369C48.0346 18.1522 48.0436 17.863 48.0436 17.5769C48.0436 10.0664 41.9333 3.95605 34.4228 3.95605C26.9122 3.95605 20.8019 10.0666 20.8019 17.5772C20.8019 20.3107 21.6131 22.9444 23.1171 25.177H18.9695C18.6692 25.177 18.3851 25.3124 18.1959 25.5455L0.645237 47.182C0.403253 47.4803 0.354378 47.8912 0.519597 48.2379C0.684815 48.5846 1.03478 48.8055 1.41887 48.8055H7.6325V64.0475C7.6325 64.5977 8.07849 65.0436 8.6286 65.0436H63.8795C64.4296 65.0436 64.8756 64.5977 64.8756 64.0475V48.8056H67.4267C67.8032 48.8056 68.1477 48.5933 68.3168 48.2567C68.4859 47.9203 68.4507 47.5172 68.226 47.2149ZM26.8227 17.5772C26.8227 13.3865 30.232 9.97711 34.4228 9.97711C38.6135 9.97711 42.0228 13.3865 42.0228 17.5772C42.0228 21.7434 38.6534 25.1373 34.4964 25.177H34.3492C30.1923 25.1373 26.8227 21.7434 26.8227 17.5772ZM19.4442 27.1692H30.9973L45.6102 46.8135H41.1147L29.4836 31.1777C29.2957 30.9251 28.9994 30.7762 28.6843 30.7762H21.6373C21.337 30.7762 21.0529 30.9117 20.8637 31.1448L8.15406 46.8135H3.50947L19.4442 27.1692ZM9.62469 48.1627L22.112 32.7684H28.1838L39.618 48.1395V63.0515H29.939V54.6014C29.939 51.6055 27.5017 49.1681 24.5057 49.1681C21.5097 49.1681 19.0723 51.6056 19.0723 54.6014V55.85C19.0723 56.4003 19.5183 56.8461 20.0684 56.8461C20.6185 56.8461 21.0645 56.4003 21.0645 55.85V54.6014C21.0645 52.704 22.6082 51.1603 24.5057 51.1603C26.4032 51.1603 27.9468 52.704 27.9468 54.6014V63.0515H21.0646V60.4985C21.0646 59.9482 20.6186 59.5024 20.0685 59.5024C19.5184 59.5024 19.0724 59.9482 19.0724 60.4985V63.0515H9.62469V48.1627ZM56.5217 46.8135C55.9716 46.8135 55.5256 47.2593 55.5256 47.8095C55.5256 48.3598 55.9716 48.8056 56.5217 48.8056H62.8834V63.0515H41.6103V48.8056H51.8733C52.4234 48.8056 52.8694 48.3598 52.8694 47.8095C52.8694 47.2593 52.4234 46.8135 51.8733 46.8135H48.0933L33.4803 27.1692H50.8314L65.4443 46.8135H56.5217Z" fill="black"/>
</g>
<defs>
<clipPath id="clip0_9111_1218">
<rect width="68" height="68" fill="white" transform="translate(0.422775 0.5)"/>
</clipPath>
</defs>
</svg>
