<svg width="63" height="63" viewBox="0 0 63 63" fill="none" xmlns="http://www.w3.org/2000/svg">
<g clip-path="url(#clip0_7286_183)">
<path d="M47.6292 45.0643H47.4292V45.2643V56.1136C47.4292 56.6785 46.9728 57.1349 46.4079 57.1349H13.9181C13.3527 57.1349 12.8963 56.6784 12.8963 56.1136V13.6149C12.8963 13.0495 13.3527 12.5931 13.9181 12.5931H55.8851C56.4499 12.5931 56.9064 13.0494 56.9064 13.6149V44.043C56.9064 44.6079 56.45 45.0643 55.8851 45.0643H47.6292ZM54.6632 43.0212H54.8632V42.8212V14.8362V14.6362H54.6632H15.1395H14.9395V14.8362V54.8917V55.0917H15.1395H45.1866H45.3866V54.8917V44.043C45.3866 43.4775 45.8431 43.0212 46.4079 43.0212H54.6632Z" fill="#5A5A5A" stroke="#F4F5F7" stroke-width="0.4"/>
<path d="M9.75541 14.6219C10.3091 14.6219 10.7613 14.1691 10.7613 13.616C10.7613 13.0623 10.3091 12.6101 9.75541 12.6101H6.97512C6.42202 12.6101 5.96924 13.0623 5.96924 13.616C5.96924 14.1691 6.42202 14.6219 6.97512 14.6219H7.34897V55.1088H6.97512C6.42202 55.1088 5.96924 55.561 5.96924 56.1147C5.96924 56.6678 6.42202 57.1206 6.97512 57.1206H9.75541C10.3091 57.1206 10.7613 56.6678 10.7613 56.1147C10.7613 55.561 10.3091 55.1088 9.75541 55.1088H9.35306V14.6219H9.75541Z" fill="#5A5A5A"/>
<path d="M13.9161 10.4601C14.4692 10.4601 14.922 10.0073 14.922 9.45366V9.0513H54.7188V9.45366C54.7188 10.0073 55.1715 10.4601 55.7246 10.4601C56.2783 10.4601 56.7305 10.0073 56.7305 9.45366V6.67336C56.7305 6.12026 56.2783 5.66748 55.7246 5.66748C55.1715 5.66748 54.7188 6.12026 54.7188 6.67336V7.04721H14.922V6.67336C14.922 6.12026 14.4692 5.66748 13.9161 5.66748C13.3625 5.66748 12.9097 6.12026 12.9097 6.67336V9.45366C12.9097 10.0073 13.3553 10.4601 13.9161 10.4601Z" fill="#5A5A5A"/>
</g>
<defs>
<clipPath id="clip0_7286_183">
<rect width="51.6667" height="51.6667" fill="white" transform="translate(5.6665 5.66675)"/>
</clipPath>
</defs>
</svg>
