<svg width="1432" height="546" viewBox="0 0 1432 546" fill="none" xmlns="http://www.w3.org/2000/svg">
<g opacity="0.2">
<path d="M164.861 273.365L132.323 260.002C132.323 260.002 121.086 287.313 92.5171 276.119C86.9679 274.074 82.1958 270.347 78.8669 265.459C75.538 260.571 73.8185 254.765 73.9485 248.852C73.9796 243.884 75.187 238.994 77.4719 234.583C79.7568 230.171 83.0542 226.364 87.094 223.472C96.335 216.639 112.192 212.431 132.518 225.316L162.301 152.907L130.132 139.675L112.474 182.626C112.474 182.626 62.5817 175.749 42.1693 225.446C22.6462 272.996 62.3865 302.259 84.5777 311.391C98.5693 317.118 141.889 331.001 164.861 273.365Z" fill="white"/>
<path d="M148.513 93.9514L135.983 124.427L168.625 137.848L181.155 107.372L148.513 93.9514Z" fill="white"/>
<path d="M153.842 268.853L121.303 255.49C121.303 255.49 110.067 282.779 81.4979 271.608C75.9505 269.56 71.1802 265.832 67.8517 260.944C64.5233 256.057 62.8025 250.252 62.9293 244.34C62.9611 239.37 64.1711 234.478 66.46 230.066C68.7489 225.655 72.0514 221.848 76.0965 218.96C85.3374 212.127 100.826 208.83 121.151 221.715L151.304 148.395L119.156 135.163L101.498 178.114C101.498 178.114 51.6059 171.237 31.15 220.869C11.627 268.419 49.7186 297.053 68.027 304.493C81.9317 310.241 130.935 326.402 153.842 268.853Z" fill="#DCD9F2"/>
<path d="M137.507 89.3655L124.978 119.841L157.62 133.262L170.15 102.786L137.507 89.3655Z" fill="#DCD9F2"/>
<path d="M530.884 504.096L510.732 505.766C510.732 505.766 512.142 522.686 494.571 524.465C491.189 524.864 487.767 524.201 484.779 522.569C481.79 520.936 479.383 518.415 477.89 515.354C476.596 512.807 475.922 509.99 475.922 507.133C475.922 504.276 476.596 501.459 477.89 498.912C480.84 492.99 487.868 486.677 501.643 487.935L497.934 443.032L477.977 444.703L480.146 471.319C480.146 471.319 452.792 480.885 455.352 511.688C457.803 541.168 485.851 545.745 499.604 544.596C508.389 543.945 534.225 539.606 530.884 504.096Z" fill="white"/>
<path d="M496.601 420.182L476.297 421.807L477.814 440.766L498.118 439.141L496.601 420.182Z" fill="white"/>
<path d="M524.052 504.616L503.878 506.308C503.878 506.308 505.288 523.228 487.718 524.985C484.34 525.394 480.919 524.738 477.932 523.108C474.946 521.479 472.542 518.958 471.058 515.896C469.764 513.349 469.09 510.532 469.09 507.675C469.09 504.818 469.764 502.001 471.058 499.453C474.008 493.531 481.08 487.783 494.919 489.041L491.145 443.487L471.21 445.158L473.379 471.774C473.379 471.774 446.025 481.319 448.585 512.143C451.036 541.623 478.043 546.287 489.344 545.333C498.065 544.704 527.393 540.17 524.052 504.616Z" fill="#DCD9F2"/>
<path d="M488.883 415.277L468.648 416.958L470.218 435.852L490.453 434.171L488.883 415.277Z" fill="#DCD9F2"/>
<path d="M817.236 98.5902L857.171 82.8199C857.171 82.8199 843.917 49.2836 878.538 34.9233C885.161 32.034 892.52 31.2837 899.589 32.7769C906.659 34.2701 913.086 37.9324 917.975 43.2531C922.145 47.6449 925.219 52.9601 926.946 58.7655C928.672 64.5708 929.003 70.702 927.91 76.6593C925.545 90.499 915.155 107.636 886.369 113.536L921.489 202.475L960.991 186.878L940.057 134.1C940.057 134.1 989.95 97.9177 965.785 36.8756C942.704 -21.5201 882.92 -13.6024 855.653 -2.82135C838.516 3.94665 788.645 28.4156 817.236 98.5902Z" fill="white"/>
<path d="M968.79 205.228L928.7 221.061L943.481 258.487L983.57 242.655L968.79 205.228Z" fill="white"/>
<path d="M801.227 104.88L841.184 89.11C841.184 89.11 827.93 55.5737 862.551 41.2134C869.167 38.3163 876.522 37.5556 883.592 39.037C890.661 40.5185 897.091 44.1684 901.988 49.4781C906.164 53.8798 909.241 59.2062 910.967 65.0229C912.694 70.8396 913.021 76.9821 911.923 82.9494C909.689 96.7891 898.842 112.798 869.992 118.698L905.567 208.743L945.047 193.146L924.222 140.391C924.222 140.391 973.963 104.208 949.841 43.2524C926.782 -15.3168 869.059 -8.11493 846.629 0.735529C829.427 7.50353 772.723 34.7057 801.227 104.88Z" fill="#DCD9F2"/>
<path d="M952.865 211.504L912.775 227.336L927.556 264.762L967.645 248.93L952.865 211.504Z" fill="#DCD9F2"/>
<path d="M493.321 51.8256C496.996 10.4045 466.329 -26.1589 424.824 -29.8412C383.32 -33.5235 346.695 -2.93017 343.02 38.4909C339.345 79.9119 370.012 116.475 411.516 120.158C453.021 123.84 489.646 93.2466 493.321 51.8256Z" fill="white"/>
<path d="M466.624 102.928L467.557 102.147L470.203 99.6528L472.156 97.8523C472.85 97.1799 473.544 96.3556 474.325 95.4879L476.82 92.7113C477.73 91.6275 478.584 90.498 479.379 89.3272C483.731 83.4573 487.155 76.9532 489.531 70.0428C492.777 60.9059 494.214 51.2248 493.761 41.5391C493.761 40.1942 493.609 38.8276 493.544 37.4609C493.479 36.0943 493.132 34.7277 492.937 33.3177C492.742 31.9077 492.59 30.5194 492.221 29.1311C491.852 27.7428 491.505 26.3328 491.158 24.7926L489.922 20.7796V20.5409C489.423 19.1309 488.902 17.6992 488.403 16.2025C487.904 14.7057 487.102 13.4259 486.451 12.0159C485.82 10.5746 485.095 9.17607 484.282 7.82924C482.698 5.02502 480.93 2.32923 478.989 -0.240288C477.991 -1.52013 477.058 -2.88675 475.974 -4.1449L471.31 -9.19921L470.811 -9.67645L468.902 -11.3684C467.6 -12.4748 466.342 -13.6678 464.997 -14.7524C462.232 -16.8872 459.334 -18.8435 456.32 -20.6094C453.214 -22.4227 449.989 -24.0243 446.667 -25.4034C444.954 -26.0758 443.196 -26.5964 441.461 -27.2255C440.593 -27.4858 439.726 -27.8546 438.836 -28.0715L435.973 -28.3318C433.05 -29.0772 430.078 -29.6136 427.079 -29.9371L422.545 -30.5011L417.665 -30.6963H416.233L413.326 -30.5444L410.419 -30.3709L407.534 -29.9588L404.628 -29.5032L403.174 -29.2863L401.743 -28.9392L391.092 -25.7071L390.354 -25.4468C382.824 -22.3955 375.796 -18.2272 369.508 -13.0821C363.333 -7.79121 357.994 -1.59667 353.672 5.29125L353.325 5.89863C351.937 8.65355 349.659 13.1439 348.249 15.8988L347.664 17.2437L347.186 18.632L346.232 21.5605L345.299 24.3371L344.648 27.1788L343.976 29.9988L343.651 31.4088L343 36.2462L342.588 40.7799C342.371 43.7839 342.371 46.7998 342.588 49.8039L342.739 52.5805C342.739 53.5133 343 54.4243 343.108 55.3354C343.412 57.1576 343.629 58.9797 343.998 60.7585C344.759 64.2809 345.767 67.7457 347.013 71.1274C348.254 74.4332 349.703 77.6573 351.351 80.7805C352.176 82.2989 353.13 83.7306 353.998 85.1189L355.321 87.2882L355.711 87.8522L359.855 93.3186C360.918 94.6202 362.024 95.7699 363.195 96.9846C365.378 99.3128 367.719 101.487 370.202 103.492C371.373 104.573 372.605 105.587 373.89 106.529C375.169 107.397 376.384 108.351 377.686 109.154L381.634 111.432L385.538 113.427L389.53 115.206C390.841 115.761 392.18 116.246 393.543 116.66C394.866 117.093 396.189 117.571 397.491 117.961L401.482 118.894C410.941 121.028 420.724 121.308 430.29 119.718C437.509 118.583 444.511 116.345 451.049 113.08C452.342 112.507 453.602 111.863 454.824 111.15L457.991 109.197C458.967 108.59 459.9 108.048 460.702 107.505L462.871 105.878L465.691 103.709C466.342 103.21 466.646 102.928 466.646 102.928L465.648 103.644L462.763 105.813C462.112 106.269 461.418 106.811 460.594 107.375C459.769 107.939 458.858 108.438 457.882 109.046L454.693 110.954C453.461 111.648 452.194 112.278 450.897 112.842C444.386 115.979 437.439 118.114 430.29 119.176C420.787 120.696 411.08 120.372 401.699 118.221L397.751 117.354C396.428 116.963 395.148 116.486 393.825 116.052C392.502 115.618 391.135 115.228 389.855 114.599L385.907 112.82L382.176 110.911H382.003L378.12 108.742C376.818 107.939 375.625 106.985 374.367 106.117C373.074 105.254 371.835 104.312 370.657 103.297C368.202 101.292 365.89 99.1174 363.738 96.7894C362.653 95.5963 361.568 94.4466 360.44 93.1668L356.341 87.722C356.205 87.5499 356.082 87.3687 355.972 87.1797L354.649 85.0105C353.803 83.5571 352.848 82.1471 352.045 80.672C350.451 77.5845 349.06 74.3962 347.881 71.1274C346.626 67.6969 345.618 64.181 344.865 60.6066C344.497 58.8496 344.301 57.0491 343.998 55.2486C343.889 54.3376 343.672 53.4482 343.629 52.5371L343.52 49.7605C343.282 46.0404 343.282 42.309 343.52 38.5889C343.781 36.7234 344.041 34.8579 344.28 32.9706L344.475 31.5606L344.8 30.1723L345.451 27.3957L346.123 24.5757L347.035 21.8425L347.967 19.0876L348.445 17.7209L349.03 16.376L354.128 6.37586L354.453 5.83356C362.894 -7.9688 375.616 -18.6335 390.679 -24.5357L391.374 -24.796L401.938 -27.9848L403.348 -28.3535L404.779 -28.5704L407.665 -29.0043L410.506 -29.4381L413.391 -29.59L416.255 -29.7418H417.686H419.096L424.758 -29.5249C428.462 -29.1428 432.136 -28.5123 435.756 -27.6377L438.446 -27.0086C439.335 -26.8134 440.181 -26.4446 441.049 -26.1843C442.763 -25.5769 444.52 -25.0563 446.19 -24.4055C449.483 -23.0409 452.679 -21.4537 455.756 -19.6549C458.775 -17.9291 461.674 -16.0013 464.433 -13.8848C465.778 -12.8218 467.015 -11.7155 468.295 -10.5441L470.203 -8.87383L470.681 -8.41829L475.301 -3.42906C476.386 -2.1926 477.319 -0.825986 478.316 0.432168C480.24 3.01976 481.994 5.7298 483.566 8.54509C484.362 9.88663 485.086 11.2697 485.735 12.6883C486.364 14.0766 487.102 15.4216 487.666 16.8316L489.184 21.0616C489.444 21.7557 489.705 22.4499 489.943 23.2308V23.426C490.464 25.4868 490.985 27.5259 491.505 29.5216C491.896 30.9099 491.982 32.3199 492.243 33.6865C492.503 35.0531 492.677 36.4414 492.85 37.7863C493.024 39.1312 493.002 40.4979 493.067 41.8211C493.559 51.4308 492.182 61.0447 489.011 70.1296C486.687 77.0112 483.33 83.4992 479.054 89.3706C478.143 90.5637 477.449 91.8002 476.538 92.7763L474.108 95.3143C473.349 96.182 472.676 97.0063 471.939 97.7005L470.03 99.5226L467.427 101.974C466.906 102.625 466.624 102.928 466.624 102.928Z" fill="#DCD9F2"/>
<path d="M482.48 144.491C481.224 146.156 479.565 147.476 477.659 148.324C475.753 149.172 473.663 149.521 471.585 149.339C469.506 149.157 467.509 148.449 465.779 147.282C464.05 146.115 462.646 144.527 461.699 142.668C460.657 140.632 460.21 138.343 460.409 136.064C460.609 133.784 461.447 131.608 462.827 129.783C464.811 127.273 467.698 125.637 470.87 125.223C474.043 124.809 477.253 125.651 479.814 127.568C482.376 129.485 484.089 132.327 484.586 135.488C485.084 138.648 484.329 141.879 482.48 144.491Z" fill="white"/>
<path d="M480.528 146.53C480.528 146.53 480.767 146.4 481.157 146.075C481.74 145.587 482.264 145.034 482.719 144.426C484.154 142.508 485.005 140.217 485.17 137.828C485.335 135.439 484.808 133.052 483.652 130.955C482.549 128.978 480.939 127.331 478.988 126.183C476.831 124.901 474.332 124.31 471.829 124.491C469.13 124.639 466.551 125.658 464.479 127.394C462.406 129.13 460.952 131.491 460.333 134.122C459.733 136.56 459.877 139.121 460.745 141.476C461.535 143.596 462.875 145.468 464.628 146.899C466.155 148.134 467.954 148.989 469.877 149.394C472.644 149.996 475.534 149.621 478.055 148.331C478.738 147.998 479.373 147.575 479.942 147.073C480.355 146.747 480.55 146.552 480.528 146.53C480.506 146.509 479.639 147.203 477.903 148.005C475.429 149.13 472.65 149.397 470.007 148.765C468.479 148.401 467.037 147.738 465.765 146.815C464.493 145.892 463.416 144.727 462.595 143.387C461.775 142.046 461.227 140.557 460.984 139.004C460.741 137.452 460.807 135.866 461.179 134.339C461.775 131.896 463.136 129.707 465.063 128.091C466.991 126.475 469.384 125.518 471.895 125.359C474.228 125.195 476.556 125.74 478.576 126.92C480.379 127.959 481.876 129.456 482.914 131.259C484.044 133.243 484.588 135.506 484.485 137.786C484.381 140.067 483.633 142.271 482.329 144.144C481.331 145.793 480.441 146.465 480.528 146.53Z" fill="#DCD9F2"/>
<path d="M395.06 32.7968H406.426C406.42 31.4976 406.675 30.2104 407.176 29.0116C407.677 27.8128 408.414 26.7269 409.342 25.8184C410.271 24.9099 411.373 24.1973 412.582 23.7229C413.792 23.2485 415.085 23.0221 416.383 23.057C418.302 22.9875 420.194 23.5186 421.796 24.5764C423.399 25.6341 424.631 27.1657 425.321 28.9573C425.918 30.4504 426.155 32.0636 426.012 33.6656C425.869 35.2676 425.35 36.8132 424.496 38.1765C422.566 41.3653 418.336 44.272 410.656 42.9271V68.6325H421.915V53.4479C426.543 52.0934 430.597 49.2557 433.454 45.3716C436.311 41.4874 437.813 36.772 437.728 31.9508C437.728 15.2694 422.782 11.4082 416.383 11.4082C411.502 11.5167 394.843 12.688 395.06 32.7968Z" fill="#DCD9F2"/>
<path d="M422.068 73.9258H410.636V84.6201H422.068V73.9258Z" fill="#DCD9F2"/>
<path d="M264.277 354.841H275.688C275.681 353.542 275.936 352.254 276.437 351.056C276.938 349.857 277.675 348.771 278.603 347.862C279.532 346.954 280.634 346.241 281.844 345.767C283.053 345.293 284.346 345.066 285.644 345.101C287.557 345.034 289.442 345.565 291.04 346.618C292.638 347.671 293.868 349.196 294.56 350.98C295.168 352.473 295.413 354.09 295.273 355.697C295.134 357.304 294.614 358.854 293.757 360.221C291.827 363.409 287.575 366.316 279.896 364.95V390.655H291.176V375.6C295.804 374.246 299.858 371.408 302.715 367.524C305.573 363.64 307.074 358.925 306.99 354.103C306.99 337.422 292.044 333.539 285.644 333.539C280.742 333.539 264.061 334.732 264.277 354.841Z" fill="#DCD9F2"/>
<path d="M291.306 395.97H279.874V406.664H291.306V395.97Z" fill="#DCD9F2"/>
<path d="M775.825 438.247L763.048 430.134C763.048 430.134 756.215 440.98 744.935 433.974C742.724 432.687 740.971 430.739 739.924 428.405C738.878 426.07 738.589 423.466 739.1 420.958C739.484 418.852 740.364 416.867 741.664 415.166C742.965 413.466 744.651 412.098 746.584 411.175C751.031 409.006 757.864 408.746 765.521 415.731L783.829 386.88L771.183 378.832L760.445 395.752C760.445 395.752 739.794 389.071 727.364 408.616C715.477 427.336 729.533 442.325 736.692 446.902C742.18 450.438 761.747 460.981 775.825 438.247Z" fill="#DCD9F2"/>
<path d="M782.445 360.887L774.827 372.881L787.663 381.033L795.281 369.039L782.445 360.887Z" fill="#DCD9F2"/>
<path d="M269.136 37.5693L258.528 41.7559C259.017 42.9598 259.258 44.2499 259.237 45.5492C259.215 46.8484 258.932 48.1299 258.403 49.3169C257.875 50.5039 257.112 51.5719 256.16 52.457C255.209 53.342 254.089 54.0259 252.867 54.4676C251.112 55.244 249.159 55.4523 247.28 55.0633C245.401 54.6743 243.691 53.7076 242.389 52.2984C241.28 51.1333 240.464 49.7213 240.007 48.1787C239.551 46.6362 239.468 45.0073 239.765 43.4262C240.394 39.7386 243.257 35.4869 250.914 33.925L241.457 10.0635L230.979 14.2067L236.511 28.0681C232.705 31.0308 229.977 35.1613 228.746 39.8249C227.516 44.4885 227.851 49.4271 229.699 53.8819C235.817 69.3919 251.153 67.5047 257.097 65.1619C261.652 63.4265 276.728 56.2681 269.136 37.5693Z" fill="#DCD9F2"/>
<path d="M235.821 -5.57353L225.189 -1.34375L229.146 8.60195L239.778 4.37217L235.821 -5.57353Z" fill="#DCD9F2"/>
<path d="M1264.31 396.532L1298.05 383.207C1298.05 383.207 1286.86 354.871 1316.11 342.738C1321.7 340.297 1327.92 339.663 1333.89 340.924C1339.87 342.186 1345.3 345.28 1349.43 349.776C1352.95 353.487 1355.55 357.978 1357.01 362.883C1358.47 367.788 1358.75 372.968 1357.82 378.002C1355.83 389.695 1347.05 404.175 1322.72 409.16L1352.4 484.307L1385.77 471.129L1368.09 426.535C1368.09 426.535 1410.24 395.964 1389.82 344.387C1370.32 295.047 1319.81 301.737 1296.77 310.846C1282.29 316.565 1240.15 337.239 1264.31 396.532Z" fill="white"/>
<path d="M1392.37 486.633L1358.49 500.01L1370.98 531.632L1404.85 518.255L1392.37 486.633Z" fill="white"/>
<path d="M1250.79 401.847L1284.55 388.522C1284.55 388.522 1273.35 360.186 1302.6 348.053C1308.19 345.605 1314.41 344.962 1320.38 346.214C1326.35 347.465 1331.78 350.549 1335.92 355.036C1339.45 358.755 1342.05 363.255 1343.51 368.17C1344.97 373.085 1345.24 378.275 1344.32 383.316C1342.43 395.01 1333.26 408.536 1308.89 413.522L1338.95 489.603L1372.3 476.425L1354.71 431.85C1354.71 431.85 1396.74 401.278 1376.35 349.775C1356.87 300.289 1308.1 306.374 1289.15 313.852C1274.61 319.57 1226.7 342.554 1250.79 401.847Z" fill="#DCD9F2"/>
<path d="M1378.91 491.936L1345.04 505.313L1357.52 536.936L1391.4 523.559L1378.91 491.936Z" fill="#DCD9F2"/>
<path d="M1425.03 105.334C1428.71 63.9131 1398.04 27.3496 1356.54 23.6673C1315.03 19.9851 1278.41 50.5784 1274.73 91.9994C1271.06 133.42 1301.72 169.984 1343.23 173.666C1384.73 177.348 1421.36 146.755 1425.03 105.334Z" fill="white"/>
<path d="M1398.33 156.437L1399.27 155.656L1401.91 153.161L1403.87 151.361C1404.56 150.688 1405.25 149.864 1406.03 148.996L1408.53 146.22C1409.44 145.136 1410.29 144.007 1411.09 142.836C1415.44 136.966 1418.87 130.462 1421.24 123.551C1424.49 114.414 1425.92 104.733 1425.47 95.0476C1425.47 93.7027 1425.32 92.3361 1425.25 90.9695C1425.19 89.6029 1424.84 88.2363 1424.65 86.8263C1424.45 85.4163 1424.3 84.028 1423.93 82.6396C1423.56 81.2513 1423.22 79.8413 1422.87 78.3012L1421.63 74.2881V74.0495C1421.13 72.6395 1420.61 71.2078 1420.11 69.711C1419.61 68.2143 1418.81 66.9344 1418.16 65.5244C1417.53 64.0831 1416.81 62.6846 1415.99 61.3378C1414.41 58.5336 1412.64 55.8378 1410.7 53.2683C1409.7 51.9884 1408.77 50.6218 1407.68 49.3636L1403.02 44.3093L1402.52 43.8321L1400.61 42.1401C1399.31 41.0338 1398.05 39.8407 1396.71 38.7561C1393.94 36.6213 1391.04 34.665 1388.03 32.8992C1384.92 31.0859 1381.7 29.4842 1378.38 28.1052C1376.66 27.4327 1374.91 26.9121 1373.17 26.283C1372.3 26.0227 1371.44 25.654 1370.55 25.437L1367.68 25.1767C1364.76 24.4314 1361.79 23.8949 1358.79 23.5715L1354.26 23.0075L1349.37 22.8123H1347.94L1345.04 22.9641L1342.13 23.1376L1339.24 23.5498L1336.34 24.0053L1334.88 24.2223L1333.45 24.5693L1322.8 27.8015L1322.06 28.0618C1314.53 31.113 1307.51 35.2813 1301.22 40.4264C1295.04 45.7173 1289.7 51.9119 1285.38 58.7998L1285.04 59.4072C1283.65 62.1621 1281.37 66.6524 1279.96 69.4073L1279.37 70.7523L1278.9 72.1406L1277.94 75.069L1277.01 77.8456L1276.36 80.6873L1275.69 83.5073L1275.36 84.9173L1274.71 89.7547L1274.3 94.2884C1274.08 97.2925 1274.08 100.308 1274.3 103.312L1274.45 106.089C1274.45 107.022 1274.71 107.933 1274.82 108.844C1275.12 110.666 1275.34 112.488 1275.71 114.267C1276.47 117.789 1277.48 121.254 1278.72 124.636C1279.96 127.942 1281.41 131.166 1283.06 134.289C1283.89 135.807 1284.84 137.239 1285.71 138.627L1287.03 140.797L1287.42 141.361L1291.56 146.827C1292.63 148.129 1293.73 149.278 1294.91 150.493C1297.09 152.821 1299.43 154.996 1301.91 157.001C1303.08 158.081 1304.31 159.095 1305.6 160.038C1306.88 160.905 1308.09 161.86 1309.4 162.663L1313.34 164.94L1317.25 166.936L1321.24 168.715C1322.55 169.269 1323.89 169.755 1325.25 170.168C1326.58 170.602 1327.9 171.079 1329.2 171.47L1333.19 172.402C1342.65 174.537 1352.43 174.816 1362 173.227C1369.22 172.092 1376.22 169.853 1382.76 166.589C1384.05 166.016 1385.31 165.371 1386.53 164.658L1389.7 162.706C1390.68 162.099 1391.61 161.556 1392.41 161.014L1394.58 159.387L1397.4 157.218C1398.05 156.719 1398.36 156.437 1398.36 156.437L1397.36 157.153L1394.47 159.322C1393.82 159.777 1393.13 160.32 1392.3 160.884C1391.48 161.448 1390.57 161.947 1389.59 162.554L1386.4 164.463C1385.17 165.157 1383.9 165.787 1382.61 166.35C1376.1 169.487 1369.15 171.623 1362 172.684C1352.5 174.204 1342.79 173.88 1333.41 171.73L1329.46 170.862C1328.14 170.472 1326.86 169.995 1325.53 169.561C1324.21 169.127 1322.84 168.736 1321.56 168.107L1317.62 166.329L1313.89 164.42H1313.71L1309.83 162.25C1308.53 161.448 1307.33 160.493 1306.08 159.626C1304.78 158.762 1303.54 157.821 1302.37 156.806C1299.91 154.801 1297.6 152.626 1295.45 150.298C1294.36 149.105 1293.28 147.955 1292.15 146.675L1288.05 141.231C1287.92 141.058 1287.79 140.877 1287.68 140.688L1286.36 138.519C1285.51 137.066 1284.56 135.656 1283.76 134.181C1282.16 131.093 1280.77 127.905 1279.59 124.636C1278.34 121.205 1277.33 117.69 1276.58 114.115C1276.21 112.358 1276.01 110.558 1275.71 108.757C1275.6 107.846 1275.38 106.957 1275.34 106.046L1275.23 103.269C1274.99 99.549 1274.99 95.8175 1275.23 92.0975C1275.49 90.2319 1275.75 88.3664 1275.99 86.4792L1276.18 85.0692L1276.51 83.6809L1277.16 80.9043L1277.83 78.0843L1278.74 75.351L1279.68 72.5961L1280.15 71.2295L1280.74 69.8846L1285.84 59.8844L1286.16 59.3421C1294.6 45.5397 1307.33 34.8751 1322.39 28.9729L1323.08 28.7126L1333.65 25.5238L1335.06 25.155L1336.49 24.9381L1339.37 24.5043L1342.22 24.0704L1345.1 23.9186L1347.96 23.7667H1349.4H1350.81L1356.47 23.9836C1360.17 24.3657 1363.85 24.9962 1367.47 25.8709L1370.16 26.4999C1371.05 26.6952 1371.89 27.0639 1372.76 27.3243C1374.47 27.9316 1376.23 28.4523 1377.9 29.103C1381.19 30.4676 1384.39 32.0548 1387.47 33.8536C1390.49 35.5795 1393.38 37.5072 1396.14 39.6238C1397.49 40.6867 1398.72 41.793 1400 42.9644L1401.91 44.6347L1402.39 45.0903L1407.01 50.0795C1408.1 51.3159 1409.03 52.6826 1410.03 53.9407C1411.95 56.5283 1413.7 59.2383 1415.28 62.0536C1416.07 63.3952 1416.8 64.7782 1417.44 66.1969C1418.07 67.5852 1418.81 68.9301 1419.38 70.3401L1420.89 74.5701C1421.15 75.2643 1421.41 75.9584 1421.65 76.7393V76.9346C1422.17 78.9953 1422.69 81.0344 1423.22 83.0301C1423.61 84.4184 1423.69 85.8284 1423.95 87.195C1424.21 88.5616 1424.39 89.9499 1424.56 91.2949C1424.73 92.6398 1424.71 94.0064 1424.78 95.3296C1425.27 104.939 1423.89 114.553 1420.72 123.638C1418.4 130.52 1415.04 137.008 1410.76 142.879C1409.85 144.072 1409.16 145.309 1408.25 146.285L1405.82 148.823C1405.06 149.691 1404.39 150.515 1403.65 151.209L1401.74 153.031L1399.14 155.482C1398.62 156.133 1398.33 156.437 1398.33 156.437Z" fill="#DCD9F2"/>
<path d="M1302.19 197.999C1300.93 199.665 1299.28 200.984 1297.37 201.832C1295.46 202.68 1293.37 203.03 1291.29 202.848C1289.22 202.665 1287.22 201.957 1285.49 200.791C1283.76 199.624 1282.36 198.036 1281.41 196.177C1280.37 194.14 1279.92 191.851 1280.12 189.572C1280.32 187.293 1281.16 185.116 1282.54 183.292C1284.52 180.782 1287.41 179.146 1290.58 178.732C1293.75 178.318 1296.96 179.159 1299.52 181.076C1302.09 182.994 1303.8 185.835 1304.3 188.996C1304.79 192.157 1304.04 195.387 1302.19 197.999Z" fill="white"/>
<path d="M1300.24 200.038C1300.24 200.038 1300.48 199.908 1300.87 199.583C1301.45 199.095 1301.97 198.542 1302.43 197.934C1303.86 196.016 1304.72 193.725 1304.88 191.336C1305.05 188.947 1304.52 186.56 1303.36 184.463C1302.26 182.486 1300.65 180.839 1298.7 179.691C1296.54 178.408 1294.04 177.818 1291.54 177.999C1288.84 178.147 1286.26 179.166 1284.19 180.902C1282.12 182.638 1280.66 184.998 1280.04 187.63C1279.44 190.068 1279.59 192.629 1280.46 194.984C1281.25 197.104 1282.59 198.976 1284.34 200.407C1285.87 201.642 1287.67 202.497 1289.59 202.901C1292.35 203.504 1295.25 203.129 1297.77 201.839C1298.45 201.506 1299.08 201.083 1299.65 200.58C1300.07 200.255 1300.26 200.06 1300.24 200.038C1300.22 200.016 1299.35 200.711 1297.61 201.513C1295.14 202.638 1292.36 202.905 1289.72 202.272C1288.19 201.908 1286.75 201.246 1285.48 200.323C1284.2 199.4 1283.13 198.235 1282.31 196.894C1281.49 195.554 1280.94 194.065 1280.7 192.512C1280.45 190.959 1280.52 189.374 1280.89 187.847C1281.49 185.404 1282.85 183.214 1284.77 181.599C1286.7 179.983 1289.1 179.026 1291.61 178.866C1293.94 178.703 1296.27 179.247 1298.29 180.428C1300.09 181.467 1301.59 182.963 1302.63 184.767C1303.75 186.75 1304.3 189.014 1304.2 191.294C1304.09 193.574 1303.34 195.779 1302.04 197.652C1301.04 199.301 1300.15 199.973 1300.24 200.038Z" fill="#DCD9F2"/>
<path d="M1326.77 86.3054H1338.14C1338.13 85.0062 1338.38 83.7189 1338.89 82.5201C1339.39 81.3214 1340.12 80.2355 1341.05 79.327C1341.98 78.4184 1343.08 77.7058 1344.29 77.2315C1345.5 76.7571 1346.79 76.5306 1348.09 76.5655C1350.01 76.496 1351.9 77.0272 1353.51 78.0849C1355.11 79.1427 1356.34 80.6742 1357.03 82.4658C1357.63 83.9589 1357.87 85.5721 1357.72 87.1741C1357.58 88.7761 1357.06 90.3217 1356.21 91.6851C1354.28 94.8738 1350.05 97.7806 1342.37 96.4357V122.141H1353.62V106.956C1358.25 105.602 1362.31 102.764 1365.16 98.8801C1368.02 94.9959 1369.52 90.2805 1369.44 85.4594C1369.44 68.778 1354.49 64.9167 1348.09 64.9167C1343.21 65.0252 1326.55 66.1966 1326.77 86.3054Z" fill="#DCD9F2"/>
<path d="M1353.78 127.434H1342.35V138.129H1353.78V127.434Z" fill="#DCD9F2"/>
</g>
</svg>
