<svg width="216" height="127" viewBox="0 0 216 127" fill="none" xmlns="http://www.w3.org/2000/svg">
<rect width="216" height="127" fill="#D7263D"/>
<g clip-path="url(#clip0_70_177)">
<g opacity="0.5">
<g opacity="0.7">
<path d="M146.296 7.34101C146.296 7.34101 143.468 11.5972 140.048 17.6574C135.889 25.0622 127.135 39.9666 115.445 38.938L99.1906 28.3794C99.1906 28.3794 105.375 27.7996 112.257 22.5341C118.395 17.8426 121.693 11.2758 123.152 8.28237C123.761 7.06517 124.504 5.45569 125.164 4.28124C126.268 2.33202 127.418 -0.299304 129.515 -3.42516L146.296 7.34101Z" fill="#EBEBEB"/>
<path d="M121.126 26.7523C118.755 23.9175 119.248 19.5928 122.233 17.0956C125.218 14.5984 129.557 14.8672 131.933 17.6991C134.309 20.531 133.806 24.8614 130.831 27.3529C127.856 29.8445 123.507 29.5813 121.126 26.7523Z" fill="#DCD9F2"/>
<path d="M123.191 21.0152L122.259 20.5368L122.64 19.7989L123.56 20.2577C123.929 19.6048 124.491 19.0815 125.168 18.7592L125.966 19.6883C125.43 19.9306 124.972 20.3197 124.647 20.8107L126.019 21.5401C126.666 20.832 127.437 20.0657 128.63 20.6888C129.507 21.1399 129.969 22.0994 129.509 23.3484L130.436 23.8169L130.055 24.5548L129.134 24.0961C128.83 24.6092 128.397 25.0336 127.877 25.3267L127.053 24.4322C127.451 24.2057 127.796 23.895 128.062 23.5218L126.655 22.7997C126.015 23.5098 125.256 24.2627 124.069 23.6368C123.213 23.1996 122.751 22.2528 123.191 21.0152ZM124.582 22.4024C124.876 22.5476 125.143 22.4196 125.428 22.1633L124.288 21.5753C124.228 21.7253 124.225 21.892 124.279 22.0443C124.333 22.1965 124.441 22.3238 124.582 22.4024ZM127.246 22.1764L128.433 22.8023C128.494 22.6426 128.493 22.4661 128.431 22.3069C128.37 22.1476 128.251 22.0168 128.099 21.9394C127.788 21.752 127.506 21.9012 127.231 22.1518L127.246 22.1764Z" fill="#EBEBEB"/>
<path d="M116.312 38.5426L116.449 38.542C116.78 38.5476 124.668 38.4991 132.472 27.5727C135.387 23.4895 137.966 19.176 140.182 14.675C141.622 11.8761 142.637 9.84065 144.188 8.30225L144.606 7.89039L129.61 -2.22715L129.38 -1.72738C129.313 -1.58337 122.624 12.6271 118.825 17.5421C115.824 21.4321 109.671 28.0737 102.543 28.7458L101.177 28.8786L116.312 38.5426ZM119.572 18.1207C122.315 14.5693 126.402 6.55056 128.624 1.99481C129.292 2.33941 130.067 2.4163 130.789 2.2098C131.512 2.00331 132.129 1.52898 132.514 0.88347L140.712 6.42698C140.483 6.7253 140.326 7.07227 140.252 7.44112C140.178 7.80998 140.191 8.19082 140.288 8.55421C140.481 9.25188 140.885 9.87276 141.445 10.332C140.774 11.441 140.098 12.736 139.327 14.2505C137.138 18.7133 134.585 22.9881 131.694 27.0316C127.775 32.5213 123.836 35.1038 121.218 36.3067C120.538 36.6199 119.837 36.8864 119.121 37.1043C118.515 36.4889 117.736 36.0722 116.888 35.9096C116.04 35.7469 115.162 35.8459 114.372 36.1934L105.926 30.7997C106.317 30.5345 106.706 29.9819 106.215 28.8816C112.117 26.8124 116.967 21.4806 119.572 18.1207Z" fill="#DCD9F2"/>
</g>
<g opacity="0.7">
<path d="M197 112.262C197 112.262 192.422 114.534 186.43 118.072C179.127 122.405 164.093 130.936 154.484 124.2L145.686 106.929C145.686 106.929 151.331 109.519 159.924 108.4C167.586 107.406 173.726 103.368 176.486 101.505C177.622 100.755 179.07 99.7329 180.228 99.0457C182.16 97.9098 184.471 96.206 187.85 94.5476L197 112.262Z" fill="#EBEBEB"/>
<path d="M165.496 116.487C164.86 112.847 167.45 109.348 171.283 108.678C175.117 108.008 178.74 110.41 179.382 114.051C180.024 117.691 177.423 121.19 173.601 121.86C169.778 122.53 166.143 120.128 165.496 116.487Z" fill="#DCD9F2"/>
<path d="M170.153 112.552L169.585 111.671L170.284 111.223L170.852 112.08C171.498 111.699 172.245 111.527 172.993 111.586L173.22 112.79C172.634 112.732 172.043 112.84 171.516 113.103L172.34 114.42C173.254 114.131 174.305 113.852 175.026 114.988C175.56 115.817 175.48 116.879 174.458 117.731L175.026 118.6L174.328 119.049L173.76 118.191C173.24 118.484 172.652 118.635 172.056 118.629L171.789 117.442C172.247 117.445 172.701 117.348 173.118 117.158L172.26 115.829C171.351 116.124 170.318 116.397 169.602 115.261C169.08 114.454 169.154 113.404 170.153 112.552ZM170.664 114.449C170.846 114.721 171.141 114.744 171.516 114.664L170.823 113.585C170.696 113.685 170.61 113.828 170.581 113.987C170.552 114.146 170.581 114.31 170.664 114.449ZM173.084 115.584L173.799 116.72C173.932 116.612 174.019 116.459 174.045 116.29C174.072 116.122 174.034 115.949 173.941 115.806C173.765 115.488 173.447 115.477 173.084 115.556V115.584Z" fill="#EBEBEB"/>
<path d="M155.432 124.291L155.551 124.359C155.835 124.529 162.69 128.431 174.912 122.871C179.479 120.792 183.868 118.346 188.038 115.556C190.684 113.852 192.581 112.597 194.694 112.04L195.262 111.893L187.333 95.6323L186.885 95.9504C186.754 96.0412 173.856 105.003 168.108 107.36C163.565 109.229 154.915 111.904 148.406 108.922L147.157 108.354L155.432 124.291ZM168.466 108.235C172.618 106.531 180.166 101.63 184.369 98.7958C184.775 99.4282 185.407 99.882 186.136 100.065C186.866 100.247 187.637 100.145 188.293 99.7783L192.621 108.678C192.273 108.822 191.964 109.044 191.716 109.326C191.467 109.609 191.287 109.945 191.19 110.308C191.009 111.009 191.048 111.749 191.303 112.426C190.168 113.051 188.935 113.835 187.51 114.761C183.383 117.531 179.035 119.957 174.509 122.013C168.37 124.808 163.667 125.075 160.799 124.808C160.053 124.739 159.313 124.619 158.584 124.45C158.367 123.614 157.901 122.864 157.248 122.299C156.594 121.734 155.785 121.381 154.926 121.286L150.309 112.392C150.78 112.358 151.394 112.074 151.519 110.876C157.664 112.035 164.53 109.842 168.466 108.235Z" fill="#DCD9F2"/>
</g>
<path d="M135.727 103L136.121 103.659C136.558 104.392 137.192 104.988 137.951 105.379L138.647 105.718L137.988 106.112C137.255 106.549 136.659 107.183 136.267 107.942L135.929 108.637L135.526 107.979C135.092 107.243 134.457 106.646 133.696 106.258L133 105.919L133.659 105.517C134.395 105.083 134.992 104.448 135.379 103.686L135.727 103Z" fill="#332778" fill-opacity="0.5"/>
<path d="M42.9319 119L43.2107 119.468C43.5207 119.988 43.9699 120.411 44.5073 120.688L45 120.929L44.5332 121.208C44.014 121.518 43.5918 121.968 43.3144 122.506L43.0746 123L42.7893 122.532C42.4818 122.01 42.032 121.587 41.4927 121.312L41 121.071L41.4668 120.786C41.988 120.478 42.4108 120.027 42.6856 119.487L42.9319 119Z" fill="#332778" fill-opacity="0.5"/>
<path d="M86.9319 30L87.2107 30.4675C87.5207 30.9876 87.9699 31.4105 88.5073 31.6883L89 31.9286L88.5332 32.2078C88.014 32.5183 87.5918 32.9682 87.3144 33.5065L87.0746 34L86.7893 33.5325C86.4818 33.0104 86.032 32.5869 85.4927 32.3117L85 32.0714L85.4668 31.7857C85.988 31.4777 86.4108 31.0272 86.6856 30.487L86.9319 30Z" fill="#332778" fill-opacity="0.5"/>
<path d="M20.9319 21L21.2107 21.4675C21.5207 21.9876 21.9699 22.4105 22.5073 22.6883L23 22.9286L22.5332 23.2078C22.014 23.5183 21.5918 23.9682 21.3144 24.5065L21.0746 25L20.7893 24.5325C20.4818 24.0104 20.032 23.5869 19.4927 23.3117L19 23.0714L19.4668 22.7857C19.988 22.4777 20.4108 22.0272 20.6856 21.487L20.9319 21Z" fill="#332778" fill-opacity="0.5"/>
<path opacity="0.7" d="M169.229 22L169.623 22.6589C170.06 23.392 170.694 23.9879 171.453 24.3795L172.149 24.7181L171.49 25.1116C170.757 25.5493 170.161 26.1833 169.769 26.9419L169.431 27.6375L169.028 26.9786C168.594 26.2427 167.959 25.6459 167.197 25.258L166.502 24.9194L167.161 24.5167C167.897 24.0826 168.494 23.4477 168.881 22.6864L169.229 22Z" fill="#332778" fill-opacity="0.5"/>
<path d="M21.7272 109L22.1207 109.659C22.5584 110.392 23.1924 110.988 23.9511 111.379L24.6466 111.718L23.9877 112.112C23.2547 112.549 22.6587 113.183 22.2672 113.942L21.9286 114.637L21.5259 113.979C21.0917 113.243 20.4568 112.646 19.6955 112.258L19 111.919L19.6589 111.517C20.3948 111.083 20.9916 110.448 21.3795 109.686L21.7272 109Z" fill="#332778" fill-opacity="0.5"/>
</g>
</g>
<defs>
<clipPath id="clip0_70_177">
<rect width="216" height="127" fill="white"/>
</clipPath>
</defs>
</svg>
